<svg width="451" height="450" viewBox="0 0 451 450" fill="none" xmlns="http://www.w3.org/2000/svg">
<path d="M370.883 13.7588H77.4141V265.099H370.883V13.7588Z" fill="#2C2A72"/>
<path d="M363.546 20.041H84.75V258.814H363.546V20.041Z" fill="white"/>
<path d="M371.26 264.406H77.0117V272.917H371.26V264.406Z" fill="#3D3B88"/>
<path d="M388.283 5.67383H61.6094V30.3559H388.283V5.67383Z" fill="#D5D5D5"/>
<path d="M388.283 5.67383H61.6094V22.9948H388.283V5.67383Z" fill="#C0C0C0"/>
<path opacity="0.34" d="M308.235 9.50391H72.3509C71.1194 9.50391 70.1211 10.5517 70.1211 11.8443C70.1211 13.1368 71.1194 14.1846 72.3509 14.1846H308.235C309.467 14.1846 310.465 13.1368 310.465 11.8443C310.465 10.5517 309.467 9.50391 308.235 9.50391Z" fill="white"/>
<path d="M70.5253 5.39062H66.2031V30.0727H70.5253V5.39062Z" fill="#D5D5D5"/>
<path d="M382.338 5.39062H378.016V30.0727H382.338V5.39062Z" fill="#D5D5D5"/>
<path d="M396.119 7.89688V26.7154C396.184 27.726 396.05 28.7398 395.726 29.6938C395.402 30.6478 394.894 31.5218 394.235 32.2616C393.577 33.0013 392.78 33.591 391.895 33.9942C391.01 34.3974 390.056 34.6055 389.091 34.6055C388.126 34.6055 387.172 34.3974 386.287 33.9942C385.402 33.591 384.605 33.0013 383.946 32.2616C383.287 31.5218 382.78 30.6478 382.456 29.6938C382.132 28.7398 381.998 27.726 382.063 26.7154V7.89688C382 5.87204 382.705 3.90376 384.022 2.42347C385.339 0.943186 387.162 0.0716816 389.09 0C390.026 0.00420879 390.95 0.211948 391.806 0.610114C392.661 1.00828 393.429 1.58824 394.06 2.3134C395.395 3.83353 396.131 5.82905 396.119 7.89688Z" fill="#161C2D"/>
<path d="M396.119 7.89688V17.3053C396.184 18.3159 396.05 19.3296 395.726 20.2836C395.402 21.2377 394.894 22.1117 394.235 22.8514C393.577 23.5911 392.78 24.1809 391.895 24.5841C391.01 24.9873 390.056 25.1953 389.091 25.1953C388.126 25.1953 387.172 24.9873 386.287 24.5841C385.402 24.1809 384.605 23.5911 383.946 22.8514C383.287 22.1117 382.78 21.2377 382.456 20.2836C382.132 19.3296 381.998 18.3159 382.063 17.3053V7.89688C382 5.87204 382.705 3.90376 384.022 2.42347C385.339 0.943186 387.162 0.0716816 389.09 0C390.026 0.00420879 390.95 0.211948 391.806 0.610114C392.661 1.00828 393.429 1.58824 394.06 2.3134C395.395 3.83353 396.131 5.82905 396.119 7.89688Z" fill="#3D3B88"/>
<path d="M67.8263 7.89688V26.7154C67.8907 27.726 67.7568 28.7398 67.4327 29.6938C67.1087 30.6478 66.6015 31.5218 65.9425 32.2616C65.2836 33.0013 64.4869 33.591 63.602 33.9942C62.717 34.3974 61.7626 34.6055 60.798 34.6055C59.8333 34.6055 58.8789 34.3974 57.9939 33.9942C57.109 33.591 56.3123 33.0013 55.6534 32.2616C54.9944 31.5218 54.4872 30.6478 54.1632 29.6938C53.8391 28.7398 53.7052 27.726 53.7696 26.7154V7.89688C53.707 5.87204 54.4116 3.90376 55.7289 2.42347C57.0463 0.943186 58.8688 0.0716816 60.7971 0C61.7328 0.00420879 62.6575 0.211948 63.5129 0.610114C64.3683 1.00828 65.1358 1.58824 65.7671 2.3134C67.1022 3.83353 67.8382 5.82905 67.8263 7.89688Z" fill="#161C2D"/>
<path d="M67.8263 7.89688V17.3053C67.8907 18.3159 67.7568 19.3296 67.4327 20.2836C67.1087 21.2377 66.6015 22.1117 65.9425 22.8514C65.2836 23.5911 64.4869 24.1809 63.602 24.5841C62.717 24.9873 61.7626 25.1953 60.798 25.1953C59.8333 25.1953 58.8789 24.9873 57.9939 24.5841C57.109 24.1809 56.3123 23.5911 55.6534 22.8514C54.9944 22.1117 54.4872 21.2377 54.1632 20.2836C53.8391 19.3296 53.7052 18.3159 53.7696 17.3053V7.89688C53.707 5.87204 54.4116 3.90376 55.7289 2.42347C57.0463 0.943186 58.8688 0.0716816 60.7971 0C61.7328 0.00420879 62.6575 0.211948 63.5129 0.610114C64.3683 1.00828 65.1358 1.58824 65.7671 2.3134C67.1022 3.83353 67.8382 5.82905 67.8263 7.89688Z" fill="#3D3B88"/>
<path d="M104.93 227.525L118.537 217.317C120.968 215.398 123.914 214.335 126.955 214.278C129.996 214.222 132.976 215.175 135.47 217.002C137.831 218.734 140.632 219.683 143.512 219.726C146.392 219.769 149.218 218.904 151.625 217.244L167.122 206.807C170.193 204.694 173.917 203.89 177.534 204.56L183.498 205.687C195.157 207.862 207.174 205.678 217.459 199.516L224.809 195.187V227.529H104.93V227.525Z" fill="#D93838"/>
<path d="M103.766 227.525H228.059V192.41" stroke="#3D3B88" stroke-width="2.421" stroke-miterlimit="10" stroke-linecap="round"/>
<path d="M104.93 181.804L118.537 171.595C120.968 169.676 123.914 168.612 126.955 168.555C129.995 168.499 132.976 169.452 135.47 171.278C137.831 173.01 140.632 173.959 143.512 174.002C146.392 174.045 149.218 173.181 151.625 171.52L167.122 161.084C170.193 158.97 173.917 158.166 177.534 158.837L183.498 159.964C195.157 162.138 207.174 159.954 217.459 153.792L224.809 149.463V181.807H104.93V181.804Z" fill="#2C2A72"/>
<path d="M103.766 181.801H228.059V146.687" stroke="#3D3B88" stroke-width="2.421" stroke-miterlimit="10" stroke-linecap="round"/>
<path d="M116.344 69.4033H106.711V114.692H116.344V69.4033Z" fill="#9995A7"/>
<path d="M133.254 49.8281H123.621V114.69H133.254V49.8281Z" fill="#9995A7"/>
<path d="M150.165 78.6133H140.531V114.69H150.165V78.6133Z" fill="#9995A7"/>
<path d="M150.165 73.6367H140.531V78.6131H150.165V73.6367Z" fill="#2C2A72"/>
<path d="M116.344 58.1582H106.711V69.4034H116.344V58.1582Z" fill="#2C2A72"/>
<path d="M167.071 42.5361H157.438V114.692H167.071V42.5361Z" fill="#9995A7"/>
<path d="M184.122 69.4033H174.488V114.692H184.122V69.4033Z" fill="#9995A7"/>
<path d="M201.032 92.0469H191.398V114.692H201.032V92.0469Z" fill="#9995A7"/>
<path d="M112.791 120.662H110.264C108.302 120.662 106.711 122.333 106.711 124.393C106.711 126.454 108.302 128.124 110.264 128.124H112.791C114.753 128.124 116.344 126.454 116.344 124.393C116.344 122.333 114.753 120.662 112.791 120.662Z" fill="#3D3B88"/>
<path d="M129.701 120.662H127.175C125.212 120.662 123.621 122.333 123.621 124.393C123.621 126.454 125.212 128.124 127.175 128.124H129.701C131.664 128.124 133.254 126.454 133.254 124.393C133.254 122.333 131.664 120.662 129.701 120.662Z" fill="#3D3B88"/>
<path d="M146.611 120.662H144.085C142.122 120.662 140.531 122.333 140.531 124.393C140.531 126.454 142.122 128.124 144.085 128.124H146.611C148.574 128.124 150.165 126.454 150.165 124.393C150.165 122.333 148.574 120.662 146.611 120.662Z" fill="#3D3B88"/>
<path d="M163.517 120.662H160.991C159.028 120.662 157.438 122.333 157.438 124.393C157.438 126.454 159.028 128.124 160.991 128.124H163.517C165.48 128.124 167.071 126.454 167.071 124.393C167.071 122.333 165.48 120.662 163.517 120.662Z" fill="#3D3B88"/>
<path d="M180.568 120.662H178.042C176.079 120.662 174.488 122.333 174.488 124.393C174.488 126.454 176.079 128.124 178.042 128.124H180.568C182.531 128.124 184.122 126.454 184.122 124.393C184.122 122.333 182.531 120.662 180.568 120.662Z" fill="#3D3B88"/>
<path d="M197.478 120.662H194.952C192.989 120.662 191.398 122.333 191.398 124.393C191.398 126.454 192.989 128.124 194.952 128.124H197.478C199.441 128.124 201.032 126.454 201.032 124.393C201.032 122.333 199.441 120.662 197.478 120.662Z" fill="#3D3B88"/>
<path d="M201.032 87.0703H191.398V99.7366H201.032V87.0703Z" fill="#2C2A72"/>
<path d="M284.651 80.6931H316.93C316.931 86.8268 315.346 92.8456 312.344 98.1077C309.343 103.37 305.037 107.678 299.887 110.573C294.737 113.469 288.935 114.842 283.1 114.547C277.265 114.253 271.615 112.301 266.754 108.9C261.892 105.5 258 100.777 255.494 95.237C252.987 89.6966 251.959 83.546 252.52 77.4406C253.081 71.3353 255.209 65.5042 258.678 60.569C262.147 55.6338 266.827 51.7795 272.218 49.417L284.651 80.6931Z" fill="#EAA64F"/>
<path d="M316.685 120.749H256.039C255.364 120.749 254.816 121.324 254.816 122.033C254.816 122.742 255.364 123.316 256.039 123.316H316.685C317.361 123.316 317.908 122.742 317.908 122.033C317.908 121.324 317.361 120.749 316.685 120.749Z" fill="#3D3B88"/>
<path d="M294.577 125.884H256.039C255.364 125.884 254.816 126.459 254.816 127.167C254.816 127.876 255.364 128.451 256.039 128.451H294.577C295.253 128.451 295.8 127.876 295.8 127.167C295.8 126.459 295.253 125.884 294.577 125.884Z" fill="#3D3B88"/>
<path d="M304.782 150.358H251.836V153.762H304.782V150.358Z" fill="#2C2A72"/>
<path d="M334.517 158.02H251.836V161.424H334.517V158.02Z" fill="#2C2A72"/>
<path d="M307.534 165.678H251.836V169.082H307.534V165.678Z" fill="#2C2A72"/>
<path d="M248.456 152.061C248.5 152.62 248.383 153.179 248.119 153.667C247.855 154.154 247.457 154.546 246.977 154.792C246.497 155.038 245.958 155.126 245.43 155.044C244.901 154.963 244.409 154.716 244.017 154.336C243.624 153.955 243.351 153.46 243.231 152.913C243.112 152.367 243.152 151.795 243.347 151.274C243.543 150.752 243.883 150.304 244.325 149.989C244.766 149.674 245.288 149.506 245.822 149.508C246.494 149.481 247.148 149.735 247.642 150.213C248.135 150.692 248.428 151.356 248.456 152.061Z" fill="#3D3B88"/>
<path d="M248.456 160.572C248.5 161.131 248.383 161.69 248.119 162.177C247.855 162.665 247.457 163.057 246.977 163.303C246.497 163.549 245.958 163.637 245.43 163.555C244.901 163.474 244.409 163.227 244.017 162.846C243.624 162.466 243.351 161.97 243.231 161.424C243.112 160.878 243.152 160.306 243.347 159.784C243.543 159.263 243.883 158.815 244.325 158.5C244.766 158.185 245.288 158.017 245.822 158.019C246.494 157.992 247.148 158.245 247.642 158.724C248.135 159.203 248.428 159.867 248.456 160.572Z" fill="#3D3B88"/>
<path d="M248.456 168.233C248.5 168.792 248.383 169.351 248.119 169.839C247.855 170.326 247.457 170.718 246.977 170.964C246.497 171.21 245.958 171.298 245.43 171.216C244.901 171.135 244.409 170.888 244.017 170.507C243.624 170.127 243.351 169.631 243.231 169.085C243.112 168.539 243.152 167.967 243.347 167.445C243.543 166.924 243.883 166.476 244.325 166.161C244.766 165.846 245.288 165.678 245.822 165.68C246.494 165.653 247.148 165.906 247.642 166.385C248.135 166.864 248.428 167.528 248.456 168.233Z" fill="#3D3B88"/>
<path d="M245.617 182.701H310.465" stroke="#3D3B88" stroke-width="1.289" stroke-miterlimit="10" stroke-linecap="round"/>
<path d="M245.617 197.452H333.973" stroke="#3D3B88" stroke-width="1.289" stroke-miterlimit="10" stroke-linecap="round"/>
<path d="M245.617 187.618H293.037" stroke="#3D3B88" stroke-width="1.289" stroke-miterlimit="10" stroke-linecap="round"/>
<path d="M245.617 192.536H335.189" stroke="#3D3B88" stroke-width="1.289" stroke-miterlimit="10" stroke-linecap="round"/>
<path d="M245.617 203.129H310.465" stroke="#3D3B88" stroke-width="1.289" stroke-miterlimit="10" stroke-linecap="round"/>
<path d="M245.617 217.882H333.973" stroke="#3D3B88" stroke-width="1.289" stroke-miterlimit="10" stroke-linecap="round"/>
<path d="M245.617 208.047H293.037" stroke="#3D3B88" stroke-width="1.289" stroke-miterlimit="10" stroke-linecap="round"/>
<path d="M245.617 212.965H335.189" stroke="#3D3B88" stroke-width="1.289" stroke-miterlimit="10" stroke-linecap="round"/>
<path opacity="0.39" d="M363.964 30.3564H83.4961V39.8014H363.964V30.3564Z" fill="#C0C0C0"/>
<path opacity="0.7" d="M356.764 450H441.607C445.313 450 448.316 446.846 448.316 442.955V442.954C448.316 439.063 445.313 435.909 441.607 435.909H356.764C353.058 435.909 350.054 439.063 350.054 442.954V442.955C350.054 446.846 353.058 450 356.764 450Z" fill="#9995A7"/>
<path opacity="0.7" d="M18.0881 449.273H221.791C225.496 449.273 228.5 446.119 228.5 442.229V442.227C228.5 438.337 225.496 435.183 221.791 435.183H18.0881C14.3826 435.183 11.3787 438.337 11.3787 442.227V442.229C11.3787 446.119 14.3826 449.273 18.0881 449.273Z" fill="#9995A7"/>
<path d="M203.737 443.748H216.367L216.367 300.081H203.737L203.737 443.748Z" fill="#8C8C8C"/>
<path d="M83.2174 443.748H95.8477L95.8477 300.081H83.2174L83.2174 443.748Z" fill="#8C8C8C"/>
<path d="M60.6901 287.032H214.876C218.417 287.032 221.814 288.509 224.318 291.139C226.823 293.768 228.23 297.335 228.23 301.054V304.948H47.3359V301.054C47.3359 297.335 48.7429 293.768 51.2473 291.139C53.7517 288.509 57.1484 287.032 60.6901 287.032Z" fill="#0A1F44"/>
<path d="M90.3404 335.095H27.1875V348.356H90.3404V335.095Z" fill="#8C8C8C"/>
<path d="M214.505 335.095H146.391V348.356H214.505V335.095Z" fill="#8C8C8C"/>
<path d="M142.163 443.748H154.793L154.793 300.081H142.163L142.163 443.748Z" fill="#C6C6C6"/>
<path d="M21.6432 443.748H34.2734L34.2734 300.081H21.6432L21.6432 443.748Z" fill="#C6C6C6"/>
<path d="M13.8503 287.032H152.245C155.786 287.032 159.183 288.509 161.687 291.139C164.192 293.768 165.599 297.335 165.599 301.054V304.948H0.496094V301.054C0.496094 297.335 1.90305 293.768 4.40745 291.139C6.91184 288.509 10.3085 287.032 13.8503 287.032Z" fill="#E48867"/>
<path d="M312.718 156.168L318.894 165.526C319.068 165.765 319.196 166.038 319.27 166.329C319.343 166.62 319.361 166.924 319.323 167.222C319.285 167.521 319.191 167.808 319.046 168.069C318.902 168.329 318.71 168.557 318.482 168.739L318.316 168.862C317.817 169.177 317.22 169.274 316.654 169.132C316.087 168.991 315.596 168.622 315.284 168.106L309.108 158.748C308.934 158.509 308.807 158.236 308.733 157.944C308.66 157.653 308.641 157.35 308.68 157.051C308.718 156.753 308.812 156.465 308.956 156.205C309.101 155.945 309.293 155.717 309.521 155.535L309.687 155.412C310.186 155.097 310.783 155 311.349 155.142C311.916 155.283 312.407 155.651 312.718 156.168Z" fill="#F4A891"/>
<path d="M311.539 177.686C311.539 177.686 305.495 173.529 303.721 172.378C300.289 170.148 299.041 168.156 300.033 165.711L303.335 161.482C305.502 159.456 306.625 158.614 308.943 159.691L316.575 163.234C317.693 163.76 318.57 164.725 319.02 165.921C319.47 167.118 319.457 168.452 318.984 169.638L316.996 174.522C316.012 176.968 313.858 178.763 311.539 177.686Z" fill="#F4A891"/>
<path d="M305.581 162.357L297.835 156.544C296.557 155.645 295.954 154.194 296.496 153.317C297.038 152.448 298.525 152.46 299.809 153.359L307.556 159.172C308.833 160.072 309.436 161.522 308.894 162.399C308.346 163.277 306.857 163.26 305.581 162.357Z" fill="#F4A891"/>
<path d="M301.464 164.884L293.717 159.071C292.44 158.171 291.837 156.721 292.379 155.844C292.92 154.974 294.408 154.988 295.692 155.886L303.438 161.699C304.716 162.598 305.319 164.051 304.777 164.926C304.227 165.8 302.738 165.781 301.464 164.884Z" fill="#F4A891"/>
<path d="M301.136 170.243L293.389 164.43C292.112 163.531 291.509 162.08 292.051 161.203C292.592 160.333 294.08 160.346 295.364 161.245L303.11 167.058C304.389 167.956 304.991 169.408 304.449 170.285C303.902 171.161 302.413 171.142 301.136 170.243Z" fill="#F4A891"/>
<path d="M344.57 193.908C340.863 193.213 337.24 192.095 333.764 190.573C331.901 189.76 330.088 188.823 328.338 187.768L309.274 176.256C308.209 175.632 307.365 174.663 306.867 173.494C306.437 172.362 306.316 171.127 306.515 169.927C306.715 168.726 307.227 167.608 307.996 166.695C310.549 163.378 313.545 164.863 316.798 166.831L335.318 176.648C339.131 178.575 343.182 179.935 347.353 180.687C357.858 182.451 368.624 180.592 378.038 175.388L393.758 166.928C397.526 164.898 401.963 165.912 403.663 169.189C405.362 172.466 403.694 176.77 399.925 178.796L384.202 187.262C372.034 193.952 358.118 196.285 344.57 193.908Z" fill="#F4A891"/>
<path d="M349.946 181.24L347.166 194.459C343.462 193.901 339.828 192.919 336.328 191.53L342.655 179.575L349.946 181.24Z" fill="#F4A891"/>
<path d="M352.22 179.485L349.848 187.217L344.546 188.529L348.908 192.061L347.667 196.42L340.102 194.559L345.371 177.61L352.22 179.485Z" fill="#161C2D"/>
<path d="M439.489 92.4132C445.569 86.3893 445.847 76.3307 440.11 69.9467C434.373 63.5628 424.793 63.2709 418.712 69.2949C412.632 75.3188 412.354 85.3774 418.091 91.7613C423.829 98.1453 433.409 98.4372 439.489 92.4132Z" fill="#232323"/>
<path d="M423.668 134.554C423.504 132.642 423.471 130.72 423.567 128.802C423.608 118.926 423.65 99.6793 420.981 98.213C413.648 94.1881 383.872 116.157 382.04 107.526C381.601 105.473 381.372 103.377 381.355 101.273C381.355 100.827 381.355 100.382 381.374 99.9437C381.575 93.761 383.609 87.7983 387.192 82.8872V82.8768C389.946 79.0909 393.524 76.0537 397.627 74.0202C401.73 71.9866 406.238 71.016 410.772 71.1897C411.206 71.2037 411.634 71.2332 412.066 71.2645C417.598 71.6599 422.91 73.6899 427.389 77.1202C431.868 80.5504 435.332 85.241 437.38 90.6501C438.722 94.261 439.439 98.0945 439.497 101.97C439.986 126.743 426.451 130.135 423.668 134.554Z" fill="#DB734C"/>
<path d="M423.67 134.554C423.507 132.641 423.473 130.719 423.569 128.801L423.781 128.008C429.871 123.328 434.175 116.525 435.922 108.816C437.451 102.903 437.948 96.7482 437.39 90.6494C438.732 94.2603 439.449 98.0938 439.507 101.969C439.983 126.744 426.456 130.136 423.67 134.554Z" fill="#232323"/>
<path d="M411.434 175.127C409.368 174.895 407.473 173.811 406.168 172.113C404.862 170.415 404.253 168.242 404.473 166.073L408.115 130.214C408.337 128.045 409.37 126.058 410.987 124.689C412.604 123.32 414.672 122.681 416.738 122.912C418.803 123.143 420.697 124.226 422.002 125.922C423.308 127.619 423.918 129.79 423.7 131.959L420.058 167.818C419.837 169.987 418.805 171.976 417.188 173.347C415.571 174.718 413.501 175.358 411.434 175.127V175.127Z" fill="#F4A891"/>
<path d="M426.077 120.121C426.054 120.403 426.022 120.671 425.983 120.951C425.974 121.036 425.959 121.125 425.946 121.212C425.474 124.58 424.349 127.811 422.641 130.705C422.56 130.846 422.475 130.982 422.389 131.123C419.717 135.486 415.778 138.829 411.154 140.656C411.142 140.667 411.136 140.667 411.136 140.667C409.334 141.369 407.45 141.811 405.535 141.98C404.824 142.039 404.113 142.076 403.398 142.077C403.156 142.077 402.919 142.064 402.674 142.048C402.624 142.051 402.574 142.051 402.524 142.048C401.491 141.992 400.464 141.853 399.451 141.63C399.162 141.585 398.876 141.522 398.593 141.443C393.958 140.199 389.816 137.449 386.758 133.586C383.7 129.723 381.883 124.944 381.566 119.931C381.481 118.798 381.469 117.659 381.532 116.524L381.631 114.776L382.265 103.122C382.34 101.412 382.553 99.7127 382.902 98.0411C383.159 96.778 383.541 95.5464 384.04 94.3657C385.245 91.3262 387.032 88.5787 389.29 86.2932C391.46 84.1555 394.018 82.4984 396.811 81.4205C399.604 80.3426 402.576 79.8661 405.548 80.0192C410.014 80.268 414.3 81.9504 417.827 84.8391C418.324 85.2478 418.811 85.6792 419.278 86.1297C421.637 88.4068 423.518 91.1758 424.8 94.2596C424.801 94.2671 424.801 94.2748 424.8 94.2823C425.148 95.1046 425.449 95.9479 425.701 96.8079C425.746 96.9644 425.792 97.107 425.83 97.2792C426.141 98.3335 426.39 99.407 426.574 100.494C426.615 100.735 426.657 100.982 426.692 101.229C426.902 102.584 426.979 103.958 426.922 105.329L426.914 105.578L426.862 106.521L426.808 107.564L426.74 108.888V108.968L426.728 109.192L426.695 109.796V109.808L426.339 116.1L426.233 118.187L426.186 118.975L426.17 119.149C426.17 119.206 426.17 119.258 426.158 119.323C426.144 119.59 426.117 119.857 426.077 120.121Z" fill="#FFC7B0"/>
<path d="M427.684 119.283C427.485 119.315 427.284 119.334 427.082 119.339C426.982 119.351 426.88 119.351 426.779 119.339L426.15 119.302L425.371 119.262L425.528 116.131L425.567 115.435L425.866 109.751L426.695 109.796L427.291 109.834C427.416 109.837 427.54 109.851 427.662 109.876C427.841 109.898 428.018 109.931 428.192 109.975C429.056 110.176 429.84 110.651 430.437 111.337C430.834 111.789 431.141 112.319 431.34 112.897C431.539 113.475 431.627 114.089 431.597 114.703C431.531 115.817 431.109 116.876 430.398 117.707C429.688 118.538 428.732 119.094 427.684 119.283Z" fill="#FFC4BC"/>
<path d="M392.844 119.622C392.844 119.622 392.935 121.407 395.304 121.588C397.388 121.748 397.751 120.243 397.751 120.243L392.844 119.622Z" fill="#F4A891"/>
<path d="M425.455 99.2544C425.455 99.2544 385.841 89.0667 382.124 97.515C382.124 97.515 381.44 88.4353 393.999 80.5749C406.558 72.7146 426.343 82.6431 427.607 86.7533C428.362 89.0416 428.617 91.4789 428.354 93.8848L425.455 99.2544Z" fill="#DB734C"/>
<path d="M401.84 106.806C403.399 106.29 405.055 106.187 406.661 106.508C408.266 106.828 409.771 107.562 411.041 108.643" stroke="#B95241" stroke-width="1.307" stroke-miterlimit="10" stroke-linecap="round"/>
<path d="M384.266 104.498C385.811 103.96 387.455 103.815 389.064 104.074C390.673 104.333 392.201 104.989 393.521 105.988" stroke="#B95241" stroke-width="1.307" stroke-miterlimit="10" stroke-linecap="round"/>
<path d="M404.852 115.07L404.853 115.071C405.426 115.135 405.94 114.699 406.001 114.097L406.206 112.078C406.267 111.477 405.852 110.937 405.279 110.873L405.277 110.873C404.704 110.809 404.19 111.244 404.129 111.846L403.925 113.865C403.864 114.467 404.279 115.006 404.852 115.07Z" fill="#161C2D"/>
<path d="M388.789 113.276L388.791 113.277C389.364 113.341 389.878 112.905 389.939 112.303L390.143 110.284C390.204 109.683 389.789 109.143 389.216 109.079L389.215 109.079C388.642 109.015 388.128 109.451 388.067 110.052L387.862 112.071C387.801 112.673 388.216 113.212 388.789 113.276Z" fill="#161C2D"/>
<path d="M390.656 124.889L399.884 126.305C399.339 127.153 398.578 127.824 397.686 128.238C396.795 128.652 395.81 128.793 394.846 128.645C393.881 128.497 392.976 128.066 392.235 127.401C391.494 126.737 390.947 125.866 390.656 124.889Z" fill="#D93838"/>
<path d="M427.686 119.28C427.487 119.313 427.286 119.331 427.085 119.336C426.984 119.348 426.882 119.348 426.782 119.336L426.152 119.299C426.141 119.574 426.117 119.847 426.079 120.119C426.056 120.401 426.025 120.668 425.985 120.948C425.976 121.034 425.962 121.122 425.948 121.209C425.476 124.578 424.351 127.809 422.643 130.703C422.562 130.844 422.478 130.98 422.391 131.12C419.719 135.484 415.78 138.827 411.156 140.654C411.145 140.665 411.138 140.665 411.138 140.665C409.336 141.367 407.452 141.809 405.537 141.978C404.826 142.037 404.115 142.073 403.4 142.075C403.158 142.075 402.921 142.061 402.676 142.046C403.814 142.073 410.462 141.228 415.715 133.277C421.412 124.652 423.502 107.571 423.502 107.571C423.502 107.571 423.424 100.182 423.833 100.229C423.964 100.243 425.135 100.657 426.686 101.224C426.896 102.578 426.973 103.952 426.916 105.323L426.908 105.572L426.856 106.515L426.802 107.559L426.734 108.882V108.962L426.722 109.187L426.689 109.79L427.285 109.829C427.41 109.831 427.534 109.845 427.656 109.87C427.835 109.892 428.012 109.925 428.187 109.969C429.051 110.17 429.834 110.645 430.431 111.331C430.828 111.783 431.135 112.313 431.334 112.891C431.533 113.469 431.621 114.083 431.591 114.697C431.526 115.811 431.105 116.869 430.397 117.701C429.688 118.533 428.733 119.089 427.686 119.28Z" fill="#F4A891"/>
<path d="M387.469 95.6874C388.299 92.4669 386.485 89.1501 383.417 88.279C380.35 87.408 377.191 89.3126 376.361 92.5331C375.532 95.7535 377.346 99.0704 380.413 99.9414C383.48 100.812 386.639 98.9078 387.469 95.6874Z" fill="#DB734C"/>
<path d="M397.683 94.7797C398.255 91.497 396.184 88.3487 393.058 87.7479C389.931 87.1471 386.933 89.3212 386.36 92.6039C385.788 95.8867 387.859 99.0349 390.985 99.6358C394.112 100.237 397.11 98.0625 397.683 94.7797Z" fill="#DB734C"/>
<path d="M408.285 96.7163C409.512 93.6378 408.13 90.0977 405.198 88.8093C402.266 87.521 398.894 88.9722 397.667 92.0508C396.44 95.1293 397.822 98.6694 400.754 99.9578C403.686 101.246 407.058 99.7949 408.285 96.7163Z" fill="#DB734C"/>
<path d="M420.044 97.3489C419.924 98.5378 419.471 99.6626 418.742 100.581C418.013 101.499 417.041 102.17 415.949 102.509C414.857 102.847 413.693 102.838 412.606 102.482C411.519 102.126 410.557 101.44 409.841 100.51C409.126 99.5801 408.689 98.4482 408.586 97.2576C408.483 96.0669 408.719 94.871 409.263 93.821C409.808 92.771 410.637 91.9141 411.645 91.3587C412.654 90.8034 413.796 90.5744 414.928 90.7009C416.446 90.8705 417.838 91.6661 418.797 92.9127C419.757 94.1594 420.205 95.7551 420.044 97.3489Z" fill="#DB734C"/>
<path d="M419.227 93.1592L423.688 114.291C423.747 114.57 423.89 114.822 424.094 115.011C424.299 115.199 424.556 115.314 424.827 115.339C425.099 115.364 425.37 115.298 425.603 115.15C425.836 115.002 426.019 114.78 426.123 114.516L432.466 98.4957C432.466 98.4957 427.73 81.761 419.227 93.1592Z" fill="#DB734C"/>
<path d="M398.063 284.567L418.547 286.202C427.596 286.924 435.403 282.567 435.902 276.147L435.781 264.35L383.69 263.394L383.027 271.929C382.528 278.347 389.014 283.844 398.063 284.567Z" fill="#161C2D"/>
<path d="M396.896 439.994H395.571C395.382 439.994 395.195 439.955 395.021 439.879C394.846 439.804 394.688 439.692 394.554 439.552C394.421 439.412 394.315 439.246 394.242 439.062C394.17 438.879 394.133 438.683 394.133 438.485V417.417L400.138 418.739L398.323 438.627C398.289 439 398.124 439.347 397.86 439.6C397.597 439.852 397.253 439.993 396.896 439.994Z" fill="#161C2D"/>
<path d="M382.306 416.122L375.143 429.477C374.548 430.506 373.72 431.364 372.733 431.976C371.746 432.587 370.63 432.934 369.485 432.984C368.589 433.022 367.738 433.408 367.099 434.069C366.459 434.729 366.077 435.616 366.026 436.556V436.565C365.996 437.085 366.068 437.606 366.238 438.096C366.407 438.586 366.672 439.033 367.014 439.411C367.356 439.788 367.768 440.088 368.225 440.29C368.683 440.493 369.175 440.594 369.671 440.588H375.469C378.484 440.583 381.385 439.377 383.587 437.216L399.278 421.836C400.024 420.792 400.37 419.492 400.246 418.194C400.182 417.498 399.983 416.824 399.663 416.212C399.342 415.6 398.906 415.063 398.381 414.633C397.857 414.204 397.254 413.891 396.611 413.714C395.967 413.537 395.296 413.499 394.638 413.603L382.306 416.122Z" fill="#161C2D"/>
<path d="M381.943 414.42L374.78 427.775C374.185 428.803 373.357 429.661 372.37 430.273C371.383 430.885 370.267 431.231 369.122 431.281C368.226 431.319 367.375 431.706 366.736 432.366C366.096 433.027 365.714 433.914 365.663 434.854C365.632 435.374 365.704 435.895 365.874 436.385C366.044 436.875 366.308 437.322 366.65 437.7C366.992 438.078 367.405 438.377 367.862 438.58C368.319 438.782 368.811 438.884 369.308 438.877H373.466C377.54 438.87 381.46 437.241 384.436 434.32L398.92 420.123C399.667 419.08 400.012 417.779 399.888 416.481C399.823 415.785 399.625 415.111 399.304 414.499C398.984 413.887 398.548 413.35 398.023 412.92C397.499 412.491 396.896 412.178 396.253 412.001C395.609 411.824 394.938 411.786 394.28 411.89L381.943 414.42Z" fill="#232323"/>
<path d="M376.422 424.366L379.656 426.436" stroke="#07113D" stroke-width="1.419" stroke-miterlimit="10" stroke-linecap="round"/>
<path d="M377.742 421.694L380.976 423.762" stroke="#07113D" stroke-width="1.419" stroke-miterlimit="10" stroke-linecap="round"/>
<path d="M379.047 419.139L382.281 421.207" stroke="#07113D" stroke-width="1.419" stroke-miterlimit="10" stroke-linecap="round"/>
<path d="M382.51 414.214L398.202 414.562L393.232 356.189C392.934 354.141 392.898 352.061 393.123 350.004L405.673 272.6L383.287 269.889L372.752 344.024C372.283 348.325 372.359 352.674 372.979 356.954L382.51 414.214Z" fill="black"/>
<path d="M399.508 410.705H380.91V414.824H399.508V410.705Z" fill="#9995A7"/>
<path d="M433.22 441.215H431.895C431.514 441.215 431.148 441.056 430.878 440.773C430.609 440.49 430.457 440.106 430.457 439.705V418.638L436.462 419.96L434.65 439.848C434.616 440.222 434.451 440.569 434.187 440.822C433.922 441.074 433.578 441.215 433.22 441.215Z" fill="#161C2D"/>
<path d="M418.63 417.346L411.467 430.702C410.873 431.731 410.045 432.589 409.058 433.201C408.071 433.813 406.955 434.159 405.81 434.208C404.913 434.246 404.063 434.633 403.423 435.293C402.784 435.954 402.401 436.841 402.351 437.781V437.79C402.32 438.31 402.392 438.831 402.562 439.32C402.732 439.81 402.996 440.258 403.338 440.635C403.68 441.013 404.093 441.312 404.55 441.515C405.007 441.717 405.499 441.819 405.995 441.813H411.793C414.808 441.807 417.709 440.602 419.911 438.44L435.604 423.055C436.351 422.011 436.696 420.711 436.572 419.413C436.508 418.718 436.309 418.044 435.989 417.432C435.668 416.82 435.232 416.282 434.707 415.853C434.183 415.424 433.58 415.111 432.937 414.934C432.293 414.757 431.622 414.72 430.964 414.824L418.63 417.346Z" fill="#161C2D"/>
<path d="M418.267 415.643L411.104 428.998C410.51 430.027 409.682 430.886 408.695 431.498C407.708 432.11 406.592 432.455 405.447 432.505C404.55 432.542 403.699 432.929 403.06 433.59C402.42 434.25 402.038 435.137 401.987 436.077V436.086C401.957 436.606 402.028 437.127 402.198 437.617C402.368 438.107 402.632 438.554 402.974 438.932C403.316 439.31 403.729 439.609 404.186 439.812C404.644 440.014 405.136 440.115 405.632 440.109H409.789C413.862 440.102 417.783 438.475 420.759 435.554L435.243 421.357C435.987 420.309 436.328 419.007 436.199 417.708C436.134 417.012 435.936 416.338 435.615 415.727C435.294 415.115 434.858 414.578 434.334 414.148C433.809 413.719 433.207 413.406 432.563 413.229C431.92 413.052 431.249 413.015 430.591 413.119L418.267 415.643Z" fill="#232323"/>
<path d="M412.746 425.589L415.98 427.657" stroke="#07113D" stroke-width="1.419" stroke-miterlimit="10" stroke-linecap="round"/>
<path d="M414.062 422.917L417.297 424.985" stroke="#07113D" stroke-width="1.419" stroke-miterlimit="10" stroke-linecap="round"/>
<path d="M415.367 420.362L418.601 422.43" stroke="#07113D" stroke-width="1.419" stroke-miterlimit="10" stroke-linecap="round"/>
<path d="M418.979 415.281L434.623 415.381L435.592 270.855L409.555 269.449L418.979 415.281Z" fill="black"/>
<path d="M435.69 411.468H418.109V415.74H435.69V411.468Z" fill="#9995A7"/>
<path d="M436.286 261.227H386.402V266.693H436.286V261.227Z" fill="#3D3B88"/>
<path opacity="0.37" d="M439.692 199.003L436.196 260.651L420.939 261.521C420.939 261.521 420.39 228.427 420.11 218.354C419.83 208.281 431.622 179.218 431.622 179.218C434.707 185.628 437.402 192.236 439.692 199.003Z" fill="#591239"/>
<path d="M395.903 258.607L406.12 254.78C406.385 254.666 406.669 254.608 406.956 254.609C407.243 254.611 407.527 254.672 407.791 254.788C408.055 254.905 408.295 255.075 408.497 255.289C408.698 255.503 408.858 255.757 408.966 256.036L409.034 256.245C409.192 256.834 409.125 257.464 408.847 258.002C408.568 258.539 408.1 258.94 407.543 259.12L397.326 262.947C397.061 263.061 396.777 263.119 396.49 263.118C396.203 263.117 395.919 263.056 395.655 262.94C395.39 262.823 395.151 262.653 394.949 262.438C394.747 262.224 394.588 261.97 394.48 261.691L394.412 261.482C394.254 260.893 394.321 260.263 394.6 259.725C394.878 259.188 395.346 258.787 395.903 258.607Z" fill="#FFC7B0"/>
<path d="M411.503 289.026C411.08 289.745 410.515 290.36 409.846 290.828L391.888 303.543C391.272 303.98 390.579 304.285 389.85 304.441C389.121 304.597 388.371 304.601 387.641 304.451C386.91 304.302 386.216 304.004 385.596 303.572C384.976 303.141 384.443 302.586 384.027 301.938L363.274 269.635C362.858 268.988 362.567 268.261 362.419 267.496C362.27 266.731 362.267 265.942 362.409 265.176C362.551 264.409 362.835 263.68 363.246 263.029C363.657 262.378 364.186 261.818 364.803 261.382L365.004 261.236L382.76 248.667C384.004 247.785 385.531 247.458 387.005 247.758C388.479 248.058 389.78 248.96 390.621 250.266L398.586 262.661L406.538 275.033L411.378 282.578C411.985 283.528 412.319 284.64 412.341 285.783C412.363 286.926 412.072 288.052 411.503 289.026Z" fill="#C0C0C0"/>
<path d="M383.579 267.247C383.748 267.667 383.8 268.128 383.729 268.578C383.658 269.028 383.467 269.447 383.179 269.788C382.89 270.129 382.516 270.376 382.099 270.503C381.682 270.629 381.239 270.629 380.822 270.502C380.405 270.375 380.031 270.127 379.743 269.785C379.455 269.444 379.264 269.025 379.194 268.575C379.124 268.125 379.177 267.663 379.346 267.244C379.516 266.824 379.795 266.463 380.151 266.203C380.739 265.871 381.427 265.794 382.068 265.99C382.709 266.185 383.252 266.636 383.579 267.247Z" fill="white"/>
<path opacity="0.6" d="M406.536 275.032L398.965 281.914C397.72 283.119 396.114 283.381 395.402 282.501C395.166 282.196 395.043 281.812 395.056 281.42C395.092 280.898 395.227 280.388 395.453 279.922C395.678 279.455 395.991 279.041 396.371 278.703L401.631 273.921L401.167 273.21L393.755 279.958C392.509 281.15 390.904 281.42 390.192 280.532C389.956 280.228 389.833 279.843 389.846 279.45C389.882 278.93 390.018 278.422 390.244 277.957C390.469 277.491 390.781 277.078 391.161 276.741L398.904 269.692L398.841 269.583C398.737 269.343 398.634 269.118 398.536 268.899L392.427 274.465C391.174 275.671 389.562 275.933 388.848 275.046C388.619 274.738 388.502 274.355 388.517 273.964C388.555 273.444 388.69 272.936 388.916 272.471C389.142 272.006 389.453 271.592 389.832 271.254L397.756 264.046C397.792 264.009 397.831 263.975 397.874 263.945C398.063 263.488 398.307 263.058 398.601 262.667L406.536 275.032Z" fill="#3D3B88"/>
<path d="M415.382 265.414C415.382 265.414 409.985 270.458 408.462 271.953C405.518 274.85 403.36 275.595 401.37 273.951L398.343 269.5C397.046 266.776 396.564 265.418 398.158 263.35L403.406 256.538C404.182 255.542 405.297 254.904 406.515 254.76C407.733 254.615 408.956 254.976 409.923 255.766L413.899 259.05C415.887 260.695 416.976 263.344 415.382 265.414Z" fill="#FFC7B0"/>
<path d="M399.74 267.452L392.374 273.788C391.215 274.849 389.724 275.081 389.061 274.31C388.398 273.533 388.802 272.03 389.962 270.969L397.328 264.634C398.487 263.573 399.978 263.341 400.641 264.112C401.305 264.888 400.899 266.391 399.74 267.452Z" fill="#FFC7B0"/>
<path d="M400.982 272.289L393.616 278.625C392.457 279.686 390.966 279.918 390.303 279.147C389.64 278.369 390.045 276.867 391.204 275.806L398.57 269.471C399.729 268.41 401.22 268.178 401.883 268.949C402.547 269.723 402.141 271.228 400.982 272.289Z" fill="#FFC7B0"/>
<path d="M405.826 274.015L398.46 280.35C397.301 281.411 395.81 281.642 395.147 280.871C394.484 280.094 394.888 278.591 396.048 277.53L403.413 271.193C404.573 270.132 406.064 269.901 406.727 270.672C407.391 271.451 406.985 272.954 405.826 274.015Z" fill="#FFC7B0"/>
<path d="M438.914 236.157C437.309 239.735 435.336 243.118 433.031 246.246C431.797 247.923 430.463 249.516 429.037 251.015L413.471 267.336C412.619 268.252 411.508 268.855 410.303 269.055C409.15 269.196 407.981 268.998 406.928 268.483C405.875 267.968 404.979 267.156 404.339 266.138C401.956 262.685 404.103 260.037 406.76 257.253L420.616 241.041C423.383 237.679 425.689 233.927 427.468 229.895C431.83 219.707 432.928 208.309 430.599 197.41L426.921 179.27C426.037 174.922 428.126 170.688 431.583 169.822C435.04 168.956 438.561 171.766 439.44 176.115L443.125 194.26C446.105 208.335 444.627 223.046 438.914 236.157Z" fill="#FFC7B0"/>
<path d="M428.667 227.405L440.098 233.667C438.618 237.276 436.767 240.704 434.576 243.89L425.234 234.358L428.667 227.405Z" fill="#F4A891"/>
<path d="M430.101 216.725C430.177 216.179 432.031 213.226 429.574 201.622C427.118 190.019 424.137 177.862 426.241 172.153C428.345 166.444 434.662 163.127 438.871 170.68C443.081 178.232 446.591 206.223 446.065 215.442C445.538 224.66 439.574 238.28 439.574 238.28L425.54 229.07C427.759 225.278 429.305 221.096 430.101 216.725Z" fill="#D93838"/>
<path d="M370.891 13.7588H77.4219V265.099H370.891V13.7588Z" fill="#8C8C8C"/>
<path d="M363.554 20.041H84.7578V258.814H363.554V20.041Z" fill="white"/>
<path d="M371.264 265.132H77.0156V273.643H371.264V265.132Z" fill="#C0C0C0"/>
<path d="M388.287 5.67383H61.6133V30.3559H388.287V5.67383Z" fill="#D5D5D5"/>
<path d="M388.287 5.67383H61.6133V22.9948H388.287V5.67383Z" fill="#C0C0C0"/>
<path opacity="0.92" d="M131.878 9.50391H72.3548C71.1233 9.50391 70.125 10.5517 70.125 11.8443C70.125 13.1368 71.1233 14.1846 72.3548 14.1846H131.878C133.11 14.1846 134.108 13.1368 134.108 11.8443C134.108 10.5517 133.11 9.50391 131.878 9.50391Z" fill="white"/>
<path opacity="0.92" d="M158.79 9.50391H147.581C146.35 9.50391 145.352 10.5517 145.352 11.8443C145.352 13.1368 146.35 14.1846 147.581 14.1846H158.79C160.022 14.1846 161.02 13.1368 161.02 11.8443C161.02 10.5517 160.022 9.50391 158.79 9.50391Z" fill="white"/>
<path d="M70.5253 5.39062H66.2031V30.0727H70.5253V5.39062Z" fill="#D5D5D5"/>
<path d="M382.338 5.39062H378.016V30.0727H382.338V5.39062Z" fill="#D5D5D5"/>
<path d="M396.123 7.89688V26.7154C396.188 27.726 396.054 28.7398 395.73 29.6938C395.406 30.6478 394.898 31.5218 394.239 32.2616C393.58 33.0013 392.784 33.591 391.899 33.9942C391.014 34.3974 390.059 34.6055 389.095 34.6055C388.13 34.6055 387.176 34.3974 386.291 33.9942C385.406 33.591 384.609 33.0013 383.95 32.2616C383.291 31.5218 382.784 30.6478 382.46 29.6938C382.136 28.7398 382.002 27.726 382.067 26.7154V7.89688C382.004 5.87204 382.708 3.90376 384.026 2.42347C385.343 0.943186 387.166 0.0716816 389.094 0C390.03 0.00420879 390.954 0.211948 391.81 0.610114C392.665 1.00828 393.433 1.58824 394.064 2.3134C395.399 3.83353 396.135 5.82905 396.123 7.89688Z" fill="#161C2D"/>
<path d="M396.123 7.89688V17.3053C396.188 18.3159 396.054 19.3296 395.73 20.2836C395.406 21.2377 394.898 22.1117 394.239 22.8514C393.58 23.5911 392.784 24.1809 391.899 24.5841C391.014 24.9873 390.059 25.1953 389.095 25.1953C388.13 25.1953 387.176 24.9873 386.291 24.5841C385.406 24.1809 384.609 23.5911 383.95 22.8514C383.291 22.1117 382.784 21.2377 382.46 20.2836C382.136 19.3296 382.002 18.3159 382.067 17.3053V7.89688C382.004 5.87204 382.708 3.90376 384.026 2.42347C385.343 0.943186 387.166 0.0716816 389.094 0C390.03 0.00420879 390.954 0.211948 391.81 0.610114C392.665 1.00828 393.433 1.58824 394.064 2.3134C395.399 3.83353 396.135 5.82905 396.123 7.89688Z" fill="#0A1F44"/>
<path d="M67.8302 7.89688V26.7154C67.8946 27.726 67.7607 28.7398 67.4367 29.6938C67.1126 30.6478 66.6054 31.5218 65.9464 32.2616C65.2875 33.0013 64.4909 33.591 63.6059 33.9942C62.7209 34.3974 61.7666 34.6055 60.8019 34.6055C59.8372 34.6055 58.8828 34.3974 57.9978 33.9942C57.1129 33.591 56.3162 33.0013 55.6573 32.2616C54.9983 31.5218 54.4911 30.6478 54.1671 29.6938C53.8431 28.7398 53.7091 27.726 53.7736 26.7154V7.89688C53.7109 5.87204 54.4155 3.90376 55.7329 2.42347C57.0502 0.943186 58.8727 0.0716816 60.801 0C61.7367 0.00420879 62.6614 0.211948 63.5168 0.610114C64.3722 1.00828 65.1397 1.58824 65.771 2.3134C67.1061 3.83353 67.8421 5.82905 67.8302 7.89688Z" fill="#161C2D"/>
<path d="M67.8302 7.89688V17.3053C67.8946 18.3159 67.7607 19.3296 67.4367 20.2836C67.1126 21.2377 66.6054 22.1117 65.9464 22.8514C65.2875 23.5911 64.4909 24.1809 63.6059 24.5841C62.7209 24.9873 61.7666 25.1953 60.8019 25.1953C59.8372 25.1953 58.8828 24.9873 57.9978 24.5841C57.1129 24.1809 56.3162 23.5911 55.6573 22.8514C54.9983 22.1117 54.4911 21.2377 54.1671 20.2836C53.8431 19.3296 53.7091 18.3159 53.7736 17.3053V7.89688C53.7109 5.87204 54.4155 3.90376 55.7329 2.42347C57.0502 0.943186 58.8727 0.0716816 60.801 0C61.7367 0.00420879 62.6614 0.211948 63.5168 0.610114C64.3722 1.00828 65.1397 1.58824 65.771 2.3134C67.1061 3.83353 67.8421 5.82905 67.8302 7.89688Z" fill="#0A1F44"/>
<path d="M104.934 227.525L118.541 217.317C120.972 215.398 123.918 214.335 126.959 214.278C130 214.222 132.98 215.175 135.474 217.002C137.835 218.734 140.636 219.683 143.516 219.726C146.396 219.769 149.222 218.904 151.629 217.244L167.126 206.807C170.197 204.694 173.921 203.89 177.538 204.56L183.502 205.687C195.161 207.862 207.177 205.678 217.463 199.516L224.813 195.187V227.529H104.934V227.525Z" fill="#2C2A72"/>
<path d="M103.766 227.525H228.059V192.41" stroke="#3D3B88" stroke-width="2.421" stroke-miterlimit="10" stroke-linecap="round"/>
<path d="M104.934 181.804L118.541 171.595C120.972 169.676 123.918 168.612 126.959 168.555C129.999 168.499 132.98 169.452 135.474 171.278C137.835 173.01 140.636 173.959 143.516 174.002C146.396 174.045 149.222 173.181 151.629 171.52L167.126 161.084C170.197 158.97 173.921 158.166 177.538 158.837L183.502 159.964C195.161 162.138 207.177 159.954 217.463 153.792L224.813 149.463V181.807H104.934V181.804Z" fill="#2C2A72"/>
<path d="M103.766 181.801H228.059V146.687" stroke="#3D3B88" stroke-width="2.421" stroke-miterlimit="10" stroke-linecap="round"/>
<path d="M116.352 69.4033H106.719V114.692H116.352V69.4033Z" fill="#2C2A72"/>
<path d="M133.262 49.8281H123.629V114.69H133.262V49.8281Z" fill="#2C2A72"/>
<path d="M150.172 78.6133H140.539V114.69H150.172V78.6133Z" fill="#2C2A72"/>
<path d="M150.172 73.6367H140.539V78.6131H150.172V73.6367Z" fill="#C7E223"/>
<path d="M116.352 58.1582H106.719V69.4034H116.352V58.1582Z" fill="#C7E223"/>
<path d="M167.079 42.5361H157.445V114.692H167.079V42.5361Z" fill="#2C2A72"/>
<path d="M184.126 69.4033H174.492V114.692H184.126V69.4033Z" fill="#2C2A72"/>
<path d="M201.04 92.0469H191.406V114.692H201.04V92.0469Z" fill="#2C2A72"/>
<path d="M112.799 120.662H110.272C108.31 120.662 106.719 122.333 106.719 124.393C106.719 126.454 108.31 128.124 110.272 128.124H112.799C114.761 128.124 116.352 126.454 116.352 124.393C116.352 122.333 114.761 120.662 112.799 120.662Z" fill="#3D3B88"/>
<path d="M129.709 120.662H127.182C125.22 120.662 123.629 122.333 123.629 124.393C123.629 126.454 125.22 128.124 127.182 128.124H129.709C131.671 128.124 133.262 126.454 133.262 124.393C133.262 122.333 131.671 120.662 129.709 120.662Z" fill="#3D3B88"/>
<path d="M146.619 120.662H144.093C142.13 120.662 140.539 122.333 140.539 124.393C140.539 126.454 142.13 128.124 144.093 128.124H146.619C148.581 128.124 150.172 126.454 150.172 124.393C150.172 122.333 148.581 120.662 146.619 120.662Z" fill="#3D3B88"/>
<path d="M163.525 120.662H160.999C159.036 120.662 157.445 122.333 157.445 124.393C157.445 126.454 159.036 128.124 160.999 128.124H163.525C165.488 128.124 167.079 126.454 167.079 124.393C167.079 122.333 165.488 120.662 163.525 120.662Z" fill="#3D3B88"/>
<path d="M180.572 120.662H178.046C176.083 120.662 174.492 122.333 174.492 124.393C174.492 126.454 176.083 128.124 178.046 128.124H180.572C182.535 128.124 184.126 126.454 184.126 124.393C184.126 122.333 182.535 120.662 180.572 120.662Z" fill="#3D3B88"/>
<path d="M197.486 120.662H194.96C192.997 120.662 191.406 122.333 191.406 124.393C191.406 126.454 192.997 128.124 194.96 128.124H197.486C199.449 128.124 201.04 126.454 201.04 124.393C201.04 122.333 199.449 120.662 197.486 120.662Z" fill="#3D3B88"/>
<path d="M201.04 87.0703H191.406V99.7366H201.04V87.0703Z" fill="#C7E223"/>
<path d="M284.655 80.6931H316.934C316.935 86.8268 315.349 92.8456 312.348 98.1077C309.346 103.37 305.041 107.678 299.891 110.573C294.741 113.469 288.939 114.842 283.104 114.547C277.269 114.253 271.619 112.301 266.758 108.9C261.896 105.5 258.004 100.777 255.498 95.237C252.991 89.6966 251.963 83.546 252.524 77.4406C253.085 71.3353 255.213 65.5042 258.682 60.569C262.151 55.6338 266.83 51.7795 272.222 49.417L284.655 80.6931Z" fill="#FFB339"/>
<path d="M316.689 120.749H256.043C255.368 120.749 254.82 121.324 254.82 122.033C254.82 122.742 255.368 123.316 256.043 123.316H316.689C317.365 123.316 317.912 122.742 317.912 122.033C317.912 121.324 317.365 120.749 316.689 120.749Z" fill="#3D3B88"/>
<path d="M294.581 125.884H256.043C255.368 125.884 254.82 126.459 254.82 127.167C254.82 127.876 255.368 128.451 256.043 128.451H294.581C295.257 128.451 295.804 127.876 295.804 127.167C295.804 126.459 295.257 125.884 294.581 125.884Z" fill="#3D3B88"/>
<path d="M304.782 150.358H251.836V153.762H304.782V150.358Z" fill="#2C2A72"/>
<path d="M334.517 158.02H251.836V161.424H334.517V158.02Z" fill="#2C2A72"/>
<path d="M307.534 165.678H251.836V169.082H307.534V165.678Z" fill="#2C2A72"/>
<path d="M248.456 152.061C248.5 152.62 248.383 153.179 248.119 153.667C247.855 154.154 247.457 154.546 246.977 154.792C246.497 155.038 245.958 155.126 245.43 155.044C244.901 154.963 244.409 154.716 244.017 154.336C243.624 153.955 243.351 153.46 243.231 152.913C243.112 152.367 243.152 151.795 243.347 151.274C243.543 150.752 243.883 150.304 244.325 149.989C244.766 149.674 245.288 149.506 245.822 149.508C246.494 149.481 247.148 149.735 247.642 150.213C248.135 150.692 248.428 151.356 248.456 152.061Z" fill="#3D3B88"/>
<path d="M248.456 160.572C248.5 161.131 248.383 161.69 248.119 162.177C247.855 162.665 247.457 163.057 246.977 163.303C246.497 163.549 245.958 163.637 245.43 163.555C244.901 163.474 244.409 163.227 244.017 162.846C243.624 162.466 243.351 161.97 243.231 161.424C243.112 160.878 243.152 160.306 243.347 159.784C243.543 159.263 243.883 158.815 244.325 158.5C244.766 158.185 245.288 158.017 245.822 158.019C246.494 157.992 247.148 158.245 247.642 158.724C248.135 159.203 248.428 159.867 248.456 160.572Z" fill="#3D3B88"/>
<path d="M248.456 168.233C248.5 168.792 248.383 169.351 248.119 169.839C247.855 170.326 247.457 170.718 246.977 170.964C246.497 171.21 245.958 171.298 245.43 171.216C244.901 171.135 244.409 170.888 244.017 170.507C243.624 170.127 243.351 169.631 243.231 169.085C243.112 168.539 243.152 167.967 243.347 167.445C243.543 166.924 243.883 166.476 244.325 166.161C244.766 165.846 245.288 165.678 245.822 165.68C246.494 165.653 247.148 165.906 247.642 166.385C248.135 166.864 248.428 167.528 248.456 168.233Z" fill="#3D3B88"/>
<path d="M245.617 182.701H310.465" stroke="#3D3B88" stroke-width="1.289" stroke-miterlimit="10" stroke-linecap="round"/>
<path d="M245.617 197.452H333.973" stroke="#3D3B88" stroke-width="1.289" stroke-miterlimit="10" stroke-linecap="round"/>
<path d="M245.617 187.618H293.037" stroke="#3D3B88" stroke-width="1.289" stroke-miterlimit="10" stroke-linecap="round"/>
<path d="M245.617 192.536H335.189" stroke="#3D3B88" stroke-width="1.289" stroke-miterlimit="10" stroke-linecap="round"/>
<path d="M245.617 203.129H310.465" stroke="#3D3B88" stroke-width="1.289" stroke-miterlimit="10" stroke-linecap="round"/>
<path d="M245.617 217.882H333.973" stroke="#3D3B88" stroke-width="1.289" stroke-miterlimit="10" stroke-linecap="round"/>
<path d="M245.617 208.047H293.037" stroke="#3D3B88" stroke-width="1.289" stroke-miterlimit="10" stroke-linecap="round"/>
<path d="M245.617 212.965H335.189" stroke="#3D3B88" stroke-width="1.289" stroke-miterlimit="10" stroke-linecap="round"/>
<g style="mix-blend-mode:multiply" opacity="0.7">
<path d="M370.871 30.3564H77.2891V36.9035H370.871V30.3564Z" fill="#3D3B88"/>
</g>
<path opacity="0.7" d="M356.764 450H441.607C445.313 450 448.316 446.844 448.316 442.954C448.316 439.063 445.313 435.909 441.607 435.909H356.764C353.058 435.909 350.054 439.065 350.054 442.955C350.054 446.846 353.058 450 356.764 450Z" fill="white"/>
<path opacity="0.7" d="M18.092 449.273H221.795C225.5 449.273 228.504 446.119 228.504 442.229V442.227C228.504 438.337 225.5 435.183 221.795 435.183H18.092C14.3866 435.183 11.3826 438.337 11.3826 442.227V442.229C11.3826 446.119 14.3866 449.273 18.092 449.273Z" fill="white"/>
<path d="M203.737 443.748H216.367L216.367 300.081H203.737L203.737 443.748Z" fill="#8C8C8C"/>
<path d="M83.2213 443.748H95.8516L95.8516 300.081H83.2213L83.2213 443.748Z" fill="#8C8C8C"/>
<path d="M90.3404 335.094H27.1875V348.355H90.3404V335.094Z" fill="#8C8C8C"/>
<path d="M214.505 335.094H146.391V348.355H214.505V335.094Z" fill="#8C8C8C"/>
<path d="M142.167 443.748H154.797L154.797 300.081H142.167L142.167 443.748Z" fill="#C6C6C6"/>
<path d="M21.6432 443.748H34.2734L34.2734 300.081H21.6432L21.6432 443.748Z" fill="#C6C6C6"/>
<path d="M312.718 156.168L318.894 165.526C319.068 165.765 319.196 166.038 319.27 166.329C319.343 166.62 319.361 166.924 319.323 167.222C319.285 167.521 319.191 167.808 319.046 168.069C318.902 168.329 318.71 168.557 318.482 168.739L318.316 168.862C317.817 169.177 317.22 169.274 316.654 169.132C316.087 168.991 315.596 168.622 315.284 168.106L309.108 158.748C308.934 158.509 308.807 158.236 308.733 157.944C308.66 157.653 308.641 157.35 308.68 157.051C308.718 156.753 308.812 156.465 308.956 156.205C309.101 155.945 309.293 155.717 309.521 155.535L309.687 155.412C310.186 155.097 310.783 155 311.349 155.142C311.916 155.283 312.407 155.651 312.718 156.168Z" fill="#F4A891"/>
<path d="M311.539 177.687C311.539 177.687 305.495 173.53 303.721 172.379C300.289 170.149 299.041 168.157 300.033 165.712L303.335 161.483C305.502 159.457 306.625 158.615 308.943 159.692L316.575 163.235C317.693 163.761 318.57 164.726 319.02 165.922C319.47 167.119 319.457 168.453 318.984 169.639L316.996 174.523C316.012 176.969 313.858 178.764 311.539 177.687Z" fill="#F4A891"/>
<path d="M305.581 162.357L297.835 156.544C296.557 155.645 295.954 154.194 296.496 153.317C297.038 152.448 298.525 152.46 299.809 153.359L307.556 159.172C308.833 160.072 309.436 161.522 308.894 162.399C308.346 163.277 306.857 163.26 305.581 162.357Z" fill="#F4A891"/>
<path d="M301.464 164.885L293.717 159.072C292.44 158.172 291.837 156.722 292.379 155.845C292.92 154.975 294.408 154.989 295.692 155.887L303.438 161.7C304.716 162.599 305.319 164.052 304.777 164.927C304.227 165.801 302.738 165.782 301.464 164.885Z" fill="#F4A891"/>
<path d="M301.136 170.243L293.389 164.43C292.112 163.531 291.509 162.08 292.051 161.203C292.592 160.333 294.08 160.346 295.364 161.245L303.11 167.058C304.389 167.956 304.991 169.408 304.449 170.285C303.902 171.161 302.413 171.142 301.136 170.243Z" fill="#F4A891"/>
<path d="M344.57 193.908C340.863 193.213 337.24 192.095 333.764 190.573C331.901 189.76 330.088 188.823 328.338 187.768L309.274 176.256C308.209 175.632 307.365 174.663 306.867 173.494C306.437 172.362 306.316 171.127 306.515 169.927C306.715 168.726 307.227 167.608 307.996 166.695C310.549 163.378 313.545 164.863 316.798 166.831L335.318 176.648C339.131 178.575 343.182 179.935 347.353 180.687C357.858 182.451 368.624 180.592 378.038 175.388L393.758 166.928C397.526 164.898 401.963 165.912 403.663 169.189C405.362 172.466 403.694 176.77 399.925 178.796L384.202 187.262C372.034 193.952 358.118 196.285 344.57 193.908Z" fill="#F4A891"/>
<path d="M349.946 181.24L347.166 194.459C343.462 193.901 339.828 192.919 336.328 191.53L342.655 179.575L349.946 181.24Z" fill="#F4A891"/>
<path d="M360.142 179.911C360.664 179.845 363.55 180.276 373.892 175.439C382.993 171.256 391.734 166.26 400.019 160.504C408.059 154.749 409.884 171.151 404.04 177.387C398.195 183.623 374.097 193.887 365.493 195.755C356.888 197.623 342.797 195.132 342.797 195.132L347.601 178.505C351.666 179.767 355.915 180.243 360.142 179.911Z" fill="#F5F5F5"/>
<path d="M352.22 179.484L349.848 187.216L344.546 188.528L348.908 192.06L347.667 196.419L340.102 194.558L345.371 177.609L352.22 179.484Z" fill="#183972"/>
<path d="M423.668 134.556C423.504 132.644 423.471 130.722 423.567 128.804C423.608 118.928 423.65 99.6813 420.981 98.215C413.648 94.19 383.872 116.159 382.04 107.528C381.601 105.475 381.372 103.379 381.355 101.275C381.355 100.829 381.355 100.384 381.374 99.9457C381.575 93.7629 383.609 87.8002 387.192 82.8891V82.8787C389.946 79.0928 393.524 76.0557 397.627 74.0221C401.73 71.9886 406.238 71.018 410.772 71.1917C411.206 71.2056 411.634 71.2352 412.066 71.2665C417.598 71.6619 422.91 73.6919 427.389 77.1221C431.868 80.5524 435.332 85.2429 437.38 90.6521C438.722 94.263 439.439 98.0965 439.497 101.972C439.986 126.745 426.451 130.136 423.668 134.556Z" fill="#DB734C"/>
<path d="M423.012 135.188C423.323 133.074 423.51 130.942 423.572 128.803L423.784 128.01C429.874 123.33 434.178 116.526 435.925 108.817C437.453 102.904 437.949 96.7486 437.39 90.6494C439.444 94.7026 440.584 99.1965 440.725 103.785C441.205 128.561 425.792 130.77 423.012 135.188Z" fill="#232323"/>
<path d="M411.435 175.13C413.501 175.354 415.567 174.71 417.183 173.34C418.798 171.969 419.832 169.983 420.057 167.816L423.926 127.578C424.381 123.077 421.007 123.365 416.721 122.882C414.656 122.657 412.591 123.3 410.975 124.668C409.36 126.037 408.325 128.021 408.098 130.187L404.465 166.061C404.247 168.233 404.859 170.407 406.165 172.107C407.471 173.807 409.366 174.894 411.435 175.13Z" fill="#F4A891"/>
<path d="M426.077 120.122C426.054 120.404 426.022 120.672 425.983 120.952C425.974 121.037 425.959 121.126 425.946 121.213C425.474 124.581 424.349 127.812 422.641 130.706C422.56 130.847 422.475 130.983 422.389 131.124C419.717 135.487 415.778 138.83 411.154 140.657C411.142 140.668 411.136 140.668 411.136 140.668C409.334 141.37 407.45 141.812 405.535 141.981C404.824 142.04 404.113 142.077 403.398 142.078C403.156 142.078 402.919 142.065 402.674 142.049C402.624 142.052 402.574 142.052 402.524 142.049C401.491 141.993 400.464 141.854 399.451 141.631C399.162 141.586 398.876 141.523 398.593 141.444C393.958 140.2 389.816 137.45 386.758 133.587C383.7 129.724 381.883 124.945 381.566 119.932C381.481 118.799 381.469 117.66 381.532 116.525L381.631 114.777L382.265 103.123C382.34 101.413 382.553 99.7137 382.902 98.0421C383.159 96.779 383.541 95.5473 384.04 94.3667C385.245 91.3272 387.032 88.5796 389.29 86.2942C391.46 84.1565 394.018 82.4994 396.811 81.4215C399.604 80.3436 402.576 79.8671 405.548 80.0202C410.014 80.269 414.3 81.9514 417.827 84.84C418.324 85.2488 418.811 85.6802 419.278 86.1307C421.637 88.4077 423.518 91.1768 424.8 94.2606C424.801 94.2681 424.801 94.2757 424.8 94.2832C425.148 95.1055 425.449 95.9489 425.701 96.8088C425.746 96.9654 425.792 97.108 425.83 97.2802C426.141 98.3344 426.39 99.408 426.574 100.495C426.615 100.736 426.657 100.983 426.692 101.23C426.902 102.585 426.979 103.959 426.922 105.33L426.914 105.579L426.862 106.522L426.808 107.565L426.74 108.889V108.969L426.728 109.193L426.695 109.797V109.809L426.339 116.101L426.233 118.188L426.186 118.976L426.17 119.15C426.17 119.207 426.17 119.259 426.158 119.324C426.144 119.591 426.117 119.857 426.077 120.122Z" fill="#FFC7B0"/>
<path d="M427.688 119.284C427.489 119.316 427.288 119.335 427.086 119.34C426.986 119.352 426.884 119.352 426.783 119.34L426.154 119.303L425.375 119.263L425.532 116.132L425.57 115.436L425.87 109.752L426.699 109.797L427.295 109.835C427.42 109.838 427.544 109.852 427.666 109.877C427.845 109.899 428.022 109.932 428.196 109.976C429.06 110.177 429.844 110.652 430.441 111.338C430.838 111.79 431.145 112.32 431.344 112.898C431.543 113.476 431.63 114.09 431.601 114.704C431.535 115.818 431.113 116.877 430.402 117.708C429.692 118.539 428.736 119.095 427.688 119.284Z" fill="#FFC4BC"/>
<path d="M392.844 119.623C392.844 119.623 392.935 121.408 395.304 121.589C397.388 121.749 397.751 120.244 397.751 120.244L392.844 119.623Z" fill="#F4A891"/>
<path d="M425.455 99.2573C425.455 99.2573 385.841 89.0697 382.124 97.5179C382.124 97.5179 381.44 88.4382 393.999 80.5779C406.558 72.7175 426.343 82.646 427.607 86.7562C428.362 89.0445 428.617 91.4818 428.354 93.8878L425.455 99.2573Z" fill="#DB734C"/>
<path d="M401.84 106.806C403.399 106.29 405.055 106.187 406.661 106.508C408.266 106.828 409.771 107.562 411.041 108.643" stroke="#B95241" stroke-width="1.307" stroke-miterlimit="10" stroke-linecap="round"/>
<path d="M384.266 104.498C385.811 103.96 387.455 103.815 389.064 104.074C390.673 104.333 392.201 104.989 393.521 105.988" stroke="#B95241" stroke-width="1.307" stroke-miterlimit="10" stroke-linecap="round"/>
<path d="M404.852 115.07L404.853 115.071C405.426 115.135 405.94 114.699 406.001 114.097L406.206 112.078C406.267 111.477 405.852 110.937 405.279 110.873L405.277 110.873C404.704 110.809 404.19 111.244 404.129 111.846L403.925 113.865C403.864 114.467 404.279 115.006 404.852 115.07Z" fill="#161C2D"/>
<path d="M388.789 113.277L388.791 113.278C389.364 113.342 389.878 112.906 389.939 112.304L390.143 110.285C390.204 109.684 389.789 109.144 389.216 109.08L389.215 109.08C388.642 109.016 388.128 109.452 388.067 110.053L387.862 112.072C387.801 112.674 388.216 113.213 388.789 113.277Z" fill="#161C2D"/>
<path d="M440.19 190.216L439.693 199.005L436.091 262.553L435.949 265.078H435.883L421.346 264.423L386.641 262.857L389.694 224.676L386.992 189.618C386.938 189.082 386.925 188.543 386.954 188.005C388.113 168.804 394.906 154.36 407.851 150.203L406.59 174.318C408.152 174.318 419.783 150.353 421.259 150.617C423.468 151.022 425.566 151.925 427.409 153.264C435.618 159.158 439.758 173.398 440.19 190.216Z" fill="#0A1F44"/>
<path d="M390.656 124.891L399.884 126.306C399.339 127.155 398.578 127.825 397.686 128.24C396.795 128.654 395.81 128.795 394.846 128.647C393.881 128.499 392.976 128.068 392.235 127.403C391.494 126.739 390.947 125.868 390.656 124.891Z" fill="#D93838"/>
<path d="M427.686 119.282C427.487 119.315 427.286 119.333 427.085 119.338C426.984 119.35 426.882 119.35 426.782 119.338L426.152 119.301C426.141 119.576 426.117 119.849 426.079 120.121C426.056 120.403 426.025 120.67 425.985 120.95C425.976 121.036 425.962 121.124 425.948 121.211C425.476 124.58 424.351 127.811 422.643 130.705C422.562 130.846 422.478 130.982 422.391 131.122C419.719 135.485 415.78 138.828 411.156 140.656C411.145 140.667 411.138 140.667 411.138 140.667C409.336 141.369 407.452 141.81 405.537 141.98C404.826 142.039 404.115 142.075 403.4 142.077C403.158 142.077 402.921 142.063 402.676 142.048C403.814 142.075 410.462 141.23 415.715 133.279C421.412 124.654 423.502 107.573 423.502 107.573C423.502 107.573 423.424 100.184 423.833 100.231C423.964 100.245 425.135 100.659 426.686 101.226C426.896 102.58 426.973 103.954 426.916 105.325L426.908 105.574L426.856 106.517L426.802 107.561L426.734 108.884V108.964L426.722 109.189L426.689 109.792L427.285 109.83C427.41 109.833 427.534 109.847 427.656 109.872C427.835 109.894 428.012 109.927 428.187 109.971C429.051 110.172 429.834 110.647 430.431 111.333C430.828 111.785 431.135 112.315 431.334 112.893C431.533 113.471 431.621 114.085 431.591 114.699C431.526 115.813 431.105 116.871 430.397 117.703C429.688 118.535 428.733 119.091 427.686 119.282Z" fill="#F4A891"/>
<path d="M387.469 95.6883C388.299 92.4679 386.485 89.151 383.417 88.28C380.35 87.409 377.191 89.3136 376.361 92.5341C375.532 95.7545 377.346 99.0713 380.413 99.9424C383.48 100.813 386.639 98.9088 387.469 95.6883Z" fill="#DB734C"/>
<path d="M397.683 94.7797C398.255 91.497 396.184 88.3487 393.058 87.7479C389.931 87.1471 386.933 89.3212 386.36 92.6039C385.788 95.8867 387.859 99.0349 390.985 99.6358C394.112 100.237 397.11 98.0625 397.683 94.7797Z" fill="#DB734C"/>
<path d="M408.285 96.7173C409.512 93.6387 408.13 90.0987 405.198 88.8103C402.266 87.5219 398.894 88.9732 397.667 92.0517C396.44 95.1303 397.822 98.6704 400.754 99.9588C403.686 101.247 407.058 99.7959 408.285 96.7173Z" fill="#DB734C"/>
<path d="M420.044 97.3518C419.924 98.5407 419.471 99.6655 418.742 100.584C418.013 101.502 417.041 102.173 415.949 102.512C414.857 102.85 413.693 102.841 412.606 102.485C411.519 102.129 410.557 101.443 409.841 100.513C409.126 99.5831 408.689 98.4512 408.586 97.2605C408.483 96.0698 408.719 94.8739 409.263 93.8239C409.808 92.7739 410.637 91.917 411.645 91.3617C412.654 90.8063 413.796 90.5774 414.928 90.7038C416.446 90.8734 417.838 91.669 418.797 92.9157C419.757 94.1624 420.205 95.758 420.044 97.3518Z" fill="#DB734C"/>
<path d="M419.227 93.1612L423.688 114.293C423.747 114.572 423.89 114.824 424.094 115.013C424.299 115.201 424.556 115.316 424.827 115.341C425.099 115.366 425.37 115.3 425.603 115.152C425.836 115.004 426.019 114.782 426.123 114.518L432.466 98.4977C432.466 98.4977 427.73 81.7629 419.227 93.1612Z" fill="#DB734C"/>
<path d="M423.132 150.432L423.406 144.39H413.721L408.97 160.505L407.873 144.581L404.218 144.39L403.125 187.553L423.132 150.432Z" fill="#F3FFFD"/>
<path d="M398.063 284.57L418.547 286.205C427.596 286.927 435.403 282.57 435.902 276.15L435.781 264.353L383.69 263.396L383.027 271.932C382.528 278.35 389.014 283.847 398.063 284.57Z" fill="#161C2D"/>
<path d="M396.896 439.998H395.571C395.382 439.998 395.195 439.959 395.021 439.883C394.846 439.807 394.688 439.696 394.554 439.556C394.421 439.416 394.315 439.249 394.242 439.066C394.17 438.883 394.133 438.687 394.133 438.489V417.421L400.138 418.743L398.323 438.631C398.289 439.004 398.124 439.351 397.86 439.604C397.597 439.856 397.253 439.997 396.896 439.998Z" fill="#161C2D"/>
<path d="M382.31 416.126L375.147 429.481C374.552 430.51 373.724 431.368 372.737 431.98C371.75 432.591 370.634 432.938 369.489 432.988C368.593 433.026 367.742 433.412 367.103 434.073C366.463 434.733 366.081 435.62 366.03 436.56V436.569C366 437.089 366.072 437.61 366.242 438.1C366.411 438.589 366.676 439.037 367.018 439.415C367.36 439.792 367.772 440.092 368.229 440.294C368.687 440.497 369.179 440.598 369.675 440.592H375.473C378.488 440.587 381.388 439.381 383.591 437.22L399.282 421.84C400.028 420.796 400.374 419.496 400.25 418.198C400.185 417.502 399.987 416.828 399.666 416.216C399.346 415.604 398.91 415.067 398.385 414.637C397.861 414.208 397.258 413.895 396.615 413.718C395.971 413.541 395.3 413.503 394.642 413.607L382.31 416.126Z" fill="#161C2D"/>
<path d="M381.943 414.423L374.78 427.779C374.185 428.807 373.357 429.665 372.37 430.277C371.383 430.889 370.267 431.235 369.122 431.285C368.226 431.323 367.375 431.71 366.736 432.37C366.096 433.031 365.714 433.918 365.663 434.858C365.632 435.378 365.704 435.899 365.874 436.389C366.044 436.879 366.308 437.326 366.65 437.704C366.992 438.082 367.405 438.381 367.862 438.583C368.319 438.786 368.811 438.887 369.308 438.881H373.466C377.54 438.874 381.46 437.245 384.436 434.324L398.92 420.127C399.667 419.083 400.012 417.783 399.888 416.485C399.823 415.789 399.625 415.115 399.304 414.503C398.984 413.891 398.548 413.354 398.023 412.924C397.499 412.495 396.896 412.182 396.253 412.005C395.609 411.828 394.938 411.79 394.28 411.894L381.943 414.423Z" fill="#232323"/>
<path d="M376.422 424.37L379.656 426.44" stroke="#07113D" stroke-width="1.419" stroke-miterlimit="10" stroke-linecap="round"/>
<path d="M377.742 421.698L380.976 423.766" stroke="#07113D" stroke-width="1.419" stroke-miterlimit="10" stroke-linecap="round"/>
<path d="M379.047 419.143L382.281 421.211" stroke="#07113D" stroke-width="1.419" stroke-miterlimit="10" stroke-linecap="round"/>
<path d="M399.512 410.708H380.914V414.827H399.512V410.708Z" fill="#D15B4B"/>
<path d="M433.22 441.218H431.895C431.514 441.218 431.148 441.059 430.878 440.776C430.609 440.493 430.457 440.109 430.457 439.708V418.641L436.462 419.963L434.65 439.851C434.616 440.225 434.451 440.572 434.187 440.824C433.922 441.077 433.578 441.218 433.22 441.218Z" fill="#161C2D"/>
<path d="M418.63 417.347L411.467 430.703C410.873 431.732 410.045 432.59 409.058 433.202C408.071 433.814 406.955 434.16 405.81 434.209C404.913 434.247 404.063 434.634 403.423 435.294C402.784 435.955 402.401 436.842 402.351 437.782V437.791C402.32 438.311 402.392 438.832 402.562 439.321C402.732 439.811 402.996 440.258 403.338 440.636C403.68 441.014 404.093 441.313 404.55 441.516C405.007 441.718 405.499 441.82 405.995 441.814H411.793C414.808 441.808 417.709 440.603 419.911 438.441L435.604 423.056C436.351 422.012 436.696 420.712 436.572 419.414C436.508 418.719 436.309 418.045 435.989 417.433C435.668 416.82 435.232 416.283 434.707 415.854C434.183 415.425 433.58 415.112 432.937 414.935C432.293 414.758 431.622 414.721 430.964 414.825L418.63 417.347Z" fill="#161C2D"/>
<path d="M418.267 415.646L411.104 429.001C410.51 430.03 409.682 430.889 408.695 431.501C407.708 432.112 406.592 432.458 405.447 432.507C404.55 432.545 403.699 432.932 403.06 433.593C402.42 434.253 402.038 435.14 401.987 436.08V436.089C401.957 436.609 402.028 437.13 402.198 437.62C402.368 438.11 402.632 438.557 402.974 438.935C403.316 439.313 403.729 439.612 404.186 439.815C404.644 440.017 405.136 440.118 405.632 440.112H409.789C413.862 440.105 417.783 438.478 420.759 435.557L435.243 421.36C435.987 420.312 436.328 419.01 436.199 417.71C436.134 417.015 435.936 416.341 435.615 415.729C435.294 415.118 434.858 414.581 434.334 414.151C433.809 413.722 433.207 413.409 432.563 413.232C431.92 413.055 431.249 413.018 430.591 413.122L418.267 415.646Z" fill="#232323"/>
<path d="M412.746 425.591L415.98 427.659" stroke="#07113D" stroke-width="1.419" stroke-miterlimit="10" stroke-linecap="round"/>
<path d="M414.062 422.919L417.297 424.987" stroke="#07113D" stroke-width="1.419" stroke-miterlimit="10" stroke-linecap="round"/>
<path d="M415.367 420.363L418.601 422.431" stroke="#07113D" stroke-width="1.419" stroke-miterlimit="10" stroke-linecap="round"/>
<path d="M435.69 411.471H418.109V415.743H435.69V411.471Z" fill="#D15B4B"/>
<path d="M436.286 261.227H386.402V266.693H436.286V261.227Z" fill="#3D3B88"/>
<path opacity="0.37" d="M439.692 199.005L436.196 260.653L420.939 261.523C420.939 261.523 420.39 228.429 420.11 218.356C419.83 208.283 431.622 179.22 431.622 179.22C434.707 185.63 437.402 192.238 439.692 199.005Z" fill="#591239"/>
<path d="M395.903 258.609L406.12 254.782C406.385 254.668 406.669 254.61 406.956 254.611C407.243 254.613 407.527 254.673 407.791 254.79C408.055 254.907 408.295 255.077 408.497 255.291C408.698 255.505 408.858 255.759 408.966 256.038L409.034 256.247C409.192 256.836 409.125 257.466 408.847 258.004C408.568 258.541 408.1 258.942 407.543 259.122L397.326 262.949C397.061 263.063 396.777 263.121 396.49 263.12C396.203 263.119 395.919 263.058 395.655 262.941C395.39 262.825 395.151 262.654 394.949 262.44C394.747 262.226 394.588 261.972 394.48 261.693L394.412 261.484C394.254 260.895 394.321 260.265 394.6 259.727C394.878 259.19 395.346 258.789 395.903 258.609Z" fill="#FFC7B0"/>
<path d="M411.503 289.027C411.08 289.746 410.515 290.361 409.846 290.829L391.888 303.544C391.272 303.981 390.579 304.286 389.85 304.442C389.121 304.598 388.371 304.602 387.641 304.452C386.91 304.303 386.216 304.005 385.596 303.573C384.976 303.142 384.443 302.587 384.027 301.939L363.274 269.636C362.858 268.989 362.567 268.262 362.419 267.497C362.27 266.732 362.267 265.943 362.409 265.177C362.551 264.41 362.835 263.681 363.246 263.03C363.657 262.379 364.186 261.819 364.803 261.383L365.004 261.237L382.76 248.668C384.004 247.786 385.531 247.459 387.005 247.759C388.479 248.059 389.78 248.961 390.621 250.267L398.586 262.661L406.538 275.034L411.378 282.579C411.985 283.529 412.319 284.641 412.341 285.784C412.363 286.927 412.072 288.053 411.503 289.027Z" fill="#C0C0C0"/>
<path d="M383.579 267.248C383.748 267.668 383.8 268.129 383.729 268.579C383.658 269.029 383.467 269.448 383.179 269.789C382.89 270.13 382.516 270.377 382.099 270.504C381.682 270.63 381.239 270.63 380.822 270.503C380.405 270.376 380.031 270.127 379.743 269.786C379.455 269.445 379.264 269.026 379.194 268.576C379.124 268.126 379.177 267.664 379.346 267.245C379.516 266.825 379.795 266.464 380.151 266.204C380.739 265.872 381.427 265.795 382.068 265.991C382.709 266.186 383.252 266.637 383.579 267.248Z" fill="white"/>
<path opacity="0.6" d="M406.536 275.033L398.965 281.914C397.72 283.12 396.114 283.382 395.402 282.502C395.166 282.197 395.043 281.813 395.056 281.42C395.092 280.899 395.227 280.389 395.453 279.923C395.678 279.456 395.991 279.042 396.371 278.704L401.631 273.922L401.167 273.21L393.755 279.959C392.509 281.151 390.904 281.42 390.192 280.533C389.956 280.229 389.833 279.844 389.846 279.451C389.882 278.931 390.018 278.423 390.244 277.958C390.469 277.492 390.781 277.079 391.161 276.742L398.904 269.693L398.841 269.584C398.737 269.344 398.634 269.119 398.536 268.9L392.427 274.466C391.174 275.672 389.562 275.934 388.848 275.047C388.619 274.739 388.502 274.356 388.517 273.965C388.555 273.445 388.69 272.937 388.916 272.472C389.142 272.007 389.453 271.593 389.832 271.255L397.756 264.047C397.792 264.01 397.831 263.976 397.874 263.946C398.063 263.489 398.307 263.059 398.601 262.668L406.536 275.033Z" fill="#3D3B88"/>
<path d="M415.382 265.416C415.382 265.416 409.985 270.46 408.462 271.955C405.518 274.852 403.36 275.597 401.37 273.953L398.343 269.502C397.046 266.778 396.564 265.42 398.158 263.351L403.406 256.54C404.182 255.544 405.297 254.906 406.515 254.762C407.733 254.617 408.956 254.978 409.923 255.768L413.899 259.052C415.887 260.697 416.976 263.346 415.382 265.416Z" fill="#FFC7B0"/>
<path d="M399.74 267.453L392.374 273.789C391.215 274.85 389.724 275.082 389.061 274.311C388.398 273.534 388.802 272.031 389.962 270.97L397.328 264.635C398.487 263.574 399.978 263.342 400.641 264.113C401.305 264.889 400.899 266.392 399.74 267.453Z" fill="#FFC7B0"/>
<path d="M400.982 272.291L393.616 278.627C392.457 279.688 390.966 279.919 390.303 279.149C389.64 278.371 390.045 276.869 391.204 275.808L398.57 269.473C399.729 268.412 401.22 268.18 401.883 268.951C402.547 269.725 402.141 271.229 400.982 272.291Z" fill="#FFC7B0"/>
<path d="M405.826 274.016L398.46 280.351C397.301 281.412 395.81 281.643 395.147 280.872C394.484 280.095 394.888 278.592 396.048 277.531L403.413 271.194C404.573 270.133 406.064 269.902 406.727 270.673C407.391 271.452 406.985 272.955 405.826 274.016Z" fill="#FFC7B0"/>
<path d="M438.914 236.157C437.309 239.735 435.336 243.118 433.031 246.246C431.797 247.923 430.463 249.516 429.037 251.015L413.471 267.336C412.619 268.252 411.508 268.855 410.303 269.055C409.15 269.196 407.981 268.998 406.928 268.483C405.875 267.968 404.979 267.156 404.339 266.138C401.956 262.685 404.103 260.037 406.76 257.253L420.616 241.041C423.383 237.679 425.689 233.927 427.468 229.895C431.83 219.707 432.928 208.309 430.599 197.41L426.921 179.27C426.037 174.922 428.126 170.688 431.583 169.822C435.04 168.956 438.561 171.766 439.44 176.115L443.125 194.26C446.105 208.335 444.627 223.046 438.914 236.157Z" fill="#FFC7B0"/>
<path d="M428.667 227.405L440.098 233.667C438.618 237.276 436.767 240.704 434.576 243.89L425.234 234.358L428.667 227.405Z" fill="#F4A891"/>
<path d="M430.101 216.727C430.177 216.181 432.031 213.228 429.574 201.624C427.118 190.02 424.137 177.864 426.241 172.155C428.345 166.446 427.567 151.966 432.556 158.979C447.049 179.391 446.59 206.228 446.065 215.438C445.539 224.648 439.574 238.277 439.574 238.277L425.54 229.066C427.759 225.277 429.304 221.096 430.101 216.727Z" fill="#F5F5F5"/>
<path d="M427.649 224.646L434.14 229.066L433.965 234.777L438.35 231.277L442.034 233.672L438.35 240.856L424.141 231.094L427.649 224.646Z" fill="#183972"/>
</svg>
