<svg width="451" height="450" viewBox="0 0 451 450" fill="none" xmlns="http://www.w3.org/2000/svg">
<path d="M112.402 444.648C18.6065 431.298 -1.20678 419.616 0.610949 415.444C316.897 387.075 432.323 416.139 450.5 434.218C376.882 443.257 206.197 457.998 112.402 444.648Z" fill="#EFEFEF"/>
<path d="M235.19 113.303L214.598 182.622L221.938 174.833C218.984 176.235 215.839 177.268 212.587 177.905C208.885 178.637 205.123 179.08 201.34 179.231C197.369 179.421 193.229 179.383 188.999 179.231C184.769 179.079 180.441 178.775 176.051 178.432H176.028C172.993 178.195 169.976 179.051 167.613 180.82C165.249 182.588 163.722 185.131 163.353 187.915C162.983 190.698 163.8 193.505 165.632 195.745C167.464 197.985 170.167 199.485 173.175 199.928C177.703 200.592 182.308 201.221 187.031 201.724C191.754 202.227 196.597 202.604 201.612 202.709C206.819 202.845 212.029 202.581 217.188 201.92C222.814 201.2 228.312 199.801 233.541 197.759C235.194 197.104 236.679 196.136 237.898 194.918C239.118 193.7 240.045 192.258 240.62 190.688L240.881 189.968L265.585 121.798C266.885 118.126 266.554 114.13 264.666 110.682C262.778 107.234 259.486 104.613 255.507 103.391C251.528 102.168 247.186 102.444 243.427 104.158C239.668 105.872 236.798 108.884 235.443 112.539C235.357 112.774 235.264 113.061 235.19 113.303Z" fill="#EA9B7A"/>
<path d="M227.261 364.606C227.576 364.605 227.889 364.554 228.184 364.454L336.064 328.647C336.717 328.405 337.243 327.938 337.531 327.346C337.819 326.754 337.846 326.082 337.607 325.472C337.367 324.861 336.88 324.36 336.248 324.074C335.616 323.787 334.887 323.738 334.216 323.936L226.337 359.744C225.733 359.943 225.224 360.332 224.901 360.842C224.578 361.353 224.461 361.952 224.572 362.534C224.682 363.116 225.013 363.644 225.504 364.023C225.996 364.402 226.618 364.61 227.26 364.608L227.261 364.606Z" fill="#C77E2E"/>
<path d="M339.624 364.607C340.265 364.608 340.885 364.4 341.376 364.021C341.867 363.641 342.197 363.115 342.307 362.534C342.418 361.953 342.302 361.354 341.981 360.844C341.66 360.334 341.153 359.944 340.55 359.744L231.392 323.347C230.718 323.138 229.981 323.18 229.341 323.465C228.7 323.749 228.206 324.253 227.964 324.868C227.721 325.484 227.75 326.163 228.045 326.759C228.339 327.355 228.875 327.821 229.538 328.058L338.698 364.455C338.995 364.555 339.308 364.606 339.624 364.607Z" fill="#C77E2E"/>
<path d="M217.671 428.598C218.798 428.596 219.886 428.218 220.733 427.534C221.581 426.85 222.13 425.907 222.28 424.878L241.761 290.938H323.298L342.48 424.871C342.657 425.986 343.303 426.993 344.28 427.672C345.256 428.352 346.484 428.65 347.698 428.503C348.912 428.356 350.014 427.774 350.765 426.885C351.517 425.995 351.857 424.868 351.714 423.749L331.999 286.091C331.851 285.059 331.3 284.112 330.45 283.426C329.599 282.741 328.507 282.363 327.376 282.364H237.682C236.552 282.362 235.461 282.739 234.611 283.422C233.76 284.106 233.209 285.052 233.059 286.082L213.033 423.742C212.945 424.348 212.999 424.965 213.191 425.551C213.383 426.137 213.708 426.678 214.146 427.139C214.584 427.6 215.123 427.969 215.729 428.222C216.334 428.474 216.991 428.605 217.656 428.605L217.671 428.598Z" fill="#FAAF3A"/>
<path d="M263.668 286.652H321.922C340.378 286.652 360.141 277.353 362.976 260.564C366.543 239.353 367.772 217.864 366.644 196.425C366.061 185.273 362.888 174.366 357.339 164.439C351.79 154.512 343.994 145.795 334.476 138.877C334.476 138.877 322.84 185.563 337.471 249.999C331.882 274.471 263.668 286.652 263.668 286.652Z" fill="#FAAF3A"/>
<path d="M275.806 12.8336C275.806 12.8336 282.74 -2.53099 301.065 0.362887C313.877 2.38586 319.337 17.0817 318.581 39.7767C317.483 72.807 329.619 92.71 329.619 92.71L313.511 96.0811C313.511 96.0811 272.51 39.4576 275.806 12.8336Z" fill="#39393B"/>
<path d="M128.894 371.202H154.913C154.913 371.202 160.934 344.615 162.955 329.709C164.975 314.804 166.024 279.453 166.024 279.453C166.024 279.453 186.761 285.652 230.165 283.315C326.339 278.147 289.872 213.096 289.872 213.096C286.623 217.227 266.72 214.362 253.114 216.336C211.358 220.025 175.147 235.113 153.414 243.744C148.594 245.627 143.928 247.829 139.454 250.333C134.214 253.307 130.935 262.327 128.96 274.195C123.024 309.85 128.894 371.202 128.894 371.202Z" fill="#39393B"/>
<path d="M151.683 358.391C151.898 358.391 152.106 358.322 152.272 358.196C152.438 358.071 152.552 357.897 152.594 357.703C156.347 340.598 157.606 319.309 158.62 302.204C159.46 288.02 160.253 274.622 162.232 273.011C163.835 271.707 170.487 272.726 178.918 274.013C195.68 276.574 221.016 280.447 248.947 274.469C264.163 271.21 275.348 264.404 282.195 254.244C293.999 236.721 288.617 214.997 288.562 214.778C288.534 214.668 288.483 214.565 288.411 214.473C288.34 214.382 288.249 214.304 288.145 214.245C288.041 214.185 287.925 214.146 287.804 214.127C287.683 214.109 287.56 214.113 287.44 214.139C287.321 214.165 287.209 214.212 287.109 214.278C287.01 214.344 286.925 214.427 286.861 214.523C286.796 214.619 286.753 214.726 286.733 214.837C286.714 214.948 286.718 215.062 286.746 215.172C286.799 215.383 292.001 236.443 280.6 253.352C274.024 263.103 263.23 269.646 248.521 272.797C220.95 278.703 195.837 274.867 179.22 272.327C169.268 270.807 163.262 269.888 160.996 271.733C158.547 273.724 157.859 283.521 156.756 302.116C155.747 319.166 154.491 340.387 150.765 357.368C150.737 357.493 150.74 357.622 150.773 357.745C150.806 357.868 150.869 357.984 150.956 358.082C151.044 358.18 151.154 358.26 151.279 358.314C151.403 358.368 151.54 358.396 151.678 358.396L151.683 358.391Z" fill="#585859"/>
<path d="M128.396 358.843H128.418L157.352 358.272C157.474 358.269 157.595 358.245 157.707 358.199C157.819 358.154 157.92 358.089 158.005 358.008C158.089 357.926 158.156 357.83 158.2 357.726C158.244 357.621 158.266 357.509 158.263 357.396C158.262 357.283 158.236 357.172 158.187 357.068C158.139 356.964 158.068 356.871 157.979 356.792C157.891 356.714 157.786 356.653 157.672 356.613C157.557 356.572 157.435 356.553 157.312 356.557L128.378 357.129C128.131 357.131 127.896 357.224 127.723 357.386C127.55 357.549 127.454 357.768 127.457 357.995C127.46 358.222 127.56 358.439 127.737 358.598C127.913 358.757 128.151 358.845 128.398 358.843H128.396Z" fill="#585859"/>
<path d="M129.613 401.894H147.978L151.514 382.057L153.451 371.203H130.635L130.274 382.057L129.613 401.894Z" fill="#EA9B7A"/>
<path d="M129.613 401.893H147.978L150.62 387.125L151.523 382.057H130.274L130.097 387.311L129.613 401.893Z" fill="#FAAF3A"/>
<path d="M130.098 387.311L150.614 387.125L151.517 382.057H130.273L130.098 387.311Z" fill="#C77E2E"/>
<path d="M84.2902 428.601H153.756C154.322 427.488 154.633 426.278 154.669 425.049C155.103 419.64 153.231 411.007 152.313 405.564C152.201 404.927 152.105 404.335 152.031 403.798C151.915 403.061 151.846 402.318 151.824 401.573C151.912 401.049 151.859 400.513 151.671 400.011C151.482 399.51 151.164 399.058 150.743 398.696C150.323 398.333 149.812 398.071 149.256 397.931C148.7 397.791 148.116 397.778 147.553 397.893C140.522 404.24 132.565 394.724 127.917 397.845C127.917 397.845 127.729 397.972 127.302 398.278C126.912 398.562 126.311 399.001 125.497 399.637C124.312 400.549 122.651 401.871 120.401 403.733C114.888 408.3 105.509 411.315 97.5223 414.389C96.5042 414.781 95.5577 415.172 94.6827 415.562C94.0223 415.858 93.3939 416.154 92.7973 416.45C86.2713 419.695 84.1928 422.795 83.7173 425.049C83.423 426.258 83.6272 427.524 84.2902 428.601Z" fill="#2C2A72"/>
<path d="M92.7969 416.448C94.5865 417.76 98.5668 420.382 101.756 420.382C101.897 420.382 102.039 420.382 102.176 420.368C104.429 420.195 112.709 416.448 119.443 413.042C123.304 411.088 126.827 409.166 129.363 407.625C133.52 405.102 134.242 404.139 134.405 403.47C135.012 400.947 130.481 399.187 127.306 398.276C126.916 398.561 126.315 399 125.502 399.635C129.449 400.625 132.691 402.179 132.541 403.063C132.155 403.812 128.042 406.697 118.213 411.65C110.713 415.428 103.6 418.489 102.021 418.606C99.8744 418.758 96.7376 416.974 94.6872 415.567C94.0191 415.858 93.389 416.152 92.7969 416.448Z" fill="white"/>
<path d="M84.2918 428.6H153.754C154.321 427.486 154.633 426.277 154.669 425.048H83.7222C83.4268 426.256 83.6298 427.522 84.2918 428.6Z" fill="#504E99"/>
<path d="M146.668 428.6H148.732C147.406 427.204 146.393 425.581 145.753 423.824C145.112 422.066 144.856 420.209 144.999 418.36C145.193 415.878 145.942 413.459 147.201 411.256C148.46 409.054 150.2 407.115 152.313 405.563C152.202 404.926 152.106 404.333 152.03 403.795C149.522 405.48 147.445 407.651 145.945 410.154C144.444 412.657 143.557 415.432 143.345 418.284C143.081 421.977 144.26 425.636 146.668 428.6Z" fill="#267267"/>
<path d="M121.577 407.501C121.856 407.5 122.125 407.405 122.334 407.234C122.542 407.064 122.676 406.829 122.709 406.574C122.743 406.319 122.674 406.061 122.516 405.85C122.358 405.638 122.122 405.486 121.851 405.424L117.513 404.433C117.22 404.37 116.912 404.416 116.656 404.56C116.4 404.705 116.216 404.936 116.143 405.205C116.071 405.473 116.116 405.757 116.269 405.995C116.422 406.233 116.671 406.406 116.961 406.477L121.3 407.469C121.391 407.49 121.484 407.501 121.577 407.501Z" fill="white"/>
<path d="M125.89 404.176C126.169 404.177 126.44 404.083 126.65 403.913C126.859 403.742 126.994 403.507 127.028 403.251C127.062 402.995 126.993 402.737 126.834 402.525C126.675 402.313 126.437 402.162 126.165 402.1L121.827 401.108C121.678 401.068 121.523 401.056 121.37 401.073C121.216 401.09 121.068 401.135 120.934 401.206C120.8 401.277 120.683 401.372 120.59 401.485C120.497 401.599 120.43 401.728 120.393 401.866C120.356 402.004 120.349 402.148 120.374 402.288C120.399 402.428 120.454 402.563 120.536 402.683C120.618 402.803 120.726 402.907 120.853 402.988C120.98 403.069 121.124 403.125 121.275 403.154L125.614 404.145C125.704 404.166 125.797 404.177 125.89 404.176Z" fill="white"/>
<path d="M117.241 409.825C117.52 409.823 117.789 409.728 117.998 409.558C118.206 409.387 118.34 409.152 118.373 408.897C118.407 408.642 118.338 408.384 118.18 408.173C118.022 407.961 117.786 407.81 117.516 407.747L113.177 406.756C112.884 406.693 112.576 406.739 112.32 406.883C112.064 407.028 111.88 407.259 111.807 407.528C111.735 407.796 111.78 408.08 111.933 408.318C112.086 408.557 112.335 408.73 112.626 408.8L116.964 409.793C117.055 409.813 117.148 409.824 117.241 409.825Z" fill="white"/>
<path d="M112.901 412.057C113.179 412.056 113.448 411.961 113.657 411.79C113.865 411.619 113.999 411.384 114.032 411.129C114.066 410.874 113.997 410.617 113.839 410.405C113.682 410.193 113.445 410.042 113.175 409.979L108.836 408.988C108.689 408.951 108.535 408.942 108.384 408.96C108.233 408.979 108.087 409.025 107.956 409.096C107.824 409.167 107.709 409.262 107.618 409.374C107.527 409.487 107.461 409.615 107.424 409.751C107.387 409.888 107.381 410.029 107.405 410.168C107.428 410.307 107.482 410.44 107.562 410.559C107.642 410.678 107.748 410.782 107.872 410.863C107.997 410.944 108.137 411.002 108.286 411.033L112.625 412.024C112.715 412.045 112.807 412.057 112.901 412.057Z" fill="white"/>
<path d="M108.167 414.122C108.446 414.12 108.715 414.025 108.923 413.855C109.132 413.684 109.265 413.449 109.299 413.194C109.333 412.939 109.264 412.681 109.106 412.47C108.948 412.258 108.712 412.106 108.441 412.044L104.103 411.053C103.81 410.99 103.502 411.036 103.246 411.18C102.99 411.325 102.805 411.556 102.733 411.825C102.661 412.093 102.706 412.377 102.859 412.615C103.012 412.853 103.261 413.026 103.551 413.097L107.89 414.09C107.981 414.11 108.074 414.121 108.167 414.122Z" fill="white"/>
<path d="M103.036 415.883C103.317 415.885 103.589 415.791 103.8 415.62C104.011 415.45 104.146 415.213 104.18 414.957C104.214 414.7 104.144 414.441 103.983 414.228C103.823 414.016 103.583 413.865 103.31 413.805L98.9713 412.814C98.8246 412.779 98.6718 412.77 98.5216 412.789C98.3713 412.809 98.2268 412.855 98.0963 412.926C97.9658 412.997 97.852 413.092 97.7614 413.204C97.6709 413.316 97.6054 413.443 97.5689 413.579C97.5323 413.714 97.5254 413.855 97.5485 413.993C97.5716 414.131 97.6243 414.263 97.7035 414.383C97.7827 414.502 97.8868 414.605 98.0098 414.687C98.1328 414.768 98.2721 414.827 98.4199 414.858L102.758 415.849C102.849 415.871 102.942 415.883 103.036 415.883Z" fill="white"/>
<path d="M338.036 192.469C338.036 192.469 338.861 197.637 331.34 199.087L252.976 201.491C251.388 200.662 250.118 199.4 249.34 197.88C248.563 196.359 248.317 194.653 248.635 192.998C248.635 192.998 281.722 175.892 338.036 192.469Z" fill="#504E99"/>
<path d="M251.906 216.331C292.585 236.929 336.999 220.344 336.999 220.344C334.862 214.735 333.206 208.98 332.047 203.133C330.691 196.618 329.93 190.867 329.584 187.842C312.28 186.969 269.867 185.307 253.247 188.937L253.12 195.07L251.906 216.331Z" fill="#EA9B7A"/>
<path d="M281.955 206.451C282.256 208.381 283.202 209.854 284.07 209.74C284.938 209.626 285.391 207.966 285.097 206.036C284.803 204.105 283.849 202.631 282.982 202.747C282.115 202.862 281.655 204.52 281.955 206.451Z" fill="#D96C63"/>
<path d="M253.121 195.069C270.443 194.1 304.526 193.764 332.051 203.136C330.696 196.621 329.935 190.87 329.588 187.845C312.285 186.971 269.871 185.31 253.252 188.94L253.121 195.069Z" fill="#D96C63"/>
<path d="M233.789 165.438C233.947 165.885 234.142 166.32 234.373 166.739C234.456 166.891 234.538 167.043 234.634 167.195C236.832 170.692 239.665 173.817 243.009 176.433C243.597 176.907 244.165 177.345 244.682 177.734C245.727 178.514 246.611 179.118 247.219 179.52C247.779 179.889 248.107 180.079 248.107 180.079C248.107 180.114 248.107 180.149 248.117 180.19C248.148 180.467 248.172 180.76 248.2 181.068C248.297 182.246 248.383 183.652 248.444 185.253C248.5 186.542 248.538 187.955 248.576 189.472C248.598 190.6 248.621 191.776 248.635 193.001C271.623 183.547 318.965 189.505 338.034 192.469C337.685 190.949 337.365 189.465 337.073 188.017C335.841 182.032 335.037 175.978 334.668 169.896C334.375 158.994 335.098 148.089 336.831 137.302C336.95 136.49 337.073 135.686 337.201 134.87C337.283 134.341 337.366 133.817 337.463 133.288C338.114 129.371 338.87 125.447 339.733 121.641C343.494 105.034 340.854 87.5951 322.564 85.5402C321.243 85.3882 319.922 85.2545 318.658 85.1299C310.036 84.2833 302.944 83.993 300.975 83.9231L300.428 83.9033L265.072 93.3571L261.709 94.2553C259.776 94.8283 257.991 95.3815 256.339 95.9272C255.634 96.1628 254.95 96.3923 254.292 96.6172C252.578 97.21 251.023 97.7891 249.611 98.3621C247.21 99.295 244.916 100.446 242.763 101.799C235.004 106.867 236.209 112.59 236.407 123.907C236.407 123.959 236.407 124.009 236.407 124.059C236.407 124.203 236.407 124.345 236.407 124.495C236.407 124.559 236.407 124.624 236.407 124.688C236.407 125.144 236.407 125.612 236.407 126.073C236.397 127.533 236.342 128.989 236.242 130.441C236.11 132.576 235.904 134.697 235.651 136.78C235.55 137.615 235.446 138.445 235.336 139.265C235.233 140.039 235.124 140.808 235.015 141.57C233.62 151.473 231.869 160.152 233.789 165.438Z" fill="#504E99"/>
<path d="M236.414 124.059C236.414 124.203 236.414 124.344 236.414 124.495C236.414 124.559 236.414 124.624 236.414 124.688C236.414 125.144 236.414 125.612 236.414 126.072L243.843 130.365C243.958 130.436 244.088 130.485 244.224 130.509C244.36 130.533 244.5 130.532 244.636 130.505C244.772 130.479 244.9 130.427 245.014 130.354C245.128 130.281 245.224 130.188 245.298 130.079C245.372 129.971 245.421 129.851 245.444 129.725C245.466 129.599 245.46 129.47 245.428 129.346C245.395 129.222 245.335 129.105 245.252 129.002C245.17 128.9 245.066 128.814 244.946 128.749L237.068 124.198C236.873 124.086 236.643 124.037 236.414 124.059Z" fill="#2C2A72"/>
<path d="M285.4 160.696C285.611 160.697 285.818 160.639 285.992 160.529C286.166 160.419 286.3 160.263 286.375 160.081C286.451 159.9 286.464 159.701 286.414 159.512C286.363 159.324 286.252 159.153 286.094 159.025L279.18 153.298C279.078 153.214 278.96 153.149 278.832 153.107C278.703 153.066 278.567 153.047 278.431 153.054C278.295 153.061 278.162 153.092 278.039 153.146C277.916 153.2 277.806 153.276 277.715 153.369C277.624 153.462 277.554 153.571 277.509 153.689C277.463 153.807 277.443 153.933 277.451 154.058C277.458 154.183 277.492 154.306 277.551 154.419C277.609 154.532 277.692 154.633 277.793 154.717L284.705 160.444C284.895 160.605 285.142 160.695 285.4 160.696Z" fill="#2C2A72"/>
<path d="M235.039 141.564L239.774 145.488C239.978 145.658 240.248 145.746 240.522 145.732C240.797 145.719 241.055 145.606 241.239 145.418C241.423 145.229 241.519 144.981 241.504 144.729C241.49 144.476 241.367 144.238 241.162 144.069L235.359 139.26C235.257 140.044 235.15 140.804 235.039 141.564Z" fill="#2C2A72"/>
<path d="M299.419 137.665C299.539 137.507 299.603 137.318 299.604 137.125C299.605 136.932 299.542 136.744 299.424 136.584C299.306 136.425 299.138 136.302 298.943 136.232C298.747 136.162 298.534 136.148 298.33 136.192L289.276 138.156C289.143 138.185 289.018 138.237 288.908 138.311C288.797 138.384 288.703 138.476 288.632 138.583C288.56 138.69 288.512 138.808 288.49 138.932C288.468 139.056 288.473 139.182 288.504 139.304C288.535 139.426 288.592 139.542 288.672 139.643C288.752 139.745 288.852 139.831 288.968 139.897C289.084 139.963 289.213 140.008 289.347 140.028C289.481 140.048 289.619 140.044 289.751 140.015L298.805 138.051C299.055 137.997 299.273 137.859 299.419 137.665Z" fill="#2C2A72"/>
<path d="M331.717 154.013C331.926 154.013 332.131 153.954 332.304 153.845C332.477 153.735 332.61 153.58 332.685 153.4C332.76 153.22 332.774 153.023 332.725 152.835C332.676 152.647 332.566 152.477 332.41 152.348L325.496 146.62C325.291 146.451 325.022 146.363 324.748 146.376C324.473 146.39 324.215 146.503 324.032 146.691C323.848 146.88 323.753 147.127 323.767 147.38C323.782 147.633 323.905 147.87 324.109 148.039L331.022 153.766C331.212 153.925 331.46 154.013 331.717 154.013Z" fill="#2C2A72"/>
<path d="M251.258 152.651C251.192 152.469 251.066 152.308 250.899 152.192C250.732 152.076 250.53 152.009 250.321 152.001C250.112 151.992 249.904 152.042 249.727 152.144C249.549 152.246 249.409 152.396 249.325 152.572L245.61 160.423C245.506 160.654 245.505 160.914 245.607 161.146C245.709 161.378 245.906 161.564 246.155 161.664C246.405 161.763 246.687 161.769 246.941 161.679C247.194 161.589 247.4 161.411 247.512 161.183L251.225 153.332C251.327 153.117 251.339 152.874 251.258 152.651Z" fill="#2C2A72"/>
<path d="M233.781 165.438C233.939 165.884 234.135 166.319 234.366 166.739C234.448 166.891 234.531 167.043 234.627 167.195L239.675 165.728C239.937 165.651 240.155 165.483 240.282 165.259C240.409 165.034 240.435 164.773 240.354 164.532C240.271 164.29 240.087 164.089 239.843 163.972C239.6 163.855 239.315 163.831 239.053 163.907L233.781 165.438Z" fill="#2C2A72"/>
<path d="M262.33 166.122C262.121 166.102 261.911 166.141 261.727 166.234C261.543 166.327 261.394 166.469 261.299 166.641C261.204 166.814 261.169 167.009 261.197 167.2C261.225 167.391 261.316 167.571 261.457 167.714L267.706 174.054C267.797 174.147 267.908 174.223 268.031 174.276C268.154 174.33 268.287 174.361 268.423 174.367C268.559 174.373 268.695 174.354 268.824 174.312C268.952 174.27 269.07 174.205 269.171 174.121C269.272 174.036 269.354 173.935 269.412 173.821C269.47 173.708 269.503 173.585 269.51 173.46C269.517 173.335 269.497 173.209 269.451 173.091C269.405 172.973 269.334 172.865 269.243 172.772L262.992 166.431C262.821 166.256 262.585 166.146 262.33 166.122Z" fill="#2C2A72"/>
<path d="M266.014 151.506C266.221 151.473 266.412 151.383 266.562 151.248C266.712 151.113 266.814 150.94 266.855 150.75C266.896 150.56 266.873 150.364 266.789 150.187C266.706 150.009 266.566 149.859 266.388 149.757L258.51 145.197C258.395 145.13 258.267 145.085 258.132 145.064C257.998 145.043 257.861 145.047 257.728 145.075C257.595 145.103 257.47 145.154 257.358 145.227C257.247 145.3 257.153 145.392 257.081 145.498C257.008 145.604 256.959 145.722 256.936 145.846C256.914 145.97 256.918 146.096 256.948 146.218C256.978 146.341 257.035 146.456 257.113 146.558C257.192 146.66 257.292 146.747 257.408 146.814L265.286 151.374C265.502 151.5 265.762 151.547 266.014 151.506Z" fill="#2C2A72"/>
<path d="M260.995 123.928C260.855 124.072 260.766 124.252 260.739 124.443C260.712 124.635 260.749 124.829 260.845 125.001C260.941 125.173 261.091 125.314 261.276 125.405C261.46 125.497 261.671 125.535 261.879 125.514L271.125 124.587C271.398 124.559 271.648 124.433 271.821 124.235C271.993 124.038 272.073 123.786 272.043 123.534C272.013 123.282 271.876 123.052 271.662 122.893C271.448 122.735 271.173 122.661 270.9 122.688L261.655 123.615C261.4 123.64 261.165 123.752 260.995 123.928Z" fill="#2C2A72"/>
<path d="M274.437 105.467C274.388 105.279 274.278 105.11 274.121 104.981C273.965 104.851 273.769 104.769 273.561 104.745C273.353 104.721 273.141 104.755 272.955 104.844C272.768 104.933 272.615 105.072 272.517 105.242L268.115 112.786C268.051 112.896 268.011 113.017 267.997 113.142C267.984 113.267 267.997 113.393 268.036 113.513C268.076 113.633 268.14 113.744 268.227 113.841C268.313 113.938 268.419 114.019 268.539 114.078C268.659 114.138 268.79 114.174 268.926 114.187C269.061 114.199 269.198 114.187 269.329 114.151C269.459 114.115 269.58 114.055 269.686 113.976C269.791 113.897 269.879 113.799 269.943 113.688L274.344 106.145C274.465 105.938 274.498 105.696 274.437 105.467Z" fill="#2C2A72"/>
<path d="M243.008 176.431C243.596 176.906 244.163 177.343 244.68 177.732L245.897 174.881C245.947 174.765 245.971 174.64 245.969 174.515C245.967 174.389 245.938 174.266 245.883 174.151C245.829 174.036 245.751 173.932 245.653 173.845C245.555 173.758 245.439 173.69 245.312 173.644C245.186 173.598 245.05 173.575 244.914 173.577C244.778 173.579 244.644 173.606 244.519 173.656C244.394 173.706 244.281 173.778 244.186 173.869C244.091 173.959 244.017 174.065 243.967 174.182L243.008 176.431Z" fill="#2C2A72"/>
<path d="M328.021 161.926C328.12 161.756 328.161 161.562 328.138 161.37C328.115 161.178 328.029 160.997 327.892 160.851C327.755 160.704 327.573 160.6 327.371 160.551C327.168 160.502 326.954 160.511 326.756 160.576L318.006 163.474C317.878 163.517 317.76 163.582 317.66 163.666C317.559 163.751 317.477 163.852 317.419 163.966C317.302 164.195 317.288 164.457 317.381 164.696C317.475 164.934 317.667 165.128 317.915 165.236C318.164 165.344 318.449 165.357 318.708 165.271L327.458 162.372C327.699 162.293 327.9 162.134 328.021 161.926Z" fill="#2C2A72"/>
<path d="M323.735 172.814C323.524 172.815 323.319 172.875 323.147 172.986C322.974 173.097 322.842 173.253 322.769 173.435C322.695 173.616 322.683 173.814 322.734 174.002C322.786 174.19 322.898 174.359 323.056 174.486L330.021 180.16C330.227 180.328 330.497 180.413 330.772 180.398C331.046 180.382 331.303 180.267 331.485 180.077C331.667 179.888 331.76 179.639 331.743 179.386C331.726 179.134 331.601 178.898 331.395 178.73L324.43 173.056C324.238 172.899 323.991 172.813 323.735 172.814Z" fill="#2C2A72"/>
<path d="M311.111 181.825C310.981 181.977 310.903 182.162 310.889 182.355C310.875 182.548 310.925 182.74 311.032 182.907C311.14 183.073 311.3 183.205 311.491 183.286C311.682 183.367 311.895 183.392 312.102 183.359L321.271 181.921C321.542 181.879 321.784 181.739 321.943 181.532C322.102 181.325 322.166 181.069 322.12 180.819C322.073 180.569 321.921 180.347 321.697 180.2C321.472 180.054 321.194 179.995 320.923 180.038L311.745 181.482C311.495 181.521 311.27 181.643 311.111 181.825Z" fill="#2C2A72"/>
<path d="M303.441 101.667C303.496 101.48 303.488 101.283 303.419 101.101C303.35 100.918 303.222 100.76 303.052 100.646C302.883 100.532 302.68 100.468 302.47 100.462C302.261 100.457 302.054 100.51 301.878 100.615L294.064 105.257C293.946 105.323 293.844 105.411 293.764 105.514C293.684 105.617 293.627 105.734 293.596 105.858C293.565 105.982 293.562 106.111 293.586 106.236C293.61 106.361 293.661 106.48 293.736 106.587C293.811 106.694 293.908 106.786 294.022 106.858C294.136 106.929 294.265 106.979 294.4 107.005C294.535 107.03 294.674 107.031 294.81 107.006C294.945 106.981 295.074 106.931 295.188 106.86L303.002 102.218C303.217 102.091 303.374 101.894 303.441 101.667Z" fill="#2C2A72"/>
<path d="M250.121 107.135C249.937 107.043 249.726 107.005 249.518 107.026C249.31 107.046 249.113 107.124 248.954 107.25C248.794 107.375 248.68 107.542 248.626 107.728C248.571 107.914 248.579 108.111 248.648 108.293L251.759 116.364C251.857 116.595 252.049 116.781 252.294 116.884C252.539 116.987 252.817 116.998 253.071 116.915C253.325 116.832 253.533 116.662 253.653 116.44C253.773 116.218 253.794 115.962 253.712 115.725L250.603 107.656C250.518 107.434 250.346 107.248 250.121 107.135Z" fill="#2C2A72"/>
<path d="M254.297 96.6236L259.101 102.294C259.185 102.393 259.289 102.476 259.407 102.538C259.526 102.6 259.656 102.64 259.791 102.655C259.926 102.67 260.063 102.661 260.195 102.628C260.326 102.595 260.449 102.538 260.556 102.461C260.664 102.384 260.754 102.288 260.821 102.179C260.888 102.07 260.931 101.95 260.948 101.825C260.965 101.701 260.955 101.575 260.919 101.454C260.883 101.333 260.821 101.22 260.737 101.121L256.344 95.9336C255.639 96.1677 254.954 96.3926 254.297 96.6236Z" fill="#2C2A72"/>
<path d="M301.266 174.933C301.194 175.128 301.041 175.289 300.841 175.381C300.641 175.474 300.409 175.49 300.196 175.427C289.952 172.807 279.06 173.336 269.172 176.933C262.563 179.614 255.428 181.021 248.206 181.069C248.181 180.765 248.154 180.461 248.125 180.19L248.115 180.081C248.115 180.081 247.785 179.888 247.227 179.52C254.559 179.618 261.826 178.244 268.523 175.494C278.774 171.696 290.107 171.152 300.731 173.949C300.944 174.015 301.119 174.155 301.22 174.339C301.32 174.524 301.337 174.737 301.266 174.933Z" fill="#2C2A72"/>
<path d="M265.078 93.3636C267.059 96.1906 271.147 99.3945 279.423 98.8352C290.839 98.0752 298.352 88.0439 300.976 83.922C300.619 83.9083 300.433 83.9053 300.433 83.9053L265.078 93.3636Z" fill="#2C2A72"/>
<path d="M277.222 111.968C276.889 112.031 276.552 112.075 276.213 112.1C274.822 112.27 273.407 112.131 272.086 111.696C270.765 111.26 269.577 110.54 268.619 109.596C263.13 104.072 265.383 91.4862 265.482 90.9512C265.52 90.7476 265.644 90.5662 265.827 90.4467C266.01 90.3273 266.237 90.2797 266.458 90.3144C266.679 90.349 266.876 90.4631 267.006 90.6316C267.136 90.8 267.188 91.009 267.15 91.2126C267.127 91.3357 264.934 103.585 269.867 108.539C270.651 109.31 271.625 109.894 272.707 110.243C273.789 110.592 274.947 110.695 276.081 110.543C287.142 109.722 299.541 83.8533 299.665 83.5919C299.759 83.4087 299.927 83.2664 300.133 83.1952C300.339 83.124 300.567 83.1295 300.769 83.2105C300.971 83.2916 301.13 83.4417 301.214 83.6293C301.297 83.8168 301.298 84.0269 301.217 84.215C300.706 85.2926 288.949 109.778 277.222 111.968Z" fill="white"/>
<path d="M242.773 101.799C243.361 111.707 241.119 121.583 236.271 130.446C236.393 128.534 236.451 126.616 236.436 124.691C236.436 124.628 236.436 124.561 236.436 124.497C236.436 124.299 236.428 124.105 236.425 123.912C236.217 112.598 235.013 106.866 242.773 101.799Z" fill="#EA9B7A"/>
<path d="M307.802 114.938C311.858 129.347 326.688 140.908 336.83 137.302C336.949 136.492 337.074 135.686 337.203 134.87C337.285 134.342 337.368 133.818 337.464 133.288C338.112 129.371 338.872 125.448 339.737 121.641C343.494 105.034 340.855 87.6043 322.567 85.5403C321.247 85.3883 319.926 85.2545 318.66 85.1299C309.504 88.7259 303.139 98.3469 307.802 114.938Z" fill="#EA9B7A"/>
<path d="M305.712 103.949L281.938 183.951L290.411 174.96C287.001 176.578 283.372 177.77 279.621 178.506C275.348 179.35 271.005 179.863 266.639 180.038C262.056 180.257 257.279 180.219 252.397 180.038C247.515 179.857 242.521 179.514 237.454 179.116H237.428C233.927 178.845 230.447 179.833 227.721 181.874C224.995 183.914 223.233 186.848 222.807 190.059C222.381 193.27 223.323 196.509 225.436 199.093C227.548 201.678 230.667 203.409 234.136 203.922C239.361 204.682 244.676 205.414 250.127 205.995C255.578 206.576 261.168 207.01 266.953 207.132C272.962 207.287 278.975 206.982 284.93 206.22C291.422 205.389 297.767 203.775 303.802 201.419C305.71 200.663 307.423 199.546 308.831 198.14C310.239 196.734 311.309 195.071 311.972 193.258L312.272 192.429L340.784 113.751C342.323 109.504 341.966 104.869 339.792 100.864C337.618 96.8592 333.806 93.8135 329.193 92.3968C324.58 90.9801 319.544 91.3085 315.194 93.3097C310.844 95.3109 307.536 98.8211 305.997 103.068C305.905 103.338 305.796 103.67 305.712 103.949Z" fill="#EA9B7A"/>
<path d="M295.076 181.389C295.232 181.39 295.385 181.343 295.51 181.256C295.634 181.168 295.724 181.045 295.764 180.906C295.804 180.766 295.793 180.619 295.731 180.486C295.67 180.353 295.562 180.243 295.426 180.173C292.066 178.469 288.38 177.381 284.571 176.969C284.479 176.962 284.386 176.972 284.298 176.999C284.21 177.025 284.129 177.067 284.059 177.122C283.988 177.178 283.931 177.245 283.889 177.321C283.847 177.397 283.822 177.48 283.815 177.565C283.807 177.649 283.819 177.735 283.847 177.816C283.876 177.896 283.922 177.971 283.982 178.036C284.042 178.101 284.115 178.154 284.197 178.192C284.28 178.231 284.37 178.254 284.462 178.261C288.061 178.669 291.544 179.7 294.727 181.3C294.833 181.357 294.953 181.387 295.076 181.389Z" fill="#D96C63"/>
<path d="M286.441 178.503C286.57 178.503 286.696 178.47 286.806 178.409C289.049 177.247 291.529 176.528 294.09 176.297C294.182 176.291 294.272 176.269 294.355 176.231C294.437 176.193 294.511 176.14 294.572 176.076C294.632 176.012 294.678 175.937 294.708 175.857C294.737 175.776 294.749 175.691 294.742 175.606C294.736 175.521 294.711 175.438 294.67 175.362C294.628 175.286 294.571 175.218 294.501 175.162C294.432 175.107 294.351 175.064 294.263 175.037C294.175 175.01 294.083 175 293.991 175.006C291.205 175.245 288.507 176.027 286.075 177.301C285.944 177.374 285.843 177.485 285.787 177.617C285.731 177.748 285.723 177.893 285.765 178.029C285.806 178.165 285.894 178.285 286.017 178.37C286.139 178.456 286.288 178.502 286.441 178.503Z" fill="#D96C63"/>
<path d="M265.252 136.335C254.734 138.297 250.133 128.28 250.087 128.184C250.002 127.993 250.002 127.779 250.089 127.588C250.175 127.397 250.34 127.246 250.548 127.167C250.755 127.089 250.988 127.089 251.195 127.169C251.402 127.248 251.567 127.4 251.652 127.591C251.817 127.97 255.779 136.512 264.916 134.808C274.491 133.02 292.369 115.657 292.549 115.488C292.706 115.356 292.912 115.283 293.126 115.284C293.339 115.285 293.544 115.361 293.7 115.495C293.855 115.63 293.95 115.813 293.965 116.009C293.98 116.205 293.914 116.399 293.78 116.552C293.032 117.286 275.353 134.452 265.252 136.335Z" fill="#2C2A72"/>
<path d="M281.781 73.3242C281.781 73.3242 298.658 70.3999 303.418 54.7192C307.948 39.7893 304.463 32.0454 299.749 23.9794C296.2 17.8998 284.945 9.69237 269.158 12.641C253.22 15.6154 241.307 23.1449 239.547 35.2083C236.252 57.7833 256.036 85.3268 281.781 73.3242Z" fill="#39393B"/>
<path d="M302.617 57.1368C302.772 57.137 302.925 57.0992 303.059 57.0274C303.194 56.9555 303.305 56.8522 303.382 56.7279C305.663 52.4432 306.974 47.7758 307.234 43.0098C307.495 38.2439 306.699 33.479 304.895 29.0051C303.632 25.3939 301.505 22.0897 298.671 19.3356C295.836 16.5816 292.367 14.4479 288.518 13.0918C285.002 11.8235 281.255 11.1863 277.479 11.2148C277.363 11.2199 277.25 11.2458 277.145 11.2912C277.041 11.3366 276.947 11.4005 276.869 11.4792C276.712 11.6383 276.63 11.8482 276.642 12.0629C276.653 12.2775 276.756 12.4793 276.929 12.6238C277.102 12.7683 277.33 12.8437 277.563 12.8335C281.117 12.8267 284.641 13.4351 287.95 14.6269C291.555 15.892 294.802 17.8909 297.449 20.4741C300.096 23.0574 302.074 26.1582 303.236 29.5447C304.918 33.8067 305.662 38.3343 305.425 42.8637C305.188 47.393 303.974 51.8337 301.854 55.927C301.74 56.1137 301.71 56.3347 301.772 56.5415C301.834 56.7484 301.982 56.9242 302.185 57.0304C302.316 57.1003 302.465 57.137 302.617 57.1368Z" fill="#FAAF3A"/>
<path d="M249.044 57.3925C249.044 57.3925 243.552 53.3982 242.11 58.6859C240.669 63.9736 244.74 73.3711 251.133 70.5167L249.044 57.3925Z" fill="#D96C63"/>
<path d="M254.413 67.1072C255.834 67.5417 257.11 68.3056 258.117 69.3254C259.125 70.3451 259.831 71.5865 260.166 72.9299C260.463 74.2787 260.358 75.6764 259.861 76.9743C259.364 78.2723 258.494 79.422 257.344 80.3011C256.193 81.1802 254.806 81.7559 253.329 81.967C251.852 82.1781 250.34 82.0167 248.954 81.5C247.569 80.9832 246.361 80.1304 245.46 79.0322C244.559 77.9341 243.998 76.6316 243.837 75.2634C243.676 73.8952 243.921 72.5123 244.545 71.2619C245.17 70.0114 246.15 68.9402 247.383 68.162C248.297 67.5825 249.33 67.1802 250.418 66.9795L250.499 66.9658C250.587 67.1754 250.612 67.4031 250.572 67.6248C250.531 67.8466 250.427 68.0542 250.269 68.2258C249.389 68.4394 248.563 68.8107 247.839 69.3186C246.843 70.0125 246.068 70.9395 245.594 72.0029C245.12 73.0663 244.963 74.2274 245.142 75.3652C245.321 76.503 245.827 77.5759 246.609 78.4722C247.391 79.3686 248.42 80.0556 249.588 80.4617C250.756 80.8678 252.021 80.9782 253.251 80.7813C254.482 80.5845 255.632 80.0876 256.583 79.3425C257.534 78.5973 258.25 77.6311 258.658 76.5445C259.065 75.4578 259.149 74.2905 258.9 73.1639C258.648 71.9786 258.028 70.886 257.115 70.0186C256.202 69.1513 255.035 68.5465 253.756 68.2775L254.413 67.1072Z" fill="#FAAF3A"/>
<path d="M265.688 80.0536L267.987 93.2903C267.987 93.2903 278.751 103.405 298.414 85.2592C293.131 81.6388 291.122 73.2521 291.737 67.8291C290.336 68.6702 289.019 69.6233 287.8 70.6774C287.275 71.0641 286.723 71.4195 286.149 71.7413C280.952 74.9847 272.99 79.2177 265.688 80.0536Z" fill="#EA9B7A"/>
<path d="M265.688 80.0463L266.779 86.3219C272.676 83.9022 283.103 78.7224 287.8 70.667C287.288 71.0044 286.738 71.359 286.149 71.7309C280.952 74.985 272.99 79.2179 265.688 80.0463Z" fill="#39393B"/>
<path d="M243.732 54.2005C244.037 55.6009 244.332 56.9343 244.616 58.2009C244.92 59.5769 245.22 60.8744 245.514 62.0933C247.69 71.2552 249.486 76.1615 252.388 77.999C267.066 87.2916 290.955 68.4754 291.725 67.8689L291.744 67.8507C291.764 66.7731 291.764 65.7031 291.744 64.6589C291.593 56.3938 290.094 48.1964 287.3 40.3406C286.685 36.3937 284.713 32.7319 281.673 29.8916C278.633 27.0513 274.685 25.1816 270.408 24.5566C261.315 23.2966 254.475 28.142 250.197 30.285C243.732 33.5148 241.203 42.5186 243.732 54.2005Z" fill="#EA9B7A"/>
<path d="M286.79 32.0173C286.79 32.0173 276.518 13.8288 256.023 18.9037C235.529 23.9786 234.441 32.7423 234.079 37.1242C233.718 41.506 244.691 33.7439 244.691 33.7439C244.691 33.7439 245.069 42.5076 248.724 39.8068C253.21 36.4965 258.23 29.3499 258.23 29.3499C258.23 29.3499 270.436 40.3935 282.035 37.4145C288.622 35.7244 286.79 32.0173 286.79 32.0173Z" fill="#39393B"/>
<path d="M261.615 72.0428C263.329 71.9941 264.962 71.359 266.195 70.2615C266.262 70.1981 266.315 70.1232 266.35 70.041C266.386 69.9588 266.404 69.871 266.403 69.7825C266.401 69.694 266.381 69.6066 266.343 69.5253C266.305 69.444 266.25 69.3703 266.182 69.3085C266.113 69.2468 266.031 69.198 265.942 69.1652C265.853 69.1324 265.757 69.1161 265.661 69.1172C265.565 69.1184 265.47 69.1369 265.382 69.1718C265.294 69.2067 265.214 69.2573 265.146 69.3207C264.5 69.9054 263.696 70.3199 262.817 70.5212C261.937 70.7225 261.016 70.7031 260.147 70.4652C260.057 70.4366 259.96 70.4248 259.864 70.4305C259.769 70.4362 259.675 70.4592 259.589 70.4982C259.414 70.577 259.281 70.7163 259.219 70.8854C259.156 71.0545 259.169 71.2396 259.255 71.3999C259.34 71.5602 259.492 71.6827 259.675 71.7403C260.299 71.9392 260.955 72.0414 261.615 72.0428Z" fill="#D96C63"/>
<path d="M267.751 61.0283C267.751 61.0283 257.867 63.7246 252.742 63.7246C252.742 63.7246 255.304 70.4654 262.626 68.1065C264.213 67.6185 265.578 66.6578 266.506 65.3761C267.434 64.0944 267.872 62.5646 267.751 61.0283Z" fill="white"/>
<path d="M249.401 42.0903C249.401 42.0903 251.97 41.8487 251.548 44.1391C251.125 46.4296 245.565 45.0298 242.811 49.6108C242.817 49.6184 240.158 44.8079 249.401 42.0903Z" fill="#39393B"/>
<path d="M260.813 39.9607C260.813 39.9607 258.345 40.6598 259.699 42.619C261.052 44.5781 265.586 41.2952 270.061 44.5341C270.061 44.5341 270.477 39.1521 260.813 39.9607Z" fill="#39393B"/>
<path d="M265.267 56.3796C265.505 57.4618 268.117 57.8873 271.102 57.331C274.087 56.7748 276.312 55.4464 276.074 54.3642C275.837 53.2821 273.225 52.8565 270.24 53.4143C267.255 53.9721 265.03 55.299 265.267 56.3796Z" fill="#D96C63"/>
<path d="M236.108 57.0912L244.09 55.8389C244.14 56.1493 244.207 56.4572 244.29 56.7614C244.302 56.8139 244.321 56.8649 244.346 56.9134L236.308 58.1749C236.152 58.1992 235.993 58.1656 235.864 58.0815C235.735 57.9974 235.648 57.8698 235.621 57.7266C235.605 57.6552 235.605 57.5816 235.622 57.5103C235.638 57.439 235.67 57.3715 235.715 57.3119C235.761 57.2524 235.819 57.2021 235.887 57.1642C235.955 57.1262 236.03 57.1014 236.108 57.0912Z" fill="white"/>
<path d="M257.613 52.6485V52.6728C258.178 55.0538 259.74 57.1335 261.961 58.4608C264.181 59.788 266.88 60.2557 269.473 59.7623C272.065 59.2689 274.342 57.8543 275.808 55.8253C277.275 53.7964 277.813 51.3169 277.307 48.9247C277.235 48.6025 277.144 48.2843 277.033 47.9717C276.915 47.6205 276.771 47.2772 276.602 46.9443C275.652 45.0416 274.03 43.4911 272 42.5453C269.971 41.5995 267.653 41.3142 265.425 41.7356C265.391 41.741 265.358 41.7481 265.324 41.7569C263.351 42.1479 261.553 43.0818 260.169 44.435C258.683 45.8777 257.739 47.7217 257.478 49.6953C257.426 50.0663 257.403 50.44 257.407 50.8139C257.408 51.4303 257.477 52.0449 257.613 52.6485ZM258.784 52.4524C258.48 51.0956 258.556 49.69 259.006 48.3679C259.455 47.0459 260.263 45.8509 261.352 44.8955C262.232 44.1193 263.277 43.519 264.421 43.1321C265.564 42.7453 266.783 42.5803 267.999 42.6476C269.695 42.7436 271.326 43.2856 272.698 44.2095C274.069 45.1333 275.124 46.4 275.737 47.8593C275.747 47.8836 275.755 47.9079 275.768 47.9337C276.211 49.0258 276.395 50.1926 276.308 51.3556C276.22 52.5186 275.863 53.6508 275.26 54.6761C274.658 55.7014 273.823 56.596 272.814 57.2996C271.804 58.0032 270.643 58.4996 269.407 58.7554C269.358 58.7691 269.311 58.7766 269.26 58.7858C266.959 59.223 264.564 58.8018 262.599 57.6147C260.635 56.4276 259.263 54.5715 258.784 52.4539V52.4524Z" fill="white"/>
<path d="M234.361 57.1006C234.743 58.793 235.632 60.3534 236.927 61.6055C238.221 62.8576 239.87 63.7515 241.688 64.1863C242.09 64.2833 242.499 64.357 242.911 64.4067C243.06 64.4249 243.211 64.4401 243.363 64.4477C244.326 64.5262 245.296 64.475 246.243 64.2957C246.338 64.2775 246.436 64.2592 246.527 64.2334C246.713 64.1969 246.901 64.1498 247.085 64.0996C248.269 63.7764 249.378 63.2527 250.355 62.5554C251.844 61.4941 252.98 60.0695 253.634 58.4436C254.288 56.8176 254.434 55.0554 254.055 53.357C253.94 52.8308 253.774 52.315 253.559 51.8159C253.554 51.7955 253.546 51.7757 253.536 51.7566C253.374 51.3842 253.182 51.023 252.963 50.676C252.175 49.3935 251.065 48.3026 249.727 47.4938C248.389 46.6849 246.86 46.1814 245.269 46.0251C244.71 45.9691 244.147 45.9579 243.586 45.9916C243.113 46.0187 242.642 46.0766 242.178 46.1649C241.922 46.2151 241.673 46.2713 241.425 46.3397C241.069 46.4312 240.719 46.5419 240.377 46.6711C240.088 46.7835 239.811 46.9021 239.538 47.0358C237.608 47.9709 236.059 49.4577 235.125 51.2728C234.192 53.0879 233.923 55.133 234.361 57.1006ZM239.735 48.1803C239.993 48.0398 240.26 47.913 240.534 47.8003C240.88 47.6534 241.237 47.5279 241.602 47.4249C241.864 47.3504 242.138 47.2881 242.414 47.2349C242.791 47.161 243.172 47.1103 243.557 47.0829C243.776 47.0693 243.989 47.0601 244.2 47.0586C245.941 47.0568 247.645 47.527 249.097 48.4107C250.55 49.2943 251.687 50.5522 252.368 52.0274C253.049 53.5026 253.243 55.1298 252.926 56.7059C252.609 58.2819 251.794 59.737 250.584 60.8896C250.444 61.0264 250.294 61.1571 250.142 61.2818C249.085 62.1665 247.81 62.8013 246.427 63.1315C246.375 63.1406 246.32 63.1528 246.262 63.1664L245.998 63.2196C245.054 63.3997 244.084 63.4357 243.127 63.326C242.998 63.3139 242.875 63.2971 242.746 63.2774C242.308 63.2105 241.875 63.1129 241.453 62.9856C240.783 62.7809 240.142 62.505 239.541 62.1633C237.878 61.2211 236.601 59.7977 235.909 58.1158C235.809 57.8805 235.724 57.6399 235.654 57.3954C235.599 57.2267 235.555 57.0534 235.515 56.8771C235.143 55.2033 235.35 53.4643 236.107 51.9044C236.863 50.3445 238.132 49.0421 239.735 48.1803Z" fill="white"/>
<path d="M289.32 48.6106C289.391 48.5979 289.459 48.5726 289.519 48.5361C289.586 48.4975 289.643 48.4471 289.689 48.3879C289.734 48.3286 289.766 48.2617 289.783 48.1911C289.799 48.1204 289.801 48.0473 289.787 47.9761C289.773 47.9049 289.744 47.8369 289.701 47.7762C285.704 42.0249 276.096 47.188 275.998 47.2412C275.863 47.3153 275.765 47.4361 275.725 47.5769C275.686 47.7178 275.71 47.867 275.79 47.992C275.871 48.117 276.002 48.2074 276.155 48.2433C276.308 48.2792 276.47 48.2577 276.606 48.1835C276.693 48.1349 285.318 43.5068 288.696 48.3674C288.761 48.4614 288.855 48.5349 288.967 48.5783C289.078 48.6217 289.201 48.633 289.32 48.6106Z" fill="white"/>
<path d="M253.085 52.0692C253.162 52.0542 253.235 52.0255 253.299 51.9846C253.364 51.9436 253.42 51.8913 253.463 51.8305C254.74 50.0067 257.476 50.8274 257.502 50.8365C257.652 50.8827 257.816 50.8722 257.957 50.8073C258.098 50.7425 258.206 50.6286 258.256 50.4908C258.306 50.3529 258.295 50.2024 258.224 50.0722C258.154 49.9421 258.03 49.8431 257.881 49.7969C256.93 49.4675 255.889 49.4294 254.914 49.6882C253.938 49.947 253.078 50.4888 252.464 51.2332C252.4 51.3239 252.366 51.4301 252.367 51.5384C252.369 51.6467 252.405 51.7522 252.471 51.8415C252.538 51.9309 252.631 52.0001 252.741 52.0403C252.85 52.0806 252.97 52.0901 253.085 52.0677V52.0692Z" fill="white"/>
<path opacity="0.8" d="M244.617 58.2003C244.922 59.5764 245.221 60.8738 245.515 62.0928C248.229 61.4848 250.186 60.2507 249.961 59.2324C249.737 58.214 247.382 57.7778 244.617 58.2003Z" fill="#D96C63"/>
<path d="M263.167 50.9473C263.497 52.4322 264.488 53.5007 265.394 53.332C266.301 53.1633 266.764 51.8227 266.438 50.3378C266.111 48.8528 265.117 47.7844 264.211 47.9531C263.304 48.1218 262.84 49.4623 263.167 50.9473Z" fill="#39393B"/>
<path d="M247.21 53.9233C247.54 55.4097 248.531 56.4767 249.437 56.3095C250.344 56.1423 250.806 54.8003 250.479 53.3153C250.152 51.8304 249.158 50.7619 248.252 50.9306C247.346 51.0993 246.883 52.4383 247.21 53.9233Z" fill="#39393B"/>
<path d="M255.45 57.9107C254.999 57.9993 254.54 58.0396 254.079 58.0307C253.986 58.0261 253.894 58.0036 253.81 57.9647C253.727 57.9258 253.653 57.8714 253.593 57.8048C253.533 57.7383 253.489 57.6611 253.463 57.5781C253.438 57.495 253.431 57.408 253.444 57.3225L254.474 50.3872C254.498 50.2233 254.593 50.0752 254.736 49.9753C254.879 49.8753 255.059 49.8319 255.237 49.8545C255.415 49.877 255.576 49.9638 255.685 50.0956C255.793 50.2274 255.841 50.3936 255.816 50.5574L254.898 56.7312C255.852 56.6053 256.75 56.2439 257.498 55.6855C257.637 55.5799 257.815 55.5292 257.993 55.5444C258.172 55.5597 258.337 55.6397 258.452 55.7668C258.567 55.894 258.622 56.058 258.605 56.2226C258.589 56.3872 258.502 56.539 258.363 56.6446C257.521 57.2816 256.52 57.7166 255.45 57.9107Z" fill="#39393B"/>
<path d="M285.145 62.8301C285.257 62.9821 288.375 67.1147 291.719 67.8761L291.732 67.8579C291.755 66.7772 291.75 65.7088 291.732 64.657C289.394 64.6226 287.114 63.99 285.145 62.8301Z" fill="#39393B"/>
<path d="M285.828 51.9564C285.828 51.9564 290.523 42.7763 296.628 48.1567C301.66 52.5963 297.261 67.4305 288.539 64.2554L285.828 51.9564Z" fill="#EA9B7A"/>
<path d="M297.383 59.8693C298.804 60.3039 300.08 61.0678 301.088 62.0876C302.095 63.1073 302.801 64.3486 303.137 65.692C303.461 67.1677 303.303 68.6988 302.682 70.0917C302.062 71.4846 301.006 72.6768 299.65 73.5174C298.293 74.358 296.696 74.8092 295.06 74.8141C293.425 74.8191 291.825 74.3774 290.462 73.5449C289.099 72.7125 288.036 71.5267 287.405 70.1375C286.774 68.7484 286.605 67.2182 286.92 65.7407C287.234 64.2631 288.017 62.9045 289.17 61.8367C290.322 60.7688 291.793 60.0398 293.396 59.7417L293.477 59.7295C293.566 59.9388 293.591 60.1663 293.551 60.3879C293.511 60.6094 293.406 60.8168 293.248 60.988C292.367 61.2017 291.541 61.5737 290.818 62.0823C289.822 62.7762 289.047 63.7031 288.572 64.7666C288.098 65.83 287.942 66.991 288.121 68.1288C288.299 69.2666 288.806 70.3396 289.588 71.2359C290.37 72.1322 291.398 72.8192 292.566 73.2254C293.735 73.6315 295 73.7418 296.23 73.545C297.46 73.3482 298.611 72.8513 299.561 72.1062C300.512 71.361 301.229 70.3948 301.636 69.3082C302.044 68.2215 302.128 67.0542 301.879 65.9276C301.627 64.7423 301.007 63.6497 300.094 62.7822C299.181 61.9146 298.015 61.3093 296.736 61.0396L297.383 59.8693Z" fill="#FAAF3A"/>
<path d="M288.891 61.6967C288.797 61.7129 288.701 61.7112 288.609 61.6916C288.516 61.672 288.429 61.635 288.353 61.5828C288.277 61.5307 288.213 61.4646 288.166 61.3887C288.119 61.3128 288.09 61.2288 288.08 61.1419C287.871 59.1096 288.245 57.0622 289.164 55.2045C290.084 53.3468 291.517 51.7439 293.32 50.5559C293.47 50.4688 293.651 50.4395 293.825 50.4742C293.998 50.509 294.15 50.6051 294.247 50.7419C294.344 50.8786 294.379 51.045 294.345 51.2052C294.31 51.3654 294.208 51.5067 294.061 51.5985C292.464 52.6616 291.197 54.0903 290.384 55.7432C289.572 57.3961 289.242 59.2157 289.429 61.0218C289.446 61.1757 289.4 61.3299 289.301 61.4545C289.201 61.5792 289.055 61.6655 288.891 61.6967Z" fill="#39393B"/>
<path d="M294.264 56.8359C294.112 56.8651 293.953 56.8447 293.815 56.7781C292.688 56.1701 291.356 55.9666 290.076 56.2066C289.915 56.2745 289.731 56.2815 289.565 56.2263C289.398 56.1711 289.262 56.0581 289.185 55.9114C289.108 55.7647 289.096 55.596 289.152 55.4415C289.209 55.287 289.329 55.1591 289.486 55.085C291.378 54.2429 294.137 55.5257 294.439 55.6747C294.563 55.7344 294.664 55.828 294.727 55.9426C294.791 56.0572 294.815 56.1871 294.795 56.3145C294.775 56.442 294.713 56.5606 294.617 56.6543C294.521 56.7479 294.396 56.8119 294.259 56.8374L294.264 56.8359Z" fill="#39393B"/>
<path d="M279.773 36.3914C279.773 36.3914 286.09 52.1877 286.435 55.3688C286.907 59.7066 293.136 44.8405 286.866 32.1357L279.773 36.3914Z" fill="#39393B"/>
<path d="M174.191 371.287H200.21C200.21 371.287 206.231 344.698 208.251 329.794C210.272 314.89 211.32 279.537 211.32 279.537C211.32 279.537 232.058 285.737 275.462 283.401C371.638 278.233 335.171 213.182 335.171 213.182C331.92 217.314 307.547 223.008 293.944 224.982C252.187 228.671 220.445 235.199 198.712 243.829C193.892 245.712 189.225 247.915 184.751 250.419C179.511 253.392 176.232 262.412 174.257 274.281C168.321 309.933 174.191 371.287 174.191 371.287Z" fill="#39393B"/>
<path d="M196.98 358.474C197.195 358.474 197.403 358.405 197.569 358.279C197.735 358.154 197.849 357.979 197.892 357.785C201.644 340.681 202.905 319.391 203.917 302.286C204.758 288.103 205.55 274.705 207.53 273.094C209.133 271.79 215.784 272.808 224.215 274.096C240.977 276.657 266.314 280.529 294.244 274.552C309.461 271.291 320.646 264.487 327.492 254.326C339.296 236.803 333.916 215.078 333.859 214.861C333.831 214.751 333.78 214.647 333.709 214.556C333.637 214.464 333.547 214.387 333.443 214.327C333.339 214.268 333.223 214.228 333.102 214.21C332.981 214.191 332.858 214.195 332.738 214.221C332.619 214.247 332.507 214.294 332.407 214.36C332.308 214.425 332.223 214.509 332.159 214.604C332.094 214.7 332.051 214.807 332.031 214.918C332.011 215.029 332.016 215.143 332.043 215.253C332.096 215.464 337.298 236.524 325.897 253.433C319.321 263.186 308.529 269.729 293.82 272.887C266.249 278.794 241.136 274.956 224.518 272.416C214.566 270.896 208.56 269.984 206.293 271.822C203.845 273.814 203.156 283.612 202.055 302.206C201.046 319.256 199.788 340.477 196.064 357.459C196.038 357.583 196.042 357.711 196.075 357.834C196.109 357.957 196.172 358.071 196.259 358.169C196.346 358.267 196.455 358.347 196.58 358.401C196.704 358.456 196.839 358.485 196.977 358.486L196.98 358.474Z" fill="#585859"/>
<path d="M173.694 358.927H173.714L202.648 358.356C202.77 358.354 202.891 358.329 203.003 358.284C203.115 358.239 203.216 358.174 203.3 358.093C203.385 358.012 203.452 357.916 203.496 357.811C203.54 357.706 203.562 357.595 203.559 357.482C203.558 357.369 203.533 357.258 203.484 357.154C203.436 357.05 203.365 356.957 203.277 356.878C203.188 356.8 203.084 356.739 202.969 356.699C202.855 356.658 202.733 356.639 202.61 356.643L173.676 357.215C173.429 357.217 173.193 357.31 173.02 357.472C172.847 357.635 172.751 357.854 172.754 358.082C172.757 358.309 172.857 358.526 173.034 358.686C173.211 358.845 173.449 358.933 173.696 358.93L173.694 358.927Z" fill="#585859"/>
<path d="M174.91 401.978H193.282L196.819 382.142L198.756 371.288H175.93L175.569 382.142L174.91 401.978Z" fill="#EA9B7A"/>
<path d="M174.91 401.978H193.282L195.923 387.21L196.826 382.142H175.569L175.392 387.396L174.91 401.978Z" fill="#FAAF3A"/>
<path d="M175.391 387.396L195.907 387.21L196.81 382.142H175.567L175.391 387.396Z" fill="#C77E2E"/>
<path d="M129.589 428.682H199.055C199.62 427.568 199.93 426.359 199.966 425.13C200.401 419.719 198.53 411.088 197.611 405.643C197.498 405.006 197.403 404.415 197.328 403.879C197.211 403.141 197.142 402.398 197.12 401.654C197.208 401.129 197.156 400.593 196.968 400.091C196.779 399.59 196.461 399.138 196.04 398.775C195.619 398.412 195.109 398.15 194.553 398.01C193.997 397.87 193.412 397.857 192.849 397.972C185.82 404.321 177.862 394.803 173.213 397.925C173.213 397.925 173.025 398.051 172.599 398.358C172.208 398.641 171.609 399.08 170.793 399.717C169.608 400.629 167.947 401.95 165.697 403.813C160.184 408.381 150.805 411.396 142.818 414.469C141.8 414.86 140.855 415.254 139.979 415.643C139.318 415.938 138.684 416.235 138.093 416.53C131.566 419.775 129.487 422.874 129.013 425.13C128.72 426.339 128.925 427.605 129.589 428.682Z" fill="#2C2A72"/>
<path d="M138.094 416.53C139.883 417.842 143.862 420.464 147.053 420.464C147.194 420.464 147.336 420.464 147.471 420.449C149.726 420.275 158.004 416.53 164.738 413.123C168.599 411.168 172.122 409.248 174.658 407.706C178.817 405.183 179.537 404.221 179.7 403.55C180.309 401.029 175.776 399.269 172.601 398.358C172.21 398.641 171.611 399.08 170.795 399.717C174.742 400.707 177.985 402.26 177.835 403.145C177.448 403.892 173.338 406.779 163.506 411.732C156.008 415.51 148.894 418.571 147.316 418.687C145.17 418.839 142.033 417.055 139.981 415.647C139.312 415.936 138.685 416.24 138.094 416.53Z" fill="white"/>
<path d="M129.588 428.682H199.052C199.618 427.568 199.929 426.359 199.965 425.13H129.018C128.724 426.338 128.927 427.604 129.588 428.682Z" fill="#504E99"/>
<path d="M191.963 428.682H194.026C192.7 427.286 191.687 425.663 191.046 423.905C190.405 422.147 190.149 420.29 190.292 418.441C190.486 415.958 191.236 413.54 192.495 411.337C193.754 409.135 195.495 407.196 197.607 405.643C197.495 405.008 197.401 404.413 197.325 403.877C194.816 405.562 192.739 407.733 191.238 410.236C189.737 412.739 188.85 415.514 188.638 418.366C188.375 422.06 189.554 425.718 191.963 428.682Z" fill="#267267"/>
<path d="M166.876 407.581C167.155 407.58 167.424 407.485 167.632 407.314C167.84 407.143 167.974 406.908 168.007 406.653C168.041 406.398 167.973 406.141 167.815 405.929C167.657 405.718 167.42 405.566 167.15 405.503L162.811 404.512C162.664 404.477 162.512 404.468 162.361 404.488C162.211 404.507 162.067 404.553 161.936 404.625C161.806 404.696 161.692 404.79 161.601 404.902C161.511 405.014 161.445 405.141 161.409 405.277C161.372 405.412 161.365 405.553 161.388 405.691C161.411 405.829 161.464 405.962 161.543 406.081C161.623 406.2 161.727 406.303 161.85 406.385C161.973 406.467 162.112 406.525 162.26 406.557L166.598 407.548C166.689 407.57 166.782 407.581 166.876 407.581Z" fill="white"/>
<path d="M171.187 404.258C171.466 404.257 171.735 404.162 171.943 403.991C172.151 403.82 172.285 403.586 172.319 403.331C172.352 403.076 172.284 402.818 172.126 402.606C171.968 402.395 171.731 402.243 171.461 402.181L167.122 401.19C166.83 401.127 166.522 401.173 166.265 401.317C166.009 401.462 165.825 401.693 165.752 401.962C165.68 402.23 165.725 402.514 165.878 402.752C166.032 402.99 166.28 403.163 166.571 403.234L170.909 404.226C171 404.247 171.093 404.258 171.187 404.258Z" fill="white"/>
<path d="M162.534 409.914C162.813 409.913 163.082 409.819 163.291 409.648C163.5 409.477 163.634 409.242 163.667 408.987C163.701 408.732 163.633 408.474 163.475 408.263C163.317 408.051 163.081 407.899 162.81 407.836L158.471 406.845C158.325 406.81 158.172 406.801 158.022 406.821C157.871 406.84 157.727 406.886 157.596 406.958C157.466 407.029 157.352 407.123 157.261 407.235C157.171 407.347 157.105 407.474 157.069 407.61C157.032 407.745 157.025 407.886 157.049 408.024C157.072 408.162 157.124 408.295 157.203 408.414C157.283 408.533 157.387 408.636 157.51 408.718C157.633 408.8 157.772 408.858 157.92 408.89L162.258 409.881C162.348 409.903 162.441 409.914 162.534 409.914Z" fill="white"/>
<path d="M158.196 412.137C158.476 412.138 158.747 412.044 158.956 411.873C159.166 411.703 159.301 411.467 159.335 411.212C159.369 410.956 159.3 410.697 159.141 410.485C158.982 410.273 158.744 410.122 158.472 410.061L154.133 409.068C153.844 409.014 153.542 409.064 153.292 409.21C153.042 409.355 152.863 409.583 152.792 409.848C152.72 410.112 152.763 410.391 152.91 410.627C153.057 410.863 153.298 411.038 153.582 411.114L157.921 412.105C158.011 412.126 158.103 412.136 158.196 412.137Z" fill="white"/>
<path d="M153.467 414.202C153.747 414.202 154.017 414.108 154.226 413.937C154.436 413.767 154.57 413.531 154.604 413.276C154.638 413.02 154.568 412.762 154.409 412.55C154.25 412.338 154.013 412.187 153.741 412.126L149.402 411.135C149.255 411.098 149.102 411.088 148.95 411.107C148.799 411.125 148.653 411.172 148.522 411.243C148.39 411.314 148.276 411.408 148.184 411.521C148.093 411.633 148.027 411.762 147.991 411.898C147.954 412.034 147.947 412.176 147.971 412.315C147.995 412.453 148.048 412.586 148.128 412.706C148.209 412.825 148.314 412.928 148.439 413.01C148.563 413.091 148.704 413.149 148.853 413.179L153.191 414.17C153.281 414.191 153.374 414.202 153.467 414.202Z" fill="white"/>
<path d="M148.337 415.964C148.616 415.963 148.884 415.868 149.093 415.697C149.301 415.526 149.435 415.291 149.468 415.036C149.502 414.781 149.433 414.524 149.276 414.312C149.118 414.1 148.881 413.949 148.611 413.886L144.272 412.895C144.125 412.86 143.973 412.851 143.822 412.87C143.672 412.89 143.528 412.936 143.397 413.007C143.267 413.078 143.153 413.173 143.062 413.285C142.972 413.397 142.906 413.524 142.87 413.66C142.833 413.795 142.826 413.936 142.849 414.074C142.872 414.212 142.925 414.345 143.004 414.464C143.083 414.583 143.188 414.686 143.311 414.768C143.434 414.849 143.573 414.908 143.721 414.939L148.059 415.932C148.15 415.953 148.243 415.963 148.337 415.964Z" fill="white"/>
<path d="M78.3438 212.219V217.529C78.3438 220.584 80.3496 223.062 82.826 223.062H394.536C397.012 223.062 399.015 220.586 399.015 217.529V212.219C399.015 209.164 397.01 206.689 394.536 206.689H82.826C80.3496 206.689 78.3438 209.164 78.3438 212.219Z" fill="#262626"/>
<path d="M399.016 213.901H78.3438V216.332H399.016V213.901Z" fill="black"/>
<path d="M87.7099 236.709H380.718C381.348 236.709 381.952 236.478 382.397 236.068C382.842 235.659 383.092 235.103 383.092 234.523V222.996H85.3359V234.523C85.3364 235.102 85.5866 235.658 86.0318 236.068C86.4769 236.478 87.0805 236.708 87.7099 236.709Z" fill="black"/>
<path d="M362.907 304.408H100.875V313.81H362.907V304.408Z" fill="black"/>
<path d="M381.801 430.356L331.07 236.71H348.887L399.618 430.355L381.801 430.356Z" fill="#262626"/>
<path d="M82.3284 430.358L133.059 236.713H115.243L64.5117 430.358H82.3284Z" fill="#262626"/>
<path d="M364.19 200.348L369.691 201.124L376.045 162.945L370.544 162.169L364.19 200.348Z" fill="#FAAF3A"/>
<path d="M370.547 162.168L376.048 162.943L374.838 159.075L374.21 157.073L372.961 158.81L370.547 162.168Z" fill="#EA9B7A"/>
<path d="M364.19 200.348L369.691 201.124L370.153 198.351L364.652 197.575L364.19 200.348Z" fill="#39393B"/>
<path d="M364.19 202.612L368.958 203.284C369.055 203.297 369.153 203.275 369.233 203.222C369.312 203.168 369.365 203.088 369.38 202.999L369.691 201.124L364.19 200.349L363.879 202.223C363.872 202.267 363.874 202.312 363.886 202.356C363.897 202.399 363.918 202.44 363.947 202.477C363.976 202.513 364.012 202.543 364.054 202.567C364.095 202.59 364.142 202.605 364.19 202.612Z" fill="#DF615C"/>
<path d="M372.957 158.81L374.834 159.075L374.207 157.073L372.957 158.81Z" fill="#39393B"/>
<path d="M364.983 195.584L364.652 197.573L370.153 198.349L370.484 196.36L364.983 195.584Z" fill="#C77E2E"/>
<path d="M374.371 164.633L369.665 192.903C369.657 192.954 369.638 193.003 369.609 193.047C369.58 193.091 369.543 193.129 369.498 193.16C369.453 193.19 369.402 193.212 369.347 193.224C369.293 193.236 369.237 193.238 369.182 193.23C369.127 193.223 369.074 193.205 369.026 193.179C368.978 193.152 368.936 193.117 368.903 193.076C368.87 193.034 368.846 192.987 368.833 192.937C368.819 192.888 368.817 192.836 368.825 192.785L373.53 164.515C373.547 164.413 373.608 164.321 373.699 164.259C373.789 164.198 373.903 164.172 374.014 164.188C374.069 164.196 374.122 164.213 374.17 164.24C374.218 164.266 374.26 164.301 374.293 164.343C374.326 164.384 374.35 164.431 374.363 164.481C374.377 164.531 374.379 164.583 374.371 164.633Z" fill="#C77E2E"/>
<path d="M372.213 164.327L367.509 192.597C367.492 192.699 367.432 192.791 367.341 192.853C367.25 192.914 367.137 192.94 367.026 192.925C366.97 192.917 366.917 192.9 366.869 192.873C366.822 192.847 366.78 192.812 366.747 192.77C366.714 192.729 366.69 192.682 366.676 192.632C366.663 192.582 366.66 192.53 366.669 192.48L371.372 164.21C371.39 164.107 371.451 164.015 371.542 163.953C371.633 163.892 371.746 163.866 371.858 163.881C371.969 163.897 372.068 163.953 372.135 164.037C372.201 164.12 372.229 164.224 372.213 164.327Z" fill="#C77E2E"/>
<path d="M360.606 162.345L360.469 200.97L366.034 200.987L366.172 162.362L360.606 162.345Z" fill="#262626"/>
<path d="M360.609 162.345L366.175 162.361L364.359 158.701L363.416 156.808L362.46 158.695L360.609 162.345Z" fill="#EA9B7A"/>
<path d="M360.466 200.97L366.031 200.986L366.041 198.181L360.476 198.164L360.466 200.97Z" fill="#39393B"/>
<path d="M360.829 203.207L365.655 203.221C365.703 203.221 365.751 203.212 365.796 203.195C365.841 203.178 365.882 203.154 365.917 203.122C365.951 203.091 365.979 203.053 365.997 203.012C366.016 202.971 366.026 202.926 366.026 202.882V200.986L360.461 200.97V202.865C360.461 202.91 360.47 202.954 360.488 202.995C360.507 203.037 360.534 203.074 360.568 203.106C360.602 203.138 360.643 203.163 360.688 203.181C360.732 203.198 360.781 203.207 360.829 203.207Z" fill="#DF615C"/>
<path d="M362.449 158.697H364.349L363.407 156.803L362.449 158.697Z" fill="#39393B"/>
<path d="M360.484 196.15L360.477 198.162L366.042 198.179L366.049 196.167L360.484 196.15Z" fill="black"/>
<path d="M364.779 164.261L364.678 192.864C364.678 192.968 364.633 193.067 364.553 193.14C364.473 193.214 364.365 193.255 364.252 193.255C364.14 193.254 364.032 193.213 363.952 193.139C363.873 193.066 363.828 192.966 363.828 192.863L363.929 164.26C363.93 164.156 363.975 164.057 364.055 163.984C364.134 163.911 364.242 163.87 364.355 163.869C364.467 163.87 364.575 163.911 364.655 163.985C364.734 164.058 364.779 164.158 364.779 164.261Z" fill="black"/>
<path d="M362.599 164.251L362.499 192.853C362.498 192.957 362.453 193.056 362.373 193.13C362.294 193.203 362.185 193.244 362.073 193.244C362.017 193.244 361.962 193.234 361.91 193.214C361.858 193.194 361.812 193.165 361.772 193.129C361.733 193.093 361.702 193.049 361.68 193.002C361.659 192.954 361.648 192.903 361.648 192.852L361.749 164.249C361.749 164.198 361.76 164.147 361.782 164.099C361.803 164.052 361.834 164.009 361.874 163.972C361.914 163.936 361.961 163.907 362.012 163.888C362.064 163.868 362.119 163.858 362.175 163.858C362.288 163.859 362.396 163.9 362.475 163.974C362.555 164.047 362.599 164.147 362.599 164.251Z" fill="black"/>
<path d="M356.51 162.168L351 162.889L356.901 201.13L362.411 200.409L356.51 162.168Z" fill="#368075"/>
<path d="M351 162.89L356.511 162.17L354.138 158.789L352.908 157.04L352.256 159.036L351 162.89Z" fill="#EA9B7A"/>
<path d="M356.904 201.131L362.414 200.41L361.985 197.632L356.476 198.353L356.904 201.131Z" fill="#39393B"/>
<path d="M357.615 203.297L362.392 202.673C362.44 202.666 362.487 202.651 362.529 202.629C362.57 202.606 362.607 202.575 362.636 202.54C362.665 202.504 362.686 202.463 362.698 202.42C362.71 202.376 362.713 202.331 362.706 202.287L362.417 200.411L356.906 201.132L357.197 203.009C357.211 203.098 357.263 203.178 357.341 203.232C357.419 203.286 357.518 203.31 357.615 203.297Z" fill="#DF615C"/>
<path d="M352.258 159.034L354.138 158.787L352.908 157.038L352.258 159.034Z" fill="#39393B"/>
<path d="M361.674 195.639L356.164 196.359L356.472 198.352L361.981 197.631L361.674 195.639Z" fill="#267267"/>
<path d="M355.43 164.232L359.798 192.552C359.814 192.655 359.785 192.759 359.718 192.842C359.65 192.926 359.55 192.981 359.438 192.996C359.326 193.01 359.213 192.983 359.123 192.921C359.032 192.858 358.972 192.766 358.956 192.663L354.586 164.343C354.571 164.24 354.6 164.136 354.668 164.053C354.735 163.97 354.836 163.915 354.948 163.9C355.059 163.886 355.173 163.912 355.263 163.974C355.353 164.037 355.413 164.129 355.43 164.232Z" fill="#267267"/>
<path d="M353.267 164.511L357.637 192.831C357.653 192.934 357.624 193.039 357.556 193.122C357.488 193.205 357.388 193.26 357.276 193.275C357.164 193.29 357.051 193.263 356.961 193.2C356.871 193.138 356.811 193.045 356.795 192.942L352.434 164.616C352.418 164.513 352.448 164.409 352.515 164.326C352.583 164.243 352.684 164.189 352.795 164.174C352.85 164.168 352.906 164.171 352.96 164.185C353.013 164.198 353.063 164.221 353.107 164.253C353.151 164.284 353.188 164.323 353.215 164.367C353.243 164.412 353.261 164.461 353.267 164.511Z" fill="#267267"/>
<path d="M349.195 177.623L349.484 179.695L349.748 181.575L350.15 184.434L350.409 186.292L350.813 189.18L351.072 191.016L351.479 193.921L351.733 195.731L352.144 198.66L352.393 200.449L352.808 203.4L353.057 205.167L353.27 206.686H375.139L375.352 205.167L375.602 203.4L376.016 200.449L376.265 198.66L376.676 195.731L376.931 193.921L377.337 191.016L377.596 189.18L378.001 186.292L378.26 184.434L378.661 181.575L378.925 179.695L379.214 177.623H349.195Z" fill="#DF615C"/>
<path d="M349.488 179.694L349.752 181.574H378.667L378.931 179.694H349.488Z" fill="#B11722"/>
<path d="M350.152 184.434L350.412 186.292H378.003L378.262 184.434H350.152Z" fill="#B11722"/>
<path d="M350.816 189.169L351.076 191.005H377.342L377.601 189.169H350.816Z" fill="#B11722"/>
<path d="M351.484 193.916L351.739 195.726H376.684L376.938 193.916H351.484Z" fill="#B11722"/>
<path d="M352.148 198.654L352.398 200.443H376.021L376.27 198.654H352.148Z" fill="#B11722"/>
<path d="M352.812 203.396L353.062 205.162H375.359L375.608 203.396H352.812Z" fill="#B11722"/>
<path d="M80.1613 103.996L98.8167 176.608L99.312 178.516L100.567 183.408C100.829 184.435 101.461 185.351 102.36 186.007C103.259 186.662 104.373 187.019 105.519 187.019H231.156C231.925 187.018 232.683 186.857 233.375 186.548C234.067 186.239 234.674 185.79 235.15 185.234C235.627 184.679 235.96 184.031 236.126 183.34C236.292 182.649 236.286 181.932 236.109 181.243L215.712 101.832C215.448 100.805 214.816 99.8895 213.917 99.2346C213.018 98.5797 211.905 98.2235 210.759 98.2236H85.124C84.3544 98.2226 83.5946 98.3821 82.9016 98.6902C82.2087 98.9983 81.6005 99.447 81.1229 100.003C80.6453 100.558 80.3107 101.206 80.1441 101.898C79.9776 102.589 79.9835 103.307 80.1613 103.996Z" fill="#39393B"/>
<path d="M98.8047 176.602L99.3 178.511H229.755V176.602H98.8047Z" fill="#585859"/>
<path d="M180.52 116.198C181.107 118.762 182.607 121.072 184.784 122.76C186.96 124.449 189.687 125.419 192.532 125.518C193.796 125.561 195.054 125.333 196.206 124.852C197.359 124.372 198.374 123.651 199.172 122.747C199.97 121.844 200.53 120.782 200.806 119.645C201.083 118.509 201.068 117.328 200.765 116.198C200.177 113.634 198.676 111.324 196.5 109.636C194.324 107.948 191.597 106.977 188.753 106.879C187.489 106.836 186.231 107.064 185.079 107.544C183.926 108.025 182.911 108.745 182.113 109.649C181.315 110.552 180.755 111.614 180.479 112.751C180.202 113.887 180.216 115.067 180.52 116.198Z" fill="#FAAF3A"/>
<path d="M191.95 114.421C192.16 115.451 192.723 116.286 193.208 116.286C193.693 116.286 193.92 115.451 193.703 114.421C193.487 113.391 192.932 112.558 192.445 112.558C191.958 112.558 191.742 113.386 191.95 114.421Z" fill="#39393B"/>
<path d="M186.669 114.421C186.877 115.451 187.441 116.286 187.927 116.286C188.412 116.286 188.638 115.451 188.422 114.421C188.206 113.391 187.651 112.558 187.164 112.558C186.677 112.558 186.461 113.386 186.669 114.421Z" fill="#39393B"/>
<path d="M191.476 120.736C192.659 120.749 193.8 120.331 194.651 119.573C195.501 118.815 195.992 117.778 196.016 116.689C196.013 116.575 195.968 116.466 195.889 116.379C195.811 116.291 195.702 116.231 195.582 116.207C195.529 116.193 195.474 116.19 195.42 116.198C195.366 116.206 195.315 116.226 195.27 116.255C195.226 116.284 195.189 116.323 195.164 116.367C195.138 116.412 195.123 116.461 195.121 116.511C195.117 116.966 195.015 117.416 194.821 117.834C194.627 118.252 194.344 118.631 193.99 118.948C193.636 119.265 193.217 119.514 192.757 119.681C192.298 119.848 191.807 119.929 191.313 119.92C190.187 119.86 189.102 119.507 188.184 118.904C187.266 118.301 186.552 117.472 186.124 116.511C186.078 116.407 185.995 116.32 185.888 116.265C185.782 116.21 185.658 116.189 185.538 116.207C185.484 116.219 185.434 116.242 185.391 116.274C185.348 116.307 185.314 116.347 185.291 116.394C185.268 116.44 185.257 116.49 185.258 116.541C185.259 116.592 185.273 116.642 185.298 116.687C185.818 117.824 186.672 118.804 187.763 119.519C188.854 120.234 190.14 120.656 191.476 120.736Z" fill="#39393B"/>
<path d="M122.438 159.705C122.327 164.526 113.459 170.561 113.459 170.561C113.459 170.561 103.155 164.526 101.902 159.705C100.543 154.479 107.02 152.877 111.826 156.817C115.694 152.876 122.567 154.478 122.438 159.705Z" fill="#DF615C"/>
<path d="M141.208 145.727C141.55 148.189 142.839 150.456 144.842 152.116C146.845 153.777 149.428 154.721 152.122 154.777C153.374 154.803 154.616 154.579 155.764 154.119C156.912 153.659 157.938 152.975 158.77 152.115C159.602 151.254 160.221 150.237 160.584 149.134C160.947 148.031 161.046 146.869 160.872 145.727C160.531 143.266 159.241 140.999 157.239 139.339C155.236 137.678 152.653 136.734 149.958 136.678C148.707 136.652 147.464 136.876 146.316 137.336C145.168 137.795 144.143 138.479 143.31 139.34C142.478 140.201 141.859 141.218 141.496 142.321C141.133 143.424 141.035 144.586 141.208 145.727Z" fill="#585859"/>
<path d="M205.777 98.2278L227.492 187.018H231.15C231.919 187.018 232.678 186.857 233.37 186.548C234.062 186.239 234.669 185.79 235.145 185.234C235.622 184.679 235.956 184.031 236.121 183.34C236.287 182.648 236.281 181.931 236.103 181.243L215.709 101.831C215.445 100.805 214.813 99.8896 213.914 99.2346C213.015 98.5796 211.903 98.2227 210.756 98.2217L205.777 98.2278Z" fill="#585859"/>
<path d="M169.386 187.019L173.198 206.75H160.61L156.793 187.019H169.386Z" fill="white"/>
<path d="M192.04 203.355L189.463 200.02C189.01 199.434 188.41 198.955 187.715 198.625C187.02 198.295 186.249 198.122 185.467 198.122H150.952C150.057 198.122 149.178 198.348 148.412 198.775C147.646 199.202 147.021 199.814 146.606 200.545L144.867 203.606C144.681 203.933 144.59 204.3 144.603 204.669C144.615 205.038 144.731 205.398 144.939 205.715C145.147 206.031 145.44 206.292 145.79 206.474C146.14 206.655 146.534 206.75 146.936 206.75H190.137C190.566 206.751 190.986 206.642 191.352 206.437C191.719 206.232 192.016 205.938 192.213 205.587C192.41 205.236 192.498 204.842 192.467 204.449C192.437 204.055 192.289 203.677 192.04 203.355Z" fill="white"/>
<path d="M263.946 206.742H160.268L159.142 203.14C158.977 202.612 158.948 202.057 159.056 201.517C159.165 200.977 159.408 200.468 159.767 200.029C160.125 199.591 160.59 199.235 161.124 198.99C161.657 198.745 162.245 198.618 162.842 198.618H258.509C259.344 198.618 260.157 198.868 260.824 199.33C261.491 199.792 261.977 200.442 262.209 201.181L263.946 206.742Z" fill="white"/>
<path d="M128.559 74.5224L173.301 74.4936C175.387 74.4923 177.077 72.9343 177.075 71.0137L177.057 46.1011C177.055 44.1806 175.363 42.6247 173.277 42.6261L128.535 42.6548C126.449 42.6562 124.759 44.2142 124.76 46.1348L124.779 71.0473C124.781 72.9679 126.473 74.5237 128.559 74.5224Z" fill="#DF615C"/>
<path d="M130.734 69.7354L134.919 84.2731L142.228 70.6093L130.734 69.7354Z" fill="#DF615C"/>
<path d="M139.335 56.2194C140.27 61.6666 151.313 68.4834 151.313 68.4834C151.313 68.4834 161.943 61.6545 162.539 56.2057C163.199 50.2994 155.605 48.4922 150.834 52.9485C145.809 48.4983 138.322 50.3146 139.335 56.2194Z" fill="white"/>
</svg>
