<svg width="459" height="458" viewBox="0 0 459 458" fill="none" xmlns="http://www.w3.org/2000/svg">
<g filter="url(#filter0_dd_378_7743)">
<path d="M88.8277 72.2354L110.256 85.1545L106.018 87.7105L84.5898 74.7914L88.8277 72.2354Z" fill="#2C2A72"/>
<path d="M106.02 208.696L169.802 170.237V49.252L106.02 87.7115V208.696Z" fill="#0A1F44"/>
<path d="M84.5898 195.776L106.018 208.695V87.7101L84.5898 74.791V195.776Z" fill="#2C2A72"/>
<path d="M88.5312 157.24L102.07 165.404V112.351L88.5312 104.188V157.24Z" fill="#DFEAED"/>
<path d="M101.773 85.1539L165.556 46.6943L169.793 49.2504L106.002 87.7099L101.773 85.1539Z" fill="#2C2A72"/>
<path d="M84.5898 74.7929L148.372 36.3223L152.61 38.8784L88.8277 77.3471L84.5898 74.7929Z" fill="#2C2A72"/>
<path d="M89.4492 178.027C89.5579 180.147 90.1438 182.211 91.1592 184.05C92.1746 185.889 93.591 187.452 95.2933 188.612C98.5253 190.562 101.137 188.982 101.137 185.083C101.029 182.963 100.443 180.9 99.4274 179.061C98.412 177.222 96.9956 175.659 95.2933 174.498C92.0666 172.551 89.4492 174.128 89.4492 178.027Z" fill="#DFEAED"/>
<path d="M152.611 38.8877V54.5016L106.014 82.5981L93.0664 74.7912L152.611 38.8877Z" fill="#2C2A72"/>
<path d="M160.546 49.721L147.599 41.9141L93.0664 74.7954L106.014 82.6023L160.546 49.721Z" fill="#DFEAED"/>
<path d="M110.256 85.1562L131.684 98.0754L127.448 100.631L106.02 87.7123L110.256 85.1562Z" fill="#2C2A72"/>
<path d="M127.441 221.615L191.224 183.156V62.1709L127.441 100.627V221.615Z" fill="#2C2A72"/>
<path d="M106.02 208.695L127.448 221.615V100.628L106.02 87.709V208.695Z" fill="#2C2A72"/>
<path d="M109.961 170.16L123.5 178.324V125.273L109.961 117.109V170.16Z" fill="#DFEAED"/>
<path d="M123.199 98.0748L186.981 59.6152L191.219 62.1713L127.439 100.635L123.199 98.0748Z" fill="#2C2A72"/>
<path d="M106.02 87.7115L169.802 49.252L174.04 51.808L110.257 90.2676L106.02 87.7115Z" fill="#2C2A72"/>
<path d="M110.875 190.942C110.985 193.062 111.571 195.125 112.586 196.964C113.601 198.803 115.017 200.366 116.719 201.527C119.951 203.477 122.563 201.897 122.563 197.998C122.454 195.878 121.869 193.815 120.853 191.976C119.838 190.137 118.421 188.573 116.719 187.413C113.494 185.471 110.875 187.058 110.875 190.942Z" fill="#DFEAED"/>
<path d="M174.048 51.8076V67.4215L127.451 95.518L114.504 87.7111L174.048 51.8076Z" fill="#2C2A72"/>
<path d="M181.976 62.637L169.029 54.8301L114.496 87.7114L127.443 95.5183L181.976 62.637Z" fill="#DFEAED"/>
<path d="M380.268 272.398L373.879 276.282C374.528 275.802 375.043 275.152 375.372 274.396C375.701 273.641 375.833 272.808 375.753 271.982L382.142 268.098C382.222 268.923 382.091 269.757 381.762 270.512C381.433 271.268 380.917 271.918 380.268 272.398Z" fill="#A5B7C6"/>
<path d="M192.148 4.32002L198.538 0.435968C199.272 0.0821845 200.083 -0.0603055 200.888 0.023265C201.693 0.106836 202.461 0.413424 203.114 0.911295L196.725 4.79535C196.072 4.29748 195.303 3.9909 194.498 3.90733C193.694 3.82376 192.883 3.96624 192.148 4.32002Z" fill="#A5B7C6"/>
<path d="M376.116 120.687L382.506 116.803L382.151 268.096L375.762 271.98L376.116 120.687Z" fill="#C3D3DD"/>
<path d="M196.727 4.79714L203.116 0.913086L376.1 105.228L369.71 109.112L196.727 4.79714Z" fill="#A5B7C6"/>
<path d="M369.711 109.103L376.101 105.219C377.967 106.486 379.519 108.196 380.632 110.21C381.745 112.223 382.386 114.483 382.504 116.804L376.115 120.688C375.997 118.367 375.355 116.107 374.242 114.094C373.13 112.081 371.577 110.37 369.711 109.103Z" fill="#C3D3DD"/>
<path d="M369.71 109.102C371.576 110.37 373.128 112.08 374.241 114.093C375.354 116.106 375.995 118.365 376.113 120.686L375.759 271.979C375.749 276.252 372.844 277.944 369.313 275.815L196.33 171.501C194.461 170.236 192.906 168.526 191.793 166.512C190.68 164.498 190.04 162.237 189.926 159.915L190.28 8.62179C190.291 4.34933 193.167 2.63851 196.726 4.78583L369.71 109.102Z" fill="#1D262D"/>
<path d="M196.684 20.0059L196.367 156.292L369.351 260.606L369.668 124.322L196.684 20.0059Z" fill="#2C2A72"/>
<path d="M371.965 279.713L371.943 287.431C371.872 288.257 371.592 289.048 371.131 289.724C370.671 290.4 370.048 290.936 369.324 291.278L369.346 283.56C370.069 283.218 370.692 282.682 371.152 282.006C371.613 281.33 371.893 280.539 371.965 279.713Z" fill="#C3D3DD"/>
<path d="M245.35 358.631L245.329 366.349C243.343 367.399 241.149 367.946 238.924 367.946C236.699 367.946 234.505 367.399 232.52 366.349L232.541 358.631C234.526 359.682 236.72 360.229 238.945 360.229C241.171 360.229 243.365 359.682 245.35 358.631Z" fill="#758D9E"/>
<path d="M56.8672 258.146L56.8867 250.428C56.959 251.267 57.2448 252.072 57.7147 252.757C58.1845 253.443 58.8213 253.984 59.559 254.327L59.5378 262.045C58.8002 261.703 58.1635 261.161 57.694 260.475C57.2244 259.79 56.9389 258.985 56.8672 258.146Z" fill="#758D9E"/>
<path d="M369.345 283.561L369.324 291.279L245.328 366.348L245.349 358.63L369.345 283.561Z" fill="#C3D3DD"/>
<path d="M232.54 358.632L232.519 366.35L59.5352 262.036L59.5564 254.317L232.54 358.632Z" fill="#758D9E"/>
<path d="M369.307 275.81C372.838 277.939 372.848 281.429 369.347 283.56L245.352 358.629C243.366 359.68 241.172 360.228 238.947 360.228C236.721 360.228 234.527 359.68 232.542 358.629L59.5588 254.315C55.9992 252.169 56.0169 248.696 59.518 246.567L183.514 171.496C185.498 170.442 187.692 169.893 189.918 169.893C192.144 169.893 194.339 170.442 196.323 171.496L369.307 275.81Z" fill="#A5B7C6"/>
<path d="M228.97 295.366L165.216 256.921C164.225 256.392 163.128 256.116 162.014 256.116C160.901 256.116 159.804 256.392 158.812 256.921L125.873 276.723C125.485 276.863 125.149 277.126 124.912 277.476C124.675 277.825 124.549 278.244 124.551 278.672C124.553 279.1 124.684 279.517 124.924 279.864C125.165 280.211 125.503 280.471 125.893 280.607L189.646 319.052C190.638 319.581 191.735 319.857 192.848 319.857C193.961 319.857 195.059 319.581 196.05 319.052L228.989 299.248C230.773 298.166 230.76 296.457 228.968 295.375" fill="#C3D3DD"/>
<path d="M198.232 183.295V185.224L186.586 192.291V190.362L198.232 183.295Z" fill="#455B68"/>
<path d="M186.587 190.356V192.285L175.125 185.375V183.446L186.587 190.356Z" fill="#1D262D"/>
<path d="M198.228 183.295L186.583 190.362L175.121 183.452L186.767 176.385L198.228 183.295Z" fill="#37454F"/>
<path d="M212.935 192.161V194.09L201.289 201.157V199.228L212.935 192.161Z" fill="#455B68"/>
<path d="M201.283 199.228V201.157L189.793 194.229V192.3L201.283 199.228Z" fill="#1D262D"/>
<path d="M212.932 192.161L201.287 199.228L189.797 192.3L201.443 185.232L212.932 192.161Z" fill="#37454F"/>
<path d="M227.603 201.008V202.937L215.957 210.004V208.075L227.603 201.008Z" fill="#455B68"/>
<path d="M215.956 208.076V210.005L204.496 203.095V201.166L215.956 208.076Z" fill="#1D262D"/>
<path d="M227.603 201.008L215.958 208.075L204.496 201.165L216.142 194.098L227.603 201.008Z" fill="#37454F"/>
<path d="M242.275 209.856V211.786L230.629 218.853V216.924L242.275 209.856Z" fill="#455B68"/>
<path d="M230.631 216.925V218.854L219.168 211.944V210.015L230.631 216.925Z" fill="#1D262D"/>
<path d="M242.277 209.859L230.631 216.926L219.164 210.016L230.81 202.949L242.277 209.859Z" fill="#37454F"/>
<path d="M256.954 218.703V220.632L245.309 227.699V225.77L256.954 218.703Z" fill="#455B68"/>
<path d="M245.305 225.779V227.708L233.844 220.798V218.869L245.305 225.779Z" fill="#1D262D"/>
<path d="M256.951 218.705L245.305 225.772L233.844 218.862L245.489 211.795L256.951 218.705Z" fill="#37454F"/>
<path d="M271.657 227.568V229.497L260.012 236.565V234.635L271.657 227.568Z" fill="#455B68"/>
<path d="M260.008 234.636V236.565L248.547 229.655V227.726L260.008 234.636Z" fill="#1D262D"/>
<path d="M271.658 227.57L260.012 234.637L248.551 227.727L260.196 220.66L271.658 227.57Z" fill="#37454F"/>
<path d="M286.329 236.416V238.345L274.684 245.412V243.483L286.329 236.416Z" fill="#455B68"/>
<path d="M274.684 243.484V245.413L263.223 238.503V236.574L274.684 243.484Z" fill="#1D262D"/>
<path d="M286.326 236.412L274.68 243.479L263.219 236.569L274.864 229.502L286.326 236.412Z" fill="#37454F"/>
<path d="M300.997 245.264V247.193L289.352 254.26V252.331L300.997 245.264Z" fill="#455B68"/>
<path d="M289.352 252.333V254.262L277.891 247.352V245.423L289.352 252.333Z" fill="#1D262D"/>
<path d="M300.998 245.263L289.352 252.331L277.891 245.421L289.536 238.354L300.998 245.263Z" fill="#37454F"/>
<path d="M315.704 254.131V256.06L304.059 263.127V261.198L315.704 254.131Z" fill="#455B68"/>
<path d="M304.056 261.204V263.133L292.566 256.204V254.275L304.056 261.204Z" fill="#1D262D"/>
<path d="M315.702 254.131L304.056 261.198L292.566 254.27L304.212 247.195L315.702 254.131Z" fill="#37454F"/>
<path d="M330.376 262.979V264.908L318.73 271.975V270.046L330.376 262.979Z" fill="#455B68"/>
<path d="M318.727 270.045V271.974L307.266 265.064V263.135L318.727 270.045Z" fill="#1D262D"/>
<path d="M330.377 262.977L318.731 270.044L307.27 263.134L318.915 256.067L330.377 262.977Z" fill="#37454F"/>
<path d="M359.751 280.691V282.62L348.105 289.688V287.759L359.751 280.691Z" fill="#455B68"/>
<path d="M348.103 287.756V289.685L321.941 273.909V271.979L348.103 287.756Z" fill="#1D262D"/>
<path d="M359.747 280.691L348.101 287.758L321.938 271.981L333.583 264.914L359.747 280.691Z" fill="#37454F"/>
<path d="M198.092 201.167V203.096L186.477 210.147V208.217L198.092 201.167Z" fill="#455B68"/>
<path d="M186.472 208.216V210.145L160.309 194.369V192.439L186.472 208.216Z" fill="#1D262D"/>
<path d="M198.092 201.167L186.476 208.218L160.312 192.441L171.928 185.391L198.092 201.167Z" fill="#37454F"/>
<path d="M212.768 210.014V211.943L201.152 218.993V217.064L212.768 210.014Z" fill="#455B68"/>
<path d="M201.153 217.066V218.995L189.691 212.085V210.156L201.153 217.066Z" fill="#1D262D"/>
<path d="M212.769 210.013L201.153 217.064L189.691 210.154L201.307 203.104L212.769 210.013Z" fill="#37454F"/>
<path d="M227.442 218.859V220.788L215.824 227.839V225.91L227.442 218.859Z" fill="#455B68"/>
<path d="M215.821 225.911V227.84L204.359 220.93V219.001L215.821 225.911Z" fill="#1D262D"/>
<path d="M227.433 218.859L215.817 225.91L204.355 219L215.973 211.949L227.433 218.859Z" fill="#37454F"/>
<path d="M242.112 227.709V229.638L230.496 236.689V234.759L242.112 227.709Z" fill="#455B68"/>
<path d="M230.493 234.759V236.688L219.031 229.778V227.849L230.493 234.759Z" fill="#1D262D"/>
<path d="M242.11 227.708L230.493 234.758L219.031 227.848L230.647 220.798L242.11 227.708Z" fill="#37454F"/>
<path d="M256.819 236.574V238.503L245.203 245.554V243.625L256.819 236.574Z" fill="#455B68"/>
<path d="M245.2 243.624V245.553L233.738 238.643V236.714L245.2 243.624Z" fill="#1D262D"/>
<path d="M256.818 236.575L245.202 243.625L233.742 236.715L245.358 229.663L256.818 236.575Z" fill="#37454F"/>
<path d="M271.491 245.422V247.351L259.875 254.401V252.472L271.491 245.422Z" fill="#455B68"/>
<path d="M259.872 252.472V254.401L248.41 247.492V245.562L259.872 252.472Z" fill="#1D262D"/>
<path d="M271.487 245.424L259.872 252.474L248.41 245.564L260.026 238.514L271.487 245.424Z" fill="#37454F"/>
<path d="M286.16 254.27V256.199L274.543 263.249V261.32L286.16 254.27Z" fill="#455B68"/>
<path d="M274.542 261.32V263.249L263.082 256.339V254.41L274.542 261.32Z" fill="#1D262D"/>
<path d="M286.159 254.271L274.544 261.322L263.082 254.412L274.699 247.361L286.159 254.271Z" fill="#37454F"/>
<path d="M300.866 263.135V265.064L289.25 272.114V270.185L300.866 263.135Z" fill="#455B68"/>
<path d="M289.248 270.184V272.113L277.758 265.185V263.256L289.248 270.184Z" fill="#1D262D"/>
<path d="M300.867 263.133L289.252 270.184L277.762 263.256L289.377 256.205L300.867 263.133Z" fill="#37454F"/>
<path d="M315.543 271.975V273.904L303.926 280.954V279.025L315.543 271.975Z" fill="#455B68"/>
<path d="M303.926 279.035V280.964L292.465 274.054V272.125L303.926 279.035Z" fill="#1D262D"/>
<path d="M315.54 271.982L303.922 279.033L292.461 272.123L304.077 265.072L315.54 271.982Z" fill="#37454F"/>
<path d="M330.213 280.83V282.759L318.598 289.81V287.881L330.213 280.83Z" fill="#455B68"/>
<path d="M318.598 287.881V289.81L307.137 282.9V280.971L318.598 287.881Z" fill="#1D262D"/>
<path d="M330.212 280.835L318.594 287.885L307.133 280.975L318.748 273.925L330.212 280.835Z" fill="#37454F"/>
<path d="M344.909 289.696V291.625L333.293 298.676V296.747L344.909 289.696Z" fill="#455B68"/>
<path d="M333.29 296.746V298.675L321.793 291.738V289.809L333.29 296.746Z" fill="#1D262D"/>
<path d="M344.908 289.696L333.291 296.747L321.801 289.818L333.418 282.768L344.908 289.696Z" fill="#37454F"/>
<path d="M183.287 210.154V212.083L171.672 219.134V217.205L183.287 210.154Z" fill="#455B68"/>
<path d="M171.668 217.203V219.132L145.504 203.357V201.428L171.668 217.203Z" fill="#1D262D"/>
<path d="M183.283 210.154L171.668 217.204L145.504 201.427L157.121 194.377L183.283 210.154Z" fill="#37454F"/>
<path d="M197.963 219.001V220.93L186.348 227.981V226.051L197.963 219.001Z" fill="#455B68"/>
<path d="M186.34 226.051V227.98L174.879 221.07V219.141L186.34 226.051Z" fill="#1D262D"/>
<path d="M197.962 218.997L186.344 226.047L174.883 219.137L186.5 212.087L197.962 218.997Z" fill="#37454F"/>
<path d="M212.633 227.85V229.779L201.016 236.829V234.9L212.633 227.85Z" fill="#455B68"/>
<path d="M201.012 234.894V236.823L189.551 229.913V227.984L201.012 234.894Z" fill="#1D262D"/>
<path d="M212.632 227.851L201.016 234.902L189.555 227.992L201.172 220.941L212.632 227.851Z" fill="#37454F"/>
<path d="M227.303 236.695V238.624L215.688 245.675V243.746L227.303 236.695Z" fill="#455B68"/>
<path d="M215.688 243.748V245.677L204.227 238.767V236.838L215.688 243.748Z" fill="#1D262D"/>
<path d="M227.304 236.695L215.688 243.746L204.227 236.836L215.842 229.785L227.304 236.695Z" fill="#37454F"/>
<path d="M242.01 245.559V247.488L230.395 254.538V252.609L242.01 245.559Z" fill="#455B68"/>
<path d="M230.395 252.613V254.542L218.934 247.632V245.703L230.395 252.613Z" fill="#1D262D"/>
<path d="M242.009 245.56L230.391 252.611L218.93 245.701L230.545 238.65L242.009 245.56Z" fill="#37454F"/>
<path d="M256.688 254.408V256.337L245.07 263.388V261.459L256.688 254.408Z" fill="#455B68"/>
<path d="M245.063 261.459V263.388L233.602 256.478V254.549L245.063 261.459Z" fill="#1D262D"/>
<path d="M256.681 254.408L245.065 261.458L233.605 254.549L245.221 247.498L256.681 254.408Z" fill="#37454F"/>
<path d="M271.358 263.257V265.186L259.742 272.236V270.307L271.358 263.257Z" fill="#455B68"/>
<path d="M259.74 270.315V272.245L248.266 265.322V263.393L259.74 270.315Z" fill="#1D262D"/>
<path d="M271.354 263.259L259.739 270.309L248.277 263.399L259.895 256.349L271.354 263.259Z" fill="#37454F"/>
<path d="M286.057 272.124V274.053L274.441 281.104V279.175L286.057 272.124Z" fill="#455B68"/>
<path d="M274.439 279.175V281.104L262.949 274.175V272.246L274.439 279.175Z" fill="#1D262D"/>
<path d="M286.055 272.124L274.439 279.174L262.949 272.246L274.565 265.195L286.055 272.124Z" fill="#37454F"/>
<path d="M300.731 280.969V282.898L289.113 289.948V288.019L300.731 280.969Z" fill="#455B68"/>
<path d="M289.112 288.022V289.951L277.652 283.041V281.112L289.112 288.022Z" fill="#1D262D"/>
<path d="M300.729 280.97L289.112 288.02L277.652 281.11L289.268 274.06L300.729 280.97Z" fill="#37454F"/>
<path d="M330.108 298.682V300.611L318.492 307.661V305.732L330.108 298.682Z" fill="#455B68"/>
<path d="M318.488 305.734V307.663L292.324 291.886V289.957L318.488 305.734Z" fill="#1D262D"/>
<path d="M330.108 298.681L318.492 305.731L292.328 289.955L303.944 282.904L330.108 298.681Z" fill="#37454F"/>
<path d="M183.151 227.988V229.917L171.535 236.968V235.039L183.151 227.988Z" fill="#455B68"/>
<path d="M171.535 235.04V236.969L130.699 212.346V210.417L171.535 235.04Z" fill="#1D262D"/>
<path d="M183.155 227.987L171.539 235.038L130.703 210.415L142.32 203.364L183.155 227.987Z" fill="#37454F"/>
<path d="M197.827 236.836V238.765L186.211 245.816V243.886L197.827 236.836Z" fill="#455B68"/>
<path d="M186.208 243.886V245.816L174.746 238.906V236.977L186.208 243.886Z" fill="#1D262D"/>
<path d="M197.823 236.838L186.208 243.888L174.746 236.978L186.363 229.928L197.823 236.838Z" fill="#37454F"/>
<path d="M212.496 245.684V247.613L200.879 254.663V252.734L212.496 245.684Z" fill="#455B68"/>
<path d="M200.879 252.735V254.664L189.418 247.754V245.825L200.879 252.735Z" fill="#1D262D"/>
<path d="M212.497 245.686L200.882 252.737L189.422 245.827L201.037 238.776L212.497 245.686Z" fill="#37454F"/>
<path d="M227.199 254.549V256.478L215.582 263.528V261.599L227.199 254.549Z" fill="#455B68"/>
<path d="M215.581 261.601V263.53L204.121 256.62V254.691L215.581 261.601Z" fill="#1D262D"/>
<path d="M227.198 254.549L215.583 261.599L204.121 254.689L215.737 247.639L227.198 254.549Z" fill="#37454F"/>
<path d="M241.869 263.396V265.326L230.254 272.376V270.447L241.869 263.396Z" fill="#455B68"/>
<path d="M230.251 270.447V272.376L218.789 265.466V263.537L230.251 270.447Z" fill="#1D262D"/>
<path d="M241.872 263.395L230.255 270.446L218.793 263.536L230.409 256.485L241.872 263.395Z" fill="#37454F"/>
<path d="M256.541 272.244V274.173L244.926 281.224V279.295L256.541 272.244Z" fill="#455B68"/>
<path d="M244.926 279.295V281.224L233.465 274.314V272.385L244.926 279.295Z" fill="#1D262D"/>
<path d="M256.542 272.244L244.926 279.294L233.465 272.384L245.08 265.334L256.542 272.244Z" fill="#37454F"/>
<path d="M271.248 281.11V283.039L259.633 290.09V288.161L271.248 281.11Z" fill="#455B68"/>
<path d="M259.63 288.161V290.09L248.141 283.162V281.232L259.63 288.161Z" fill="#1D262D"/>
<path d="M271.246 281.11L259.631 288.161L248.141 281.232L259.758 274.182L271.246 281.11Z" fill="#37454F"/>
<path d="M285.926 289.956V291.885L274.309 298.936V297.007L285.926 289.956Z" fill="#455B68"/>
<path d="M274.309 297.008V298.937L262.848 292.027V290.098L274.309 297.008Z" fill="#1D262D"/>
<path d="M285.923 289.959L274.305 297.009L262.844 290.099L274.461 283.049L285.923 289.959Z" fill="#37454F"/>
<path d="M315.303 307.671V309.6L303.688 316.65V314.721L315.303 307.671Z" fill="#455B68"/>
<path d="M303.683 314.722V316.651L277.52 300.874V298.945L303.683 314.722Z" fill="#1D262D"/>
<path d="M315.299 307.671L303.683 314.722L277.52 298.945L289.137 291.895L315.299 307.671Z" fill="#37454F"/>
<path d="M138.97 219.258V221.187L127.324 228.254V226.325L138.97 219.258Z" fill="#455B68"/>
<path d="M127.321 226.33V228.259L115.859 221.349V219.42L127.321 226.33Z" fill="#1D262D"/>
<path d="M138.967 219.263L127.321 226.331L115.859 219.421L127.505 212.354L138.967 219.263Z" fill="#37454F"/>
<path d="M153.669 228.129V230.058L142.023 237.125V235.196L153.669 228.129Z" fill="#455B68"/>
<path d="M142.031 235.194V237.123L130.52 230.197V228.268L142.031 235.194Z" fill="#1D262D"/>
<path d="M153.671 228.128L142.025 235.195L130.535 228.266L142.181 221.199L153.671 228.128Z" fill="#37454F"/>
<path d="M168.341 236.975V238.904L156.695 245.971V244.042L168.341 236.975Z" fill="#455B68"/>
<path d="M156.696 244.044V245.973L145.234 239.063V237.134L156.696 244.044Z" fill="#1D262D"/>
<path d="M168.345 236.974L156.7 244.042L145.238 237.132L156.884 230.064L168.345 236.974Z" fill="#37454F"/>
<path d="M241.732 281.231V283.161L230.086 290.228V288.299L241.732 281.231Z" fill="#455B68"/>
<path d="M230.09 288.297V290.226L159.902 247.903V245.974L230.09 288.297Z" fill="#1D262D"/>
<path d="M241.734 281.232L230.089 288.299L159.906 245.979L171.552 238.912L241.734 281.232Z" fill="#37454F"/>
<path d="M256.439 290.096V292.025L244.793 299.092V297.163L256.439 290.096Z" fill="#455B68"/>
<path d="M244.795 297.165V299.094L233.305 292.165V290.236L244.795 297.165Z" fill="#1D262D"/>
<path d="M256.444 290.096L244.799 297.164L233.309 290.235L244.954 283.168L256.444 290.096Z" fill="#37454F"/>
<path d="M271.111 298.943V300.872L259.453 307.941V306.012L271.111 298.943Z" fill="#455B68"/>
<path d="M259.465 306.013V307.942L248.004 301.033V299.104L259.465 306.013Z" fill="#1D262D"/>
<path d="M271.111 298.943L259.465 306.01L248.004 299.1L259.65 292.033L271.111 298.943Z" fill="#37454F"/>
<path d="M300.493 316.658V318.587L288.848 325.654V323.725L300.493 316.658Z" fill="#455B68"/>
<path d="M288.847 323.718V325.647L262.684 309.87V307.941L288.847 323.718Z" fill="#1D262D"/>
<path d="M300.489 316.658L288.844 323.726L262.68 307.949L274.325 300.882L300.489 316.658Z" fill="#37454F"/>
<path d="M151.201 347.855L135.293 357.447L25.0625 290.979L40.9708 281.388L151.201 347.855Z" fill="#D4E3E8"/>
<path d="M48.1304 277.068L158.361 343.536L151.199 347.854L40.9688 281.387L48.1304 277.068Z" fill="#CAD9DD"/>
<path d="M25.0625 295.121L135.293 361.588V357.449L25.0625 290.981V295.121Z" fill="#DFEAED"/>
<path d="M158.365 343.535L135.293 357.447V361.587L158.365 347.674V343.535Z" fill="#B6C9CE"/>
<path d="M111.506 337.638L106.981 340.367L105.527 339.49L110.052 336.762L111.506 337.638Z" fill="#CAD9DD"/>
<path d="M106.368 331.043L98.9305 335.524L97.4766 334.647L104.914 330.166L106.368 331.043Z" fill="#CAD9DD"/>
<path d="M95.4123 327.939L90.8876 330.667L89.4336 329.791L93.9583 327.062L95.4123 327.939Z" fill="#CAD9DD"/>
<path d="M122.458 340.745L115.02 345.226L113.566 344.35L121.004 339.868L122.458 340.745Z" fill="#CAD9DD"/>
<path d="M138.552 350.449L131.114 354.93L129.66 354.054L137.098 349.572L138.552 350.449Z" fill="#CAD9DD"/>
<path d="M127.596 347.349L123.071 350.077L121.617 349.201L126.142 346.473L127.596 347.349Z" fill="#CAD9DD"/>
<path d="M90.2747 321.338L82.8367 325.819L81.3828 324.942L88.8207 320.461L90.2747 321.338Z" fill="#CAD9DD"/>
<path d="M47.135 298.836L42.6102 301.564L41.1562 300.687L45.681 297.959L47.135 298.836Z" fill="#CAD9DD"/>
<path d="M41.9973 292.227L34.5594 296.709L33.1055 295.832L40.5434 291.351L41.9973 292.227Z" fill="#CAD9DD"/>
<path d="M79.3225 318.237L74.7977 320.965L73.3438 320.088L77.8685 317.36L79.3225 318.237Z" fill="#CAD9DD"/>
<path d="M58.0911 301.929L50.6532 306.411L49.1992 305.534L56.6372 301.053L58.0911 301.929Z" fill="#CAD9DD"/>
<path d="M74.1809 311.634L66.743 316.116L65.2891 315.239L72.727 310.758L74.1809 311.634Z" fill="#CAD9DD"/>
<path d="M63.217 308.537L58.6922 311.265L57.2383 310.388L61.763 307.66L63.217 308.537Z" fill="#CAD9DD"/>
<path d="M258.592 406.512V411.798L194.809 450V444.699L258.592 406.512Z" fill="#282828"/>
<path d="M258.591 406.504L194.807 444.697L132.215 406.948L195.999 368.745L258.591 406.504Z" fill="#424242"/>
<path d="M194.807 444.699V449.999L132.215 412.235V406.949L194.807 444.699Z" fill="#303030"/>
<path d="M195.028 427.632C187.078 427.769 179.227 425.764 172.235 421.809C164.524 417.161 160.277 410.442 160.277 402.888C160.277 395.335 164.528 388.615 172.235 383.968C179.274 380.143 187.093 378.146 195.028 378.146C202.963 378.146 210.781 380.143 217.82 383.968C225.529 388.615 229.774 395.337 229.774 402.89C229.774 410.444 225.524 417.161 217.819 421.811C210.827 425.765 202.978 427.769 195.028 427.632Z" fill="#D4E3E8"/>
<path d="M195.028 425.873C187.078 426.011 179.227 424.005 172.235 420.051C164.524 415.403 160.277 408.683 160.277 401.13C160.277 393.576 164.528 386.857 172.235 382.209C179.274 378.384 187.092 376.387 195.028 376.387C202.963 376.387 210.781 378.384 217.82 382.209C225.529 386.857 229.774 393.576 229.774 401.13C229.774 408.683 225.524 415.403 217.819 420.051C210.827 424.005 202.978 426.01 195.028 425.873Z" fill="#C3D3DD"/>
<path d="M218.745 398.878L218.691 394.308C222.41 394.258 225.377 389.984 226.903 385.998C228.761 381.15 228.674 376.524 227.415 375.246C224.582 372.361 219.69 376.698 219.641 376.743L216.773 373.286C219.517 370.798 225.908 367.319 230.473 371.975C233.711 375.278 233.054 382.252 230.967 387.696C228.309 394.633 223.746 398.813 218.745 398.878Z" fill="#DFEAED"/>
<path d="M168.867 374.668V401.129C168.867 405.167 171.421 409.203 176.53 412.284C186.747 418.445 203.312 418.445 213.528 412.284C218.636 409.205 221.191 405.167 221.191 401.129V374.668H168.867Z" fill="#DCE8EF"/>
<path d="M213.529 385.824C203.312 391.985 186.747 391.985 176.53 385.824C166.314 379.664 166.312 369.676 176.53 363.515C186.749 357.354 203.31 357.354 213.529 363.515C223.747 369.676 223.745 379.664 213.529 385.824Z" fill="#F0F5F7"/>
<path d="M195.033 388.202C188.965 388.343 182.965 386.856 177.605 383.882C173.355 381.32 171.016 378.048 171.016 374.669C171.016 371.29 173.355 368.02 177.605 365.458C183.011 362.617 188.979 361.137 195.03 361.137C201.082 361.137 207.05 362.617 212.456 365.458C216.706 368.02 219.045 371.292 219.045 374.669C219.045 378.046 216.704 381.327 212.456 383.884C207.098 386.857 201.099 388.344 195.033 388.202Z" fill="#C3D3DD"/>
<path d="M212.454 374.833C207.049 371.992 201.081 370.512 195.029 370.512C188.977 370.512 183.01 371.992 177.604 374.833C175.639 375.948 173.925 377.49 172.578 379.355C173.925 381.22 175.639 382.762 177.604 383.877C183.01 386.718 188.977 388.198 195.029 388.198C201.081 388.198 207.049 386.718 212.454 383.877C214.42 382.761 216.134 381.219 217.482 379.353C216.134 377.489 214.42 375.948 212.454 374.833Z" fill="#424242"/>
<path d="M4.5 308.873L13.0005 319.06L17.1941 311.477L4.5 308.873Z" fill="#EFC87E"/>
<path d="M4.5 308.873L6.83587 311.67L7.98697 309.587L4.5 308.873Z" fill="#4169E1"/>
<path d="M17.2022 311.472C16.8615 311.307 16.4848 311.24 16.1111 311.278C15.7374 311.316 15.3804 311.459 15.0771 311.69C14.2131 312.276 13.4944 313.068 12.9797 314C12.4651 314.933 12.1691 315.979 12.1161 317.053C12.079 317.436 12.1396 317.821 12.2918 318.171C12.4439 318.52 12.6821 318.821 12.982 319.044L75.142 356.774C74.8417 356.552 74.6034 356.251 74.4512 355.901C74.2991 355.551 74.2386 355.165 74.276 354.782C74.329 353.708 74.625 352.661 75.1397 351.729C75.6543 350.797 76.3731 350.005 77.237 349.419C77.5403 349.187 77.8973 349.045 78.2711 349.007C78.6448 348.968 79.0215 349.035 79.3621 349.2L17.2022 311.472Z" fill="#2C2A72"/>
<path d="M77.244 349.419C78.8856 348.429 80.2263 349.217 80.2316 351.196C80.1765 352.272 79.8788 353.318 79.3626 354.25C78.8465 355.182 78.1266 355.974 77.2617 356.56C75.6201 357.55 74.2848 356.756 74.2812 354.786C74.334 353.711 74.6299 352.664 75.1449 351.731C75.6599 350.798 76.3792 350.006 77.244 349.419Z" fill="#87CEEB"/>
<path d="M34.5469 314.262L43.0474 324.449L47.241 316.866L34.5469 314.262Z" fill="#EFC87E"/>
<path d="M34.5469 314.262L36.8827 317.058L38.0338 314.976L34.5469 314.262Z" fill="#4169E1"/>
<path d="M47.2452 316.861C46.9048 316.696 46.5281 316.629 46.1545 316.667C45.7808 316.705 45.4236 316.846 45.1201 317.077C44.2562 317.664 43.5376 318.456 43.023 319.388C42.5084 320.32 42.2123 321.366 42.1591 322.441C42.1219 322.823 42.1825 323.209 42.3346 323.559C42.4868 323.909 42.725 324.211 43.0251 324.433L83.1369 348.81C82.8369 348.588 82.5987 348.287 82.4466 347.937C82.2945 347.587 82.2338 347.202 82.2709 346.82C82.324 345.745 82.6199 344.699 83.1346 343.767C83.6492 342.834 84.368 342.043 85.2319 341.456C85.5353 341.225 85.8924 341.083 86.2662 341.045C86.6399 341.007 87.0165 341.074 87.357 341.24L47.2452 316.861Z" fill="#0A1F44"/>
<path d="M85.2401 341.448C86.8818 340.458 88.2224 341.248 88.2277 343.227C88.1729 344.302 87.8754 345.349 87.3596 346.281C86.8437 347.213 86.1242 348.004 85.2596 348.591C83.618 349.58 82.2844 348.787 82.2773 346.817C82.3298 345.741 82.6256 344.694 83.1407 343.76C83.6557 342.827 84.3752 342.035 85.2401 341.448Z" fill="#4169E1"/>
<path d="M39.3652 351.012C38.8971 350.794 38.4931 350.45 38.1952 350.014C37.8972 349.579 37.7161 349.068 37.6705 348.535L37.6562 353.514C37.7019 354.047 37.8831 354.558 38.181 354.993C38.479 355.429 38.8829 355.773 39.351 355.991L42.0995 357.655L42.1137 352.676L39.3652 351.012Z" fill="#C4C4C4"/>
<path d="M50.2192 347.748L50.205 352.727L42.0977 357.649L42.1118 352.67L50.2192 347.748Z" fill="#ECECEC"/>
<path d="M50.2232 347.747L42.1158 352.669L39.3674 351.004C37.1165 349.647 37.1059 347.442 39.3408 346.085C40.6005 345.415 41.9941 345.065 43.4078 345.065C44.8214 345.065 46.215 345.415 47.4747 346.085L50.2232 347.747Z" fill="#ECECEC"/>
<path d="M55.8715 351.158L55.8574 356.137L47.75 361.057L47.7642 356.078L55.8715 351.158Z" fill="#6DC1B4"/>
<path d="M47.7764 356.079L47.7622 361.058L42.1094 357.649L42.1236 352.67L47.7764 356.079Z" fill="#4169E1"/>
<path d="M55.8735 351.159L47.7661 356.078L42.1133 352.67L50.2206 347.748L55.8735 351.159Z" fill="#0A1F44"/>
<path d="M58.6487 357.742C57.3887 358.411 55.9952 358.759 54.5818 358.759C53.1683 358.759 51.7749 358.411 50.5148 357.742L47.7681 356.077L47.7539 361.056L50.5006 362.711C51.7606 363.381 53.1541 363.729 54.5676 363.729C55.9811 363.729 57.3746 363.381 58.6346 362.711C59.0952 362.495 59.4926 362.156 59.7863 361.727C60.08 361.298 60.2595 360.795 60.3063 360.27L60.3205 355.291C60.2751 355.818 60.0964 356.322 59.8026 356.753C59.5088 357.184 59.1105 357.525 58.6487 357.742Z" fill="#C4C4C4"/>
<path d="M58.6197 352.815C60.8706 354.173 60.8865 356.374 58.6462 357.735C57.3863 358.404 55.9928 358.753 54.5793 358.753C53.1658 358.753 51.7723 358.404 50.5123 357.735L47.7656 356.07L55.873 351.15L58.6197 352.815Z" fill="#ECECEC"/>
<path d="M370.781 371.317L450.604 323.186L400.782 293.146L320.961 341.276L370.781 371.317Z" fill="#0A1F44"/>
<path d="M450.601 326.932L370.777 375.063V371.317L450.601 323.187V326.932Z" fill="#4169E1"/>
<path d="M370.781 375.06L320.961 345.02V341.274L370.781 371.315V375.06Z" fill="#4169E1"/>
<path d="M370.781 353.355L450.604 305.224L400.784 275.182L320.961 323.312L370.781 353.355Z" fill="#0A1F44"/>
<path d="M325.561 326.087V347.923L320.957 345.148V323.312L325.561 326.087Z" fill="#4169E1"/>
<path d="M370.777 357.1V368.752L448.376 321.912V310.26L370.777 357.1Z" fill="#DFEAED"/>
<path d="M370.781 357.099L320.961 327.059V323.313L370.781 353.354V357.099Z" fill="#4169E1"/>
<path d="M450.601 308.967L370.777 357.098V353.352L450.601 305.222V308.967Z" fill="#4169E1"/>
<path d="M370.782 357.097L325.562 329.816V341.469L370.782 368.749V357.097Z" fill="#B6C9CE"/>
<path d="M363.836 349.171L443.659 301.04L434.659 295.613L354.836 343.744L363.836 349.171Z" fill="#1E90FF"/>
<path d="M370.783 349.675L450.606 301.544L400.784 271.504L320.961 319.635L370.783 349.675Z" fill="#2C2A72"/>
<path d="M450.601 305.29L370.777 353.421V349.676L450.601 301.545V305.29Z" fill="#2C2A72"/>
<path d="M370.781 353.419L320.961 323.378V319.633L370.781 349.673V353.419Z" fill="#2C2A72"/>
<path d="M370.783 331.71L450.606 283.579L400.784 253.539L320.961 301.67L370.783 331.71Z" fill="#2C2A72"/>
<path d="M325.561 304.443V326.279L320.957 323.505V301.669L325.561 304.443Z" fill="#2C2A72"/>
<path d="M370.777 335.457V347.109L448.376 300.269V288.617L370.777 335.457Z" fill="#DFEAED"/>
<path d="M370.781 335.458L320.961 305.418V301.669L370.781 331.709V335.458Z" fill="#2C2A72"/>
<path d="M450.601 287.325L370.777 335.456V331.711L450.601 283.58V287.325Z" fill="#2C2A72"/>
<path d="M370.782 335.457L325.562 308.176V319.828L370.782 347.109V335.457Z" fill="#B6C9CE"/>
<path d="M363.837 327.53L443.661 279.399L434.675 273.965L354.852 322.096L363.837 327.53Z" fill="#D4E3E8"/>
<path d="M316.262 396.504L323.125 364.213H266.297L273.159 396.504H316.262Z" fill="#DCE8EF"/>
<path d="M294.711 379.28C310.533 379.28 323.359 371.546 323.359 362.005C323.359 352.465 310.533 344.73 294.711 344.73C278.889 344.73 266.062 352.465 266.062 362.005C266.062 371.546 278.889 379.28 294.711 379.28Z" fill="#F0F5F7"/>
<path d="M294.712 376.295C288.158 376.45 281.675 374.846 275.883 371.636C271.394 368.929 268.922 365.511 268.922 362.008C268.922 358.505 271.401 355.085 275.883 352.377C281.727 349.314 288.174 347.719 294.712 347.719C301.25 347.719 307.697 349.314 313.541 352.377C318.03 355.085 320.502 358.505 320.502 362.008C320.502 365.511 318.023 368.931 313.541 371.636C307.749 374.846 301.267 376.45 294.712 376.295Z" fill="#C3D3DD"/>
<path d="M313.536 360.236C307.693 357.172 301.245 355.576 294.707 355.576C288.169 355.576 281.722 357.172 275.879 360.236C273.465 361.561 271.428 363.527 269.973 365.936C271.428 368.344 273.465 370.309 275.879 371.634C281.722 374.698 288.169 376.294 294.707 376.294C301.245 376.294 307.693 374.698 313.536 371.634C315.95 370.31 317.987 368.344 319.442 365.936C317.987 363.527 315.95 361.56 313.536 360.236Z" fill="#424242"/>
<path d="M310.075 404.095C301.588 409.213 287.832 409.213 279.345 404.095C270.859 398.977 270.859 390.682 279.345 385.566C287.832 380.45 301.588 380.448 310.075 385.566C318.561 390.684 318.561 398.979 310.075 404.095Z" fill="#DCE8EF"/>
<path d="M292.824 345.438V365.573C292.84 365.746 292.899 365.912 292.996 366.053C293.093 366.195 293.225 366.306 293.377 366.377C293.79 366.596 294.246 366.71 294.709 366.71C295.173 366.71 295.629 366.596 296.042 366.377C296.194 366.307 296.326 366.195 296.423 366.053C296.52 365.912 296.579 365.746 296.595 365.573V345.438H292.824Z" fill="#282828"/>
<path d="M319.919 332.155C319.919 339.137 317.263 345.833 312.536 350.77C307.809 355.708 301.397 358.481 294.711 358.481C288.026 358.481 281.614 355.708 276.887 350.77C272.16 345.833 269.504 339.137 269.504 332.155C269.504 317.615 294.711 281.068 294.711 281.068C294.711 281.068 319.919 317.625 319.919 332.155Z" fill="white"/>
<g style="mix-blend-mode:multiply">
<g style="mix-blend-mode:multiply">
<path d="M307.166 300.916C309.174 311.525 307.878 322.526 303.469 332.31C299.059 342.094 291.767 350.148 282.66 355.293C286.499 357.474 290.815 358.575 295.185 358.488C299.554 358.401 303.827 357.13 307.584 354.799C311.341 352.467 314.453 349.156 316.615 345.189C318.778 341.223 319.915 336.738 319.917 332.173C319.917 324.838 313.517 311.926 307.166 300.916Z" fill="#D1D3D4"/>
</g>
</g>
<path d="M97.5321 391.943C97.5321 391.943 105.856 389.459 107.635 390.391C109.415 391.323 108.051 394.926 104.186 397.223C101.682 398.963 98.9968 400.402 96.1826 401.51C94.1337 402.065 90.9229 402.132 90.4483 400.02C89.997 398.168 90.1002 396.217 90.7441 394.429C91.2789 393.496 97.5321 391.943 97.5321 391.943Z" fill="#424242"/>
<path d="M98.2759 391.373V393.297C98.027 394.113 97.5281 394.821 96.8561 395.312C96.1841 395.802 95.3763 396.049 94.5569 396.014C91.1461 395.993 91.0664 394.131 91.0664 394.131L91.1674 391.454" fill="#F4B298"/>
<path d="M109.38 399.498C109.38 399.498 118.711 396.711 120.714 397.756C122.717 398.801 121.182 402.842 116.844 405.419C112.507 407.995 110.164 409.599 107.868 410.227C105.571 410.856 101.969 410.925 101.434 408.563C100.929 406.486 101.045 404.298 101.767 402.293C102.365 401.239 109.38 399.498 109.38 399.498Z" fill="#424242"/>
<path d="M109.375 398.383V401.866C109.375 401.866 108.966 404.164 105.699 404.373C102.431 404.582 101.762 402.284 101.762 402.284V399.583L106.699 398.801L109.375 398.383Z" fill="#F4B298"/>
<path d="M90.4816 328.219C89.5961 332.671 92.1002 337.816 92.2348 339.767C92.3694 341.719 90.9952 356.217 90.1947 366.521C89.3942 376.825 90.0867 393.339 90.0867 393.339C90.6317 394.026 91.3534 394.535 92.1664 394.806C92.9795 395.078 93.85 395.101 94.6752 394.873C96.4743 394.553 98.1743 393.789 99.6338 392.644C99.6338 392.644 101.835 357.872 102.503 353.839C103.17 349.805 104.323 333.634 104.414 331.126C104.504 328.618 92.3003 319.086 90.4816 328.219Z" fill="#282828"/>
<path d="M116.542 332.565C116.559 343.602 115.789 354.626 114.24 365.544C113.972 367.355 111.357 400.238 111.357 400.238C111.357 400.238 108.637 406.648 100.097 401.841C100.097 401.841 100.983 371.725 101.14 366.613C101.298 361.501 102.089 350.912 101.76 345.619C101.431 340.325 98.5724 338.931 98.2695 331.964C98.2695 331.964 99.3835 325.553 107.411 326.112C115.439 326.67 116.542 332.565 116.542 332.565Z" fill="#303030"/>
<path d="M119.592 292.018C120.546 285.966 117.408 282.627 110.383 278.331C107.48 276.554 96.6739 268.822 91.3699 275.718C86.066 282.613 91.671 298.08 91.3699 306.86C91.0689 315.64 89.7761 327.133 89.7761 327.133C89.7761 327.133 92.4785 332.882 102.284 333.821C107.689 334.493 113.169 333.849 118.295 331.94C118.295 331.94 116.788 309.783 119.592 292.018Z" fill="#0A1F44"/>
<path d="M118.049 309.042C115.29 311.779 111.693 313.407 107.895 313.64V317.75C111.312 317.326 114.669 316.484 117.899 315.242C118.287 314.046 118.528 312.802 118.616 311.543C118.782 309.397 118.049 309.042 118.049 309.042Z" fill="#161C2D"/>
<path d="M106.148 285.903C106.435 286.614 106.639 287.36 106.756 288.122C102.753 284.477 100.543 300.009 98.3349 300.546C96.1265 301.082 87.6402 297.921 85.4637 293.205C84.9355 290.913 84.8736 288.531 85.2817 286.213C85.6899 283.895 86.5591 281.691 87.8332 279.746C89.3208 276.975 104.243 281.723 106.148 285.903Z" fill="#282828"/>
<path d="M107.878 315.166C107.941 320.082 108.15 327.305 102.946 327.406C97.7407 327.508 86.7273 322.289 86.134 319.982C85.2325 311.092 85.0081 302.141 85.4628 293.214C87.6393 297.928 96.1416 301.072 98.334 300.555C100.526 300.037 102.761 284.486 106.755 288.131C107.989 294.834 107.814 310.87 107.878 315.166Z" fill="#2F3030"/>
<path d="M106.914 289.088C106.914 289.088 108.88 283.404 111.695 282.882C113.458 282.583 115.264 282.723 116.964 283.293C116.964 283.293 117.258 282.411 116.055 281.419C114.77 280.559 113.395 279.854 111.958 279.317C111.958 279.317 107.707 278.29 103.324 283.173C104.357 283.623 105.235 284.389 105.841 285.372C106.303 286.575 106.662 287.818 106.914 289.088Z" fill="#161C2D"/>
<path d="M95.4489 279.796C95.4489 279.796 96.0846 274.104 98.3372 272.901C97.9126 272.596 97.4095 272.431 96.8939 272.43C95.8257 272.679 94.7979 273.089 93.8426 273.647C92.2642 274.977 91.1959 276.856 90.832 278.94C90.832 278.94 94.5351 279.525 95.4489 279.796Z" fill="#161C2D"/>
<path d="M99.5031 271.839C99.5031 271.839 99.4358 274.417 99.5031 274.983C100.885 276.516 102.762 277.459 104.772 277.63C106.1 277.842 107.457 277.728 108.737 277.299V273.785C108.737 273.785 112.643 273.96 113.177 272.897C114.011 270.505 114.396 267.968 114.312 265.425C113.925 264.562 113.655 263.648 113.509 262.708C113.673 261.554 113.762 260.391 113.777 259.225C113.463 258.169 113.061 257.143 112.576 256.16C112.576 256.16 114.347 253.861 109.461 252.328C104.575 250.795 98.1005 252.469 97.3001 253.993C96.8398 254.793 96.5888 255.706 96.5722 256.639C96.5722 256.639 93.9335 259.007 94.5835 261.376C95.7524 264.435 97.1057 267.414 98.6354 270.295L99.5031 271.839Z" fill="#FFC8AF"/>
<path d="M109.465 252.329C104.575 250.796 98.1044 252.47 97.304 253.994C96.8437 254.794 96.5928 255.707 96.5762 256.64C96.5762 256.64 93.9374 259.008 94.5874 261.377C95.7563 264.436 97.1096 267.415 98.6393 270.296L99.5071 271.829C99.5071 271.829 104.91 270.922 105.511 270.164C106.111 269.406 107.246 266.193 107.898 266.465C108.549 266.737 108.645 269.043 108.645 269.043H109.458C109.516 267.93 109.516 266.813 109.458 265.699C109.346 265.072 110.439 263.957 110.572 263.053C110.527 261.72 110.385 260.392 110.145 259.082C110.119 258.527 112.573 256.156 112.573 256.156C112.573 256.156 114.356 253.864 109.465 252.329Z" fill="#282828"/>
<path d="M130.388 334.009C130.195 333.339 128.162 327.371 128.162 327.371L121.581 310.081C121.203 309.021 120.627 308.049 119.886 307.224C119.918 301.154 119.504 295.092 118.647 289.089C118.647 289.089 112.668 284.779 110.75 292.183C110.75 292.183 111.426 303.702 111.635 308.577V308.594L111.664 309.127C111.687 309.732 111.701 310.203 111.701 310.471C111.701 310.622 111.722 310.771 111.761 310.915V310.936L111.793 311.004C111.83 311.117 111.88 311.225 111.942 311.326L111.968 311.385V311.402C114.322 316.368 123.111 329.929 123.223 330.563C123.223 330.563 122.791 332.871 123.527 333.707C124.264 334.543 125.064 334.678 125.192 335.313C125.32 335.947 125.256 338.374 125.401 339.012C125.546 339.65 128.057 342.139 129.003 341.437C129.003 341.437 129.803 339.145 129.997 338.511C130.335 337.038 130.467 335.521 130.388 334.009Z" fill="#FFC8AF"/>
<path d="M120.313 299.008C120.387 294.907 120.127 290.806 119.535 286.751C118.63 283.562 112.214 281.176 110.165 288.499C109.24 293.096 109.236 297.843 110.157 302.441C110.208 302.454 118.177 304.174 120.313 299.008Z" fill="white"/>
<path d="M266.64 108.095C290.659 122.579 310.076 157.702 309.998 186.527C309.92 215.353 290.376 226.959 266.356 212.477C242.337 197.995 222.921 162.896 223 134.069C223.08 105.242 242.62 93.6115 266.64 108.095Z" fill="#4169E1"/>
<path d="M306.556 210.038L297.319 215.646C305.121 210.909 309.96 200.849 309.998 186.528C310.076 157.701 290.66 122.58 266.641 108.094L275.88 102.488C299.899 116.97 319.315 152.093 319.237 180.92C319.197 195.234 314.359 205.301 306.556 210.038Z" fill="#0A1F44"/>
<path d="M250.344 139.829L259.583 134.221L289.405 172.952L280.166 178.56L250.344 139.829Z" fill="#C3D3DD"/>
<path d="M250.341 139.83L280.163 178.561L250.234 181.236L250.341 139.83Z" fill="#A5B7C6"/>
<path d="M235.691 104.933L244.93 99.3254C252.839 94.5166 263.794 95.199 275.881 102.488L266.642 108.094C254.556 100.807 243.6 100.132 235.691 104.933Z" fill="#0A1F44"/>
<path d="M420.683 248.903L420.573 289.53C420.557 295.394 416.866 301.249 409.496 305.721C394.657 314.729 370.521 314.729 355.583 305.721C348.069 301.19 344.316 295.242 344.332 289.303L344.444 248.676C344.428 254.615 348.18 260.563 355.696 265.094C370.634 274.102 394.768 274.102 409.609 265.094C416.978 260.62 420.667 254.766 420.683 248.903Z" fill="#455B68"/>
<path d="M409.427 232.482C424.363 241.489 424.443 256.089 409.604 265.095C394.766 274.1 370.63 274.102 355.692 265.095C340.754 256.087 340.678 241.489 355.515 232.482C370.352 223.474 394.491 223.478 409.427 232.482Z" fill="#424E57"/>
<path d="M409.607 265.096C401.352 269.712 392.1 272.037 382.738 271.851V312.476C392.063 312.645 401.275 310.321 409.497 305.723C416.868 301.249 420.558 295.396 420.574 289.532L420.684 248.905C420.668 254.768 416.979 260.624 409.607 265.096Z" fill="#1D262D"/>
<path d="M454.503 252.331L382.742 295.88L310.523 252.331L382.278 208.781L454.503 252.331Z" fill="#37454F"/>
<path d="M454.502 252.33L454.493 255.659L382.738 299.209L382.747 295.88L454.502 252.33Z" fill="#455B68"/>
<path d="M382.749 295.88L382.74 299.209L310.516 255.659L310.524 252.33L382.749 295.88Z" fill="#1D262D"/>
<path d="M420.632 307.349C420.834 307.419 421.01 307.554 421.136 307.734C421.261 307.914 421.329 308.131 421.331 308.353C421.332 308.576 421.267 308.794 421.145 308.976C421.022 309.158 420.848 309.295 420.646 309.369C420.129 309.643 419.556 309.787 418.976 309.787C418.395 309.787 417.822 309.643 417.305 309.369C417.103 309.297 416.928 309.161 416.804 308.979C416.68 308.798 416.613 308.581 416.613 308.359C416.613 308.136 416.68 307.919 416.804 307.738C416.928 307.557 417.103 307.421 417.305 307.349C417.82 307.076 418.39 306.934 418.968 306.934C419.547 306.934 420.117 307.076 420.632 307.349Z" fill="#EFC87E"/>
<path d="M422.99 317.096C422.986 316.921 422.952 316.748 422.891 316.585L421.315 308.447L416.606 308.569L415.044 316.559C414.979 316.727 414.945 316.906 414.941 317.086C414.976 317.457 415.104 317.812 415.312 318.115C415.521 318.417 415.802 318.657 416.128 318.808C417.011 319.277 417.987 319.522 418.977 319.522C419.968 319.522 420.944 319.277 421.827 318.808C422.151 318.657 422.43 318.417 422.635 318.114C422.841 317.811 422.964 317.456 422.994 317.086L422.99 317.096Z" fill="#0A1F44"/>
<path d="M421.324 304.58L421.313 308.464C421.294 308.679 421.221 308.885 421.101 309.061C420.981 309.237 420.818 309.376 420.63 309.465C420.112 309.74 419.54 309.883 418.96 309.883C418.379 309.883 417.807 309.74 417.29 309.465C417.098 309.376 416.932 309.235 416.809 309.056C416.687 308.878 416.613 308.668 416.594 308.449L416.604 304.565C416.623 304.784 416.697 304.993 416.819 305.172C416.941 305.35 417.107 305.492 417.299 305.581C417.816 305.856 418.389 306 418.969 306C419.55 306 420.123 305.856 420.64 305.581C420.829 305.492 420.992 305.353 421.112 305.177C421.232 305.001 421.305 304.795 421.324 304.58Z" fill="#4169E1"/>
<path d="M420.63 303.561C420.831 303.632 421.007 303.766 421.131 303.946C421.256 304.126 421.324 304.342 421.326 304.564C421.327 304.787 421.262 305.004 421.14 305.185C421.018 305.367 420.844 305.505 420.644 305.579C420.126 305.854 419.554 305.998 418.973 305.998C418.392 305.998 417.82 305.854 417.302 305.579C417.101 305.506 416.927 305.37 416.803 305.189C416.68 305.008 416.613 304.792 416.613 304.57C416.613 304.347 416.68 304.131 416.803 303.95C416.927 303.769 417.101 303.633 417.302 303.561C417.818 303.287 418.388 303.145 418.966 303.145C419.544 303.145 420.114 303.287 420.63 303.561Z" fill="#0A1F44"/>
<path d="M418.873 305.423C418.479 305.411 418.093 305.303 417.746 305.109C417.607 305.044 417.485 304.943 417.392 304.816C417.299 304.689 417.238 304.54 417.215 304.382V304.251L417.102 270.992L418.756 271.998L418.873 305.423Z" fill="#4169E1"/>
<path d="M418.759 269.172L420.413 270.177C420.302 270.123 420.18 270.101 420.058 270.113C419.937 270.126 419.821 270.172 419.722 270.247L418.066 269.243C418.165 269.167 418.282 269.121 418.403 269.109C418.525 269.096 418.648 269.118 418.759 269.172Z" fill="#0A1F44"/>
<path d="M420.816 304.305V304.395C420.793 304.55 420.733 304.697 420.642 304.822C420.551 304.947 420.432 305.046 420.296 305.111C419.86 305.351 419.37 305.46 418.879 305.426L418.766 272.001C418.783 271.65 418.879 271.308 419.047 271.004C419.215 270.7 419.449 270.441 419.731 270.249C419.865 270.164 420.017 270.116 420.173 270.11C420.208 270.11 420.241 270.115 420.274 270.123H420.285C420.312 270.13 420.338 270.14 420.363 270.151C420.371 270.15 420.378 270.15 420.386 270.151L420.409 270.164C420.511 270.235 420.593 270.334 420.645 270.449C420.698 270.565 420.719 270.693 420.707 270.821L420.816 304.305Z" fill="#4169E1"/>
<path d="M418.76 271.999L417.105 270.995C417.124 270.644 417.221 270.302 417.39 269.998C417.558 269.694 417.792 269.435 418.074 269.243L419.73 270.247C419.448 270.439 419.213 270.698 419.044 271.002C418.875 271.306 418.778 271.648 418.76 271.999Z" fill="#0A1F44"/>
<path d="M382.062 248.832V250.831C382.074 250.956 382.116 251.076 382.186 251.178C382.255 251.28 382.35 251.361 382.459 251.412V249.415C382.35 249.363 382.255 249.282 382.186 249.179C382.116 249.077 382.073 248.957 382.062 248.832Z" fill="#0A1F44"/>
<path d="M382.461 249.418V251.416L418.338 273.19V271.193L382.461 249.418Z" fill="#0A1F44"/>
<path d="M420.683 272.607V270.609C420.672 270.736 420.629 270.858 420.558 270.962C420.487 271.065 420.391 271.148 420.279 271.199C419.98 271.359 419.648 271.443 419.312 271.443C418.975 271.443 418.643 271.359 418.344 271.199V273.197C418.644 273.357 418.976 273.441 419.312 273.441C419.649 273.441 419.981 273.357 420.281 273.197C420.392 273.145 420.488 273.063 420.559 272.959C420.63 272.855 420.673 272.734 420.683 272.607Z" fill="#0A1F44"/>
<path d="M382.465 248.251C382.349 248.294 382.248 248.373 382.176 248.478C382.105 248.582 382.066 248.708 382.066 248.837C382.066 248.966 382.105 249.091 382.176 249.196C382.248 249.301 382.349 249.38 382.465 249.422L418.343 271.197C418.642 271.357 418.974 271.44 419.31 271.44C419.647 271.44 419.979 271.357 420.278 271.197C420.395 271.155 420.496 271.076 420.567 270.971C420.639 270.866 420.677 270.74 420.677 270.612C420.677 270.483 420.639 270.357 420.567 270.252C420.496 270.147 420.395 270.068 420.278 270.026L384.403 248.251C384.103 248.092 383.771 248.009 383.434 248.009C383.097 248.009 382.765 248.092 382.465 248.251Z" fill="#0A1F44"/>
<path d="M418.763 273.371V271.375L418.336 271.199L418.148 271.654L418.263 273.032L418.343 273.197L418.763 273.371Z" fill="#0A1F44"/>
<g style="mix-blend-mode:screen">
<g style="mix-blend-mode:screen">
<g style="mix-blend-mode:screen">
<path d="M325.309 186.948H338.456V202.803L325.309 186.948Z" fill="#4169E1"/>
</g>
</g>
<g style="mix-blend-mode:screen">
<g style="mix-blend-mode:screen">
<path d="M339.75 195.656H352.897V211.511L339.75 195.656Z" fill="#4169E1"/>
</g>
</g>
</g>
<g style="mix-blend-mode:screen">
<g style="mix-blend-mode:screen">
<path d="M339.109 154.635C337.354 153.577 335.93 154.435 335.93 156.551C335.991 157.703 336.31 158.824 336.862 159.823C337.414 160.822 338.184 161.671 339.109 162.301C340.866 163.359 342.297 162.499 342.297 160.385C342.236 159.233 341.916 158.111 341.362 157.112C340.808 156.113 340.036 155.264 339.109 154.635ZM331.682 144.631L334.478 149.843C335.23 149.512 336.051 149.388 336.862 149.483C337.673 149.578 338.447 149.889 339.109 150.387C341.031 151.637 342.623 153.37 343.74 155.427L346.538 153.588C344.745 150.289 342.191 147.51 339.109 145.502C338.046 144.705 336.805 144.207 335.505 144.054C334.204 143.901 332.888 144.099 331.682 144.629V144.631ZM339.109 124.979C331.659 120.487 324.901 119.956 319.914 122.706L322.714 127.92C326.978 125.571 332.739 126.023 339.109 129.862C345.912 134.286 351.549 140.416 355.506 147.694L358.306 145.853C353.671 137.336 347.072 130.162 339.109 124.983V124.979ZM325.875 133.811L328.673 139.023C331.392 137.527 335.049 137.802 339.109 140.249C343.441 143.068 347.029 146.973 349.547 151.609L352.344 149.771C349.15 143.893 344.601 138.941 339.109 135.365C333.97 132.267 329.314 131.915 325.873 133.811H325.875Z" fill="#4169E1"/>
</g>
</g>
<g style="mix-blend-mode:screen">
<g style="mix-blend-mode:screen">
<g style="mix-blend-mode:screen">
<path d="M202.12 114.593C199.831 116.668 199.866 121.737 202.198 126.557C204.855 132.034 209.388 135.396 212.647 134.738L217.683 143.843C217.896 144.226 218.241 144.435 218.452 144.306L219.869 143.453C220.079 143.323 220.079 142.909 219.869 142.528L214.836 133.425C216.874 130.968 216.548 125.732 213.853 120.857C210.573 114.925 205.099 111.896 202.12 114.593ZM211.669 130.33C209.803 131.455 206.769 129.624 204.904 126.25C203.039 122.877 203.039 119.222 204.904 118.094C206.769 116.966 209.803 118.798 211.669 122.172C213.536 125.546 213.532 129.206 211.662 130.33H211.669Z" fill="#4169E1"/>
</g>
</g>
</g>
<path d="M44.3708 140.355C42.9115 136.528 40.372 134.499 38.123 135.935C35.8739 137.37 39.3626 147.746 40.4871 151.328C41.6117 154.911 41.9801 157.018 42.9948 157.848C44.0096 158.679 53.4433 170.368 53.4433 170.368C53.1134 171.787 53.046 173.259 53.245 174.705C53.6789 176.137 54.2651 177.849 54.7273 177.664C55.1895 177.479 55.0035 175.097 55.3896 175.023C55.7757 174.949 56.1688 177.156 56.0838 177.797C55.9988 178.439 54.6281 180.781 54.9982 181.289C55.3683 181.798 57.049 180.411 57.8742 179.358C58.6054 178.432 59.0027 177.267 58.997 176.066C58.9138 175.273 58.6428 173.54 58.6428 173.54L56.5619 169.46L49.1134 155.483L44.3708 140.355Z" fill="#FFC8AF"/>
<path d="M45.9546 145.406C45.9546 145.406 48.4021 153.091 49.2999 154.785C50.1978 156.48 51.2692 158.299 51.2692 158.299C50.7353 159.622 49.8025 160.726 48.6128 161.444L46.8083 162.356C45.5279 161.392 44.3879 160.24 43.424 158.936C43.0025 157.865 44.1075 150.243 44.1075 150.243L45.9546 145.406Z" fill="#4169E1"/>
<path d="M51.2683 158.295C51.5846 158.422 51.8529 158.653 52.0327 158.954C52.2125 159.254 52.2941 159.607 52.2653 159.96C51.8959 160.859 51.3422 161.664 50.6431 162.316C49.8068 163.14 48.7968 163.748 47.6945 164.09C47.0818 163.469 46.6061 162.717 46.3008 161.885C47.4818 161.311 48.6083 160.623 49.6656 159.828C50.5174 159.018 51.2683 158.295 51.2683 158.295Z" fill="#4169E1"/>
<path d="M50.2902 247.656C50.5275 249.717 44.5931 249.206 42.9904 248.169C41.5868 246.93 40.2639 245.595 39.0306 244.172C37.9185 243.258 36.9391 243.258 36.8045 242.359C36.7762 242.095 36.7018 241.351 36.6416 240.325C36.3965 237.135 36.3267 233.933 36.4326 230.735C36.6841 226.597 36.1067 217.048 36.8027 212.143C36.9072 211.446 36.9798 210.717 37.056 209.959C37.3978 206.193 37.4102 201.839 37.5164 199.268C37.6493 196.17 36.9373 183.867 36.9373 183.867C36.9373 183.867 36.1953 169.661 36.1953 166.313C36.1953 165.183 37.0702 164.562 38.2425 164.253C40.1363 163.88 42.0757 163.833 43.9839 164.114C48.0571 184.256 46.4154 195.612 46.3269 201.948C46.2525 207.634 44.7241 211.244 44.1025 217.566C43.4809 223.888 42.2484 232.795 42.4998 236.034C42.6628 238.201 46.0311 241.797 48.2855 244.523C49.1566 245.409 49.8396 246.477 50.2902 247.656Z" fill="#F4B298"/>
<path d="M41.7567 179.875C40.5171 183.871 36.7981 184.26 37.3064 190.72C37.8146 197.181 38.167 204.788 37.1735 209.436C37.1293 209.606 37.0992 209.793 37.0549 209.963V209.978C35.6531 215.645 34.7007 221.423 34.2072 227.253C33.6009 233.859 33.4375 240.502 33.7185 247.132C33.8371 248.154 34.356 250.293 34.7722 252.431C35.2751 254.894 35.6576 257.358 35.2025 258.116C34.3418 259.525 29.1494 258.116 28.4074 256.821C27.6653 255.527 27.9044 252.701 27.9044 251.151C27.9044 250.871 27.8602 249.856 27.7699 248.33C27.3856 241.42 26.3531 224.177 26.555 220.163C26.7923 215.251 28.1488 207.505 27.7947 201.958C27.4405 196.411 25.5704 192.011 26.192 182.329C26.8136 172.647 30.2651 171.872 30.5095 166.835C30.6724 163.691 35.0041 163.769 38.2538 164.264H38.268C39.4471 164.453 40.6158 164.707 41.7691 165.025C41.7691 165.025 42.9875 175.861 41.7567 179.875Z" fill="#FFC8AF"/>
<path d="M45.0269 163.828C45.0269 163.828 42.0287 168.476 30.5052 166.83C30.5052 166.83 25.4668 172.933 25.1923 179.806C24.9179 186.679 25.7484 197.431 25.7484 197.431C29.5303 198.801 33.5232 199.425 37.5234 199.271C45.2199 199.271 47.4406 196.754 47.4406 196.754C47.4406 196.754 46.9767 176.806 46.5127 171.674C46.3367 169.004 45.8375 166.367 45.0269 163.828Z" fill="#282828"/>
<path d="M21.5252 148.286C22.3593 142.621 24.4915 141.023 29.3173 137.15C34.1431 133.277 39.5622 131.29 42.3443 135.794C44.4374 139.33 45.8398 143.263 46.4706 147.367C46.4706 148.432 44.8024 150.901 44.8484 152.305C44.8945 153.709 45.0255 163.828 45.0255 163.828C45.0255 163.828 43.5893 167.701 37.0563 168.137C30.5233 168.574 29.9159 167.556 29.9159 167.556C29.9159 167.556 29.0818 162.232 28.4796 159.084C27.8775 155.936 20.9585 152.127 21.5252 148.286Z" fill="#FFC8AF"/>
<path d="M29.9144 167.556C29.9144 167.556 30.5166 168.574 37.0549 168.137C43.5932 167.701 45.0241 163.828 45.0241 163.828C45.0241 163.828 44.886 153.709 44.847 152.305C44.808 150.901 46.4691 148.432 46.4691 147.367C45.8383 143.263 44.436 139.33 42.3429 135.794C41.9355 135.079 41.3709 134.475 40.6959 134.033C40.0209 133.591 39.2548 133.323 38.461 133.251C38.6876 133.534 41.259 136.765 41.2006 138.748C41.1386 140.814 35.3901 144.879 33.1021 144.879C30.8442 144.879 29.5461 140.856 26.3602 139.575C25.006 140.582 23.8741 141.881 23.0408 143.384C22.2075 144.886 21.692 146.558 21.5291 148.286C20.9624 152.127 27.8814 155.936 28.4835 159.082C29.0856 162.228 29.9144 167.556 29.9144 167.556Z" fill="#DCE8EF"/>
<path d="M38.5422 132.792C38.5422 132.792 38.4962 136.907 38.3651 138.119C38.2341 139.33 35.0269 139.328 33.6367 139.328C33.33 139.352 33.0219 139.31 32.7314 139.204C32.441 139.098 32.1745 138.931 31.9485 138.714C31.7225 138.496 31.5417 138.232 31.4175 137.938C31.2933 137.644 31.2283 137.327 31.2265 137.005C31.1786 135.601 31.2566 129.13 31.2566 129.13C32.8232 129.486 34.3396 130.051 35.7689 130.809C38.4466 132.163 38.5422 132.792 38.5422 132.792Z" fill="#F4B298"/>
<path d="M35.7004 137.463C35.7004 137.463 36.4424 139.594 36.94 140.95C37.4376 142.305 39.2883 163.35 38.5481 170.45C37.8078 177.55 36.198 180.132 34.8397 180.521C33.4814 180.909 25.1969 176.648 25.1969 176.648C25.1969 176.648 28.6574 167.609 28.4094 164.256C28.1615 160.903 24.207 154.703 22.8469 149.796C21.4868 144.889 22.0429 144.432 22.7247 143.017C24.1755 141.005 25.7881 139.126 27.5452 137.4L32.9855 138.175L35.7004 137.463Z" fill="#0A1F44"/>
<path d="M35.6978 137.457C35.2003 138.637 34.8274 139.871 34.5856 141.135C34.5856 142.04 27.5391 137.392 27.5391 137.392L27.9109 135.391L35.6978 137.457Z" fill="#4169E1"/>
<path d="M41.7532 119.06C41.9401 120.407 41.9811 121.772 41.8754 123.129C42.1389 123.877 42.3051 124.658 42.3694 125.452C42.3694 126.486 42.4314 131.972 41.3812 132.684C40.3311 133.396 34.5189 132.425 33.3447 131.456C32.5559 130.774 31.85 129.994 31.2427 129.133C30.8442 129.157 30.4461 129.081 30.0809 128.913C29.7158 128.745 29.3941 128.489 29.1423 128.165C28.2201 126.658 27.6114 124.966 27.3557 123.198C27.1 121.429 27.2031 119.624 27.6582 117.9C29.0183 113.123 36.373 112.929 38.971 114.865C39.6857 115.327 40.3016 115.938 40.7803 116.66C41.2589 117.382 41.5901 118.199 41.7532 119.06Z" fill="#FFC8AF"/>
<path d="M50.2892 247.656C50.5266 249.716 44.5922 249.206 42.9895 248.168C41.5859 246.929 40.263 245.594 39.0297 244.171C37.9175 243.258 36.9382 243.258 36.8036 242.359C36.7752 242.094 36.7008 241.351 36.6406 240.324C38.8207 242.013 44.1459 245.932 46.1488 245.655C47.3885 245.47 48.0331 245.05 48.2846 244.523C49.1556 245.409 49.8386 246.476 50.2892 247.656Z" fill="#4169E1"/>
<path d="M35.2021 258.114C34.3415 259.523 29.1491 258.114 28.407 256.819C27.665 255.525 27.9041 252.699 27.9041 251.149C27.9041 250.869 27.8598 249.854 27.7695 248.328C27.9183 248.95 28.0511 249.623 28.1556 250.296C28.5859 253.209 28.8392 254.365 32.3545 254.82C33.8987 255.022 34.5363 253.829 34.7736 252.434C35.2765 254.892 35.6626 257.356 35.2021 258.114Z" fill="#4169E1"/>
<path d="M20.9863 152.174C21.4804 147.331 21.8523 143.782 24.2625 143.329C26.6728 142.876 28.1586 146.04 27.5388 151.334C26.9189 156.627 25.8705 163.541 25.8705 163.541C25.8705 163.541 27.2873 180.971 27.4786 181.617C27.6698 182.262 28.8386 182.713 29.3947 183.553C29.9507 184.393 30.7548 187.807 30.1987 188.136C29.6426 188.465 29.0228 186.394 28.5907 186.657C28.1586 186.919 28.5287 188.98 28.8386 189.884C29.1485 190.789 29.9507 191.756 29.4567 192.079C28.6515 192.07 27.8593 191.867 27.1414 191.486C26.4234 191.105 25.7989 190.557 25.3162 189.884C24.5421 187.805 24.1434 185.595 24.1403 183.364C24.2023 182.268 20.8021 165.871 20.6162 164.645C20.4302 163.419 20.9863 152.174 20.9863 152.174Z" fill="#FFC8AF"/>
<path d="M21.114 146.559C21.7055 143.577 22.9682 141.911 25.8725 142.429C28.7769 142.946 29.3347 148.046 28.529 151.981C27.7232 155.917 26.4268 163.343 26.4268 163.924C26.4268 164.505 26.9829 171.156 26.9829 171.156C26.2366 171.775 25.3696 172.217 24.4426 172.449C23.5157 172.682 22.5513 172.7 21.617 172.502C20.9814 169.865 20.4859 167.192 20.1329 164.497C20.0036 158.5 20.3317 152.502 21.114 146.559Z" fill="#4169E1"/>
<path d="M26.8604 169.638C26.1126 170.337 25.2064 170.825 24.2274 171.057C23.2485 171.288 22.2292 171.255 21.266 170.96C21.1457 171.389 21.1143 171.84 21.1739 172.283C21.2137 172.714 21.3635 173.127 21.6078 173.477C22.5974 173.772 23.6428 173.796 24.6438 173.547C25.6447 173.298 26.5678 172.785 27.3244 172.057C27.3729 171.569 27.3308 171.075 27.2005 170.603C27.1241 170.268 27.0099 169.944 26.8604 169.638Z" fill="#0A1F44"/>
<path d="M38.4219 135.714C39.5943 137.283 40.6482 138.945 41.5741 140.685C42.7559 143.024 43.4506 145.598 43.6125 148.237C43.6125 149.497 44.6626 162.795 45.2205 167.345C45.7783 171.895 46.7665 177.965 46.7665 177.965C46.7665 177.965 48.7145 178.449 47.9725 171.186C47.2305 163.923 45.5623 156.275 45.6544 153.468C45.7464 150.66 47.4165 149.787 47.2305 146.979C47.0446 144.172 43.1821 135.2 41.5759 134.23C40.6258 133.652 39.5585 133.317 38.4608 133.252L38.4219 135.714Z" fill="#0A1F44"/>
<path d="M38.4219 135.714C38.9111 135.867 39.3497 136.159 39.6883 136.559C40.0269 136.958 40.2519 137.448 40.338 137.974C40.5501 137.19 40.5285 136.357 40.276 135.586C39.8322 134.685 39.2134 133.89 38.4591 133.252L38.4219 135.714Z" fill="#4169E1"/>
<path d="M40.9255 117.155C40.1162 119.249 38.9109 121.152 37.3816 122.749C35.8523 124.346 34.0304 125.605 32.0247 126.45C32.0247 126.45 31.1393 123.256 29.7544 124.274C29.4924 124.419 29.2617 124.62 29.0765 124.862C28.8912 125.104 28.7554 125.384 28.6773 125.683C28.5992 125.982 28.5804 126.294 28.6222 126.601C28.664 126.908 28.7654 127.203 28.9203 127.468C29.4303 128.291 30.0537 129.388 31.2491 129.132C31.2491 129.132 31.3518 134.877 31.2863 135.944C31.2207 137.011 25.8619 139.236 25.8619 139.236C25.8619 139.236 24.8896 124.938 26.4959 119.322C28.1021 113.707 31.9362 112.93 34.8405 113.774C37.0276 114.557 39.0815 115.698 40.9255 117.155Z" fill="#282828"/>
<path d="M32.2109 113.619C33.2269 113.088 34.3488 112.816 35.485 112.824C36.6211 112.833 37.7391 113.123 38.7475 113.669C39.5256 114.016 40.2274 114.525 40.8095 115.166C41.3916 115.807 41.8416 116.566 42.1318 117.396C42.2254 118.673 42.1706 119.958 41.9688 121.221C41.8443 120.131 41.667 119.048 41.4375 117.977C41.2055 117.202 40.9275 117.154 40.9275 117.154C39.5979 116.153 38.1952 115.262 36.7322 114.491C35.3502 113.711 33.7682 113.406 32.2109 113.619Z" fill="#303030"/>
<g style="mix-blend-mode:screen">
<g style="mix-blend-mode:screen">
<path d="M303.779 103.595C302.75 103.619 301.737 103.324 300.868 102.748C299.753 102.047 298.766 101.145 297.954 100.083C294.984 99.698 292.879 101.908 292.879 105.988V106.399C294.859 109.842 297.598 112.74 300.868 114.853C302.015 115.697 303.338 116.243 304.728 116.448C306.117 116.652 307.534 116.509 308.86 116.03V115.625C308.623 111.103 306.816 106.827 303.779 103.595ZM300.868 89.1482C297.963 87.3967 295.608 88.819 295.608 92.3202C295.707 94.2261 296.235 96.0808 297.149 97.7338C298.063 99.3868 299.337 100.792 300.868 101.834C303.775 103.588 306.127 102.164 306.127 98.6623C306.028 96.7561 305.5 94.9011 304.586 93.248C303.672 91.5949 302.397 90.1902 300.866 89.1482H300.868Z" fill="#4169E1"/>
</g>
</g>
<g style="mix-blend-mode:screen">
<g style="mix-blend-mode:screen">
<g style="mix-blend-mode:screen">
<g style="mix-blend-mode:screen">
<path d="M225.27 92.7175L205.007 80.4994C204.717 80.3017 204.476 80.0354 204.303 79.722C204.13 79.4087 204.03 79.0572 204.012 78.6961V63.2875C204.012 62.6235 204.458 62.3627 205.007 62.6864L225.27 74.9045C225.56 75.1024 225.801 75.3688 225.974 75.682C226.147 75.9953 226.247 76.3468 226.265 76.7079V92.1164C226.267 92.7804 225.819 93.0505 225.27 92.7175ZM206.004 78.698L224.275 89.7139V76.7079L206.008 65.6919L206.004 78.698Z" fill="#4169E1"/>
</g>
</g>
</g>
<g style="mix-blend-mode:screen">
<g style="mix-blend-mode:screen">
<g style="mix-blend-mode:screen">
<path d="M215.139 80.9324C214.888 80.7723 214.675 80.5547 214.517 80.2962L204.387 64.4548C203.957 63.7815 203.886 62.9751 204.228 62.6718C204.57 62.3685 205.198 62.6533 205.629 63.3247L215.139 78.1951L224.649 74.7919C225.079 74.6384 225.711 75.1026 226.05 75.8276C226.388 76.5527 226.322 77.2685 225.89 77.4201L215.759 81.0452C215.653 81.0731 215.544 81.0775 215.437 81.0581C215.33 81.0386 215.229 80.9958 215.139 80.9324Z" fill="#4169E1"/>
</g>
</g>
</g>
</g>
<g style="mix-blend-mode:screen">
<g style="mix-blend-mode:screen">
<g style="mix-blend-mode:screen">
<path d="M221.389 48.0424L212.012 35.8594V48.9172L221.389 48.0424Z" fill="#4169E1"/>
</g>
</g>
<g style="mix-blend-mode:screen">
<g style="mix-blend-mode:screen">
<path d="M213.482 46.7759L203.531 40.7759V33.7754L213.482 39.7753V46.7759Z" fill="#4169E1"/>
</g>
</g>
</g>
</g>
<defs>
<filter id="filter0_dd_378_7743" x="0.5" y="0" width="458.004" height="458" filterUnits="userSpaceOnUse" color-interpolation-filters="sRGB">
<feFlood flood-opacity="0" result="BackgroundImageFix"/>
<feColorMatrix in="SourceAlpha" type="matrix" values="0 0 0 0 0 0 0 0 0 0 0 0 0 0 0 0 0 0 127 0" result="hardAlpha"/>
<feOffset dy="4"/>
<feGaussianBlur stdDeviation="2"/>
<feComposite in2="hardAlpha" operator="out"/>
<feColorMatrix type="matrix" values="0 0 0 0 0 0 0 0 0 0 0 0 0 0 0 0 0 0 0.25 0"/>
<feBlend mode="normal" in2="BackgroundImageFix" result="effect1_dropShadow_378_7743"/>
<feColorMatrix in="SourceAlpha" type="matrix" values="0 0 0 0 0 0 0 0 0 0 0 0 0 0 0 0 0 0 127 0" result="hardAlpha"/>
<feOffset dy="4"/>
<feGaussianBlur stdDeviation="2"/>
<feComposite in2="hardAlpha" operator="out"/>
<feColorMatrix type="matrix" values="0 0 0 0 0 0 0 0 0 0 0 0 0 0 0 0 0 0 0.25 0"/>
<feBlend mode="normal" in2="effect1_dropShadow_378_7743" result="effect2_dropShadow_378_7743"/>
<feBlend mode="normal" in="SourceGraphic" in2="effect2_dropShadow_378_7743" result="shape"/>
</filter>
</defs>
</svg>
