<svg width="174" height="149" viewBox="0 0 174 149" fill="none" xmlns="http://www.w3.org/2000/svg">
<g clip-path="url(#clip0_606_5804)">
<path d="M29.6543 75.031C30.7585 74.9749 37.027 74.8975 37.8556 75.1178L37.8874 75.2019C37.2401 75.5227 31.1066 75.3718 29.8378 75.3868C29.5391 75.8204 29.3292 76.3095 29.1004 76.7732C28.6305 77.7299 27.0589 81.0362 26.482 81.6352L26.418 81.592C26.4769 80.8051 29.1072 75.6333 29.6543 75.031Z" fill="#FFCC00"/>
<path d="M45.2669 26.9609C45.3153 26.9695 45.365 26.9746 45.4124 26.9867C45.7848 27.0811 47.853 30.2929 48.1714 30.7898C46.5366 33.6393 44.6715 36.4246 42.8863 39.2077C43.5527 39.9002 44.4408 40.5985 44.9774 41.3621L44.6921 41.4056C44.0408 41.1433 42.8234 39.716 42.3594 39.1788C43.3023 37.9676 44.0781 36.6219 44.8951 35.3458C45.8576 33.8427 46.8807 32.3398 47.7338 30.7891C47.1916 30.0269 45.2973 27.6582 45.2669 26.9609Z" fill="#FFCC00"/>
<path d="M61.6357 24.9121C61.7095 24.9514 61.7547 25.0049 61.8114 25.0605C61.7064 25.7806 59.3263 29.2964 58.7916 30.3298C60.7329 32.4912 62.9645 34.459 64.8251 36.6719C65.5296 36.5498 70.7682 35.5374 71.0562 35.5901C71.1304 35.6036 71.1897 35.652 71.2565 35.683C70.8161 36.1503 65.7808 36.8074 64.7932 36.968C64.3139 38.8675 63.7533 40.756 63.2352 42.6483C63.1993 42.8371 63.1674 43.0309 63.1135 43.2164C63.0666 43.3778 62.9806 43.4742 62.8179 43.5643L62.7254 43.4594C62.687 42.5894 63.1518 41.5032 63.3883 40.6537C63.7534 39.3712 64.0983 38.0848 64.4229 36.7944C63.4479 35.417 61.9416 34.1591 60.7331 32.9207C60.0437 32.2141 59.343 31.3114 58.5435 30.7106C58.0288 30.3238 53.5286 30.7154 52.5869 30.7596L52.4375 30.6291L52.4637 30.5217C52.9417 30.2848 57.5764 30.1856 58.4629 30.163C59.182 28.8679 60.7287 25.9417 61.6357 24.9121Z" fill="#FFCC00"/>
<path d="M45.1547 44.8828C45.2459 44.8994 45.3076 44.9486 45.3834 44.9937L45.379 45.1083C45.1802 45.295 37.9031 47.9567 36.8735 48.3666C36.5342 51.0145 36.3666 53.7242 36.1656 56.3836C38.5945 57.7876 41.0883 59.1552 43.4313 60.663L52.0685 57.5427C52.2185 56.5483 52.256 55.5276 52.3332 54.5266L52.7279 49.0459C51.8256 48.5502 46.7518 45.7334 46.2828 45.2556C46.2529 45.2252 46.225 45.1932 46.1961 45.1619L46.135 45.2022L46.3239 45.1329C47.6304 45.4666 51.4323 47.8765 52.7085 48.6827C53.9966 48.161 58.9445 46.1567 60.0094 46.0822L60.1481 46.1832L60.12 46.2784C59.554 46.644 58.5812 46.8329 57.9129 47.0714C56.3274 47.6376 54.7243 48.2077 53.1816 48.8546C52.8469 51.8136 52.8066 54.7987 52.4443 57.7557C50.9182 58.2701 49.4187 58.8671 47.9098 59.4189C46.4829 59.9407 45.0339 60.4194 43.6143 60.9546C44.2628 62.7011 44.9854 64.4172 45.7108 66.1409C45.4967 66.7592 45.1249 67.3709 44.8201 67.9631C44.1241 69.3153 43.396 70.6522 42.6769 71.9951C42.2956 72.707 42.0154 73.5426 41.4788 74.1773C41.3979 74.2728 41.4062 74.2966 41.2706 74.3137C41.1787 73.8237 41.8595 72.7988 42.1029 72.3227C43.1892 70.294 44.2109 68.2313 45.3596 66.2285C44.5672 64.4652 43.8145 62.6894 43.1015 60.9013C42.1948 60.2142 41.0822 59.6577 40.0796 59.071C38.7029 58.2652 37.3542 57.419 35.9345 56.6694C34.2552 57.0806 32.6105 57.6059 30.9529 58.0773C29.3841 58.5234 27.7638 58.9154 26.2374 59.4591C25.3482 62.2548 24.2898 65.0276 23.3065 67.8013C23.7833 68.5029 27.7377 73.2881 27.7537 73.5444L27.6101 73.5705C27.483 73.5278 27.3666 73.4914 27.2726 73.4025C26.7656 72.9235 26.3323 72.2592 25.9 71.7222C24.8735 70.4466 23.7882 69.159 22.8721 67.8247C23.8914 65.0423 24.8752 62.2508 25.8233 59.45C24.9552 58.7673 19.5807 55.757 19.4297 55.2916L19.507 55.1798C19.5673 55.1803 19.6317 55.1624 19.6878 55.1811C20.2122 55.3557 20.9537 55.968 21.4225 56.2663C22.9413 57.2324 24.45 58.2113 26.0147 59.1228C29.2792 58.2291 32.5011 57.2146 35.7804 56.3612C36.0931 53.6204 36.262 50.8549 36.4864 48.1068C39.3692 47.0226 42.2405 45.9033 45.1547 44.8828Z" fill="#FFDD67"/>
<path d="M55.8115 90.877C56.4562 91.1393 57.0523 91.5345 57.6409 91.8782C59.3519 92.8777 61.0161 94.0413 62.7607 94.9737C62.1105 96.0832 61.211 97.114 60.4054 98.1433C59.6866 99.0618 59.0071 100.018 58.2251 100.898C57.3498 100.686 52.1567 97.3705 51.2773 96.6491C51.7271 95.7977 55.0308 91.6282 55.8115 90.877Z" fill="#161C2D"/>
<path d="M52.3365 96.0801C53.1822 96.351 57.2844 98.9969 58.184 99.6083C58.2647 99.7924 58.1653 99.8886 58.0849 100.066C58.0525 100.06 58.0195 100.056 57.9877 100.049C57.5436 99.9426 52.364 96.6801 52.2374 96.4524C52.1825 96.3538 52.2955 96.1808 52.3365 96.0801Z" fill="#FEFEFE"/>
<path d="M83.0014 31.3505C82.8488 26.7061 84.8337 23.3382 88.5013 20.021C92.5692 16.3419 97.982 14.4554 103.86 14.3378C113.521 14.1444 121.605 18.8727 128.285 24.3732C132.976 28.2351 137.796 33.5452 141.101 38.3349C139.804 40.7169 138.405 43.0535 136.902 45.3448C135.399 47.6359 133.797 49.8752 132.096 52.0627C131.412 52.9471 130.74 54.0086 129.903 54.786C130.498 55.1386 131.081 55.5049 131.653 55.8852C133.35 55.9105 135.067 56.3766 136.7 56.7492C138.352 57.1262 140.137 57.4494 141.708 58.021C144.315 58.9695 146.949 61.316 148.908 63.0504C163.935 76.3539 170.054 96.8129 171.711 114.804C172.406 122.359 172.297 129.922 172.301 137.493C170.469 137.588 168.619 137.545 166.784 137.541L158.191 137.525L131.631 137.535L38.0054 137.555L16.2735 137.561L7.58312 137.562C6.14236 137.558 4.68151 137.596 3.24391 137.537C3.12058 137.532 3.04241 137.508 2.93743 137.454L2.93359 137.301C3.25453 137.128 9.60833 137.249 10.5666 137.227C10.3618 137.023 10.1485 136.823 9.9583 136.609C9.80588 135.661 9.6327 130.711 10.2002 130.13C10.4304 129.894 10.778 129.772 11.0982 129.652C10.6046 129.437 10.1604 129.24 9.97607 128.76C9.70464 128.053 9.80119 121.868 9.8964 120.774C9.92336 120.465 9.95424 120.147 10.1214 119.866C10.3663 119.455 10.7461 119.282 11.2469 119.161L11.3357 119.141L11.4645 119.085C11.5932 118.903 11.5405 118.785 11.5213 118.576C11.2064 118.515 10.9391 118.431 10.6742 118.269C10.2723 118.023 10.1006 117.7 10.0351 117.29C9.85358 116.153 9.96321 114.914 9.9661 113.761C9.96895 112.619 9.88172 111.402 10.0318 110.271C10.0691 109.99 10.1402 109.529 10.3744 109.315C11.1173 108.634 12.2862 108.763 13.2729 108.769L13.2927 89.3635C12.8329 89.354 11.9919 89.4275 11.5968 89.2647L11.574 89.1164L11.6891 89.0073C15.8485 88.8846 20.0404 88.9853 24.2043 88.9791L33.1587 88.982C34.3203 88.9845 35.4955 88.9356 36.6549 88.966C36.9719 88.9743 37.4606 88.9676 37.6868 89.1722C37.672 89.1879 37.6598 89.2058 37.6424 89.2193C37.3259 89.4678 36.4848 89.3778 36.0781 89.3725C36.0819 90.7147 36.1611 92.0916 36.0408 93.429C35.9266 94.4969 35.9116 107.371 36.0129 107.643C36.0148 107.648 36.1278 107.766 36.1296 107.767C36.1412 107.777 36.1573 107.782 36.1713 107.79C37.5653 107.616 38.9328 107.359 40.3146 107.13C40.4314 108.138 40.7491 109.144 41.005 110.132L42.213 114.803L45.8201 129.026L46.8648 133.022C47.0845 133.871 47.3793 134.766 47.4328 135.636C44.5671 136.142 41.6761 136.793 38.7881 137.174C43.4679 137.358 48.1837 137.222 52.8695 137.265C52.8991 136.084 52.6358 129.61 53.0012 129.012C53.3633 128.856 53.7645 128.815 54.1648 128.79C56.2706 128.66 58.473 128.778 60.5872 128.785L74.1012 128.851C74.108 126.924 74.1847 124.972 74.0511 123.05C73.1515 122.421 72.7424 121.564 72.627 120.591C72.5877 120.261 72.5707 119.922 72.5718 119.59C70.6788 117.499 71.8083 116.469 70.9796 114.529L54.8625 114.469C53.5095 114.461 52.1564 114.46 50.8034 114.467C50.049 114.469 49.2386 114.521 48.4931 114.424C47.7249 114.325 47.0629 113.997 46.5261 113.522C45.4969 112.61 45.3713 111.415 45.4262 110.205C45.4447 109.796 45.5078 109.441 45.8135 109.117C46.1399 108.975 46.5904 108.973 46.9531 108.964C48.5125 108.922 50.0875 108.966 51.6479 108.971L59.9554 108.983L66.6639 108.999C68.0687 109.004 69.489 108.974 70.8904 109.059C70.9798 108.381 71.2435 106.989 71.8797 106.532C72.0095 106.439 72.1398 106.426 72.2999 106.405C72.751 106.486 73.0329 106.743 73.2764 107.069C73.5201 107.395 73.7131 107.767 73.9252 108.109C76.2008 107.389 78.3362 107.109 80.7452 106.934C83.0325 105.348 84.3778 102.466 84.671 100.016C85.1084 96.3646 83.9737 92.5995 81.2386 89.741C80.7115 89.1902 80.1083 88.6905 79.5887 88.138C77.55 88.0772 76.3683 87.5266 74.7162 86.5446C72.262 89.8411 69.5878 93.0227 67.1511 96.3256C64.7618 95.1213 62.5756 93.5847 60.2893 92.2393C59.1283 91.5514 57.9595 90.8732 56.783 90.205C55.708 89.5962 54.5261 88.997 53.5821 88.2434C54.3269 87.1151 55.2023 86.0437 56.0299 84.9588C57.0936 83.5643 58.1211 82.1507 59.2069 80.7684C60.101 79.6303 61.0516 78.5268 61.9231 77.3757C64.5935 73.8167 67.3155 70.2868 70.0892 66.7862C71.1527 65.4232 73.0966 62.7247 74.2829 61.628C75.2134 61.9676 76.0526 62.4804 76.9182 62.9259C78.6709 60.4387 80.5346 58.0054 82.2192 55.4842C81.5243 55.1599 80.7822 54.8076 80.536 54.1088C80.424 53.7915 80.4464 53.4736 80.6495 53.1868C80.8813 52.8591 81.3244 52.5493 81.7657 52.4664C82.0279 52.4172 82.336 52.416 82.5919 52.4909C83.7655 52.8346 85.1669 53.704 86.2527 54.2551C87.8795 55.0807 89.6272 55.8734 91.1736 56.8009C91.5767 57.0424 91.8628 57.2636 91.9459 57.6978C92.0302 58.1387 91.8594 58.5847 91.5491 58.9359C91.3126 59.2035 90.9957 59.4349 90.5899 59.4592C90.2644 59.4788 89.9509 59.379 89.6486 59.2876C88.6224 60.5681 87.7305 61.9344 86.784 63.2591C85.8027 64.6323 84.6923 66.0147 83.9086 67.4796C84.619 67.8425 85.7475 68.2767 86.2184 68.8581C86.0421 69.7755 81.4033 75.1711 80.5854 76.755C82.4524 77.1784 83.9907 77.8 84.9883 79.2885C85.5883 80.1838 85.801 81.1465 86.0337 82.145C91.314 86.6854 95.3211 91.9128 95.2917 98.5712C95.2738 102.617 93.8912 105.751 92.3017 109.471L94.0205 110.246C96.4927 104.253 99.0259 98.2796 101.62 92.3249C103.452 88.1549 105.445 83.9723 107.102 79.754C107.709 78.209 107.16 76.4223 108.196 74.9527C108.932 73.9072 110.219 72.9333 111.215 72.0647L115.436 68.3971C116.499 67.4916 117.618 66.609 118.603 65.6405C117.493 64.1636 116.269 62.6998 114.957 61.349C114.029 60.3927 113.005 59.4851 112.126 58.4969C110.514 59.6995 108.655 61.2703 106.337 61.1447C102.473 60.9355 97.5056 55.4539 94.8528 53.1697C94.3212 53.3038 93.7977 53.3513 93.2589 53.4469C91.6225 53.7372 90.704 53.9565 89.1393 53.2226C87.1682 52.298 84.8879 49.8043 84.2425 47.9932C84.0367 47.4158 84.0553 46.8643 84.3929 46.3261C84.591 46.0103 84.862 45.7391 85.1694 45.4974C83.109 42.9589 78.5537 37.8722 79.2397 34.7439C79.5027 33.5448 80.4471 32.6543 81.5997 32.0023C82.0478 31.7489 82.5081 31.5319 83.0014 31.3505Z" fill="#161C2D"/>
<path d="M93.8129 52.0586C94.0035 52.2221 94.2554 52.402 94.3955 52.5993C94.4847 52.7247 94.4797 52.733 94.4382 52.8801L94.0999 52.9797C93.8231 53.0118 93.5964 53.0785 93.3524 52.9533C93.333 52.6779 93.6581 52.3003 93.8129 52.0586Z" fill="#FEFEFE"/>
<path d="M108.531 37.0312C109.101 37.089 110.532 37.05 110.911 37.4071C110.998 37.4892 110.922 37.6875 110.905 37.7937C110.415 37.825 109.046 37.215 108.531 37.0312Z" fill="#F5F5F5"/>
<path d="M93.1818 48.3125C94.5228 48.3212 96.6476 50.3807 97.6035 51.1786C97.1844 51.5423 96.6923 51.836 96.2161 52.1415C95.814 52.3826 95.458 52.5394 94.9945 52.6745C94.9027 52.591 94.8133 52.5057 94.7262 52.4186C93.961 51.6608 92.4722 50.0621 92.6241 48.9936C92.6715 48.6604 92.8953 48.5081 93.1818 48.3125Z" fill="#FEFEFE"/>
<path d="M11.5216 118.576C16.6008 118.63 21.6802 118.646 26.7597 118.624C28.0262 118.627 31.2674 118.499 32.3402 118.675C32.465 118.824 32.4883 118.917 32.5135 119.099C32.2037 119.203 31.8226 119.173 31.4929 119.176C29.5424 119.115 27.5723 119.168 25.6197 119.168L14.3715 119.167C13.3597 119.167 12.3471 119.176 11.3359 119.141L11.4648 119.085C11.5935 118.903 11.5408 118.785 11.5216 118.576Z" fill="#C9C8FC"/>
<path d="M46.0423 109.645C47.7844 109.593 49.5414 109.629 51.2849 109.626L61.2546 109.623L67.438 109.626C68.5189 109.627 69.6516 109.572 70.7257 109.656C70.9029 109.832 70.8467 109.94 70.8407 110.167C65.5298 110.2 60.2099 110.134 54.8983 110.12L49.2943 110.106C48.2223 110.104 47.1154 110.147 46.0481 110.071L45.957 109.969L46.0423 109.645Z" fill="#FEFEFE"/>
<path d="M85.6055 45.8455C86.1779 45.6135 86.7037 45.296 87.2332 45C88.2989 46.3757 89.472 47.6806 90.7526 48.9146C91.7135 49.8466 92.7906 50.7352 93.6395 51.7446C93.4491 52.0654 93.2684 52.3909 93.0348 52.691C91.4173 51.3907 89.8923 49.9368 88.4274 48.5115C87.503 47.6122 86.6141 46.6773 85.6055 45.8455Z" fill="#6556FE"/>
<path d="M82.0156 126.207C85.1915 126.945 88.3471 127.593 91.5858 128.091C91.7358 128.297 91.6748 128.593 91.6624 128.829C88.4664 128.909 85.2385 128.799 82.0387 128.792L82.0156 126.207Z" fill="#FEFEFE"/>
<path d="M74.8367 63.9062C75.0449 64.0138 75.0828 64.0148 75.1725 64.2043C74.9696 64.8246 70.1503 70.6961 69.3805 71.6886L61.573 81.8036C60.0755 83.7432 58.6389 85.7131 57.0379 87.593C56.8532 87.5143 56.7316 87.4638 56.5938 87.3276C57.0017 86.6129 57.6457 85.9645 58.1569 85.2984L61.915 80.3822C64.6151 76.8473 67.3477 73.3308 70.1129 69.8328C71.6752 67.8449 73.1922 65.8472 74.8367 63.9062Z" fill="#FEFEFE"/>
<path d="M53.4375 129.634L78.9574 129.646L86.9165 129.63C88.4056 129.625 89.9157 129.575 91.4023 129.642C91.5634 129.759 91.5252 129.973 91.5438 130.15L65.7845 130.159L57.3341 130.151C56.1114 130.147 54.8266 130.246 53.6168 130.128C53.4227 129.966 53.4613 129.86 53.4375 129.634Z" fill="#FEFEFE"/>
<path d="M81.8088 52.824C81.9662 52.8212 82.1247 52.8199 82.2812 52.8359C82.8958 52.8982 91.1404 57.0399 91.4271 57.4712C91.5523 57.6598 91.5868 57.955 91.5328 58.1638C91.412 58.6299 91.0269 58.895 90.5782 59.1343C90.3875 59.1454 90.2616 59.149 90.076 59.0972C89.4147 58.9129 88.1524 58.1028 87.4863 57.7612C85.6477 56.8183 83.7221 55.9633 81.9553 54.9241C81.636 54.7362 81.1512 54.49 80.9808 54.1874C80.8578 53.9687 80.8746 53.7118 80.9791 53.4914C81.1468 53.1378 81.4095 52.9692 81.8088 52.824Z" fill="#FEFEFE"/>
<path d="M85.6063 45.8457C86.615 46.6774 87.5038 47.6123 88.4282 48.5117C89.8931 49.9369 91.4182 51.3909 93.0357 52.6911C92.8871 52.8673 92.7148 53.0249 92.5466 53.1873C91.912 53.384 91.3685 53.4451 90.7006 53.3295C88.4021 52.9319 86.771 51.0467 85.5956 49.4622C85.0305 48.7001 84.3479 47.7537 84.6271 46.8161C84.7679 46.3429 85.1368 46.0884 85.6063 45.8457Z" fill="#C9C8FC"/>
<path d="M13.6865 89.3533C21.0028 89.2584 28.3512 89.2964 35.6679 89.3702L35.6784 93.5001C35.0143 93.6998 30.2112 93.569 29.2035 93.5688L13.6758 93.5644L13.6865 89.3533Z" fill="#FEFEFE"/>
<path d="M78.6506 77.1435C80.073 76.9286 81.7146 77.2567 82.9117 77.9304C84.2349 78.6752 85.1183 79.9537 85.4356 81.269C85.7734 82.6698 85.4036 84.2142 84.4777 85.4042C83.5105 86.6475 82.0584 87.3634 80.3789 87.6575C78.6917 87.7847 77.194 87.6232 75.7915 86.7526C75.7084 86.7007 75.6267 86.6471 75.5466 86.5918C75.4666 86.5365 75.3881 86.4795 75.3113 86.4208C75.2345 86.3622 75.1594 86.302 75.0862 86.2401C75.0127 86.1783 74.9412 86.115 74.8715 86.0502C74.8019 85.9853 74.7341 85.9191 74.6683 85.8515C74.6024 85.7837 74.5385 85.7147 74.4766 85.6443C74.4148 85.5738 74.355 85.5022 74.2972 85.4293C74.2394 85.3564 74.1838 85.2823 74.1303 85.207C74.0768 85.1317 74.0254 85.0553 73.9764 84.9778C73.9273 84.9004 73.8805 84.822 73.8359 84.7425C73.7914 84.6632 73.7491 84.5829 73.7091 84.5017C73.6692 84.4204 73.6317 84.3384 73.5965 84.2557C73.5612 84.1728 73.5284 84.0893 73.4981 84.0052C73.4676 83.921 73.4396 83.8363 73.4141 83.7509C73.3886 83.6655 73.3656 83.5797 73.345 83.4933C73.3245 83.407 73.3064 83.3203 73.2908 83.2332C73.0452 81.8031 73.4683 80.2647 74.484 79.1047C75.5283 77.912 76.9595 77.3424 78.6506 77.1435Z" fill="#FEFEFE"/>
<path d="M78.7662 78.4491C79.7251 78.388 80.6294 78.458 81.4989 78.8462C82.6141 79.3439 83.454 80.2764 83.7925 81.3094C83.8142 81.3737 83.8341 81.4384 83.8521 81.5035C83.87 81.5687 83.886 81.6342 83.9001 81.6999C83.9141 81.7658 83.9262 81.8319 83.9364 81.8983C83.9465 81.9646 83.9547 82.0312 83.9609 82.0979C83.9671 82.1646 83.9714 82.2315 83.9736 82.2984C83.9758 82.3652 83.976 82.4321 83.9743 82.4991C83.9726 82.566 83.9689 82.6328 83.9633 82.6996C83.9576 82.7663 83.95 82.8329 83.9403 82.8993C83.9306 82.9658 83.919 83.0319 83.9055 83.0978C83.8919 83.1638 83.8764 83.2294 83.8589 83.2945C83.8415 83.3598 83.8221 83.4247 83.8008 83.4891C83.7795 83.5535 83.7564 83.6174 83.7313 83.6807C83.7063 83.7442 83.6793 83.807 83.6504 83.8692C83.6217 83.9313 83.5911 83.9929 83.5587 84.0538C83.5262 84.1147 83.4919 84.1749 83.4559 84.2342C83.42 84.2937 83.3822 84.3523 83.3427 84.41C82.6 85.4977 81.4931 85.9898 80.1222 86.2783C79.985 86.2963 79.8472 86.3092 79.7088 86.317C79.5703 86.3249 79.4317 86.3277 79.293 86.3255C79.1542 86.3231 79.0158 86.3157 78.8778 86.3032C78.7399 86.2908 78.6027 86.2733 78.4665 86.2507C78.3303 86.2282 78.1954 86.2007 78.0619 86.1683C77.9284 86.1358 77.7968 86.0985 77.667 86.0564C77.5373 86.0143 77.4099 85.9676 77.2848 85.9162C77.1598 85.8646 77.0375 85.8087 76.918 85.7482C75.8955 85.2215 75.1943 84.3716 74.9183 83.3811C74.6255 82.3304 74.7962 81.1808 75.4843 80.2652C76.2459 79.2519 77.4158 78.6939 78.7662 78.4491Z" fill="#161C2D"/>
<path d="M78.9384 78.8115C79.7999 78.7512 80.6352 78.874 81.3937 79.2414C81.4562 79.2722 81.5177 79.3044 81.5783 79.338C81.6388 79.3715 81.6983 79.4064 81.7569 79.4426C81.8153 79.4788 81.8726 79.5162 81.9288 79.5548C81.985 79.5935 82.0401 79.6334 82.094 79.6744C82.1478 79.7155 82.2004 79.7578 82.2518 79.8011C82.3032 79.8445 82.3532 79.8889 82.4019 79.9344C82.4505 79.98 82.4978 80.0266 82.5438 80.0743C82.5897 80.1219 82.6341 80.1705 82.6772 80.2201C82.7201 80.2696 82.7616 80.3201 82.8015 80.3715C82.8416 80.4228 82.8801 80.475 82.9169 80.5281C82.9539 80.5812 82.9891 80.635 83.0228 80.6896C83.0564 80.7442 83.0885 80.7996 83.119 80.8556C83.1493 80.9116 83.178 80.9683 83.2049 81.0256C83.232 81.0828 83.2573 81.1406 83.2809 81.1989C83.3045 81.2573 83.3263 81.3162 83.3463 81.3755C83.3664 81.4348 83.3846 81.4945 83.401 81.5547C83.6625 82.4844 83.5288 83.4896 82.923 84.3034C82.1987 85.2763 81.0986 85.7083 79.8412 85.959C78.8312 85.9858 77.9064 85.8527 77.0405 85.3787C76.0939 84.8604 75.5017 84.0695 75.2876 83.1289C75.0645 82.1493 75.2806 81.1254 75.968 80.3109C76.702 79.4413 77.7331 78.9962 78.9384 78.8115Z" fill="#FEFEFE"/>
<path d="M84.8995 33.3398C92.623 33.4923 99.0661 34.8732 106.42 36.7516C104.212 37.3591 102.048 38.0064 99.8936 38.7408C95.5047 40.2624 91.5652 42.3789 87.4642 44.3666C85.4314 40.9045 84.7843 37.1782 84.8995 33.3398Z" fill="#FEFEFE"/>
<path d="M92.1388 128.143C96.0783 128.515 100.03 128.705 103.993 128.714C103.98 129.605 103.7 131.807 104.338 132.468C104.511 132.647 104.752 132.745 105.016 132.786C105.619 132.881 106.308 132.838 106.926 132.859C108.083 132.897 109.237 132.971 110.388 133.082C110.348 134.457 110.351 135.833 110.335 137.208C108.554 137.265 106.75 137.219 104.967 137.221L92.1746 137.234C92.0973 135.442 92.1002 133.643 92.099 131.85C92.0984 130.617 92.062 129.373 92.1388 128.143Z" fill="#FEFEFE"/>
<path d="M35.6779 93.5001L36.0417 93.4297C35.9275 94.4976 35.9126 107.371 36.0139 107.643C36.0157 107.649 36.1287 107.767 36.1306 107.768C36.1422 107.778 36.1583 107.783 36.1722 107.79C34.5299 108.077 32.856 108.376 31.1883 108.526L31.1475 98.2249C25.327 98.1686 19.4941 98.1989 13.6732 98.2296C13.6051 96.6825 13.6629 95.1132 13.6753 93.5644L29.2031 93.5688C30.2107 93.5689 35.0139 93.6998 35.6779 93.5001Z" fill="#6556FE"/>
<path d="M13.6733 98.2296C19.4942 98.1989 25.3271 98.1686 31.1476 98.2249L31.1884 108.526C28.5379 108.849 25.9206 108.781 23.2522 108.779L13.6847 108.787C13.6133 105.272 13.6838 101.746 13.6733 98.2296Z" fill="#FEFEFE"/>
<path d="M107.33 37.0605C108.489 37.3393 109.597 37.7564 110.683 38.1957C110.206 39.6491 109.78 42.0659 108.991 43.3383C107.507 45.7348 103.167 50.4426 100.141 51.2016C99.6047 51.3362 98.9243 51.3897 98.3919 51.2081C97.2602 50.8221 95.6815 48.7438 94.2258 48.1335C93.6815 47.9054 93.2914 47.9164 92.7351 48.0957L92.6391 48.1274C92.4708 48.2612 92.3362 48.3803 92.2404 48.5619C91.9877 49.0406 92.2153 49.5492 92.403 50.0113C90.8047 48.2166 88.9429 46.7949 87.6289 44.7752C92.8462 41.7858 101.218 38.032 107.33 37.0605Z" fill="#C9C8FC"/>
<path d="M97.9863 44.3214C98.3035 44.3032 98.6446 44.3167 98.9458 44.4107C99.3341 44.5318 99.6809 44.7896 99.8323 45.1239C99.9521 45.3878 99.9358 45.6726 99.7819 45.924C99.5554 46.294 99.1725 46.4448 98.7316 46.5718C98.3837 46.5705 98.0543 46.5629 97.7251 46.4544C97.3363 46.3262 96.9501 46.0713 96.8055 45.7251C96.7938 45.6978 96.7837 45.6702 96.7751 45.642C96.7666 45.6139 96.7597 45.5855 96.7545 45.5568C96.7493 45.528 96.7457 45.4992 96.7438 45.4702C96.7419 45.4412 96.7417 45.4121 96.7431 45.383C96.7446 45.354 96.7477 45.3252 96.7525 45.2964C96.7574 45.2676 96.7638 45.2391 96.7719 45.2109C96.7799 45.1827 96.7896 45.1549 96.8009 45.1275C96.8123 45.1001 96.8251 45.0732 96.8395 45.0469C97.0769 44.6233 97.5008 44.4804 97.9863 44.3214Z" fill="#161C2D"/>
<path d="M29.8432 109.09L30.0544 109.093C30.3679 109.329 32.0908 117.212 32.3069 118.227L12.9569 118.212C12.207 118.23 11.389 118.328 10.7725 117.882C10.4077 117.619 10.3825 117.126 10.3515 116.741C10.2561 115.554 10.3239 114.329 10.3276 113.138C10.3306 112.164 10.227 111.059 10.4193 110.1C10.4618 109.888 10.5562 109.715 10.7281 109.558C10.9567 109.349 11.2334 109.205 11.5675 109.168C13.0997 108.998 14.9111 109.132 16.4807 109.132L24.6879 109.134C26.4031 109.135 28.1304 109.171 29.8432 109.09Z" fill="#6556FE"/>
<path d="M22.2601 112.069C23.6496 112.091 27.4645 111.868 28.5131 112.479C28.9188 112.716 29.2329 113.07 29.3109 113.492C29.3902 113.922 29.215 114.345 28.9008 114.678C28.5296 115.071 28.1172 115.205 27.5464 115.268C26.3952 115.298 22.1328 115.417 21.2542 114.995C20.8612 114.807 20.5813 114.51 20.4776 114.132C20.3488 113.662 20.4865 113.168 20.8069 112.777C21.183 112.318 21.6324 112.156 22.2601 112.069Z" fill="#161C2D"/>
<path d="M21.8355 112.497C22.785 112.381 26.9631 112.35 27.7738 112.562C28.1899 112.671 28.5906 112.88 28.7856 113.226C28.9452 113.509 28.9275 113.867 28.7899 114.154C28.6067 114.535 28.2373 114.709 27.8147 114.861C26.5143 115.003 23.6732 115.051 22.3876 114.911C21.8939 114.857 21.3692 114.701 21.0657 114.343C20.8544 114.093 20.7687 113.764 20.8515 113.462C20.9765 113.007 21.3995 112.736 21.8355 112.497Z" fill="#FEFEFE"/>
<path d="M11.286 129.877C14.076 129.784 16.8945 129.847 19.688 129.848L35.1614 129.867C35.7742 132.305 36.3162 134.767 36.8513 137.218L35.8559 137.247L19.7342 137.271L14.2808 137.288C13.3221 137.29 12.3253 137.338 11.3702 137.264C11.0915 137.242 10.9068 137.191 10.7106 137.019C10.4427 136.786 10.3497 136.451 10.2935 136.137C10.1684 135.436 10.2361 134.666 10.2451 133.957L10.2933 130.597C10.5734 130.231 10.8184 130.06 11.286 129.877Z" fill="#6556FE"/>
<path d="M12.2586 119.442C19.0398 119.54 25.8321 119.425 32.6154 119.46C32.9644 120.597 33.2004 121.773 33.4834 122.923C34.0423 125.108 34.5628 127.3 35.0449 129.499L19.6956 129.495C17.3525 129.496 14.3849 129.631 12.1028 129.484C11.6838 129.457 11.1036 129.407 10.7622 129.179C10.3755 128.92 10.2771 128.644 10.2383 128.24C10.1065 126.868 10.2002 125.43 10.2019 124.05C10.2032 123.006 10.0987 121.879 10.2502 120.849C10.3005 120.507 10.41 120.015 10.6943 119.753C11.0861 119.392 11.7347 119.447 12.2586 119.442Z" fill="#6556FE"/>
<path d="M30.4727 108.969C32.8796 108.701 35.2539 108.277 37.643 107.916C38.4024 107.801 39.1806 107.639 39.9448 107.564C40.4989 109.872 41.159 112.163 41.7485 114.464L45.5323 129.429C46.028 131.39 46.6241 133.347 47.0631 135.316C45.2466 135.652 43.4331 135.999 41.6226 136.358C40.1699 136.655 38.6646 137.065 37.1734 137.167C36.7219 134.253 35.8554 131.331 35.1686 128.449C34.443 125.404 33.8429 122.306 32.9494 119.295L32.8541 118.97L31.2098 111.987C30.9692 110.982 30.7799 109.961 30.4727 108.969Z" fill="#FEFEFE"/>
<path d="M37.6575 110.387C37.7721 110.374 37.9061 110.352 38.0232 110.356C38.2439 110.362 38.405 110.41 38.5491 110.559C38.7279 110.745 38.7734 111.009 38.8349 111.237C39.9581 115.383 40.885 119.566 41.9893 123.716C42.6401 126.162 43.2736 128.599 43.8739 131.054C44.0758 131.88 44.4828 132.785 44.4712 133.624C43.8875 134.064 40.9985 134.476 40.0854 134.645C39.6638 134.706 39.1746 134.824 38.7787 134.641C38.4409 133.816 38.3087 132.877 38.1083 132.018C37.8186 130.823 37.5172 129.631 37.2043 128.44C35.8278 123.1 34.5208 117.748 33.081 112.421C32.9935 112.097 32.9342 111.755 33.169 111.464C33.6881 110.82 36.7119 110.545 37.6575 110.387Z" fill="#161C2D"/>
<path d="M37.7442 110.754C37.9274 110.73 38.0157 110.734 38.1889 110.791C38.315 110.909 38.359 111.006 38.4043 111.158C39.5785 115.095 40.3906 119.138 41.4058 123.108C42.2855 126.549 43.4339 129.995 44.0356 133.481C42.5734 133.818 41.0991 134.11 39.6127 134.357C39.4555 134.377 39.3323 134.369 39.1753 134.35C39.0337 134.237 38.9646 134.123 38.9151 133.965C38.7945 133.578 38.805 133.161 38.6936 132.766C37.8738 129.863 37.213 126.914 36.4506 123.997L34.4839 116.188C34.0958 114.678 33.5159 113.104 33.3828 111.562C34.6941 111.103 36.3456 110.981 37.7442 110.754Z" fill="#FEFEFE"/>
<path d="M117.156 67.4375C117.183 67.8167 115.194 71.6968 114.872 72.5256C114.295 73.9973 113.776 75.484 113.317 76.9857C112.857 78.4874 112.457 80.0006 112.117 81.5254C111.083 86.3097 110.639 91.1298 110.359 95.9816C110.03 101.525 109.903 107.071 109.979 112.621C108.907 112.608 105.787 112.422 104.991 112.547C104.936 112.555 104.882 112.567 104.829 112.582C104.776 112.597 104.724 112.616 104.674 112.638C104.624 112.659 104.577 112.684 104.531 112.712C104.486 112.74 104.443 112.771 104.402 112.804C103.648 113.429 103.912 115.158 103.917 116.015C102.38 115.236 100.961 114.271 99.5043 113.386C97.8191 112.363 96.0941 111.404 94.3711 110.429L99.1303 99.138C99.9765 97.1444 100.887 95.1717 101.69 93.1649C103.019 90.2392 104.247 87.2853 105.529 84.3445C106.044 83.163 106.521 81.6602 107.245 80.5777C107.24 83.159 107.093 85.7425 107.02 88.3231C106.898 92.6887 106.818 97.055 106.781 101.422L106.729 106.145C106.718 107.009 106.635 107.917 106.724 108.776C106.745 108.983 106.755 109.189 106.92 109.353L107.048 109.331C107.186 109.126 107.141 103.701 107.147 103.123C107.222 95.4558 107.39 87.7902 107.651 80.1262C107.681 78.8265 107.687 76.8159 108.209 75.6114C108.37 75.2408 108.641 74.8951 108.93 74.5883C109.759 73.7092 110.797 72.9035 111.723 72.0946C113.514 70.5248 115.325 68.9724 117.156 67.4375Z" fill="#FEFEFE"/>
<path d="M113.344 36.7529C113.835 36.7104 114.369 36.6819 114.849 36.7895C115.943 37.035 116.758 37.7154 117.302 38.5396C118.028 39.639 118.262 40.9399 117.846 42.1612C117.62 42.8232 116.879 43.9802 116.08 44.2877C115.627 44.462 115.056 44.5361 114.634 44.7491C114.479 44.8278 114.483 44.8246 114.448 44.9828C115.452 46.0933 117.458 47.2342 118.783 48.1297C121.852 50.2142 124.953 52.2633 128.086 54.2768C129.126 54.9432 130.469 55.4755 131.296 56.3376C131.542 57.4903 130.231 60.0247 129.623 61.1186C127.872 64.2712 125.192 67.2839 121.25 68.4912C119.582 66.0033 117.571 63.5838 115.465 61.3556C114.467 60.3001 113.394 59.299 112.401 58.2391C112.842 57.763 113.277 57.283 113.707 56.7992C115.194 55.0339 116.222 53.0898 117.033 51.0377C117.183 50.6593 117.425 50.2315 117.438 49.8307L117.333 49.7535C116.946 49.8477 116.896 50.3586 116.778 50.6523C115.544 53.7338 113.878 56.5978 111.021 58.8255C109.76 59.8089 108.158 60.8834 106.348 60.7806C102.92 60.5854 97.4768 55.1515 95.2852 53.0121C96.2021 52.6297 97.2117 52.1035 97.9206 51.4742C98.5684 51.6239 99.1538 51.6846 99.8229 51.5915C102.676 51.1948 105.782 47.9002 107.439 45.9456C108.092 45.1756 108.664 44.3587 109.321 43.591C109.775 43.6652 110.332 43.8196 110.748 43.5826L110.699 43.4701C110.335 43.3057 109.957 43.3012 109.554 43.2706C110.064 41.7883 110.365 40.1636 111 38.7268C111.421 37.7724 112.279 37.1481 113.344 36.7529Z" fill="#FEFEFE"/>
<path d="M113.039 39.1382C113.096 39.1374 113.154 39.1331 113.211 39.1355C113.776 39.1574 114.356 39.5404 114.712 39.8904C115.293 40.4607 115.665 41.1993 115.608 41.9609L115.44 41.9826C115.094 41.7619 115.017 40.8699 114.735 40.5056C114.315 39.9634 113.623 39.712 113.14 39.2404C113.106 39.2068 113.073 39.1723 113.039 39.1382Z" fill="#161C2D"/>
<path d="M72.2175 106.701C73.0046 106.782 73.7431 108.627 74.2861 109.224C74.6625 109.638 75.1155 109.942 75.6549 110.185C76.3017 110.476 76.9979 110.655 77.7123 110.777C78.6691 110.941 85.4094 111.632 85.9927 111.476L86.0476 111.38C85.8979 111.242 85.8415 111.221 85.6232 111.18C85.0021 111.064 84.2913 111.067 83.6551 111.014C81.6942 110.849 79.6159 110.748 77.6939 110.389C76.1599 110.103 74.9961 109.574 74.129 108.423C74.9089 108.14 75.7487 107.944 76.5748 107.789C79.9281 107.156 84.7844 107.055 88.0269 107.959C89.3759 108.335 90.6224 108.99 91.8504 109.587C93.9892 110.616 96.0656 111.731 98.0796 112.93C100.024 114.084 101.909 115.317 103.905 116.404C104.058 117.971 103.942 119.599 103.934 121.175L103.955 128.367C99.0138 128.393 93.9648 128.144 89.103 127.379C85.6055 126.74 76.1779 124.886 73.9143 122.469C73.4015 121.921 72.8902 120.809 72.9716 120.094C73.1434 119.937 73.2984 120.099 73.4953 120.194C74.7301 120.789 78.0609 121.61 79.4094 121.509C79.6103 121.493 79.5398 121.524 79.6586 121.405C79.0871 120.856 74.6316 120.829 72.9145 119.374C71.8303 118.456 71.6376 117.014 71.6151 115.775C71.7669 115.887 71.9237 115.995 72.0853 116.097C72.3619 116.272 72.6507 116.431 72.9516 116.573C73.2526 116.716 73.5631 116.841 73.8831 116.949C74.8982 117.298 78.7792 118.198 79.823 118.066L79.8993 117.934C79.1967 117.353 73.7123 117.431 71.8885 115.371C70.9173 114.274 71.1361 112.893 71.338 111.618C71.783 112.401 72.3169 113.027 73.1602 113.525C73.4042 113.666 73.6583 113.793 73.9225 113.905C74.1867 114.017 74.4585 114.114 74.738 114.194C75.8603 114.524 79.3034 115.186 80.4013 115.013L80.4616 114.916C80.3335 114.786 80.2407 114.732 80.041 114.696C79.6268 114.623 79.1797 114.619 78.7583 114.569C76.9616 114.356 74.8948 114.088 73.3764 113.188C72.2913 112.545 71.5674 111.606 71.3501 110.486C71.1154 109.275 71.383 107.713 72.2175 106.701Z" fill="#FEFEFE"/>
<path d="M134.001 56.4746C135.229 56.7221 136.444 57.0472 137.664 57.329C139.002 57.6384 140.454 57.8844 141.72 58.364C140.999 59.2711 140.188 60.1295 139.451 61.028C136.432 64.649 133.463 68.3005 130.547 71.9825C129.478 73.3425 128.122 74.6753 127.272 76.1416C126.322 77.7823 128.272 79.9319 127.753 81.6709C127.55 82.3517 127.216 83.0224 126.935 83.6836C126.412 84.9244 125.879 86.162 125.335 87.3965C123.944 90.5375 122.594 93.6917 121.286 96.8591C121.013 97.5117 120.006 99.5516 119.978 100.121L120.123 100.254L120.263 100.247C120.813 99.5413 121.134 98.2326 121.463 97.4125C121.719 96.7714 122.025 96.1395 122.295 95.501C123.693 92.1384 125.121 88.7848 126.578 85.4403C126.955 84.5648 128.173 82.225 128.254 81.4536C128.379 80.2618 127.54 78.1209 127.275 76.8636C127.875 75.8183 128.71 74.8386 129.475 73.8776C130.568 72.5019 131.673 71.1333 132.79 69.7718C135.857 66.0182 138.87 62.2337 142.116 58.5912C144.322 59.5263 146.357 61.3125 148.09 62.7933C163.211 75.7208 169.517 96.2514 171.252 114.036C172.003 121.737 171.928 129.455 171.942 137.176C170.01 137.25 168.059 137.2 166.125 137.196L155.388 137.183L117.31 137.158L117.284 133.511L131.501 134.36C135.502 134.582 139.525 134.755 143.514 135.096C145.985 135.17 148.31 134.844 150.388 133.631C152.661 132.304 154.3 130.112 154.785 127.798C155.125 126.171 155.247 124.465 155.459 122.819C155.866 119.475 156.305 116.133 156.774 112.794C156.845 112.295 157.316 109.417 157.185 109.255L157.008 109.24C156.872 109.352 156.826 109.465 156.788 109.619C156.524 110.719 156.485 111.964 156.335 113.085L154.976 123.583C154.78 125.04 154.723 126.575 154.366 128.009C154.314 128.218 154.252 128.426 154.181 128.631C154.111 128.836 154.031 129.039 153.942 129.239C153.853 129.439 153.755 129.636 153.648 129.829C153.541 130.023 153.426 130.213 153.303 130.399C153.222 130.521 153.139 130.642 153.051 130.761C152.964 130.879 152.874 130.996 152.78 131.111C152.686 131.226 152.589 131.339 152.489 131.45C152.389 131.561 152.286 131.67 152.179 131.777C152.073 131.884 151.963 131.988 151.851 132.09C151.739 132.192 151.624 132.292 151.506 132.389C151.388 132.487 151.267 132.581 151.143 132.674C151.02 132.766 150.894 132.856 150.765 132.943C150.637 133.03 150.506 133.114 150.373 133.195C150.239 133.277 150.104 133.356 149.966 133.432C149.828 133.508 149.688 133.58 149.546 133.65C149.404 133.721 149.261 133.788 149.115 133.852C148.969 133.916 148.822 133.977 148.672 134.035C148.523 134.093 148.372 134.147 148.22 134.199C148.068 134.251 147.914 134.299 147.759 134.344C147.604 134.389 147.447 134.431 147.29 134.47C146.804 134.585 146.311 134.669 145.811 134.722C145.31 134.775 144.808 134.797 144.304 134.786C142.266 134.747 140.202 134.537 138.165 134.415L126.87 133.75L110.071 132.699C108.603 132.605 107.129 132.558 105.663 132.45C105.367 132.428 104.966 132.423 104.713 132.284C104.483 132.158 104.427 131.982 104.388 131.761C104.265 131.058 104.345 130.285 104.341 129.573L104.32 124.989L104.337 117.402C104.339 116.171 104.238 114.898 104.335 113.673C104.358 113.381 104.384 113.259 104.591 113.025C105.585 112.765 110.957 112.914 112.468 112.912C119.16 112.904 125.865 112.783 132.553 112.992C133.392 113.895 136.509 117.058 137.503 117.576L137.598 117.495L137.652 117.609L137.472 117.548L137.533 117.406C136.276 115.861 134.583 114.589 133.246 113.089C134.271 113.237 138.909 114.307 139.472 114.176V114.082C138.707 113.605 134.227 112.888 133.033 112.692C133.197 108.837 133.113 104.972 133.148 101.115C133.173 98.1996 133.335 95.2586 133.282 92.3458C133.277 92.1006 133.274 91.8612 133.15 91.635L133.018 91.6325C132.902 91.8036 132.882 91.9581 132.861 92.1518C132.699 93.7283 132.819 95.4538 132.804 97.048L132.717 106.455C132.708 108.525 132.781 110.618 132.626 112.684C127.538 112.519 122.408 112.588 117.316 112.629C117.372 109.723 117.724 106.79 117.925 103.887C118.181 99.6441 118.586 95.412 119.141 91.1903C120.007 84.461 121.202 77.7425 124.573 71.5574C126.268 68.4466 128.417 65.5301 130.432 62.5676C131.736 60.6492 133.261 58.608 134.001 56.4746Z" fill="#FEFEFE"/>
</g>
<defs>
<clipPath id="clip0_606_5804">
<rect width="174" height="149" fill="white"/>
</clipPath>
</defs>
</svg>
