<svg width="174" height="149" viewBox="0 0 174 149" fill="none" xmlns="http://www.w3.org/2000/svg">
<g clip-path="url(#clip0_606_5804)">
<path d="M29.6543 75.031C30.7585 74.9749 37.027 74.8975 37.8556 75.1178L37.8874 75.2019C37.2401 75.5227 31.1066 75.3718 29.8378 75.3868C29.5391 75.8204 29.3292 76.3095 29.1004 76.7732C28.6305 77.7299 27.0589 81.0362 26.482 81.6352L26.418 81.592C26.4769 80.8051 29.1072 75.6333 29.6543 75.031Z" fill="#FFCC00"/>
<path d="M45.2669 26.9619C45.3153 26.9705 45.365 26.9756 45.4124 26.9877C45.7848 27.0821 47.853 30.2939 48.1714 30.7908C46.5366 33.6403 44.6715 36.4256 42.8863 39.2087C43.5527 39.9012 44.4408 40.5995 44.9774 41.3631L44.6921 41.4066C44.0408 41.1443 42.8234 39.717 42.3594 39.1798C43.3023 37.9686 44.0781 36.6229 44.8951 35.3468C45.8576 33.8437 46.8807 32.3408 47.7338 30.7901C47.1916 30.0279 45.2973 27.6592 45.2669 26.9619Z" fill="#FFCC00"/>
<path d="M61.6357 24.9121C61.7095 24.9514 61.7547 25.0049 61.8114 25.0605C61.7064 25.7806 59.3263 29.2964 58.7916 30.3298C60.7329 32.4912 62.9645 34.459 64.8251 36.6719C65.5296 36.5498 70.7682 35.5374 71.0562 35.5901C71.1304 35.6036 71.1897 35.652 71.2565 35.683C70.8161 36.1503 65.7808 36.8074 64.7932 36.968C64.3139 38.8675 63.7533 40.756 63.2352 42.6483C63.1993 42.8371 63.1674 43.0309 63.1135 43.2164C63.0666 43.3778 62.9806 43.4742 62.8179 43.5643L62.7254 43.4594C62.687 42.5894 63.1518 41.5032 63.3883 40.6537C63.7534 39.3712 64.0983 38.0848 64.4229 36.7944C63.4479 35.417 61.9416 34.1591 60.7331 32.9207C60.0437 32.2141 59.343 31.3114 58.5435 30.7106C58.0288 30.3238 53.5286 30.7154 52.5869 30.7596L52.4375 30.6291L52.4637 30.5217C52.9417 30.2848 57.5764 30.1856 58.4629 30.163C59.182 28.8679 60.7287 25.9417 61.6357 24.9121Z" fill="#FFCC00"/>
<path d="M45.1547 44.8818C45.2459 44.8984 45.3076 44.9476 45.3834 44.9927L45.379 45.1074C45.1802 45.2941 37.9031 47.9557 36.8735 48.3656C36.5342 51.0135 36.3666 53.7232 36.1656 56.3826C38.5945 57.7866 41.0883 59.1543 43.4313 60.662L52.0685 57.5417C52.2185 56.5473 52.256 55.5266 52.3332 54.5257L52.7279 49.045C51.8256 48.5492 46.7518 45.7325 46.2828 45.2546C46.2529 45.2242 46.225 45.1922 46.1961 45.1609L46.135 45.2012L46.3239 45.132C47.6304 45.4656 51.4323 47.8755 52.7085 48.6818C53.9966 48.16 58.9445 46.1558 60.0094 46.0813L60.1481 46.1822L60.12 46.2774C59.554 46.6431 58.5812 46.8319 57.9129 47.0704C56.3274 47.6366 54.7243 48.2067 53.1816 48.8536C52.8469 51.8127 52.8066 54.7978 52.4443 57.7548C50.9182 58.2691 49.4187 58.8662 47.9098 59.4179C46.4829 59.9397 45.0339 60.4184 43.6143 60.9536C44.2628 62.7001 44.9854 64.4163 45.7108 66.1399C45.4967 66.7582 45.1249 67.3699 44.8201 67.9621C44.1241 69.3143 43.396 70.6513 42.6769 71.9942C42.2956 72.706 42.0154 73.5416 41.4788 74.1763C41.3979 74.2718 41.4062 74.2957 41.2706 74.3127C41.1787 73.8228 41.8595 72.7978 42.1029 72.3217C43.1892 70.293 44.2109 68.2303 45.3596 66.2275C44.5672 64.4642 43.8145 62.6884 43.1015 60.9004C42.1948 60.2133 41.0822 59.6567 40.0796 59.07C38.7029 58.2642 37.3542 57.4181 35.9345 56.6684C34.2552 57.0796 32.6105 57.6049 30.9529 58.0763C29.3841 58.5225 27.7638 58.9145 26.2374 59.4581C25.3482 62.2539 24.2898 65.0267 23.3065 67.8003C23.7833 68.502 27.7377 73.2871 27.7537 73.5434L27.6101 73.5696C27.483 73.5268 27.3666 73.4904 27.2726 73.4015C26.7656 72.9225 26.3323 72.2583 25.9 71.7212C24.8735 70.4457 23.7882 69.1581 22.8721 67.8238C23.8914 65.0414 24.8752 62.2498 25.8233 59.4491C24.9552 58.7663 19.5807 55.7561 19.4297 55.2906L19.507 55.1788C19.5673 55.1793 19.6317 55.1614 19.6878 55.1802C20.2122 55.3548 20.9537 55.9671 21.4225 56.2653C22.9413 57.2314 24.45 58.2103 26.0147 59.1218C29.2792 58.2281 32.5011 57.2136 35.7804 56.3602C36.0931 53.6194 36.262 50.8539 36.4864 48.1058C39.3692 47.0217 42.2405 45.9023 45.1547 44.8818Z" fill="#FFCC00"/>
<path d="M55.8115 90.8779C56.4562 91.1403 57.0523 91.5355 57.6409 91.8792C59.3519 92.8787 61.0161 94.0423 62.7607 94.9747C62.1105 96.0842 61.211 97.115 60.4054 98.1443C59.6866 99.0627 59.0071 100.019 58.2251 100.899C57.3498 100.687 52.1567 97.3715 51.2773 96.6501C51.7271 95.7987 55.0308 91.6292 55.8115 90.8779Z" fill="#161C2D"/>
<path d="M52.3365 96.0801C53.1822 96.351 57.2844 98.9969 58.184 99.6083C58.2647 99.7924 58.1653 99.8886 58.0849 100.066C58.0525 100.06 58.0195 100.056 57.9877 100.049C57.5436 99.9426 52.364 96.6801 52.2374 96.4524C52.1825 96.3538 52.2955 96.1808 52.3365 96.0801Z" fill="#FEFEFE"/>
<path d="M83.0014 31.3515C82.8488 26.7071 84.8337 23.3391 88.5013 20.022C92.5692 16.3428 97.982 14.4564 103.86 14.3387C113.521 14.1454 121.605 18.8736 128.285 24.3741C132.976 28.2361 137.796 33.5462 141.101 38.3359C139.804 40.7179 138.405 43.0545 136.902 45.3457C135.399 47.6369 133.797 49.8762 132.096 52.0637C131.412 52.9481 130.74 54.0096 129.903 54.787C130.498 55.1395 131.081 55.5059 131.653 55.8862C133.35 55.9115 135.067 56.3776 136.7 56.7502C138.352 57.1272 140.137 57.4504 141.708 58.0219C144.315 58.9705 146.949 61.317 148.908 63.0514C163.935 76.3549 170.054 96.8139 171.711 114.805C172.406 122.36 172.297 129.923 172.301 137.494C170.469 137.589 168.619 137.546 166.784 137.542L158.191 137.526L131.631 137.536L38.0054 137.556L16.2735 137.561L7.58312 137.563C6.14236 137.559 4.68151 137.597 3.24391 137.538C3.12058 137.533 3.04241 137.509 2.93743 137.455L2.93359 137.302C3.25453 137.129 9.60833 137.25 10.5666 137.228C10.3618 137.024 10.1485 136.824 9.9583 136.61C9.80588 135.662 9.6327 130.712 10.2002 130.131C10.4304 129.895 10.778 129.773 11.0982 129.653C10.6046 129.437 10.1604 129.241 9.97607 128.761C9.70464 128.054 9.80119 121.869 9.8964 120.775C9.92336 120.466 9.95424 120.148 10.1214 119.867C10.3663 119.455 10.7461 119.283 11.2469 119.162L11.3357 119.142L11.4645 119.086C11.5932 118.904 11.5405 118.786 11.5213 118.577C11.2064 118.516 10.9391 118.432 10.6742 118.27C10.2723 118.024 10.1006 117.701 10.0351 117.291C9.85358 116.154 9.96321 114.915 9.9661 113.762C9.96895 112.62 9.88172 111.403 10.0318 110.272C10.0691 109.991 10.1402 109.53 10.3744 109.315C11.1173 108.635 12.2862 108.764 13.2729 108.77L13.2927 89.3645C12.8329 89.355 11.9919 89.4285 11.5968 89.2657L11.574 89.1174L11.6891 89.0083C15.8485 88.8856 20.0404 88.9863 24.2043 88.98L33.1587 88.983C34.3203 88.9854 35.4955 88.9365 36.6549 88.9669C36.9719 88.9752 37.4606 88.9686 37.6868 89.1731C37.672 89.1889 37.6598 89.2067 37.6424 89.2203C37.3259 89.4688 36.4848 89.3787 36.0781 89.3735C36.0819 90.7157 36.1611 92.0926 36.0408 93.43C35.9266 94.4978 35.9116 107.372 36.0129 107.644C36.0148 107.649 36.1278 107.767 36.1296 107.768C36.1412 107.778 36.1573 107.783 36.1713 107.791C37.5653 107.617 38.9328 107.36 40.3146 107.131C40.4314 108.139 40.7491 109.145 41.005 110.133L42.213 114.804L45.8201 129.027L46.8648 133.023C47.0845 133.872 47.3793 134.767 47.4328 135.637C44.5671 136.143 41.6761 136.793 38.7881 137.175C43.4679 137.359 48.1837 137.223 52.8695 137.266C52.8991 136.085 52.6358 129.611 53.0012 129.013C53.3633 128.857 53.7645 128.816 54.1648 128.791C56.2706 128.661 58.473 128.778 60.5872 128.786L74.1012 128.852C74.108 126.925 74.1847 124.973 74.0511 123.051C73.1515 122.422 72.7424 121.565 72.627 120.592C72.5877 120.262 72.5707 119.923 72.5718 119.591C70.6788 117.5 71.8083 116.47 70.9796 114.53L54.8625 114.47C53.5095 114.462 52.1564 114.461 50.8034 114.467C50.049 114.47 49.2386 114.521 48.4931 114.425C47.7249 114.326 47.0629 113.998 46.5261 113.523C45.4969 112.611 45.3713 111.416 45.4262 110.206C45.4447 109.797 45.5078 109.442 45.8135 109.118C46.1399 108.976 46.5904 108.974 46.9531 108.965C48.5125 108.923 50.0875 108.967 51.6479 108.972L59.9554 108.984L66.6639 109C68.0687 109.005 69.489 108.975 70.8904 109.06C70.9798 108.382 71.2435 106.99 71.8797 106.533C72.0095 106.44 72.1398 106.427 72.2999 106.406C72.751 106.487 73.0329 106.744 73.2764 107.07C73.5201 107.396 73.7131 107.768 73.9252 108.11C76.2008 107.39 78.3362 107.11 80.7452 106.935C83.0325 105.349 84.3778 102.467 84.671 100.017C85.1084 96.3656 83.9737 92.6004 81.2386 89.7419C80.7115 89.1912 80.1083 88.6915 79.5887 88.139C77.55 88.0782 76.3683 87.5276 74.7162 86.5456C72.262 89.842 69.5878 93.0237 67.1511 96.3266C64.7618 95.1222 62.5756 93.5857 60.2893 92.2403C59.1283 91.5523 57.9595 90.8742 56.783 90.206C55.708 89.5971 54.5261 88.9979 53.5821 88.2444C54.3269 87.1161 55.2023 86.0447 56.0299 84.9598C57.0936 83.5653 58.1211 82.1517 59.2069 80.7693C60.101 79.6313 61.0516 78.5278 61.9231 77.3767C64.5935 73.8176 67.3155 70.2878 70.0892 66.7872C71.1527 65.4242 73.0966 62.7256 74.2829 61.6289C75.2134 61.9686 76.0526 62.4813 76.9182 62.9269C78.6709 60.4397 80.5346 58.0064 82.2192 55.4852C81.5243 55.1608 80.7822 54.8086 80.536 54.1098C80.424 53.7925 80.4464 53.4745 80.6495 53.1877C80.8813 52.8601 81.3244 52.5503 81.7657 52.4673C82.0279 52.4181 82.336 52.417 82.5919 52.4919C83.7655 52.8356 85.1669 53.705 86.2527 54.2561C87.8795 55.0817 89.6272 55.8744 91.1736 56.8019C91.5767 57.0434 91.8628 57.2646 91.9459 57.6988C92.0302 58.1397 91.8594 58.5856 91.5491 58.9369C91.3126 59.2045 90.9957 59.4358 90.5899 59.4601C90.2644 59.4798 89.9509 59.38 89.6486 59.2886C88.6224 60.5691 87.7305 61.9354 86.784 63.2601C85.8027 64.6332 84.6923 66.0157 83.9086 67.4805C84.619 67.8434 85.7475 68.2776 86.2184 68.8591C86.0421 69.7765 81.4033 75.1721 80.5854 76.7559C82.4524 77.1794 83.9907 77.801 84.9883 79.2895C85.5883 80.1848 85.801 81.1475 86.0337 82.146C91.314 86.6864 95.3211 91.9138 95.2917 98.5722C95.2738 102.618 93.8912 105.752 92.3017 109.472L94.0205 110.247C96.4927 104.254 99.0259 98.2806 101.62 92.3259C103.452 88.1559 105.445 83.9733 107.102 79.755C107.709 78.21 107.16 76.4233 108.196 74.9537C108.932 73.9082 110.219 72.9343 111.215 72.0656L115.436 68.3981C116.499 67.4926 117.618 66.61 118.603 65.6415C117.493 64.1646 116.269 62.7008 114.957 61.35C114.029 60.3937 113.005 59.486 112.126 58.4979C110.514 59.7005 108.655 61.2713 106.337 61.1457C102.473 60.9365 97.5056 55.4549 94.8528 53.1707C94.3212 53.3047 93.7977 53.3523 93.2589 53.4479C91.6225 53.7382 90.704 53.9575 89.1393 53.2235C87.1682 52.299 84.8879 49.8053 84.2425 47.9941C84.0367 47.4168 84.0553 46.8653 84.3929 46.327C84.591 46.0113 84.862 45.7401 85.1694 45.4984C83.109 42.9599 78.5537 37.8732 79.2397 34.7449C79.5027 33.5458 80.4471 32.6553 81.5997 32.0033C82.0478 31.7499 82.5081 31.5328 83.0014 31.3515Z" fill="#161C2D"/>
<path d="M93.8129 52.0576C94.0035 52.2212 94.2554 52.401 94.3955 52.5983C94.4847 52.7238 94.4797 52.732 94.4382 52.8792L94.0999 52.9787C93.8231 53.0108 93.5964 53.0775 93.3524 52.9523C93.333 52.6769 93.6581 52.2993 93.8129 52.0576Z" fill="#FEFEFE"/>
<path d="M108.531 37.0312C109.101 37.089 110.532 37.05 110.911 37.4071C110.998 37.4892 110.922 37.6875 110.905 37.7937C110.415 37.825 109.046 37.215 108.531 37.0312Z" fill="#F5F5F5"/>
<path d="M93.1818 48.3115C94.5228 48.3203 96.6476 50.3798 97.6035 51.1776C97.1844 51.5414 96.6923 51.835 96.2161 52.1406C95.814 52.3817 95.458 52.5384 94.9945 52.6736C94.9027 52.59 94.8133 52.5047 94.7262 52.4176C93.961 51.6598 92.4722 50.0611 92.6241 48.9926C92.6715 48.6594 92.8953 48.5071 93.1818 48.3115Z" fill="#FEFEFE"/>
<path d="M11.5216 118.577C16.6008 118.631 21.6802 118.647 26.7597 118.625C28.0262 118.628 31.2674 118.5 32.3402 118.676C32.465 118.825 32.4883 118.918 32.5135 119.1C32.2037 119.204 31.8226 119.174 31.4929 119.177C29.5424 119.116 27.5723 119.169 25.6197 119.169L14.3715 119.168C13.3597 119.168 12.3471 119.177 11.3359 119.142L11.4648 119.086C11.5935 118.904 11.5408 118.786 11.5216 118.577Z" fill="#C9C8FC"/>
<path d="M46.0423 109.645C47.7844 109.593 49.5414 109.629 51.2849 109.626L61.2546 109.623L67.438 109.626C68.5189 109.627 69.6516 109.572 70.7257 109.656C70.9029 109.832 70.8467 109.94 70.8407 110.167C65.5298 110.2 60.2099 110.134 54.8983 110.12L49.2943 110.106C48.2223 110.104 47.1154 110.147 46.0481 110.071L45.957 109.969L46.0423 109.645Z" fill="#FEFEFE"/>
<path d="M85.6055 45.8465C86.1779 45.6144 86.7037 45.2969 87.2332 45.001C88.2989 46.3767 89.472 47.6816 90.7526 48.9156C91.7135 49.8476 92.7906 50.7362 93.6395 51.7456C93.4491 52.0664 93.2684 52.3919 93.0348 52.6919C91.4173 51.3917 89.8923 49.9378 88.4274 48.5125C87.503 47.6131 86.6141 46.6782 85.6055 45.8465Z" fill="#6556FE"/>
<path d="M82.0156 126.207C85.1915 126.945 88.3471 127.593 91.5858 128.091C91.7358 128.297 91.6748 128.593 91.6624 128.829C88.4664 128.909 85.2385 128.799 82.0387 128.792L82.0156 126.207Z" fill="#FEFEFE"/>
<path d="M74.8367 63.9062C75.0449 64.0138 75.0828 64.0148 75.1725 64.2043C74.9696 64.8246 70.1503 70.6961 69.3805 71.6886L61.573 81.8036C60.0755 83.7432 58.6389 85.7131 57.0379 87.593C56.8532 87.5143 56.7316 87.4638 56.5938 87.3276C57.0017 86.6129 57.6457 85.9645 58.1569 85.2984L61.915 80.3822C64.6151 76.8473 67.3477 73.3308 70.1129 69.8328C71.6752 67.8449 73.1922 65.8472 74.8367 63.9062Z" fill="#FEFEFE"/>
<path d="M53.4375 129.634L78.9574 129.646L86.9165 129.63C88.4056 129.625 89.9157 129.575 91.4023 129.642C91.5634 129.759 91.5252 129.973 91.5438 130.15L65.7845 130.159L57.3341 130.151C56.1114 130.147 54.8266 130.246 53.6168 130.128C53.4227 129.966 53.4613 129.86 53.4375 129.634Z" fill="#FEFEFE"/>
<path d="M81.8088 52.824C81.9662 52.8212 82.1247 52.8199 82.2812 52.8359C82.8958 52.8982 91.1404 57.0399 91.4271 57.4712C91.5523 57.6598 91.5868 57.955 91.5328 58.1638C91.412 58.6299 91.0269 58.895 90.5782 59.1343C90.3875 59.1454 90.2616 59.149 90.076 59.0972C89.4147 58.9129 88.1524 58.1028 87.4863 57.7612C85.6477 56.8183 83.7221 55.9633 81.9553 54.9241C81.636 54.7362 81.1512 54.49 80.9808 54.1874C80.8578 53.9687 80.8746 53.7118 80.9791 53.4914C81.1468 53.1378 81.4095 52.9692 81.8088 52.824Z" fill="#FEFEFE"/>
<path d="M85.6063 45.8467C86.615 46.6784 87.5038 47.6133 88.4282 48.5127C89.8931 49.9379 91.4182 51.3918 93.0357 52.6921C92.8871 52.8683 92.7148 53.0259 92.5466 53.1883C91.912 53.385 91.3685 53.4461 90.7006 53.3304C88.4021 52.9329 86.771 51.0477 85.5956 49.4631C85.0305 48.7011 84.3479 47.7547 84.6271 46.8171C84.7679 46.3439 85.1368 46.0894 85.6063 45.8467Z" fill="#C9C8FC"/>
<path d="M13.6865 89.3533C21.0028 89.2584 28.3512 89.2964 35.6679 89.3702L35.6784 93.5001C35.0143 93.6998 30.2112 93.569 29.2035 93.5688L13.6758 93.5644L13.6865 89.3533Z" fill="#FEFEFE"/>
<path d="M78.6506 77.1445C80.073 76.9296 81.7146 77.2577 82.9117 77.9314C84.2349 78.6761 85.1183 79.9547 85.4356 81.2699C85.7734 82.6708 85.4036 84.2152 84.4777 85.4051C83.5105 86.6485 82.0584 87.3644 80.3789 87.6585C78.6917 87.7856 77.194 87.6241 75.7915 86.7536C75.7084 86.7017 75.6267 86.6481 75.5466 86.5928C75.4666 86.5375 75.3881 86.4805 75.3113 86.4218C75.2345 86.3632 75.1594 86.303 75.0862 86.2411C75.0127 86.1793 74.9412 86.116 74.8715 86.0512C74.8019 85.9863 74.7341 85.92 74.6683 85.8524C74.6024 85.7847 74.5385 85.7157 74.4766 85.6452C74.4148 85.5748 74.355 85.5032 74.2972 85.4303C74.2394 85.3574 74.1838 85.2833 74.1303 85.208C74.0768 85.1327 74.0254 85.0563 73.9764 84.9788C73.9273 84.9014 73.8805 84.823 73.8359 84.7435C73.7914 84.6642 73.7491 84.5839 73.7091 84.5027C73.6692 84.4214 73.6317 84.3394 73.5965 84.2566C73.5612 84.1738 73.5284 84.0903 73.4981 84.0062C73.4676 83.922 73.4396 83.8372 73.4141 83.7519C73.3886 83.6665 73.3656 83.5807 73.345 83.4943C73.3245 83.408 73.3064 83.3213 73.2908 83.2342C73.0452 81.8041 73.4683 80.2657 74.484 79.1057C75.5283 77.9129 76.9595 77.3434 78.6506 77.1445Z" fill="#FEFEFE"/>
<path d="M78.7662 78.4491C79.7251 78.388 80.6294 78.458 81.4989 78.8462C82.6141 79.3439 83.454 80.2764 83.7925 81.3094C83.8142 81.3737 83.8341 81.4384 83.8521 81.5035C83.87 81.5687 83.886 81.6342 83.9001 81.6999C83.9141 81.7658 83.9262 81.8319 83.9364 81.8983C83.9465 81.9646 83.9547 82.0312 83.9609 82.0979C83.9671 82.1646 83.9714 82.2315 83.9736 82.2984C83.9758 82.3652 83.976 82.4321 83.9743 82.4991C83.9726 82.566 83.9689 82.6328 83.9633 82.6996C83.9576 82.7663 83.95 82.8329 83.9403 82.8993C83.9306 82.9658 83.919 83.0319 83.9055 83.0978C83.8919 83.1638 83.8764 83.2294 83.8589 83.2945C83.8415 83.3598 83.8221 83.4247 83.8008 83.4891C83.7795 83.5535 83.7564 83.6174 83.7313 83.6807C83.7063 83.7442 83.6793 83.807 83.6504 83.8692C83.6217 83.9313 83.5911 83.9929 83.5587 84.0538C83.5262 84.1147 83.4919 84.1749 83.4559 84.2342C83.42 84.2937 83.3822 84.3523 83.3427 84.41C82.6 85.4977 81.4931 85.9898 80.1222 86.2783C79.985 86.2963 79.8472 86.3092 79.7088 86.317C79.5703 86.3249 79.4317 86.3277 79.293 86.3255C79.1542 86.3231 79.0158 86.3157 78.8778 86.3032C78.7399 86.2908 78.6027 86.2733 78.4665 86.2507C78.3303 86.2282 78.1954 86.2007 78.0619 86.1683C77.9284 86.1358 77.7968 86.0985 77.667 86.0564C77.5373 86.0143 77.4099 85.9676 77.2848 85.9162C77.1598 85.8646 77.0375 85.8087 76.918 85.7482C75.8955 85.2215 75.1943 84.3716 74.9183 83.3811C74.6255 82.3304 74.7962 81.1808 75.4843 80.2652C76.2459 79.2519 77.4158 78.6939 78.7662 78.4491Z" fill="#161C2D"/>
<path d="M78.9384 78.8115C79.7999 78.7512 80.6352 78.874 81.3937 79.2414C81.4562 79.2722 81.5177 79.3044 81.5783 79.338C81.6388 79.3715 81.6983 79.4064 81.7569 79.4426C81.8153 79.4788 81.8726 79.5162 81.9288 79.5548C81.985 79.5935 82.0401 79.6334 82.094 79.6744C82.1478 79.7155 82.2004 79.7578 82.2518 79.8011C82.3032 79.8445 82.3532 79.8889 82.4019 79.9344C82.4505 79.98 82.4978 80.0266 82.5438 80.0743C82.5897 80.1219 82.6341 80.1705 82.6772 80.2201C82.7201 80.2696 82.7616 80.3201 82.8015 80.3715C82.8416 80.4228 82.8801 80.475 82.9169 80.5281C82.9539 80.5812 82.9891 80.635 83.0228 80.6896C83.0564 80.7442 83.0885 80.7996 83.119 80.8556C83.1493 80.9116 83.178 80.9683 83.2049 81.0256C83.232 81.0828 83.2573 81.1406 83.2809 81.1989C83.3045 81.2573 83.3263 81.3162 83.3463 81.3755C83.3664 81.4348 83.3846 81.4945 83.401 81.5547C83.6625 82.4844 83.5288 83.4896 82.923 84.3034C82.1987 85.2763 81.0986 85.7083 79.8412 85.959C78.8312 85.9858 77.9064 85.8527 77.0405 85.3787C76.0939 84.8604 75.5017 84.0695 75.2876 83.1289C75.0645 82.1493 75.2806 81.1254 75.968 80.3109C76.702 79.4413 77.7331 78.9962 78.9384 78.8115Z" fill="#FEFEFE"/>
<path d="M84.8995 33.3408C92.623 33.4933 99.0661 34.8742 106.42 36.7525C104.212 37.36 102.048 38.0074 99.8936 38.7418C95.5047 40.2634 91.5652 42.3799 87.4642 44.3675C85.4314 40.9055 84.7843 37.1792 84.8995 33.3408Z" fill="#FEFEFE"/>
<path d="M92.1388 128.143C96.0783 128.515 100.03 128.705 103.993 128.714C103.98 129.605 103.7 131.807 104.338 132.468C104.511 132.647 104.752 132.745 105.016 132.786C105.619 132.881 106.308 132.838 106.926 132.859C108.083 132.897 109.237 132.971 110.388 133.082C110.348 134.457 110.351 135.833 110.335 137.208C108.554 137.265 106.75 137.219 104.967 137.221L92.1746 137.234C92.0973 135.442 92.1002 133.643 92.099 131.85C92.0984 130.617 92.062 129.373 92.1388 128.143Z" fill="#FEFEFE"/>
<path d="M35.6779 93.5001L36.0417 93.4297C35.9275 94.4976 35.9126 107.371 36.0139 107.643C36.0157 107.649 36.1287 107.767 36.1306 107.768C36.1422 107.778 36.1583 107.783 36.1722 107.79C34.5299 108.077 32.856 108.376 31.1883 108.526L31.1475 98.2249C25.327 98.1686 19.4941 98.1989 13.6732 98.2296C13.6051 96.6825 13.6629 95.1132 13.6753 93.5644L29.2031 93.5688C30.2107 93.5689 35.0139 93.6998 35.6779 93.5001Z" fill="#6556FE"/>
<path d="M13.6733 98.2296C19.4942 98.1989 25.3271 98.1686 31.1476 98.2249L31.1884 108.526C28.5379 108.849 25.9206 108.781 23.2522 108.779L13.6847 108.787C13.6133 105.272 13.6838 101.746 13.6733 98.2296Z" fill="#FEFEFE"/>
<path d="M107.33 37.0605C108.489 37.3393 109.597 37.7564 110.683 38.1957C110.206 39.6491 109.78 42.0659 108.991 43.3383C107.507 45.7348 103.167 50.4426 100.141 51.2016C99.6047 51.3362 98.9243 51.3897 98.3919 51.2081C97.2602 50.8221 95.6815 48.7438 94.2258 48.1335C93.6815 47.9054 93.2914 47.9164 92.7351 48.0957L92.6391 48.1274C92.4708 48.2612 92.3362 48.3803 92.2404 48.5619C91.9877 49.0406 92.2153 49.5492 92.403 50.0113C90.8047 48.2166 88.9429 46.7949 87.6289 44.7752C92.8462 41.7858 101.218 38.032 107.33 37.0605Z" fill="#C9C8FC"/>
<path d="M97.9863 44.3224C98.3035 44.3042 98.6446 44.3177 98.9458 44.4117C99.3341 44.5328 99.6809 44.7906 99.8323 45.1248C99.9521 45.3888 99.9358 45.6736 99.7819 45.925C99.5554 46.295 99.1725 46.4458 98.7316 46.5728C98.3837 46.5715 98.0543 46.5639 97.7251 46.4554C97.3363 46.3272 96.9501 46.0722 96.8055 45.7261C96.7938 45.6988 96.7837 45.6711 96.7751 45.643C96.7666 45.6149 96.7597 45.5864 96.7545 45.5577C96.7493 45.529 96.7457 45.5002 96.7438 45.4712C96.7419 45.4421 96.7417 45.4131 96.7431 45.384C96.7446 45.355 96.7477 45.3261 96.7525 45.2974C96.7574 45.2686 96.7638 45.2401 96.7719 45.2119C96.7799 45.1836 96.7896 45.1558 96.8009 45.1285C96.8123 45.101 96.8251 45.0742 96.8395 45.0479C97.0769 44.6243 97.5008 44.4814 97.9863 44.3224Z" fill="#161C2D"/>
<path d="M29.8432 109.09L30.0544 109.093C30.3679 109.329 32.0908 117.212 32.3069 118.227L12.9569 118.212C12.207 118.23 11.389 118.328 10.7725 117.882C10.4077 117.619 10.3825 117.126 10.3515 116.741C10.2561 115.554 10.3239 114.329 10.3276 113.138C10.3306 112.164 10.227 111.059 10.4193 110.1C10.4618 109.888 10.5562 109.715 10.7281 109.558C10.9567 109.349 11.2334 109.205 11.5675 109.168C13.0997 108.998 14.9111 109.132 16.4807 109.132L24.6879 109.134C26.4031 109.135 28.1304 109.171 29.8432 109.09Z" fill="#6556FE"/>
<path d="M22.2601 112.069C23.6496 112.091 27.4645 111.868 28.5131 112.479C28.9188 112.716 29.2329 113.07 29.3109 113.492C29.3902 113.922 29.215 114.345 28.9008 114.678C28.5296 115.071 28.1172 115.205 27.5464 115.268C26.3952 115.298 22.1328 115.417 21.2542 114.995C20.8612 114.807 20.5813 114.51 20.4776 114.132C20.3488 113.662 20.4865 113.168 20.8069 112.777C21.183 112.318 21.6324 112.156 22.2601 112.069Z" fill="#161C2D"/>
<path d="M21.8355 112.496C22.785 112.38 26.9631 112.349 27.7738 112.561C28.1899 112.67 28.5906 112.879 28.7856 113.225C28.9452 113.508 28.9275 113.866 28.7899 114.153C28.6067 114.534 28.2373 114.708 27.8147 114.86C26.5143 115.003 23.6732 115.051 22.3876 114.91C21.8939 114.856 21.3692 114.7 21.0657 114.342C20.8544 114.092 20.7687 113.763 20.8515 113.461C20.9765 113.006 21.3995 112.735 21.8355 112.496Z" fill="#FEFEFE"/>
<path d="M11.286 129.877C14.076 129.784 16.8945 129.847 19.688 129.848L35.1614 129.867C35.7742 132.305 36.3162 134.767 36.8513 137.218L35.8559 137.247L19.7342 137.271L14.2808 137.288C13.3221 137.29 12.3253 137.338 11.3702 137.264C11.0915 137.242 10.9068 137.191 10.7106 137.019C10.4427 136.786 10.3497 136.451 10.2935 136.137C10.1684 135.436 10.2361 134.666 10.2451 133.957L10.2933 130.597C10.5734 130.231 10.8184 130.06 11.286 129.877Z" fill="#6556FE"/>
<path d="M12.2586 119.442C19.0398 119.54 25.8321 119.425 32.6154 119.46C32.9644 120.597 33.2004 121.773 33.4834 122.923C34.0423 125.108 34.5628 127.3 35.0449 129.499L19.6956 129.495C17.3525 129.496 14.3849 129.631 12.1028 129.484C11.6838 129.457 11.1036 129.407 10.7622 129.179C10.3755 128.92 10.2771 128.644 10.2383 128.24C10.1065 126.868 10.2002 125.43 10.2019 124.05C10.2032 123.006 10.0987 121.879 10.2502 120.849C10.3005 120.507 10.41 120.015 10.6943 119.753C11.0861 119.392 11.7347 119.447 12.2586 119.442Z" fill="#6556FE"/>
<path d="M30.4727 108.969C32.8796 108.701 35.2539 108.277 37.643 107.916C38.4024 107.801 39.1806 107.639 39.9448 107.564C40.4989 109.872 41.159 112.163 41.7485 114.464L45.5323 129.429C46.028 131.39 46.6241 133.347 47.0631 135.316C45.2466 135.652 43.4331 135.999 41.6226 136.358C40.1699 136.655 38.6646 137.065 37.1734 137.167C36.7219 134.253 35.8554 131.331 35.1686 128.449C34.443 125.404 33.8429 122.306 32.9494 119.295L32.8541 118.97L31.2098 111.987C30.9692 110.982 30.7799 109.961 30.4727 108.969Z" fill="#FEFEFE"/>
<path d="M37.6575 110.388C37.7721 110.375 37.9061 110.353 38.0232 110.357C38.2439 110.363 38.405 110.411 38.5491 110.56C38.7279 110.746 38.7734 111.01 38.8349 111.238C39.9581 115.384 40.885 119.567 41.9893 123.717C42.6401 126.163 43.2736 128.6 43.8739 131.055C44.0758 131.881 44.4828 132.786 44.4712 133.625C43.8875 134.065 40.9985 134.477 40.0854 134.646C39.6638 134.707 39.1746 134.825 38.7787 134.642C38.4409 133.817 38.3087 132.878 38.1083 132.019C37.8186 130.824 37.5172 129.632 37.2043 128.441C35.8278 123.101 34.5208 117.749 33.081 112.422C32.9935 112.098 32.9342 111.756 33.169 111.465C33.6881 110.821 36.7119 110.546 37.6575 110.388Z" fill="#161C2D"/>
<path d="M37.7442 110.754C37.9274 110.73 38.0157 110.734 38.1889 110.791C38.315 110.909 38.359 111.006 38.4043 111.158C39.5785 115.095 40.3906 119.138 41.4058 123.108C42.2855 126.549 43.4339 129.995 44.0356 133.481C42.5734 133.818 41.0991 134.11 39.6127 134.357C39.4555 134.377 39.3323 134.369 39.1753 134.35C39.0337 134.237 38.9646 134.123 38.9151 133.965C38.7945 133.578 38.805 133.161 38.6936 132.766C37.8738 129.863 37.213 126.914 36.4506 123.997L34.4839 116.188C34.0958 114.678 33.5159 113.104 33.3828 111.562C34.6941 111.103 36.3456 110.981 37.7442 110.754Z" fill="#FEFEFE"/>
<path d="M117.156 67.4375C117.183 67.8167 115.194 71.6968 114.872 72.5256C114.295 73.9973 113.776 75.484 113.317 76.9857C112.857 78.4874 112.457 80.0006 112.117 81.5254C111.083 86.3097 110.639 91.1298 110.359 95.9816C110.03 101.525 109.903 107.071 109.979 112.621C108.907 112.608 105.787 112.422 104.991 112.547C104.936 112.555 104.882 112.567 104.829 112.582C104.776 112.597 104.724 112.616 104.674 112.638C104.624 112.659 104.577 112.684 104.531 112.712C104.486 112.74 104.443 112.771 104.402 112.804C103.648 113.429 103.912 115.158 103.917 116.015C102.38 115.236 100.961 114.271 99.5043 113.386C97.8191 112.363 96.0941 111.404 94.3711 110.429L99.1303 99.138C99.9765 97.1444 100.887 95.1717 101.69 93.1649C103.019 90.2392 104.247 87.2853 105.529 84.3445C106.044 83.163 106.521 81.6602 107.245 80.5777C107.24 83.159 107.093 85.7425 107.02 88.3231C106.898 92.6887 106.818 97.055 106.781 101.422L106.729 106.145C106.718 107.009 106.635 107.917 106.724 108.776C106.745 108.983 106.755 109.189 106.92 109.353L107.048 109.331C107.186 109.126 107.141 103.701 107.147 103.123C107.222 95.4558 107.39 87.7902 107.651 80.1262C107.681 78.8265 107.687 76.8159 108.209 75.6114C108.37 75.2408 108.641 74.8951 108.93 74.5883C109.759 73.7092 110.797 72.9035 111.723 72.0946C113.514 70.5248 115.325 68.9724 117.156 67.4375Z" fill="#FEFEFE"/>
<path d="M113.344 36.7529C113.835 36.7104 114.369 36.6819 114.849 36.7895C115.943 37.035 116.758 37.7154 117.302 38.5396C118.028 39.639 118.262 40.9399 117.846 42.1612C117.62 42.8232 116.879 43.9802 116.08 44.2877C115.627 44.462 115.056 44.5361 114.634 44.7491C114.479 44.8278 114.483 44.8246 114.448 44.9828C115.452 46.0933 117.458 47.2342 118.783 48.1297C121.852 50.2142 124.953 52.2633 128.086 54.2768C129.126 54.9432 130.469 55.4755 131.296 56.3376C131.542 57.4903 130.231 60.0247 129.623 61.1186C127.872 64.2712 125.192 67.2839 121.25 68.4912C119.582 66.0033 117.571 63.5838 115.465 61.3556C114.467 60.3001 113.394 59.299 112.401 58.2391C112.842 57.763 113.277 57.283 113.707 56.7992C115.194 55.0339 116.222 53.0898 117.033 51.0377C117.183 50.6593 117.425 50.2315 117.438 49.8307L117.333 49.7535C116.946 49.8477 116.896 50.3586 116.778 50.6523C115.544 53.7338 113.878 56.5978 111.021 58.8255C109.76 59.8089 108.158 60.8834 106.348 60.7806C102.92 60.5854 97.4768 55.1515 95.2852 53.0121C96.2021 52.6297 97.2117 52.1035 97.9206 51.4742C98.5684 51.6239 99.1538 51.6846 99.8229 51.5915C102.676 51.1948 105.782 47.9002 107.439 45.9456C108.092 45.1756 108.664 44.3587 109.321 43.591C109.775 43.6652 110.332 43.8196 110.748 43.5826L110.699 43.4701C110.335 43.3057 109.957 43.3012 109.554 43.2706C110.064 41.7883 110.365 40.1636 111 38.7268C111.421 37.7724 112.279 37.1481 113.344 36.7529Z" fill="#FEFEFE"/>
<path d="M113.039 39.1382C113.096 39.1374 113.154 39.1331 113.211 39.1355C113.776 39.1574 114.356 39.5404 114.712 39.8904C115.293 40.4607 115.665 41.1993 115.608 41.9609L115.44 41.9826C115.094 41.7619 115.017 40.8699 114.735 40.5056C114.315 39.9634 113.623 39.712 113.14 39.2404C113.106 39.2068 113.073 39.1723 113.039 39.1382Z" fill="#161C2D"/>
<path d="M72.2175 106.7C73.0046 106.781 73.7431 108.626 74.2861 109.223C74.6625 109.637 75.1155 109.941 75.6549 110.184C76.3017 110.475 76.9979 110.654 77.7123 110.776C78.6691 110.94 85.4094 111.631 85.9927 111.475L86.0476 111.379C85.8979 111.241 85.8415 111.22 85.6232 111.179C85.0021 111.063 84.2913 111.066 83.6551 111.013C81.6942 110.848 79.6159 110.747 77.6939 110.388C76.1599 110.102 74.9961 109.573 74.129 108.422C74.9089 108.139 75.7487 107.943 76.5748 107.788C79.9281 107.155 84.7844 107.054 88.0269 107.958C89.3759 108.334 90.6224 108.989 91.8504 109.586C93.9892 110.615 96.0656 111.73 98.0796 112.929C100.024 114.083 101.909 115.316 103.905 116.403C104.058 117.971 103.942 119.598 103.934 121.174L103.955 128.366C99.0138 128.392 93.9648 128.143 89.103 127.378C85.6055 126.739 76.1779 124.885 73.9143 122.468C73.4015 121.92 72.8902 120.808 72.9716 120.093C73.1434 119.936 73.2984 120.098 73.4953 120.193C74.7301 120.788 78.0609 121.609 79.4094 121.508C79.6103 121.493 79.5398 121.523 79.6586 121.404C79.0871 120.855 74.6316 120.828 72.9145 119.373C71.8303 118.455 71.6376 117.013 71.6151 115.774C71.7669 115.886 71.9237 115.994 72.0853 116.096C72.3619 116.271 72.6507 116.43 72.9516 116.572C73.2526 116.715 73.5631 116.84 73.8831 116.948C74.8982 117.297 78.7792 118.197 79.823 118.065L79.8993 117.933C79.1967 117.352 73.7123 117.43 71.8885 115.37C70.9173 114.273 71.1361 112.892 71.338 111.617C71.783 112.4 72.3169 113.026 73.1602 113.524C73.4042 113.665 73.6583 113.792 73.9225 113.904C74.1867 114.016 74.4585 114.113 74.738 114.193C75.8603 114.523 79.3034 115.185 80.4013 115.012L80.4616 114.915C80.3335 114.785 80.2407 114.731 80.041 114.695C79.6268 114.622 79.1797 114.618 78.7583 114.568C76.9616 114.355 74.8948 114.087 73.3764 113.187C72.2913 112.544 71.5674 111.605 71.3501 110.485C71.1154 109.274 71.383 107.712 72.2175 106.7Z" fill="#FEFEFE"/>
<path d="M134.001 56.4746C135.229 56.7221 136.444 57.0472 137.664 57.329C139.002 57.6384 140.454 57.8844 141.72 58.364C140.999 59.2711 140.188 60.1295 139.451 61.028C136.432 64.649 133.463 68.3005 130.547 71.9825C129.478 73.3425 128.122 74.6753 127.272 76.1416C126.322 77.7823 128.272 79.9319 127.753 81.6709C127.55 82.3517 127.216 83.0224 126.935 83.6836C126.412 84.9244 125.879 86.162 125.335 87.3965C123.944 90.5375 122.594 93.6917 121.286 96.8591C121.013 97.5117 120.006 99.5516 119.978 100.121L120.123 100.254L120.263 100.247C120.813 99.5413 121.134 98.2326 121.463 97.4125C121.719 96.7714 122.025 96.1395 122.295 95.501C123.693 92.1384 125.121 88.7848 126.578 85.4403C126.955 84.5648 128.173 82.225 128.254 81.4536C128.379 80.2618 127.54 78.1209 127.275 76.8636C127.875 75.8183 128.71 74.8386 129.475 73.8776C130.568 72.5019 131.673 71.1333 132.79 69.7718C135.857 66.0182 138.87 62.2337 142.116 58.5912C144.322 59.5263 146.357 61.3125 148.09 62.7933C163.211 75.7208 169.517 96.2514 171.252 114.036C172.003 121.737 171.928 129.455 171.942 137.176C170.01 137.25 168.059 137.2 166.125 137.196L155.388 137.183L117.31 137.158L117.284 133.511L131.501 134.36C135.502 134.582 139.525 134.755 143.514 135.096C145.985 135.17 148.31 134.844 150.388 133.631C152.661 132.304 154.3 130.112 154.785 127.798C155.125 126.171 155.247 124.465 155.459 122.819C155.866 119.475 156.305 116.133 156.774 112.794C156.845 112.295 157.316 109.417 157.185 109.255L157.008 109.24C156.872 109.352 156.826 109.465 156.788 109.619C156.524 110.719 156.485 111.964 156.335 113.085L154.976 123.583C154.78 125.04 154.723 126.575 154.366 128.009C154.314 128.218 154.252 128.426 154.181 128.631C154.111 128.836 154.031 129.039 153.942 129.239C153.853 129.439 153.755 129.636 153.648 129.829C153.541 130.023 153.426 130.213 153.303 130.399C153.222 130.521 153.139 130.642 153.051 130.761C152.964 130.879 152.874 130.996 152.78 131.111C152.686 131.226 152.589 131.339 152.489 131.45C152.389 131.561 152.286 131.67 152.179 131.777C152.073 131.884 151.963 131.988 151.851 132.09C151.739 132.192 151.624 132.292 151.506 132.389C151.388 132.487 151.267 132.581 151.143 132.674C151.02 132.766 150.894 132.856 150.765 132.943C150.637 133.03 150.506 133.114 150.373 133.195C150.239 133.277 150.104 133.356 149.966 133.432C149.828 133.508 149.688 133.58 149.546 133.65C149.404 133.721 149.261 133.788 149.115 133.852C148.969 133.916 148.822 133.977 148.672 134.035C148.523 134.093 148.372 134.147 148.22 134.199C148.068 134.251 147.914 134.299 147.759 134.344C147.604 134.389 147.447 134.431 147.29 134.47C146.804 134.585 146.311 134.669 145.811 134.722C145.31 134.775 144.808 134.797 144.304 134.786C142.266 134.747 140.202 134.537 138.165 134.415L126.87 133.75L110.071 132.699C108.603 132.605 107.129 132.558 105.663 132.45C105.367 132.428 104.966 132.423 104.713 132.284C104.483 132.158 104.427 131.982 104.388 131.761C104.265 131.058 104.345 130.285 104.341 129.573L104.32 124.989L104.337 117.402C104.339 116.171 104.238 114.898 104.335 113.673C104.358 113.381 104.384 113.259 104.591 113.025C105.585 112.765 110.957 112.914 112.468 112.912C119.16 112.904 125.865 112.783 132.553 112.992C133.392 113.895 136.509 117.058 137.503 117.576L137.598 117.495L137.652 117.609L137.472 117.548L137.533 117.406C136.276 115.861 134.583 114.589 133.246 113.089C134.271 113.237 138.909 114.307 139.472 114.176V114.082C138.707 113.605 134.227 112.888 133.033 112.692C133.197 108.837 133.113 104.972 133.148 101.115C133.173 98.1996 133.335 95.2586 133.282 92.3458C133.277 92.1006 133.274 91.8612 133.15 91.635L133.018 91.6325C132.902 91.8036 132.882 91.9581 132.861 92.1518C132.699 93.7283 132.819 95.4538 132.804 97.048L132.717 106.455C132.708 108.525 132.781 110.618 132.626 112.684C127.538 112.519 122.408 112.588 117.316 112.629C117.372 109.723 117.724 106.79 117.925 103.887C118.181 99.6441 118.586 95.412 119.141 91.1903C120.007 84.461 121.202 77.7425 124.573 71.5574C126.268 68.4466 128.417 65.5301 130.432 62.5676C131.736 60.6492 133.261 58.608 134.001 56.4746Z" fill="#FEFEFE"/>
</g>
<defs>
<clipPath id="clip0_606_5804">
<rect width="174" height="149" fill="white"/>
</clipPath>
</defs>
</svg>
