<svg width="24" height="24" viewBox="0 0 24 24" fill="none" xmlns="http://www.w3.org/2000/svg">
<path d="M4 20V4H20V11.566C19.8247 11.5053 19.6567 11.456 19.496 11.418C19.336 11.3807 19.1707 11.3433 19 11.306V5H5V19H11.28C11.3047 19.1867 11.336 19.3603 11.374 19.521C11.412 19.681 11.461 19.8407 11.521 20H4ZM5 18.007V19V5V11.306V11.231V18.007ZM7.5 16.269H11.46C11.4967 16.099 11.5467 15.9337 11.61 15.773L11.81 15.269H7.5V16.269ZM7.5 12.5H14.08C14.4087 12.2693 14.7323 12.074 15.051 11.914C15.3697 11.7533 15.7117 11.6273 16.077 11.536V11.5H7.5V12.5ZM7.5 8.73H16.5V7.73H7.5V8.73ZM18 22.117C16.886 22.117 15.941 21.7287 15.165 20.952C14.3883 20.1753 14 19.23 14 18.116C14 17.002 14.3883 16.0567 15.165 15.28C15.9417 14.5033 16.8867 14.1153 18 14.116C19.1133 14.1167 20.0587 14.5047 20.836 15.28C21.6133 16.0553 22.0013 17.0007 22 18.116C22 19.2293 21.612 20.1743 20.836 20.951C20.0587 21.7277 19.1133 22.116 18 22.116M17.616 21H18.385V18.5H20.885V17.73H18.385V15.23H17.615V17.73H15.115V18.5H17.615L17.616 21Z" fill="#667085"/>
</svg>
