<svg width="16" height="16" viewBox="0 0 16 16" fill="none" xmlns="http://www.w3.org/2000/svg">
<path fill-rule="evenodd" clip-rule="evenodd" d="M3.83203 3.33268C3.83203 3.26135 3.8987 3.16602 4.0287 3.16602H10.302C10.4314 3.16602 10.4987 3.26135 10.4987 3.33268V12.666C10.4987 12.7373 10.432 12.8327 10.3014 12.8327H4.0287C3.89936 12.8327 3.83203 12.7373 3.83203 12.666V3.33268ZM4.0287 2.16602C3.3887 2.16602 2.83203 2.66735 2.83203 3.33268V12.666C2.83203 13.3313 3.38936 13.8327 4.0287 13.8327H10.302C10.942 13.8327 11.4987 13.3313 11.4987 12.666V3.33268C11.4987 2.66735 10.9414 2.16602 10.3014 2.16602H4.0287ZM13.1654 3.99935C13.1654 3.86674 13.1127 3.73956 13.0189 3.6458C12.9251 3.55203 12.798 3.49935 12.6654 3.49935C12.5328 3.49935 12.4056 3.55203 12.3118 3.6458C12.218 3.73956 12.1654 3.86674 12.1654 3.99935V5.33268C12.1654 5.46529 12.218 5.59247 12.3118 5.68624C12.4056 5.78 12.5328 5.83268 12.6654 5.83268C12.798 5.83268 12.9251 5.78 13.0189 5.68624C13.1127 5.59247 13.1654 5.46529 13.1654 5.33268V3.99935ZM7.16536 6.33268C7.07696 6.33268 6.99217 6.3678 6.92966 6.43031C6.86715 6.49283 6.83203 6.57761 6.83203 6.66602C6.83203 6.75442 6.86715 6.83921 6.92966 6.90172C6.99217 6.96423 7.07696 6.99935 7.16536 6.99935C7.25377 6.99935 7.33855 6.96423 7.40107 6.90172C7.46358 6.83921 7.4987 6.75442 7.4987 6.66602C7.4987 6.57761 7.46358 6.49283 7.40107 6.43031C7.33855 6.3678 7.25377 6.33268 7.16536 6.33268ZM5.83203 6.66602C5.83203 6.31239 5.97251 5.97326 6.22256 5.72321C6.4726 5.47316 6.81174 5.33268 7.16536 5.33268C7.51899 5.33268 7.85812 5.47316 8.10817 5.72321C8.35822 5.97326 8.4987 6.31239 8.4987 6.66602C8.4987 7.01964 8.35822 7.35878 8.10817 7.60882C7.85812 7.85887 7.51899 7.99935 7.16536 7.99935C6.81174 7.99935 6.4726 7.85887 6.22256 7.60882C5.97251 7.35878 5.83203 7.01964 5.83203 6.66602ZM13.1654 7.33268C13.1654 7.20007 13.1127 7.0729 13.0189 6.97913C12.9251 6.88536 12.798 6.83268 12.6654 6.83268C12.5328 6.83268 12.4056 6.88536 12.3118 6.97913C12.218 7.0729 12.1654 7.20007 12.1654 7.33268V8.66602C12.1654 8.79862 12.218 8.9258 12.3118 9.01957C12.4056 9.11334 12.5328 9.16602 12.6654 9.16602C12.798 9.16602 12.9251 9.11334 13.0189 9.01957C13.1127 8.9258 13.1654 8.79862 13.1654 8.66602V7.33268ZM12.6654 10.166C12.798 10.166 12.9251 10.2187 13.0189 10.3125C13.1127 10.4062 13.1654 10.5334 13.1654 10.666V11.9993C13.1654 12.132 13.1127 12.2591 13.0189 12.3529C12.9251 12.4467 12.798 12.4993 12.6654 12.4993C12.5328 12.4993 12.4056 12.4467 12.3118 12.3529C12.218 12.2591 12.1654 12.132 12.1654 11.9993V10.666C12.1654 10.5334 12.218 10.4062 12.3118 10.3125C12.4056 10.2187 12.5328 10.166 12.6654 10.166ZM5.66536 10.166C5.66536 9.87735 5.70936 9.71268 5.75603 9.61935C5.79082 9.54329 5.85292 9.48308 5.93003 9.45068C6.0267 9.40468 6.17003 9.37068 6.38936 9.35135C6.64766 9.33437 6.90655 9.32814 7.16536 9.33268C7.47136 9.33268 7.72336 9.33268 7.94136 9.35135C8.1607 9.37068 8.30403 9.40468 8.4007 9.45135C8.4827 9.49002 8.53403 9.53802 8.57403 9.61868C8.6207 9.71202 8.66536 9.87735 8.66536 10.166C8.66536 10.2986 8.71804 10.4258 8.81181 10.5196C8.90558 10.6133 9.03276 10.666 9.16536 10.666C9.29797 10.666 9.42515 10.6133 9.51892 10.5196C9.61269 10.4258 9.66536 10.2986 9.66536 10.166C9.66536 9.78802 9.60936 9.45268 9.4687 9.17135C9.33373 8.89638 9.1082 8.67626 8.83003 8.54802C8.5767 8.42735 8.29536 8.37802 8.0267 8.35535C7.76136 8.33268 7.4687 8.33268 7.1787 8.33268H7.15203C6.86203 8.33268 6.56936 8.33268 6.30403 8.35535C6.03536 8.37802 5.75403 8.42668 5.5007 8.54802C5.22253 8.67626 4.997 8.89638 4.86203 9.17135C4.72136 9.45335 4.66536 9.78802 4.66536 10.166C4.66536 10.2986 4.71804 10.4258 4.81181 10.5196C4.90558 10.6133 5.03276 10.666 5.16536 10.666C5.29797 10.666 5.42515 10.6133 5.51892 10.5196C5.61269 10.4258 5.66536 10.2986 5.66536 10.166Z" fill="#667085"/>
</svg>
