<svg width="28" height="29" viewBox="0 0 28 29" fill="none" xmlns="http://www.w3.org/2000/svg">
<path d="M25.6186 24.9984C24.1863 26.7343 22.6677 28.4281 20.3553 28.4561C18.0429 28.4981 17.3009 27.3502 14.6778 27.3502C12.0376 27.3502 11.2265 28.4281 9.0349 28.4981C6.77427 28.5681 5.06586 26.6503 3.6163 24.9564C0.665401 21.4986 -1.59523 15.129 1.44195 10.8453C2.94328 8.71745 5.63533 7.37354 8.55171 7.33155C10.7606 7.30355 12.8659 8.54947 14.2292 8.54947C15.5752 8.54947 18.1292 7.05157 20.804 7.27555C21.9256 7.31755 25.0664 7.63953 27.0854 10.0474C26.9301 10.1314 23.3407 11.8392 23.3752 15.381C23.427 19.6087 27.9482 21.0226 28 21.0366C27.9482 21.1346 27.2752 23.0525 25.6186 24.9984ZM15.765 2.59986C17.0247 1.43794 19.1128 0.555996 20.8385 0.5C21.0628 2.13789 20.2517 3.78978 19.0438 4.9657C17.8531 6.15562 15.8858 7.07956 13.9531 6.95357C13.6942 5.34368 14.6606 3.66379 15.765 2.59986Z" fill="black"/>
</svg>
