<svg width="24" height="24" viewBox="0 0 24 24" fill="none" xmlns="http://www.w3.org/2000/svg">
<path d="M4 20V4H10.316C10.2413 3.47733 10.3707 3.01333 10.704 2.608C11.0373 2.20267 11.4693 2 12 2C12.5307 2 12.9627 2.20267 13.296 2.608C13.6293 3.01333 13.759 3.47733 13.685 4H20V20H4ZM12 4.442C12.2167 4.442 12.396 4.37133 12.538 4.23C12.68 4.08867 12.7507 3.90933 12.75 3.692C12.7493 3.47467 12.6783 3.29567 12.537 3.155C12.3957 3.01433 12.2167 2.94333 12 2.942C11.7833 2.94067 11.6043 3.01167 11.463 3.155C11.3217 3.29833 11.2507 3.47733 11.25 3.692C11.2493 3.90667 11.3203 4.086 11.463 4.23C11.6057 4.374 11.7847 4.44467 12 4.442ZM5 18.235C5.9 17.3517 6.946 16.6557 8.138 16.147C9.33 15.6383 10.6173 15.3843 12 15.385C13.3827 15.3857 14.6703 15.6397 15.863 16.147C17.0557 16.6543 18.1013 17.3503 19 18.235V5H5V18.235ZM12 13.077C12.8387 13.077 13.5483 12.7867 14.129 12.206C14.7097 11.6253 15 10.9157 15 10.077C15 9.23833 14.7097 8.52867 14.129 7.948C13.5483 7.36733 12.8387 7.077 12 7.077C11.1613 7.077 10.4517 7.36733 9.871 7.948C9.29033 8.52867 9 9.23833 9 10.077C9 10.9157 9.29033 11.6253 9.871 12.206C10.4517 12.7867 11.1613 13.077 12 13.077ZM5.885 19H18.115V18.827C17.2357 18.0003 16.278 17.3867 15.242 16.986C14.206 16.5853 13.1253 16.385 12 16.385C10.9 16.385 9.829 16.582 8.787 16.976C7.745 17.37 6.77733 17.9743 5.884 18.789L5.885 19ZM12 12.077C11.4553 12.077 10.9857 11.88 10.591 11.486C10.197 11.0913 10 10.6217 10 10.077C10 9.53233 10.197 9.06267 10.591 8.668C10.9857 8.274 11.4553 8.077 12 8.077C12.5447 8.077 13.0143 8.274 13.409 8.668C13.803 9.06267 14 9.53233 14 10.077C14 10.6217 13.803 11.0913 13.409 11.486C13.015 11.8807 12.5453 12.0777 12 12.077Z" fill="#667085"/>
</svg>
