<svg width="40" height="40" viewBox="0 0 40 40" fill="none" xmlns="http://www.w3.org/2000/svg">
<rect width="40" height="40" rx="20" fill="#D1E9FF"/>
<path d="M26.0001 17.5H12.3334C12.1566 17.5 11.987 17.5702 11.862 17.6953C11.737 17.8203 11.6667 17.9899 11.6667 18.1667V25.1667C11.6667 25.3435 11.737 25.513 11.862 25.6381C11.987 25.7631 12.1566 25.8333 12.3334 25.8333H26.0001C26.1769 25.8333 26.3465 25.7631 26.4715 25.6381C26.5965 25.513 26.6667 25.3435 26.6667 25.1667V18.1667C26.6667 17.9899 26.5965 17.8203 26.4715 17.6953C26.3465 17.5702 26.1769 17.5 26.0001 17.5Z" fill="#175CD3" fill-opacity="0.16"/>
<path d="M14.1667 17.5V15.6667C14.1667 15.3 14.4667 15 14.8334 15H28.5001C28.8667 15 29.1667 15.3 29.1667 15.6667V22.6667C29.1667 23.0333 28.8667 23.3333 28.5001 23.3333H26.6667M12.3334 17.5H26.0001C26.1769 17.5 26.3465 17.5702 26.4715 17.6953C26.5965 17.8203 26.6667 17.9899 26.6667 18.1667V25.1667C26.6667 25.3435 26.5965 25.513 26.4715 25.6381C26.3465 25.7631 26.1769 25.8333 26.0001 25.8333H12.3334C12.1566 25.8333 11.987 25.7631 11.862 25.6381C11.737 25.513 11.6667 25.3435 11.6667 25.1667V18.1667C11.6667 17.9899 11.737 17.8203 11.862 17.6953C11.987 17.5702 12.1566 17.5 12.3334 17.5ZM20.0001 21.6667C20.0001 21.8877 19.9123 22.0996 19.756 22.2559C19.5997 22.4122 19.3878 22.5 19.1667 22.5C18.9457 22.5 18.7338 22.4122 18.5775 22.2559C18.4212 22.0996 18.3334 21.8877 18.3334 21.6667C18.3334 21.4457 18.4212 21.2337 18.5775 21.0774C18.7338 20.9211 18.9457 20.8333 19.1667 20.8333C19.3878 20.8333 19.5997 20.9211 19.756 21.0774C19.9123 21.2337 20.0001 21.4457 20.0001 21.6667Z" stroke="#175CD3" stroke-width="1.5" stroke-miterlimit="10" stroke-linejoin="round"/>
</svg>
