<svg width="11" height="10" viewBox="0 0 11 10" fill="none" xmlns="http://www.w3.org/2000/svg">
<g clip-path="url(#clip0_395_4504)">
<path d="M9.5625 6.71458V4.63458C9.5625 2.84708 9.5625 1.95417 9.01333 1.39875C8.46417 0.84375 7.58 0.84375 5.8125 0.84375C4.045 0.84375 3.16083 0.84375 2.61167 1.39875C2.0625 1.95375 2.0625 2.84792 2.0625 4.63458V6.715C2.0625 8.005 2.0625 8.65042 2.36833 8.93208C2.51417 9.06667 2.69833 9.15125 2.89458 9.17375C3.30583 9.22083 3.78625 8.79583 4.74667 7.94625C5.17167 7.57083 5.38375 7.38292 5.62917 7.33375C5.75 7.30875 5.875 7.30875 5.99583 7.33375C6.24167 7.38292 6.45375 7.57083 6.87833 7.94625C7.83875 8.79583 8.31917 9.22083 8.73042 9.17333C8.92625 9.15125 9.11083 9.06667 9.25667 8.93208C9.5625 8.65042 9.5625 8.005 9.5625 6.71458Z" stroke="#667085"/>
<path opacity="0.5" d="M7.0625 2.50977H4.5625" stroke="#667085" stroke-linecap="round"/>
</g>
<defs>
<clipPath id="clip0_395_4504">
<rect width="10" height="10" fill="white" transform="translate(0.8125 0.00976562)"/>
</clipPath>
</defs>
</svg>
