<svg width="16" height="16" viewBox="0 0 16 16" fill="none" xmlns="http://www.w3.org/2000/svg">
<path d="M2.66406 8.60536C3.6894 9.82536 5.2954 9.5807 5.9974 7.33203C6.77206 9.81336 9.10873 10.178 9.9974 7.33203C10.6201 9.3267 12.2527 9.95403 13.3307 8.64336" stroke="#667085" stroke-width="1.5" stroke-linecap="round" stroke-linejoin="round"/>
<path d="M13.332 13.9993V8.66602C13.332 7.93935 12.7254 7.33268 11.9987 7.33268H3.9987C3.27203 7.33268 2.66536 7.93935 2.66536 8.66602V13.9993M1.33203 13.9993H14.6654M4.66536 4.66602V7.33268M7.9987 4.66602V7.33268M11.332 4.66602V7.33268M4.66536 2.66602V2.99935M7.9987 2.66602V2.99935M11.332 2.66602V2.99935" stroke="#667085" stroke-width="1.5" stroke-linecap="round" stroke-linejoin="round"/>
</svg>
