<svg width="25" height="24" viewBox="0 0 25 24" fill="none" xmlns="http://www.w3.org/2000/svg">
<path fill-rule="evenodd" clip-rule="evenodd" d="M9.94458 3C9.94458 2.44772 9.49686 2 8.94458 2C8.3923 2 7.94458 2.44772 7.94458 3H6.94458C5.28773 3 3.94458 4.34315 3.94458 6V19C3.94458 20.6569 5.28773 22 6.94458 22H18.9446C20.6014 22 21.9446 20.6569 21.9446 19V6C21.9446 4.34315 20.6014 3 18.9446 3H17.9446C17.9446 2.44772 17.4969 2 16.9446 2C16.3923 2 15.9446 2.44772 15.9446 3H9.94458ZM19.9446 7V6C19.9446 5.44772 19.4969 5 18.9446 5H17.9446C17.9446 5.55228 17.4969 6 16.9446 6C16.3923 6 15.9446 5.55228 15.9446 5H9.94458C9.94458 5.55228 9.49686 6 8.94458 6C8.3923 6 7.94458 5.55228 7.94458 5H6.94458C6.3923 5 5.94458 5.44772 5.94458 6V7H19.9446ZM5.94458 9V19C5.94458 19.5523 6.3923 20 6.94458 20H18.9446C19.4969 20 19.9446 19.5523 19.9446 19V9H5.94458Z" fill="#667085"/>
</svg>
