<svg width="14" height="14" viewBox="0 0 14 14" fill="none" xmlns="http://www.w3.org/2000/svg">
<path d="M13.0937 10.6871C12.5974 10.1871 11.3956 9.45745 10.8124 9.16338C10.0531 8.78088 9.99056 8.74963 9.39369 9.19307C8.99556 9.48901 8.73087 9.75338 8.26494 9.65401C7.799 9.55463 6.7865 8.99432 5.89993 8.11057C5.01337 7.22682 4.42056 6.18495 4.32087 5.72057C4.22118 5.2562 4.48993 4.99463 4.78306 4.59557C5.19618 4.03307 5.16493 3.93932 4.81181 3.17995C4.5365 2.58932 3.78556 1.3987 3.28368 0.904947C2.74681 0.374635 2.74681 0.468384 2.40087 0.612134C2.11923 0.730607 1.84903 0.874647 1.59368 1.04245C1.09368 1.37463 0.816185 1.65057 0.622122 2.06526C0.42806 2.47995 0.340872 3.45213 1.34306 5.27276C2.34525 7.09338 3.04837 8.02432 4.50368 9.47557C5.959 10.9268 7.07806 11.7071 8.714 12.6246C10.7377 13.7581 11.514 13.5371 11.9299 13.3434C12.3459 13.1496 12.6231 12.8746 12.9559 12.3746C13.1241 12.1197 13.2685 11.8498 13.3871 11.5684C13.5312 11.2237 13.6249 11.2237 13.0937 10.6871Z" stroke="white" stroke-miterlimit="10"/>
</svg>
