<svg width="15" height="13" viewBox="0 0 15 13" fill="none" xmlns="http://www.w3.org/2000/svg">
<path fill-rule="evenodd" clip-rule="evenodd" d="M4.29008 2.70309L4.44999 2.31471C4.75856 1.56529 5.4889 1.07617 6.29937 1.07617L8.91059 1.07617C9.72106 1.07617 10.4514 1.56529 10.76 2.31472L10.9199 2.70309H11.5C13.1569 2.70309 14.5 4.04623 14.5 5.70309L14.5 8.99967C14.5 10.6565 13.1569 11.9997 11.5 11.9997L3.5 11.9997C1.84315 11.9997 0.5 10.6565 0.5 8.99967L0.5 5.70309C0.5 4.04624 1.84315 2.70309 3.5 2.70309L4.29008 2.70309Z" fill="#BBBBBB" fill-opacity="0.25"/>
<path d="M4.29008 2.70309V3.20309H4.62494L4.75243 2.89345L4.29008 2.70309ZM4.44999 2.31471L4.91234 2.50508L4.44999 2.31471ZM10.76 2.31472L11.2223 2.12435V2.12435L10.76 2.31472ZM10.9199 2.70309L10.4575 2.89345L10.585 3.20309H10.9199V2.70309ZM4.29008 2.70309L4.75243 2.89345L4.91234 2.50508L4.44999 2.31471L3.98765 2.12435L3.82774 2.51272L4.29008 2.70309ZM4.44999 2.31471L4.91234 2.50508C5.14376 1.94301 5.69152 1.57617 6.29937 1.57617V1.07617V0.576172C5.28628 0.576172 4.37336 1.18757 3.98765 2.12435L4.44999 2.31471ZM6.29937 1.07617V1.57617L8.91059 1.57617V1.07617V0.576172L6.29937 0.576172V1.07617ZM8.91059 1.07617V1.57617C9.51844 1.57617 10.0662 1.94301 10.2976 2.50508L10.76 2.31472L11.2223 2.12435C10.8366 1.18757 9.92367 0.576172 8.91059 0.576172V1.07617ZM10.76 2.31472L10.2976 2.50508L10.4575 2.89345L10.9199 2.70309L11.3822 2.51272L11.2223 2.12435L10.76 2.31472ZM10.9199 2.70309V3.20309H11.5V2.70309V2.20309H10.9199V2.70309ZM11.5 2.70309V3.20309C12.8807 3.20309 14 4.32238 14 5.70309L14.5 5.70309H15C15 3.77009 13.433 2.20309 11.5 2.20309V2.70309ZM14.5 5.70309L14 5.70309L14 8.99967L14.5 8.99967H15L15 5.70309H14.5ZM14.5 8.99967L14 8.99967C14 10.3804 12.8807 11.4997 11.5 11.4997V11.9997V12.4997C13.433 12.4997 15 10.9327 15 8.99967H14.5ZM11.5 11.9997V11.4997L3.5 11.4997V11.9997V12.4997L11.5 12.4997V11.9997ZM3.5 11.9997V11.4997C2.11929 11.4997 1 10.3804 1 8.99967H0.5H0C0 10.9327 1.567 12.4997 3.5 12.4997V11.9997ZM0.5 8.99967H1L1 5.70309H0.5H0L0 8.99967H0.5ZM0.5 5.70309H1C1 4.32238 2.11929 3.20309 3.5 3.20309V2.70309L3.5 2.20309C1.567 2.20309 0 3.77009 0 5.70309H0.5ZM3.5 2.70309V3.20309H4.29008V2.70309V2.20309L3.5 2.20309L3.5 2.70309Z" fill="white"/>
<path d="M6.06653 4.63463C6.96177 4.15412 8.03823 4.15412 8.93347 4.63463L9.09762 4.72274C9.98032 5.19652 10.5311 6.11722 10.5311 7.11904V7.11904C10.5311 8.12085 9.98033 9.04155 9.09762 9.51534L8.93347 9.60344C8.03823 10.084 6.96177 10.084 6.06653 9.60344L5.90238 9.51534C5.01968 9.04155 4.46891 8.12085 4.46891 7.11904V7.11904C4.46891 6.11722 5.01967 5.19652 5.90238 4.72274L6.06653 4.63463Z" stroke="white" stroke-linecap="round" stroke-linejoin="round"/>
</svg>
