<svg width="40" height="40" viewBox="0 0 40 40" fill="none" xmlns="http://www.w3.org/2000/svg">
<path d="M14.9998 27.0001L9.16644 21.1668C9.0139 21.0124 8.83223 20.8898 8.63196 20.8061C8.43169 20.7224 8.21681 20.6794 7.99977 20.6794C7.78273 20.6794 7.56784 20.7224 7.36758 20.8061C7.16731 20.8898 6.98564 21.0124 6.8331 21.1668C6.6787 21.3193 6.55612 21.501 6.47245 21.7012C6.38878 21.9015 6.3457 22.1164 6.3457 22.3334C6.3457 22.5505 6.38878 22.7654 6.47245 22.9656C6.55612 23.1659 6.6787 23.3476 6.8331 23.5001L13.8164 30.4834C14.4664 31.1334 15.5164 31.1334 16.1664 30.4834L33.8331 12.8334C33.9875 12.6809 34.1101 12.4992 34.1938 12.299C34.2774 12.0987 34.3205 11.8838 34.3205 11.6668C34.3205 11.4497 34.2774 11.2348 34.1938 11.0346C34.1101 10.8343 33.9875 10.6526 33.8331 10.5001C33.6806 10.3457 33.4989 10.2231 33.2986 10.1394C33.0984 10.0558 32.8835 10.0127 32.6664 10.0127C32.4494 10.0127 32.2345 10.0558 32.0342 10.1394C31.834 10.2231 31.6523 10.3457 31.4998 10.5001L14.9998 27.0001Z" fill="#2C2A72"/>
</svg>
