<svg width="19" height="19" viewBox="0 0 19 19" fill="none" xmlns="http://www.w3.org/2000/svg">
<path d="M10.3408 1.25293L11.2695 1.41113L12.1748 1.67188L13.0449 2.03223L13.8691 2.4873L14.6377 3.0332L15.3398 3.66016L15.9678 4.36328L16.5127 5.13086L16.9678 5.95605L17.3291 6.82617L17.5898 7.73145L17.7471 8.66016L17.7998 9.60059L17.7471 10.541L17.5898 11.4697L17.3291 12.375L16.9678 13.2451L16.5127 14.0693L15.9678 14.8379L15.3398 15.54L14.6377 16.168L13.8691 16.7129L13.0449 17.168L12.1748 17.5293L11.2695 17.79L10.3408 17.9473L9.40039 18L8.45996 17.9473L7.53125 17.79L6.62598 17.5293L5.75586 17.168L4.93066 16.7129L4.16309 16.168L3.45996 15.54L2.83301 14.8379L2.28711 14.0693L1.83203 13.2451L1.47168 12.375L1.21094 11.4697L1.05273 10.541L1 9.60059L1.05273 8.66016L1.21094 7.73145L1.47168 6.82617L1.83203 5.95605L2.28711 5.13086L2.83301 4.36328L3.45996 3.66016L4.16309 3.0332L4.93066 2.4873L5.75586 2.03223L6.62598 1.67188L7.53125 1.41113L8.45996 1.25293L9.40039 1.2002L10.3408 1.25293Z" fill="#2C2A72"/>
<path d="M10.3408 1.25293L10.5087 0.26713C10.4717 0.26082 10.4343 0.256602 10.3968 0.254498L10.3408 1.25293ZM11.2695 1.41113L11.5463 0.450198C11.5105 0.439889 11.4742 0.431588 11.4375 0.425334L11.2695 1.41113ZM12.1748 1.67188L12.5574 0.747972C12.5229 0.733658 12.4875 0.721294 12.4516 0.71094L12.1748 1.67188ZM13.0449 2.03223L13.5283 1.1568C13.4956 1.13878 13.462 1.12259 13.4275 1.10832L13.0449 2.03223ZM13.8691 2.4873L14.4482 1.67203C14.4175 1.65019 14.3855 1.63011 14.3525 1.61188L13.8691 2.4873ZM14.6377 3.0332L15.3037 2.28728C15.2761 2.26257 15.247 2.23942 15.2168 2.21793L14.6377 3.0332ZM15.3398 3.66016L16.0857 2.99406C16.0606 2.96597 16.034 2.93932 16.0059 2.91424L15.3398 3.66016ZM15.9678 4.36328L16.7832 3.7844C16.7616 3.75406 16.7384 3.72494 16.7136 3.69718L15.9678 4.36328ZM16.5127 5.13086L17.3884 4.64795C17.3701 4.61484 17.35 4.5828 17.3281 4.55198L16.5127 5.13086ZM16.9678 5.95605L17.8913 5.57254C17.8772 5.53855 17.8612 5.50537 17.8434 5.47314L16.9678 5.95605ZM17.3291 6.82617L18.29 6.5494C18.2796 6.51314 18.2671 6.47751 18.2526 6.44266L17.3291 6.82617ZM17.5898 7.73145L18.5758 7.56453C18.5695 7.52747 18.5612 7.49079 18.5508 7.45467L17.5898 7.73145ZM17.7471 8.66016L18.7455 8.60417C18.7434 8.56699 18.7393 8.52995 18.733 8.49324L17.7471 8.66016ZM17.7998 9.60059L18.7982 9.65657C18.8003 9.61928 18.8003 9.58189 18.7982 9.5446L17.7998 9.60059ZM17.7471 10.541L18.733 10.7079C18.7393 10.6712 18.7434 10.6342 18.7455 10.597L17.7471 10.541ZM17.5898 11.4697L18.5508 11.7465C18.5612 11.7104 18.5695 11.6737 18.5758 11.6366L17.5898 11.4697ZM17.3291 12.375L18.2526 12.7585C18.2671 12.7237 18.2796 12.688 18.29 12.6518L17.3291 12.375ZM16.9678 13.2451L17.8432 13.7285C17.8611 13.6961 17.8771 13.6628 17.8913 13.6286L16.9678 13.2451ZM16.5127 14.0693L17.3285 14.6477C17.3501 14.6172 17.37 14.5855 17.3881 14.5527L16.5127 14.0693ZM15.9678 14.8379L16.7132 15.5045C16.7383 15.4764 16.7618 15.447 16.7835 15.4163L15.9678 14.8379ZM15.3398 15.54L16.0065 16.2854C16.0342 16.2607 16.0605 16.2344 16.0852 16.2067L15.3398 15.54ZM14.6377 16.168L15.2161 16.9837C15.2468 16.962 15.2762 16.9385 15.3043 16.9134L14.6377 16.168ZM13.8691 16.7129L14.3525 17.5883C14.3853 17.5702 14.417 17.5503 14.4475 17.5287L13.8691 16.7129ZM13.0449 17.168L13.4284 18.0915C13.4626 18.0773 13.4959 18.0613 13.5283 18.0434L13.0449 17.168ZM12.1748 17.5293L12.4516 18.4902C12.4878 18.4798 12.5235 18.4673 12.5583 18.4528L12.1748 17.5293ZM11.2695 17.79L11.4365 18.776C11.4735 18.7697 11.5102 18.7614 11.5463 18.751L11.2695 17.79ZM10.3408 17.9473L10.3968 18.9457C10.434 18.9436 10.471 18.9395 10.5077 18.9332L10.3408 17.9473ZM9.40039 18L9.3444 18.9984C9.3817 19.0005 9.41908 19.0005 9.45638 18.9984L9.40039 18ZM8.45996 17.9473L8.29304 18.9332C8.32976 18.9395 8.36679 18.9436 8.40397 18.9457L8.45996 17.9473ZM7.53125 17.79L7.25448 18.751C7.29059 18.7614 7.32727 18.7697 7.36433 18.776L7.53125 17.79ZM6.62598 17.5293L6.24247 18.4528C6.27731 18.4673 6.31295 18.4798 6.3492 18.4902L6.62598 17.5293ZM5.75586 17.168L5.27295 18.0436C5.30517 18.0614 5.33836 18.0774 5.37235 18.0915L5.75586 17.168ZM4.93066 16.7129L4.35178 17.5283C4.38261 17.5502 4.41465 17.5703 4.44775 17.5886L4.93066 16.7129ZM4.16309 16.168L3.49699 16.9138C3.52474 16.9386 3.55386 16.9618 3.58421 16.9834L4.16309 16.168ZM3.45996 15.54L2.71404 16.2061C2.73912 16.2342 2.76577 16.2608 2.79386 16.2859L3.45996 15.54ZM2.83301 14.8379L2.01774 15.417C2.03922 15.4472 2.06238 15.4763 2.08709 15.5039L2.83301 14.8379ZM2.28711 14.0693L1.41168 14.5527C1.42991 14.5857 1.45 14.6177 1.47184 14.6484L2.28711 14.0693ZM1.83203 13.2451L0.908128 13.6277C0.922396 13.6622 0.938581 13.6958 0.956605 13.7285L1.83203 13.2451ZM1.47168 12.375L0.510745 12.6518C0.521099 12.6877 0.533462 12.7231 0.547777 12.7576L1.47168 12.375ZM1.21094 11.4697L0.225138 11.6377C0.231393 11.6744 0.239694 11.7107 0.250003 11.7465L1.21094 11.4697ZM1.05273 10.541L0.0543029 10.597C0.0564069 10.6345 0.0606243 10.6719 0.0669351 10.7089L1.05273 10.541ZM1 9.60059L0.0015685 9.5446C-0.000522852 9.58189 -0.000522852 9.61928 0.0015685 9.65657L1 9.60059ZM1.05273 8.66016L0.0669351 8.49223C0.0606243 8.52927 0.0564069 8.56665 0.0543029 8.60417L1.05273 8.66016ZM1.21094 7.73145L0.250003 7.45467C0.239694 7.49046 0.231393 7.5268 0.225138 7.56352L1.21094 7.73145ZM1.47168 6.82617L0.547777 6.44355C0.533462 6.47811 0.521099 6.51345 0.510745 6.5494L1.47168 6.82617ZM1.83203 5.95605L0.956363 5.47314C0.938436 5.50565 0.922332 5.53913 0.908128 5.57343L1.83203 5.95605ZM2.28711 5.13086L1.47219 4.55129C1.45011 4.58233 1.42983 4.6146 1.41144 4.64795L2.28711 5.13086ZM2.83301 4.36328L2.08663 3.69776C2.06222 3.72513 2.03934 3.75383 2.01809 3.78371L2.83301 4.36328ZM3.45996 3.66016L2.79444 2.91378C2.76597 2.93917 2.73897 2.96616 2.71358 2.99463L3.45996 3.66016ZM4.16309 3.0332L3.58352 2.21828C3.55363 2.23953 3.52494 2.26242 3.49756 2.28682L4.16309 3.0332ZM4.93066 2.4873L4.44775 1.61164C4.4144 1.63003 4.38213 1.65031 4.35109 1.67238L4.93066 2.4873ZM5.75586 2.03223L5.37323 1.10832C5.33893 1.12253 5.30545 1.13863 5.27295 1.15656L5.75586 2.03223ZM6.62598 1.67188L6.3492 0.71094C6.31325 0.721294 6.27791 0.733658 6.24335 0.747972L6.62598 1.67188ZM7.53125 1.41113L7.36332 0.425334C7.32661 0.431588 7.29027 0.439889 7.25448 0.450198L7.53125 1.41113ZM8.45996 1.25293L8.40397 0.254498C8.36645 0.256602 8.32908 0.26082 8.29203 0.26713L8.45996 1.25293ZM9.40039 1.2002L9.45638 0.201764C9.41908 0.199672 9.3817 0.199672 9.3444 0.201764L9.40039 1.2002ZM10.3408 1.25293L10.1729 2.23873L11.1016 2.39693L11.2695 1.41113L11.4375 0.425334L10.5087 0.26713L10.3408 1.25293ZM11.2695 1.41113L10.9928 2.37207L11.898 2.63281L12.1748 1.67188L12.4516 0.71094L11.5463 0.450198L11.2695 1.41113ZM12.1748 1.67188L11.7922 2.59578L12.6623 2.95613L13.0449 2.03223L13.4275 1.10832L12.5574 0.747972L12.1748 1.67188ZM13.0449 2.03223L12.5616 2.90765L13.3858 3.36273L13.8691 2.4873L14.3525 1.61188L13.5283 1.1568L13.0449 2.03223ZM13.8691 2.4873L13.2901 3.30258L14.0586 3.84847L14.6377 3.0332L15.2168 2.21793L14.4482 1.67203L13.8691 2.4873ZM14.6377 3.0332L13.9717 3.77912L14.6738 4.40608L15.3398 3.66016L16.0059 2.91424L15.3037 2.28728L14.6377 3.0332ZM15.3398 3.66016L14.594 4.32625L15.2219 5.02938L15.9678 4.36328L16.7136 3.69718L16.0857 2.99406L15.3398 3.66016ZM15.9678 4.36328L15.1524 4.94216L15.6973 5.70974L16.5127 5.13086L17.3281 4.55198L16.7832 3.7844L15.9678 4.36328ZM16.5127 5.13086L15.637 5.61377L16.0921 6.43897L16.9678 5.95605L17.8434 5.47314L17.3884 4.64795L16.5127 5.13086ZM16.9678 5.95605L16.0442 6.33957L16.4056 7.20968L17.3291 6.82617L18.2526 6.44266L17.8913 5.57254L16.9678 5.95605ZM17.3291 6.82617L16.3682 7.10295L16.6289 8.00822L17.5898 7.73145L18.5508 7.45467L18.29 6.5494L17.3291 6.82617ZM17.5898 7.73145L16.6039 7.89837L16.7611 8.82708L17.7471 8.66016L18.733 8.49324L18.5758 7.56453L17.5898 7.73145ZM17.7471 8.66016L16.7486 8.71614L16.8014 9.65657L17.7998 9.60059L18.7982 9.5446L18.7455 8.60417L17.7471 8.66016ZM17.7998 9.60059L16.8014 9.5446L16.7486 10.485L17.7471 10.541L18.7455 10.597L18.7982 9.65657L17.7998 9.60059ZM17.7471 10.541L16.7611 10.3741L16.6039 11.3028L17.5898 11.4697L18.5758 11.6366L18.733 10.7079L17.7471 10.541ZM17.5898 11.4697L16.6289 11.193L16.3682 12.0982L17.3291 12.375L18.29 12.6518L18.5508 11.7465L17.5898 11.4697ZM17.3291 12.375L16.4056 11.9915L16.0442 12.8616L16.9678 13.2451L17.8913 13.6286L18.2526 12.7585L17.3291 12.375ZM16.9678 13.2451L16.0923 12.7618L15.6373 13.586L16.5127 14.0693L17.3881 14.5527L17.8432 13.7285L16.9678 13.2451ZM16.5127 14.0693L15.6969 13.4909L15.152 14.2595L15.9678 14.8379L16.7835 15.4163L17.3285 14.6477L16.5127 14.0693ZM15.9678 14.8379L15.2224 14.1713L14.5944 14.8734L15.3398 15.54L16.0852 16.2067L16.7132 15.5045L15.9678 14.8379ZM15.3398 15.54L14.6732 14.7946L13.9711 15.4226L14.6377 16.168L15.3043 16.9134L16.0065 16.2854L15.3398 15.54ZM14.6377 16.168L14.0593 15.3522L13.2907 15.8971L13.8691 16.7129L14.4475 17.5287L15.2161 16.9837L14.6377 16.168ZM13.8691 16.7129L13.3858 15.8375L12.5616 16.2925L13.0449 17.168L13.5283 18.0434L14.3525 17.5883L13.8691 16.7129ZM13.0449 17.168L12.6614 16.2444L11.7913 16.6058L12.1748 17.5293L12.5583 18.4528L13.4284 18.0915L13.0449 17.168ZM12.1748 17.5293L11.898 16.5684L10.9928 16.8291L11.2695 17.79L11.5463 18.751L12.4516 18.4902L12.1748 17.5293ZM11.2695 17.79L11.1026 16.8041L10.1739 16.9613L10.3408 17.9473L10.5077 18.9332L11.4365 18.776L11.2695 17.79ZM10.3408 17.9473L10.2848 16.9488L9.3444 17.0016L9.40039 18L9.45638 18.9984L10.3968 18.9457L10.3408 17.9473ZM9.40039 18L9.45638 17.0016L8.51595 16.9488L8.45996 17.9473L8.40397 18.9457L9.3444 18.9984L9.40039 18ZM8.45996 17.9473L8.62688 16.9613L7.69817 16.8041L7.53125 17.79L7.36433 18.776L8.29304 18.9332L8.45996 17.9473ZM7.53125 17.79L7.80802 16.8291L6.90275 16.5684L6.62598 17.5293L6.3492 18.4902L7.25448 18.751L7.53125 17.79ZM6.62598 17.5293L7.00949 16.6058L6.13937 16.2444L5.75586 17.168L5.37235 18.0915L6.24247 18.4528L6.62598 17.5293ZM5.75586 17.168L6.23877 16.2923L5.41358 15.8372L4.93066 16.7129L4.44775 17.5886L5.27295 18.0436L5.75586 17.168ZM4.93066 16.7129L5.50954 15.8975L4.74197 15.3526L4.16309 16.168L3.58421 16.9834L4.35178 17.5283L4.93066 16.7129ZM4.16309 16.168L4.82918 15.4221L4.12606 14.7942L3.45996 15.54L2.79386 16.2859L3.49699 16.9138L4.16309 16.168ZM3.45996 15.54L4.20588 14.874L3.57893 14.1719L2.83301 14.8379L2.08709 15.5039L2.71404 16.2061L3.45996 15.54ZM2.83301 14.8379L3.64828 14.2588L3.10238 13.4903L2.28711 14.0693L1.47184 14.6484L2.01774 15.417L2.83301 14.8379ZM2.28711 14.0693L3.16254 13.586L2.70746 12.7618L1.83203 13.2451L0.956605 13.7285L1.41168 14.5527L2.28711 14.0693ZM1.83203 13.2451L2.75593 12.8625L2.39558 11.9924L1.47168 12.375L0.547777 12.7576L0.908128 13.6277L1.83203 13.2451ZM1.47168 12.375L2.43261 12.0982L2.17187 11.193L1.21094 11.4697L0.250003 11.7465L0.510745 12.6518L1.47168 12.375ZM1.21094 11.4697L2.19674 11.3018L2.03853 10.3731L1.05273 10.541L0.0669351 10.7089L0.225138 11.6377L1.21094 11.4697ZM1.05273 10.541L2.05117 10.485L1.99843 9.5446L1 9.60059L0.0015685 9.65657L0.0543029 10.597L1.05273 10.541ZM1 9.60059L1.99843 9.65657L2.05117 8.71614L1.05273 8.66016L0.0543029 8.60417L0.0015685 9.5446L1 9.60059ZM1.05273 8.66016L2.03853 8.82808L2.19674 7.89937L1.21094 7.73145L0.225138 7.56352L0.0669351 8.49223L1.05273 8.66016ZM1.21094 7.73145L2.17187 8.00822L2.43261 7.10295L1.47168 6.82617L0.510745 6.5494L0.250003 7.45467L1.21094 7.73145ZM1.47168 6.82617L2.39558 7.2088L2.75593 6.33868L1.83203 5.95605L0.908128 5.57343L0.547777 6.44355L1.47168 6.82617ZM1.83203 5.95605L2.7077 6.43897L3.16278 5.61377L2.28711 5.13086L1.41144 4.64795L0.956363 5.47314L1.83203 5.95605ZM2.28711 5.13086L3.10203 5.71043L3.64793 4.94285L2.83301 4.36328L2.01809 3.78371L1.47219 4.55129L2.28711 5.13086ZM2.83301 4.36328L3.57939 5.0288L4.20634 4.32568L3.45996 3.66016L2.71358 2.99463L2.08663 3.69776L2.83301 4.36328ZM3.45996 3.66016L4.12548 4.40654L4.82861 3.77958L4.16309 3.0332L3.49756 2.28682L2.79444 2.91378L3.45996 3.66016ZM4.16309 3.0332L4.74266 3.84813L5.51023 3.30223L4.93066 2.4873L4.35109 1.67238L3.58352 2.21828L4.16309 3.0332ZM4.93066 2.4873L5.41358 3.36297L6.23877 2.90789L5.75586 2.03223L5.27295 1.15656L4.44775 1.61164L4.93066 2.4873ZM5.75586 2.03223L6.13849 2.95613L7.0086 2.59578L6.62598 1.67188L6.24335 0.747972L5.37323 1.10832L5.75586 2.03223ZM6.62598 1.67188L6.90275 2.63281L7.80802 2.37207L7.53125 1.41113L7.25448 0.450198L6.3492 0.71094L6.62598 1.67188ZM7.53125 1.41113L7.69918 2.39693L8.62789 2.23873L8.45996 1.25293L8.29203 0.26713L7.36332 0.425334L7.53125 1.41113ZM8.45996 1.25293L8.51595 2.25136L9.45638 2.19863L9.40039 1.2002L9.3444 0.201764L8.40397 0.254498L8.45996 1.25293ZM9.40039 1.2002L9.3444 2.19863L10.2848 2.25136L10.3408 1.25293L10.3968 0.254498L9.45638 0.201764L9.40039 1.2002Z" fill="#2C2A72"/>
<path d="M4.96731 9.65414L7.21739 11.9256C7.60607 12.3179 8.23624 12.3179 8.62492 11.9256L13.8288 6.67228" stroke="white" stroke-width="1.4" stroke-linecap="round" stroke-linejoin="round"/>
</svg>
