<svg width="19" height="19" viewBox="0 0 19 19" fill="none" xmlns="http://www.w3.org/2000/svg">
<path d="M10.3408 1.05273L11.2695 1.21094L12.1748 1.47168L13.0449 1.83203L13.8691 2.28711L14.6377 2.83301L15.3398 3.45996L15.9678 4.16309L16.5127 4.93066L16.9678 5.75586L17.3291 6.62598L17.5898 7.53125L17.7471 8.45996L17.7998 9.40039L17.7471 10.3408L17.5898 11.2695L17.3291 12.1748L16.9678 13.0449L16.5127 13.8691L15.9678 14.6377L15.3398 15.3398L14.6377 15.9678L13.8691 16.5127L13.0449 16.9678L12.1748 17.3291L11.2695 17.5898L10.3408 17.7471L9.40039 17.7998L8.45996 17.7471L7.53125 17.5898L6.62598 17.3291L5.75586 16.9678L4.93066 16.5127L4.16309 15.9678L3.45996 15.3398L2.83301 14.6377L2.28711 13.8691L1.83203 13.0449L1.47168 12.1748L1.21094 11.2695L1.05273 10.3408L1 9.40039L1.05273 8.45996L1.21094 7.53125L1.47168 6.62598L1.83203 5.75586L2.28711 4.93066L2.83301 4.16309L3.45996 3.45996L4.16309 2.83301L4.93066 2.28711L5.75586 1.83203L6.62598 1.47168L7.53125 1.21094L8.45996 1.05273L9.40039 1L10.3408 1.05273Z" fill="#F90B0B"/>
<path d="M10.3408 1.05273L10.5087 0.0669351C10.4717 0.0606243 10.4343 0.0564069 10.3968 0.0543029L10.3408 1.05273ZM11.2695 1.21094L11.5463 0.250003C11.5105 0.239694 11.4742 0.231393 11.4375 0.225138L11.2695 1.21094ZM12.1748 1.47168L12.5574 0.547777C12.5229 0.533462 12.4875 0.521099 12.4516 0.510745L12.1748 1.47168ZM13.0449 1.83203L13.5283 0.956605C13.4956 0.938581 13.462 0.922396 13.4275 0.908128L13.0449 1.83203ZM13.8691 2.28711L14.4482 1.47184C14.4175 1.45 14.3855 1.42991 14.3525 1.41168L13.8691 2.28711ZM14.6377 2.83301L15.3037 2.08709C15.2761 2.06238 15.247 2.03922 15.2168 2.01774L14.6377 2.83301ZM15.3398 3.45996L16.0857 2.79386C16.0606 2.76577 16.034 2.73912 16.0059 2.71404L15.3398 3.45996ZM15.9678 4.16309L16.7832 3.58421C16.7616 3.55386 16.7384 3.52474 16.7136 3.49699L15.9678 4.16309ZM16.5127 4.93066L17.3884 4.44775C17.3701 4.41465 17.35 4.38261 17.3281 4.35178L16.5127 4.93066ZM16.9678 5.75586L17.8913 5.37235C17.8772 5.33836 17.8612 5.30517 17.8434 5.27295L16.9678 5.75586ZM17.3291 6.62598L18.29 6.3492C18.2796 6.31295 18.2671 6.27731 18.2526 6.24247L17.3291 6.62598ZM17.5898 7.53125L18.5758 7.36433C18.5695 7.32727 18.5612 7.29059 18.5508 7.25448L17.5898 7.53125ZM17.7471 8.45996L18.7455 8.40397C18.7434 8.36679 18.7393 8.32976 18.733 8.29304L17.7471 8.45996ZM17.7998 9.40039L18.7982 9.45638C18.8003 9.41908 18.8003 9.3817 18.7982 9.3444L17.7998 9.40039ZM17.7471 10.3408L18.733 10.5077C18.7393 10.471 18.7434 10.434 18.7455 10.3968L17.7471 10.3408ZM17.5898 11.2695L18.5508 11.5463C18.5612 11.5102 18.5695 11.4735 18.5758 11.4365L17.5898 11.2695ZM17.3291 12.1748L18.2526 12.5583C18.2671 12.5235 18.2796 12.4878 18.29 12.4516L17.3291 12.1748ZM16.9678 13.0449L17.8432 13.5283C17.8611 13.4959 17.8771 13.4626 17.8913 13.4284L16.9678 13.0449ZM16.5127 13.8691L17.3285 14.4475C17.3501 14.417 17.37 14.3853 17.3881 14.3525L16.5127 13.8691ZM15.9678 14.6377L16.7132 15.3043C16.7383 15.2762 16.7618 15.2468 16.7835 15.2161L15.9678 14.6377ZM15.3398 15.3398L16.0065 16.0852C16.0342 16.0605 16.0605 16.0342 16.0852 16.0065L15.3398 15.3398ZM14.6377 15.9678L15.2161 16.7835C15.2468 16.7618 15.2762 16.7383 15.3043 16.7132L14.6377 15.9678ZM13.8691 16.5127L14.3525 17.3881C14.3853 17.37 14.417 17.3501 14.4475 17.3285L13.8691 16.5127ZM13.0449 16.9678L13.4284 17.8913C13.4626 17.8771 13.4959 17.8611 13.5283 17.8432L13.0449 16.9678ZM12.1748 17.3291L12.4516 18.29C12.4878 18.2796 12.5235 18.2671 12.5583 18.2526L12.1748 17.3291ZM11.2695 17.5898L11.4365 18.5758C11.4735 18.5695 11.5102 18.5612 11.5463 18.5508L11.2695 17.5898ZM10.3408 17.7471L10.3968 18.7455C10.434 18.7434 10.471 18.7393 10.5077 18.733L10.3408 17.7471ZM9.40039 17.7998L9.3444 18.7982C9.3817 18.8003 9.41908 18.8003 9.45638 18.7982L9.40039 17.7998ZM8.45996 17.7471L8.29304 18.733C8.32976 18.7393 8.36679 18.7434 8.40397 18.7455L8.45996 17.7471ZM7.53125 17.5898L7.25448 18.5508C7.29059 18.5612 7.32727 18.5695 7.36433 18.5758L7.53125 17.5898ZM6.62598 17.3291L6.24247 18.2526C6.27731 18.2671 6.31295 18.2796 6.3492 18.29L6.62598 17.3291ZM5.75586 16.9678L5.27295 17.8434C5.30517 17.8612 5.33836 17.8772 5.37235 17.8913L5.75586 16.9678ZM4.93066 16.5127L4.35178 17.3281C4.38261 17.35 4.41465 17.3701 4.44775 17.3884L4.93066 16.5127ZM4.16309 15.9678L3.49699 16.7136C3.52474 16.7384 3.55386 16.7616 3.58421 16.7832L4.16309 15.9678ZM3.45996 15.3398L2.71404 16.0059C2.73912 16.034 2.76577 16.0606 2.79386 16.0857L3.45996 15.3398ZM2.83301 14.6377L2.01774 15.2168C2.03922 15.247 2.06238 15.2761 2.08709 15.3037L2.83301 14.6377ZM2.28711 13.8691L1.41168 14.3525C1.42991 14.3855 1.45 14.4175 1.47184 14.4482L2.28711 13.8691ZM1.83203 13.0449L0.908128 13.4275C0.922396 13.462 0.938581 13.4956 0.956605 13.5283L1.83203 13.0449ZM1.47168 12.1748L0.510745 12.4516C0.521099 12.4875 0.533462 12.5229 0.547777 12.5574L1.47168 12.1748ZM1.21094 11.2695L0.225138 11.4375C0.231393 11.4742 0.239694 11.5105 0.250003 11.5463L1.21094 11.2695ZM1.05273 10.3408L0.0543029 10.3968C0.0564069 10.4343 0.0606243 10.4717 0.0669351 10.5087L1.05273 10.3408ZM1 9.40039L0.0015685 9.3444C-0.000522852 9.3817 -0.000522852 9.41908 0.0015685 9.45638L1 9.40039ZM1.05273 8.45996L0.0669351 8.29203C0.0606243 8.32908 0.0564069 8.36645 0.0543029 8.40397L1.05273 8.45996ZM1.21094 7.53125L0.250003 7.25448C0.239694 7.29027 0.231393 7.32661 0.225138 7.36332L1.21094 7.53125ZM1.47168 6.62598L0.547777 6.24335C0.533462 6.27791 0.521099 6.31325 0.510745 6.3492L1.47168 6.62598ZM1.83203 5.75586L0.956363 5.27295C0.938436 5.30545 0.922332 5.33893 0.908128 5.37323L1.83203 5.75586ZM2.28711 4.93066L1.47219 4.35109C1.45011 4.38213 1.42983 4.4144 1.41144 4.44775L2.28711 4.93066ZM2.83301 4.16309L2.08663 3.49756C2.06222 3.52494 2.03934 3.55363 2.01809 3.58352L2.83301 4.16309ZM3.45996 3.45996L2.79444 2.71358C2.76597 2.73897 2.73897 2.76597 2.71358 2.79444L3.45996 3.45996ZM4.16309 2.83301L3.58352 2.01809C3.55363 2.03934 3.52494 2.06222 3.49756 2.08663L4.16309 2.83301ZM4.93066 2.28711L4.44775 1.41144C4.4144 1.42983 4.38213 1.45011 4.35109 1.47219L4.93066 2.28711ZM5.75586 1.83203L5.37323 0.908128C5.33893 0.922332 5.30545 0.938436 5.27295 0.956363L5.75586 1.83203ZM6.62598 1.47168L6.3492 0.510745C6.31325 0.521099 6.27791 0.533462 6.24335 0.547777L6.62598 1.47168ZM7.53125 1.21094L7.36332 0.225138C7.32661 0.231393 7.29027 0.239694 7.25448 0.250003L7.53125 1.21094ZM8.45996 1.05273L8.40397 0.0543029C8.36645 0.0564069 8.32908 0.0606243 8.29203 0.0669351L8.45996 1.05273ZM9.40039 1L9.45638 0.0015685C9.41908 -0.000522852 9.3817 -0.000522852 9.3444 0.0015685L9.40039 1ZM10.3408 1.05273L10.1729 2.03853L11.1016 2.19674L11.2695 1.21094L11.4375 0.225138L10.5087 0.0669351L10.3408 1.05273ZM11.2695 1.21094L10.9928 2.17187L11.898 2.43261L12.1748 1.47168L12.4516 0.510745L11.5463 0.250003L11.2695 1.21094ZM12.1748 1.47168L11.7922 2.39558L12.6623 2.75593L13.0449 1.83203L13.4275 0.908128L12.5574 0.547777L12.1748 1.47168ZM13.0449 1.83203L12.5616 2.70746L13.3858 3.16254L13.8691 2.28711L14.3525 1.41168L13.5283 0.956605L13.0449 1.83203ZM13.8691 2.28711L13.2901 3.10238L14.0586 3.64828L14.6377 2.83301L15.2168 2.01774L14.4482 1.47184L13.8691 2.28711ZM14.6377 2.83301L13.9717 3.57893L14.6738 4.20588L15.3398 3.45996L16.0059 2.71404L15.3037 2.08709L14.6377 2.83301ZM15.3398 3.45996L14.594 4.12606L15.2219 4.82918L15.9678 4.16309L16.7136 3.49699L16.0857 2.79386L15.3398 3.45996ZM15.9678 4.16309L15.1524 4.74197L15.6973 5.50954L16.5127 4.93066L17.3281 4.35178L16.7832 3.58421L15.9678 4.16309ZM16.5127 4.93066L15.637 5.41358L16.0921 6.23877L16.9678 5.75586L17.8434 5.27295L17.3884 4.44775L16.5127 4.93066ZM16.9678 5.75586L16.0442 6.13937L16.4056 7.00949L17.3291 6.62598L18.2526 6.24247L17.8913 5.37235L16.9678 5.75586ZM17.3291 6.62598L16.3682 6.90275L16.6289 7.80802L17.5898 7.53125L18.5508 7.25448L18.29 6.3492L17.3291 6.62598ZM17.5898 7.53125L16.6039 7.69817L16.7611 8.62688L17.7471 8.45996L18.733 8.29304L18.5758 7.36433L17.5898 7.53125ZM17.7471 8.45996L16.7486 8.51595L16.8014 9.45638L17.7998 9.40039L18.7982 9.3444L18.7455 8.40397L17.7471 8.45996ZM17.7998 9.40039L16.8014 9.3444L16.7486 10.2848L17.7471 10.3408L18.7455 10.3968L18.7982 9.45638L17.7998 9.40039ZM17.7471 10.3408L16.7611 10.1739L16.6039 11.1026L17.5898 11.2695L18.5758 11.4365L18.733 10.5077L17.7471 10.3408ZM17.5898 11.2695L16.6289 10.9928L16.3682 11.898L17.3291 12.1748L18.29 12.4516L18.5508 11.5463L17.5898 11.2695ZM17.3291 12.1748L16.4056 11.7913L16.0442 12.6614L16.9678 13.0449L17.8913 13.4284L18.2526 12.5583L17.3291 12.1748ZM16.9678 13.0449L16.0923 12.5616L15.6373 13.3858L16.5127 13.8691L17.3881 14.3525L17.8432 13.5283L16.9678 13.0449ZM16.5127 13.8691L15.6969 13.2907L15.152 14.0593L15.9678 14.6377L16.7835 15.2161L17.3285 14.4475L16.5127 13.8691ZM15.9678 14.6377L15.2224 13.9711L14.5944 14.6732L15.3398 15.3398L16.0852 16.0065L16.7132 15.3043L15.9678 14.6377ZM15.3398 15.3398L14.6732 14.5944L13.9711 15.2224L14.6377 15.9678L15.3043 16.7132L16.0065 16.0852L15.3398 15.3398ZM14.6377 15.9678L14.0593 15.152L13.2907 15.6969L13.8691 16.5127L14.4475 17.3285L15.2161 16.7835L14.6377 15.9678ZM13.8691 16.5127L13.3858 15.6373L12.5616 16.0923L13.0449 16.9678L13.5283 17.8432L14.3525 17.3881L13.8691 16.5127ZM13.0449 16.9678L12.6614 16.0442L11.7913 16.4056L12.1748 17.3291L12.5583 18.2526L13.4284 17.8913L13.0449 16.9678ZM12.1748 17.3291L11.898 16.3682L10.9928 16.6289L11.2695 17.5898L11.5463 18.5508L12.4516 18.29L12.1748 17.3291ZM11.2695 17.5898L11.1026 16.6039L10.1739 16.7611L10.3408 17.7471L10.5077 18.733L11.4365 18.5758L11.2695 17.5898ZM10.3408 17.7471L10.2848 16.7486L9.3444 16.8014L9.40039 17.7998L9.45638 18.7982L10.3968 18.7455L10.3408 17.7471ZM9.40039 17.7998L9.45638 16.8014L8.51595 16.7486L8.45996 17.7471L8.40397 18.7455L9.3444 18.7982L9.40039 17.7998ZM8.45996 17.7471L8.62688 16.7611L7.69817 16.6039L7.53125 17.5898L7.36433 18.5758L8.29304 18.733L8.45996 17.7471ZM7.53125 17.5898L7.80802 16.6289L6.90275 16.3682L6.62598 17.3291L6.3492 18.29L7.25448 18.5508L7.53125 17.5898ZM6.62598 17.3291L7.00949 16.4056L6.13937 16.0442L5.75586 16.9678L5.37235 17.8913L6.24247 18.2526L6.62598 17.3291ZM5.75586 16.9678L6.23877 16.0921L5.41358 15.637L4.93066 16.5127L4.44775 17.3884L5.27295 17.8434L5.75586 16.9678ZM4.93066 16.5127L5.50954 15.6973L4.74197 15.1524L4.16309 15.9678L3.58421 16.7832L4.35178 17.3281L4.93066 16.5127ZM4.16309 15.9678L4.82918 15.2219L4.12606 14.594L3.45996 15.3398L2.79386 16.0857L3.49699 16.7136L4.16309 15.9678ZM3.45996 15.3398L4.20588 14.6738L3.57893 13.9717L2.83301 14.6377L2.08709 15.3037L2.71404 16.0059L3.45996 15.3398ZM2.83301 14.6377L3.64828 14.0586L3.10238 13.2901L2.28711 13.8691L1.47184 14.4482L2.01774 15.2168L2.83301 14.6377ZM2.28711 13.8691L3.16254 13.3858L2.70746 12.5616L1.83203 13.0449L0.956605 13.5283L1.41168 14.3525L2.28711 13.8691ZM1.83203 13.0449L2.75593 12.6623L2.39558 11.7922L1.47168 12.1748L0.547777 12.5574L0.908128 13.4275L1.83203 13.0449ZM1.47168 12.1748L2.43261 11.898L2.17187 10.9928L1.21094 11.2695L0.250003 11.5463L0.510745 12.4516L1.47168 12.1748ZM1.21094 11.2695L2.19674 11.1016L2.03853 10.1729L1.05273 10.3408L0.0669351 10.5087L0.225138 11.4375L1.21094 11.2695ZM1.05273 10.3408L2.05117 10.2848L1.99843 9.3444L1 9.40039L0.0015685 9.45638L0.0543029 10.3968L1.05273 10.3408ZM1 9.40039L1.99843 9.45638L2.05117 8.51595L1.05273 8.45996L0.0543029 8.40397L0.0015685 9.3444L1 9.40039ZM1.05273 8.45996L2.03853 8.62789L2.19674 7.69918L1.21094 7.53125L0.225138 7.36332L0.0669351 8.29203L1.05273 8.45996ZM1.21094 7.53125L2.17187 7.80802L2.43261 6.90275L1.47168 6.62598L0.510745 6.3492L0.250003 7.25448L1.21094 7.53125ZM1.47168 6.62598L2.39558 7.0086L2.75593 6.13849L1.83203 5.75586L0.908128 5.37323L0.547777 6.24335L1.47168 6.62598ZM1.83203 5.75586L2.7077 6.23877L3.16278 5.41358L2.28711 4.93066L1.41144 4.44775L0.956363 5.27295L1.83203 5.75586ZM2.28711 4.93066L3.10203 5.51023L3.64793 4.74266L2.83301 4.16309L2.01809 3.58352L1.47219 4.35109L2.28711 4.93066ZM2.83301 4.16309L3.57939 4.82861L4.20634 4.12548L3.45996 3.45996L2.71358 2.79444L2.08663 3.49756L2.83301 4.16309ZM3.45996 3.45996L4.12548 4.20634L4.82861 3.57939L4.16309 2.83301L3.49756 2.08663L2.79444 2.71358L3.45996 3.45996ZM4.16309 2.83301L4.74266 3.64793L5.51023 3.10203L4.93066 2.28711L4.35109 1.47219L3.58352 2.01809L4.16309 2.83301ZM4.93066 2.28711L5.41358 3.16278L6.23877 2.7077L5.75586 1.83203L5.27295 0.956363L4.44775 1.41144L4.93066 2.28711ZM5.75586 1.83203L6.13849 2.75593L7.0086 2.39558L6.62598 1.47168L6.24335 0.547777L5.37323 0.908128L5.75586 1.83203ZM6.62598 1.47168L6.90275 2.43261L7.80802 2.17187L7.53125 1.21094L7.25448 0.250003L6.3492 0.510745L6.62598 1.47168ZM7.53125 1.21094L7.69918 2.19674L8.62789 2.03853L8.45996 1.05273L8.29203 0.0669351L7.36332 0.225138L7.53125 1.21094ZM8.45996 1.05273L8.51595 2.05117L9.45638 1.99843L9.40039 1L9.3444 0.0015685L8.40397 0.0543029L8.45996 1.05273ZM9.40039 1L9.3444 1.99843L10.2848 2.05117L10.3408 1.05273L10.3968 0.0543029L9.45638 0.0015685L9.40039 1Z" fill="#F90B0B"/>
<path d="M6.10156 12.6996L9.40156 9.39961L12.7016 12.6996M12.7016 6.09961L9.40093 9.39961L6.10156 6.09961" stroke="white" stroke-width="1.4" stroke-linecap="round" stroke-linejoin="round"/>
</svg>
