<svg width="36" height="36" viewBox="0 0 36 36" fill="none" xmlns="http://www.w3.org/2000/svg">
<rect width="36" height="36" rx="8" fill="#E9FAF7"/>
<g clip-path="url(#clip0_837_6867)">
<path d="M23.214 26.2497H23.1892C22.806 26.2437 22.4415 26.081 22.1812 25.7997L20.7427 24.389C20.4547 24.0912 20.4615 23.6165 20.7592 23.3285C20.76 23.3277 20.7607 23.327 20.7615 23.3262C21.0592 23.0405 21.5317 23.0487 21.819 23.3442L23.2147 24.7115L25.7205 22.2057C26.013 21.9132 26.4885 21.9132 26.781 22.2057C27.0735 22.4982 27.0735 22.9737 26.781 23.2662L24.2152 25.832C23.9512 26.0997 23.5905 26.2505 23.214 26.2497Z" fill="#22CAAD"/>
<path d="M19.5266 24.0109C19.5236 21.5382 21.5254 19.5312 23.9974 19.5274C24.9596 19.5259 25.8971 19.8349 26.6696 20.4087C27.9994 15.6199 25.1951 10.6602 20.4071 9.33041C15.6191 8.00066 10.6601 10.8042 9.33036 15.5929C8.00061 20.3817 10.8049 25.3422 15.5929 26.6719C17.1679 27.1092 18.8321 27.1092 20.4071 26.6719C19.8356 25.9024 19.5266 24.9694 19.5266 24.0109ZM18.7504 18.0162C18.7504 18.2157 18.6709 18.4062 18.5299 18.5472L16.2761 20.8017C15.9776 21.0897 15.5021 21.0814 15.2141 20.7829C14.9329 20.4919 14.9329 20.0299 15.2141 19.7389L17.2481 17.7049V14.2594C17.2481 13.8447 17.5841 13.5079 17.9996 13.5079C18.4144 13.5079 18.7504 13.8447 18.7504 14.2594V18.0162Z" fill="#22CAAD"/>
</g>
<defs>
<clipPath id="clip0_837_6867">
<rect width="18" height="18" fill="white" transform="translate(9 9)"/>
</clipPath>
</defs>
</svg>
