<svg width="36" height="36" viewBox="0 0 36 36" fill="none" xmlns="http://www.w3.org/2000/svg">
<rect width="36" height="36" rx="8" fill="#FEECEE"/>
<g clip-path="url(#clip0_837_6877)">
<path d="M26.0302 26.0302C25.7377 26.3227 25.2622 26.3227 24.9697 26.0302L23.9092 24.9697L22.848 26.0302C22.56 26.328 22.0852 26.3362 21.7875 26.049C21.4897 25.761 21.4815 25.2862 21.7687 24.9885C21.7747 24.9825 21.7807 24.9757 21.7875 24.9697L22.848 23.9092L21.7875 22.848C21.4897 22.56 21.4815 22.0852 21.7687 21.7875C22.0567 21.4897 22.5315 21.4815 22.8292 21.7687C22.8352 21.7747 22.842 21.7807 22.848 21.7875L23.9092 22.848L24.9697 21.7875C25.2577 21.4897 25.7325 21.4815 26.0302 21.7687C26.328 22.0567 26.3362 22.5315 26.049 22.8292C26.043 22.8352 26.037 22.842 26.0302 22.848L24.9697 23.9092L26.0302 24.9697C26.3242 25.2615 26.328 25.734 26.0362 26.028C26.0347 26.0295 26.034 26.031 26.0302 26.0302Z" fill="#EB3D4D"/>
<path d="M19.5266 24.0109C19.5236 21.5382 21.5254 19.5312 23.9974 19.5274C24.9596 19.5259 25.8971 19.8349 26.6696 20.4087C27.9994 15.6199 25.1951 10.6602 20.4071 9.33041C15.6191 8.00066 10.6601 10.8042 9.33036 15.5929C8.00061 20.3817 10.8049 25.3422 15.5929 26.6719C17.1679 27.1092 18.8321 27.1092 20.4071 26.6719C19.8356 25.9024 19.5266 24.9694 19.5266 24.0109ZM18.7504 18.0162C18.7504 18.2157 18.6709 18.4062 18.5299 18.5472L16.2761 20.8017C15.9776 21.0897 15.5021 21.0814 15.2141 20.7829C14.9329 20.4919 14.9329 20.0299 15.2141 19.7389L17.2481 17.7049V14.2594C17.2481 13.8447 17.5841 13.5079 17.9996 13.5079C18.4144 13.5079 18.7504 13.8447 18.7504 14.2594V18.0162Z" fill="#EB3D4D"/>
</g>
<defs>
<clipPath id="clip0_837_6877">
<rect width="18" height="18" fill="white" transform="translate(9 9)"/>
</clipPath>
</defs>
</svg>
