<svg width="16" height="16" viewBox="0 0 16 16" fill="none" xmlns="http://www.w3.org/2000/svg">
<path d="M3.33317 13.3333C3.70136 13.3333 3.99984 13.0349 3.99984 12.6667C3.99984 12.2985 3.70136 12 3.33317 12C2.96498 12 2.6665 12.2985 2.6665 12.6667C2.6665 13.0349 2.96498 13.3333 3.33317 13.3333Z" fill="white"/>
<path d="M2.6665 2.66602H3.99984V8.66602H2.6665V2.66602Z" fill="white"/>
<path d="M4.66683 1.33398H2.00016C1.82335 1.33398 1.65378 1.40422 1.52876 1.52925C1.40373 1.65427 1.3335 1.82384 1.3335 2.00065V14.0007C1.3335 14.1775 1.40373 14.347 1.52876 14.4721C1.65378 14.5971 1.82335 14.6673 2.00016 14.6673H4.66683C4.84364 14.6673 5.01321 14.5971 5.13823 14.4721C5.26326 14.347 5.3335 14.1775 5.3335 14.0007V2.00065C5.3335 1.82384 5.26326 1.65427 5.13823 1.52925C5.01321 1.40422 4.84364 1.33398 4.66683 1.33398ZM4.66683 14.0007H2.00016V2.00065H4.66683V14.0007ZM9.3335 2.00065V6.66732H7.3335V2.00065H9.3335ZM10.0002 1.33398H6.66683V7.33398H10.0002V1.33398ZM14.0002 2.00065V6.66732H12.0002V2.00065H14.0002ZM14.6668 1.33398H11.3335V7.33398H14.6668V1.33398ZM9.3335 9.33398V14.0007H7.3335V9.33398H9.3335ZM10.0002 8.66732H6.66683V14.6673H10.0002V8.66732ZM14.0002 9.33398V14.0007H12.0002V9.33398H14.0002ZM14.6668 8.66732H11.3335V14.6673H14.6668V8.66732Z" fill="white"/>
</svg>
