<svg width="32" height="33" viewBox="0 0 32 33" fill="none" xmlns="http://www.w3.org/2000/svg">
<rect y="0.5" width="32" height="31.9041" rx="8" fill="#FF9066" fill-opacity="0.2"/>
<path opacity="0.78" fill-rule="evenodd" clip-rule="evenodd" d="M15.0107 12.6613C15.0315 12.4015 15.2485 12.2012 15.5091 12.2012H15.5492C15.8053 12.2012 16.02 12.3947 16.0465 12.6495L16.4761 16.7828L19.5579 18.4772C19.713 18.5625 19.8094 18.7255 19.8094 18.9026C19.8094 19.2207 19.5085 19.4529 19.2008 19.3721L14.9762 18.2636C14.7419 18.2021 14.5854 17.9815 14.6047 17.7401L15.0107 12.6613Z" fill="#FF9066"/>
<path opacity="0.901274" d="M10.1113 6.87391C10.2082 6.48317 10.7255 6.36771 10.9951 6.67665L12.0859 7.92665C13.2881 7.43416 14.6109 7.16102 16 7.16102L16.5146 7.17372C21.7983 7.43144 26 11.6354 26 16.7831C25.9998 22.0967 21.5227 26.4042 16 26.4042C10.4773 26.4042 6.00021 22.0967 6 16.7831C6 15.8807 6.12868 15.0068 6.37012 14.1786L8.2041 14.6737C8.00598 15.3534 7.9043 16.0611 7.9043 16.7831C7.9045 21.0846 11.5293 24.5712 16 24.5712C20.4707 24.5712 24.0955 21.0846 24.0957 16.7831C24.0957 12.616 20.6941 9.2126 16.417 9.0038L16 8.99403C15.094 8.99403 14.2119 9.13745 13.3799 9.41102L14.4717 10.662C14.7416 10.9716 14.5318 11.4429 14.1143 11.4657L9.58984 11.7128C9.24831 11.7314 8.98243 11.4265 9.06152 11.1063L10.1113 6.87391Z" fill="#FF9066"/>
</svg>
