<svg width="16" height="16" viewBox="0 0 16 16" fill="none" xmlns="http://www.w3.org/2000/svg">
<path d="M4.34281 1.33398C3.47348 1.41998 2.88815 1.61332 2.45081 2.05132C1.66748 2.83598 1.66748 4.09932 1.66748 6.62665V9.30665C1.66748 11.8333 1.66748 13.0973 2.45081 13.8827C3.23415 14.668 4.49548 14.6673 7.01748 14.6673H8.35548C10.8775 14.6673 12.1388 14.6673 12.9221 13.8827C13.6335 13.1693 13.6995 12.0713 13.7055 9.98532" stroke="white" stroke-linecap="round" stroke-linejoin="round"/>
<path d="M7.01731 4.66775L7.68597 7.00109C8.05931 7.74109 8.52797 7.93442 9.69264 8.00109C10.6186 7.97842 11.156 7.86909 11.6146 7.47042C11.9273 7.19842 12.0686 6.78842 12.1373 6.38042L12.3666 5.00109M14.0386 3.66775V7.00109M5.73397 3.28975C6.79197 2.41175 7.73464 1.94042 9.68997 1.42175C9.91056 1.36351 10.1426 1.36466 10.3626 1.42509C12.0933 1.90109 13.028 2.32375 14.28 3.26375C14.3333 3.30375 14.3493 3.37842 14.312 3.43375C13.9033 4.03509 12.9906 4.52242 10.752 5.39042C10.2857 5.56984 9.76891 5.56698 9.30464 5.38242C6.92064 4.43575 5.82464 3.92909 5.69131 3.40309C5.68697 3.38209 5.68868 3.3603 5.69623 3.34024C5.70378 3.32018 5.71687 3.30268 5.73397 3.28975Z" stroke="white" stroke-linecap="round" stroke-linejoin="round"/>
</svg>
