<svg width="27" height="25" viewBox="0 0 27 25" fill="none" xmlns="http://www.w3.org/2000/svg">
<path d="M25.6128 12.3122C25.6128 18.8212 20.3369 24.0971 13.8279 24.0971C7.31886 24.0971 2.04297 18.8212 2.04297 12.3122C2.04297 5.80323 7.31886 0.527344 13.8279 0.527344C20.3369 0.527344 25.6128 5.80323 25.6128 12.3122Z" fill="#FFCC00"/>
<path d="M22.8446 4.72685C20.6826 2.1592 17.4465 0.527344 13.8279 0.527344C7.31886 0.527344 2.04297 5.80323 2.04297 12.3122C2.04297 13.679 2.27807 14.9905 2.70678 16.2121C9.35177 12.2661 16.059 8.4285 22.8446 4.72685Z" fill="#FCDC59"/>
<path d="M15.1909 24.0164C17.8946 23.7053 20.3193 22.4814 22.1494 20.6582C20.3101 21.5433 18.4731 22.4376 16.6361 23.3273C16.1567 23.5601 15.6726 23.7882 15.1909 24.0187V24.0164Z" fill="#FCDC59"/>
<path d="M22.5994 12.1251C22.5994 17.0737 18.5888 21.0842 13.6403 21.0842C8.69166 21.0842 4.68115 17.0737 4.68115 12.1251C4.68115 7.17652 8.69166 3.16602 13.6403 3.16602C18.5888 3.16602 22.5994 7.17652 22.5994 12.1251Z" fill="#DA8100"/>
<path d="M22.8535 12.4994C22.8535 17.3812 18.896 21.3386 14.0143 21.3386C9.13254 21.3386 5.17505 17.3812 5.17505 12.4994C5.17505 7.61765 9.13254 3.66016 14.0143 3.66016C18.896 3.66016 22.8535 7.61765 22.8535 12.4994Z" fill="#F0AA00"/>
<g opacity="0.5" filter="url(#filter0_f_1225_9300)">
<circle cx="3.07574" cy="7.99884" r="0.645325" fill="#FFF8DD"/>
</g>
<g opacity="0.5" filter="url(#filter1_f_1225_9300)">
<circle cx="5.87203" cy="4.34151" r="2.15108" fill="#FFF8DD"/>
</g>
<path d="M5.44161 2.19043L6.20043 3.58269L7.59269 4.34151L6.20043 5.10033L5.44161 6.49259L4.68279 5.10033L3.29053 4.34151L4.68279 3.58269L5.44161 2.19043Z" fill="#FBFCE6"/>
<g opacity="0.7" filter="url(#filter2_f_1225_9300)">
<circle cx="22.0051" cy="20.0449" r="2.36619" fill="#FFF8DD"/>
</g>
<path d="M22.2172 17.248L22.9394 19.8631L25.232 20.6898L22.9394 21.5165L22.2172 24.1315L21.5016 21.5165L19.209 20.6898L21.5016 19.8631L22.2172 17.248Z" fill="#FBFCE6"/>
<path d="M3.07554 6.92285L3.45819 7.62273L4.15108 8.00354L3.45819 8.37406L3.07554 9.07393L2.6929 8.37406L2 8.00354L2.6929 7.62273L3.07554 6.92285Z" fill="#FBFCE6"/>
<g clip-path="url(#clip0_1225_9300)">
<path d="M12.771 6.92773C14.7924 7.03031 16.4278 8.59495 16.6421 10.585C17.8721 11.2944 18.7005 12.6228 18.7007 14.1445L18.6948 14.3564C18.5847 16.5262 16.7903 18.2519 14.5933 18.252L14.3823 18.2461C12.3605 18.1436 10.7241 16.5794 10.5103 14.5889C9.33766 13.9125 8.53023 12.674 8.45752 11.2412L8.45264 11.0293C8.45281 8.76145 10.2912 6.92303 12.5591 6.92285L12.771 6.92773ZM16.5659 11.9248C16.1572 13.7622 14.5196 15.1367 12.5591 15.1367L12.3481 15.1309C12.1494 15.1208 11.9545 15.0959 11.7642 15.0586C12.1498 16.2538 13.2699 17.119 14.5933 17.1191C16.2356 17.119 17.5679 15.7869 17.5679 14.1445C17.5677 13.2604 17.1787 12.4694 16.5659 11.9248ZM14.5933 11.1709C13.049 11.1711 11.7794 12.3486 11.6333 13.8545C11.9249 13.9501 12.2356 14.0039 12.5591 14.0039C14.1036 14.0039 15.3731 12.8257 15.519 11.3193C15.2276 11.2239 14.9166 11.1709 14.5933 11.1709ZM12.5591 8.05566C10.9169 8.05584 9.58563 9.38713 9.58545 11.0293C9.58545 11.9128 9.97279 12.7041 10.5845 13.249C10.9933 11.412 12.6331 10.0382 14.5933 10.0381L14.8052 10.043C15.0035 10.053 15.1982 10.077 15.3882 10.1143C15.0018 8.91999 13.8819 8.05566 12.5591 8.05566Z" fill="#DA8100"/>
</g>
<g clip-path="url(#clip1_1225_9300)">
<path d="M13.2024 6.92773C15.2238 7.03031 16.8592 8.59495 17.0735 10.585C18.3035 11.2944 19.1319 12.6228 19.1321 14.1445L19.1262 14.3564C19.0161 16.5261 17.2217 18.2518 15.0247 18.252L14.8137 18.2461C12.7919 18.1436 11.1555 16.5794 10.9417 14.5889C9.76905 13.9125 8.96162 12.674 8.88892 11.2412L8.88403 11.0293C8.88421 8.76145 10.7226 6.92303 12.9905 6.92285L13.2024 6.92773ZM16.9973 11.9248C16.5886 13.7622 14.951 15.1367 12.9905 15.1367L12.7795 15.1309C12.5808 15.1208 12.3859 15.0959 12.1956 15.0586C12.5812 16.2538 13.7013 17.119 15.0247 17.1191C16.667 17.119 17.9993 15.7869 17.9993 14.1445C17.9991 13.2604 17.6101 12.4694 16.9973 11.9248ZM15.0247 11.1709C13.4804 11.1711 12.2108 12.3486 12.0647 13.8545C12.3563 13.9501 12.667 14.0039 12.9905 14.0039C14.535 14.0039 15.8045 12.8257 15.9504 11.3193C15.659 11.2239 15.348 11.1709 15.0247 11.1709ZM12.9905 8.05566C11.3483 8.05584 10.017 9.38713 10.0168 11.0293C10.0168 11.9128 10.4042 12.7041 11.0159 13.249C11.4247 11.412 13.0645 10.0382 15.0247 10.0381L15.2366 10.043C15.4349 10.053 15.6296 10.077 15.8196 10.1143C15.4332 8.91999 14.3133 8.05566 12.9905 8.05566Z" fill="#FFCC00"/>
</g>
<defs>
<filter id="filter0_f_1225_9300" x="0.709554" y="5.63265" width="4.73226" height="4.73275" filterUnits="userSpaceOnUse" color-interpolation-filters="sRGB">
<feFlood flood-opacity="0" result="BackgroundImageFix"/>
<feBlend mode="normal" in="SourceGraphic" in2="BackgroundImageFix" result="shape"/>
<feGaussianBlur stdDeviation="0.860433" result="effect1_foregroundBlur_1225_9300"/>
</filter>
<filter id="filter1_f_1225_9300" x="2.00008" y="0.469564" width="7.74398" height="7.74349" filterUnits="userSpaceOnUse" color-interpolation-filters="sRGB">
<feFlood flood-opacity="0" result="BackgroundImageFix"/>
<feBlend mode="normal" in="SourceGraphic" in2="BackgroundImageFix" result="shape"/>
<feGaussianBlur stdDeviation="0.860433" result="effect1_foregroundBlur_1225_9300"/>
</filter>
<filter id="filter2_f_1225_9300" x="17.9181" y="15.9578" width="8.17415" height="8.17415" filterUnits="userSpaceOnUse" color-interpolation-filters="sRGB">
<feFlood flood-opacity="0" result="BackgroundImageFix"/>
<feBlend mode="normal" in="SourceGraphic" in2="BackgroundImageFix" result="shape"/>
<feGaussianBlur stdDeviation="0.860433" result="effect1_foregroundBlur_1225_9300"/>
</filter>
<clipPath id="clip0_1225_9300">
<rect width="11.1856" height="12.0461" fill="white" transform="translate(8.02295 6.49316)"/>
</clipPath>
<clipPath id="clip1_1225_9300">
<rect width="11.1856" height="12.0461" fill="white" transform="translate(8.45361 6.49316)"/>
</clipPath>
</defs>
</svg>
