<svg width="24" height="24" viewBox="0 0 24 24" fill="none" xmlns="http://www.w3.org/2000/svg">
<path d="M19.5 22.5H15.75V21H19.5V19.5H17.25C16.4235 19.5 15.75 18.8273 15.75 18V16.5C15.75 15.6727 16.4235 15 17.25 15H21V16.5H17.25V18H19.5C20.3273 18 21 18.6735 21 19.5V21C21 21.8273 20.3273 22.5 19.5 22.5ZM7.5 15H12V16.5H7.5V15ZM7.5 12H13.5V13.5H7.5V12Z" fill="#667085"/>
<path d="M18 12.744H19.5V7.5C19.5 7.425 19.5 7.275 19.425 7.2C19.35 7.125 19.35 7.05 19.275 6.975L14.025 1.725C13.95 1.65 13.875 1.575 13.8 1.575C13.725 1.5 13.575 1.5 13.5 1.5H6C5.625 1.5 5.25 1.65 4.95 1.95C4.65 2.25 4.5 2.625 4.5 3V21C4.5 21.375 4.65 21.75 4.95 22.05C5.25 22.35 5.625 22.5 6 22.5H11.9602V21H6V3H12V7.5C12 7.875 12.15 8.25 12.45 8.55C12.75 8.85 13.125 9 13.5 9H18V12.744ZM13.5 7.5V3.3L17.7 7.5H13.5Z" fill="#667085"/>
</svg>
