<svg width="32" height="33" viewBox="0 0 32 33" fill="none" xmlns="http://www.w3.org/2000/svg">
<rect y="0.5" width="32" height="32" rx="8" fill="#FEC53D" fill-opacity="0.2"/>
<path fill-rule="evenodd" clip-rule="evenodd" d="M6 13.2797L14.6003 17.7417C14.6929 17.7898 14.79 17.8245 14.8889 17.8465V26.5003L6.61338 22.0994C6.23319 21.8972 6 21.5297 6 21.1327V13.2797ZM26.0001 13.1611V21.1327C26.0001 21.5297 25.7669 21.8972 25.3867 22.0994L17.1112 26.5003V17.7707C17.1313 17.7617 17.1513 17.752 17.1711 17.7417L26.0001 13.1611Z" fill="#FEC53D"/>
<path opacity="0.499209" fill-rule="evenodd" clip-rule="evenodd" d="M6.27026 11.1137C6.37531 10.9945 6.50791 10.8938 6.66249 10.8198L15.4125 6.63186C15.7798 6.45605 16.2204 6.45605 16.5877 6.63186L25.3377 10.8198C25.4569 10.8768 25.563 10.9498 25.6535 11.0348L16.06 16.012C15.997 16.0448 15.9388 16.0822 15.8858 16.1236C15.8328 16.0822 15.7746 16.0448 15.7116 16.012L6.27026 11.1137Z" fill="#FEC53D"/>
</svg>
