<svg width="13" height="14" viewBox="0 0 13 14" fill="none" xmlns="http://www.w3.org/2000/svg">
<path d="M10.5624 8.35645C10.5624 10.8346 8.51079 12.8272 6.03267 12.6794C3.48588 12.5274 1.74267 10.0781 2.07092 7.51795C2.26957 5.9608 2.9996 4.62545 3.79423 3.58952C3.93235 3.40873 4.07414 4.86352 4.21592 4.70345C4.3581 4.53892 5.67598 2.25823 6.13423 1.45711C6.15394 1.42177 6.18102 1.39109 6.21363 1.36715C6.24625 1.34321 6.28364 1.32657 6.32326 1.31836C6.36288 1.31015 6.4038 1.31057 6.44324 1.31958C6.48269 1.32859 6.51973 1.34598 6.55185 1.37058C7.47242 2.06527 10.5624 4.67461 10.5624 8.35645Z" fill="#FF6723"/>
<path d="M9.34389 9.37697C9.34389 11.019 7.9143 12.3389 6.17555 12.2792C4.29867 12.2158 3.01167 10.4982 3.28711 8.729C3.68483 6.19238 6.28889 4.5625 6.28889 4.5625C6.28889 4.5625 9.34389 6.47472 9.34389 9.37697Z" fill="#FFB02E"/>
</svg>
