<svg width="20" height="21" viewBox="0 0 20 21" fill="none" xmlns="http://www.w3.org/2000/svg">
<path d="M12.5 10.5C12.5 11.163 12.2366 11.7989 11.7678 12.2678C11.2989 12.7366 10.663 13 10 13C9.33696 13 8.70107 12.7366 8.23223 12.2678C7.76339 11.7989 7.5 11.163 7.5 10.5C7.5 9.83696 7.76339 9.20107 8.23223 8.73223C8.70107 8.26339 9.33696 8 10 8C10.663 8 11.2989 8.26339 11.7678 8.73223C12.2366 9.20107 12.5 9.83696 12.5 10.5Z" stroke="#161C2D" stroke-opacity="0.7" stroke-linecap="round" stroke-linejoin="round"/>
<path d="M1.6665 10.4998C2.99984 7.08567 6.11317 4.6665 9.99984 4.6665C13.8865 4.6665 16.9998 7.08567 18.3332 10.4998C16.9998 13.914 13.8865 16.3332 9.99984 16.3332C6.11317 16.3332 2.99984 13.914 1.6665 10.4998Z" stroke="#161C2D" stroke-opacity="0.7" stroke-linecap="round" stroke-linejoin="round"/>
</svg>
