<svg width="11" height="10" viewBox="0 0 11 10" fill="none" xmlns="http://www.w3.org/2000/svg">
<g clip-path="url(#clip0_395_4501)">
<path d="M7.82897 1.88477C8.05649 1.88457 8.28177 1.92981 8.49158 2.01781C8.7014 2.10582 8.89154 2.23482 9.05084 2.39727C9.3791 2.73051 9.5631 3.1795 9.5631 3.64727C9.5631 4.11503 9.3791 4.56402 9.05084 4.89727L5.81334 8.17539L2.57585 4.89727C2.24759 4.56402 2.06359 4.11503 2.06359 3.64727C2.06359 3.1795 2.24759 2.73051 2.57585 2.39727C2.73525 2.23494 2.9254 2.106 3.13519 2.01798C3.34498 1.92996 3.57021 1.88463 3.79772 1.88463C4.02523 1.88463 4.25046 1.92996 4.46025 2.01798C4.67004 2.106 4.86019 2.23494 5.01959 2.39727L5.81334 3.20977L6.60397 2.40352C6.7628 2.23914 6.95314 2.10847 7.16362 2.01934C7.3741 1.93021 7.60039 1.88444 7.82897 1.88477ZM7.82897 1.25977C7.51823 1.2595 7.21056 1.32128 6.92401 1.44149C6.63745 1.56169 6.37778 1.73789 6.16022 1.95977L5.81334 2.30977L5.46647 1.95977C5.24864 1.73829 4.98891 1.56239 4.7024 1.44233C4.4159 1.32226 4.10836 1.26042 3.79772 1.26042C3.48708 1.26042 3.17954 1.32226 2.89304 1.44233C2.60653 1.56239 2.3468 1.73829 2.12897 1.95977C1.68581 2.4109 1.4375 3.018 1.4375 3.65039C1.4375 4.28278 1.68581 4.88988 2.12897 5.34102L5.81334 9.07227L9.49772 5.34102C9.94088 4.88988 10.1892 4.28278 10.1892 3.65039C10.1892 3.018 9.94088 2.4109 9.49772 1.95977C9.27984 1.73831 9.02011 1.56239 8.73363 1.44222C8.44715 1.32204 8.13963 1.26003 7.82897 1.25977Z" fill="#667085"/>
</g>
<defs>
<clipPath id="clip0_395_4501">
<rect width="10" height="10" fill="white" transform="translate(0.8125 0.00976562)"/>
</clipPath>
</defs>
</svg>
