<svg width="21" height="20" viewBox="0 0 21 20" fill="none" xmlns="http://www.w3.org/2000/svg">
<path d="M8.54948 6.66732C8.54948 7.12756 8.17638 7.50065 7.71615 7.50065C7.25591 7.50065 6.88281 7.12756 6.88281 6.66732C6.88281 6.20708 7.25591 5.83398 7.71615 5.83398C8.17638 5.83398 8.54948 6.20708 8.54948 6.66732Z" fill="white"/>
<path d="M10.4271 6.66667H13.3438M7.51042 10H13.3438M7.51042 13.3333H13.3438M6.39805 17.5H14.4561C15.2079 17.5 15.5837 17.5 15.8472 17.3086C15.9323 17.2467 16.0072 17.1719 16.069 17.0868C16.2604 16.8233 16.2604 16.4474 16.2604 15.6957V4.3043C16.2604 3.55256 16.2604 3.17669 16.069 2.9132C16.0072 2.8281 15.9323 2.75327 15.8472 2.69144C15.5837 2.5 15.2079 2.5 14.4561 2.5H6.39805C5.64631 2.5 5.27044 2.5 5.00695 2.69144C4.92185 2.75327 4.84702 2.8281 4.78519 2.9132C4.59375 3.17669 4.59375 3.55256 4.59375 4.3043V15.6957C4.59375 16.4474 4.59375 16.8233 4.78519 17.0868C4.84702 17.1719 4.92185 17.2467 5.00695 17.3086C5.27044 17.5 5.64631 17.5 6.39805 17.5Z" stroke="white" stroke-linecap="round" stroke-linejoin="round"/>
</svg>
