<svg width="124" height="124" viewBox="0 0 124 124" fill="none" xmlns="http://www.w3.org/2000/svg">
<path opacity="0.2" d="M15.5005 81.3808L39.8854 56.9959C40.2452 56.6361 40.6724 56.3506 41.1425 56.1559C41.6127 55.9612 42.1165 55.8609 42.6254 55.8609C43.1343 55.8609 43.6382 55.9612 44.1083 56.1559C44.5785 56.3506 45.0056 56.6361 45.3655 56.9959L67.0104 78.6408C67.3702 79.0006 67.7974 79.2861 68.2675 79.4808C68.7377 79.6755 69.2415 79.7758 69.7504 79.7758C70.2593 79.7758 70.7632 79.6755 71.2333 79.4808C71.7035 79.2861 72.1306 79.0006 72.4905 78.6408L82.5104 68.6209C82.8702 68.2611 83.2974 67.9756 83.7675 67.7809C84.2377 67.5862 84.7415 67.4859 85.2504 67.4859C85.7593 67.4859 86.2632 67.5862 86.7333 67.7809C87.2035 67.9756 87.6306 68.2611 87.9905 68.6209L108.5 89.1309L108.5 27.1309C108.5 26.1031 108.092 25.1175 107.366 24.3908C106.639 23.6641 105.653 23.2559 104.625 23.2559H19.3755C18.3478 23.2559 17.3622 23.6641 16.6355 24.3908C15.9087 25.1175 15.5005 26.1031 15.5005 27.1309V81.3808Z" fill="#B7BAC7"/>
<path d="M104.625 23.2559H19.3755C17.2354 23.2559 15.5005 24.9908 15.5005 27.1309V96.8809C15.5005 99.021 17.2354 100.756 19.3755 100.756H104.625C106.766 100.756 108.5 99.021 108.5 96.8809V27.1309C108.5 24.9908 106.766 23.2559 104.625 23.2559Z" stroke="#B7BAC7" stroke-width="6" stroke-linecap="round" stroke-linejoin="round"/>
<path d="M15.5005 81.3695L39.8854 56.9846C40.2452 56.6247 40.6724 56.3393 41.1425 56.1446C41.6127 55.9498 42.1165 55.8496 42.6254 55.8496C43.1343 55.8496 43.6382 55.9498 44.1083 56.1446C44.5785 56.3393 45.0056 56.6247 45.3655 56.9846L67.0104 78.6295C67.3702 78.9893 67.7974 79.2748 68.2675 79.4695C68.7377 79.6642 69.2415 79.7645 69.7504 79.7645C70.2593 79.7645 70.7632 79.6642 71.2333 79.4695C71.7035 79.2748 72.1306 78.9893 72.4905 78.6295L82.5104 68.6096C82.8702 68.2497 83.2974 67.9643 83.7675 67.7696C84.2377 67.5748 84.7415 67.4746 85.2504 67.4746C85.7593 67.4746 86.2632 67.5748 86.7333 67.7696C87.2034 67.9643 87.6306 68.2497 87.9905 68.6096L108.5 89.1195" stroke="#B7BAC7" stroke-width="6" stroke-linecap="round" stroke-linejoin="round"/>
<path d="M75.563 54.2539C78.7731 54.2539 81.3755 51.6516 81.3755 48.4414C81.3755 45.2313 78.7731 42.6289 75.563 42.6289C72.3528 42.6289 69.7505 45.2313 69.7505 48.4414C69.7505 51.6516 72.3528 54.2539 75.563 54.2539Z" fill="#B7BAC7"/>
</svg>
