<svg width="20" height="21" viewBox="0 0 20 21" fill="none" xmlns="http://www.w3.org/2000/svg">
<path d="M19.9492 6.38007C19.9023 5.31739 19.7304 4.58681 19.4842 3.95375C19.2302 3.28177 18.8394 2.68015 18.3274 2.18002C17.8272 1.67211 17.2215 1.27744 16.5572 1.02745C15.9203 0.781275 15.1934 0.609427 14.1306 0.562573C13.0597 0.511752 12.7198 0.5 10.0039 0.5C7.28799 0.5 6.94805 0.511752 5.8812 0.558605C4.81831 0.605459 4.08759 0.77746 3.45456 1.02348C2.7823 1.27744 2.18057 1.66814 1.68034 2.18002C1.17233 2.68015 0.777738 3.28574 0.527549 3.94993C0.281329 4.58681 0.109448 5.31342 0.0625854 6.3761C0.0117538 7.44672 0 7.7866 0 10.502C0 13.2174 0.0117538 13.5572 0.0586166 14.6239C0.105479 15.6866 0.277513 16.4172 0.523733 17.0502C0.777738 17.7222 1.17233 18.3238 1.68034 18.8239C2.18057 19.3319 2.78627 19.7265 3.45059 19.9765C4.08759 20.2227 4.81434 20.3945 5.87738 20.4414C6.94408 20.4884 7.28418 20.5 10.0001 20.5C12.716 20.5 13.0559 20.4884 14.1228 20.4414C15.1857 20.3945 15.9164 20.2227 16.5494 19.9765C17.8938 19.4569 18.9567 18.3942 19.4764 17.0502C19.7225 16.4133 19.8945 15.6866 19.9414 14.6239C19.9882 13.5572 20 13.2174 20 10.502C20 7.7866 19.996 7.44672 19.9492 6.38007ZM18.1478 14.5458C18.1047 15.5225 17.9406 16.05 17.8039 16.4016C17.4677 17.2729 16.7761 17.9644 15.9046 18.3005C15.5529 18.4372 15.0216 18.6013 14.0484 18.6442C12.9933 18.6912 12.6769 18.7028 10.0079 18.7028C7.33882 18.7028 7.01842 18.6912 5.96714 18.6442C4.99019 18.6013 4.46264 18.4372 4.11094 18.3005C3.67727 18.1402 3.28253 17.8863 2.96212 17.5542C2.62996 17.2299 2.37596 16.8391 2.21568 16.4056C2.0789 16.0539 1.91481 15.5225 1.87191 14.5497C1.8249 13.4948 1.8133 13.1783 1.8133 10.5098C1.8133 7.84124 1.8249 7.52089 1.87191 6.46996C1.91481 5.49321 2.0789 4.96576 2.21568 4.61413C2.37596 4.18039 2.62996 3.78587 2.96609 3.46537C3.29031 3.13327 3.68109 2.87932 4.11491 2.71922C4.46661 2.58247 4.99813 2.41841 5.9711 2.37537C7.0262 2.32852 7.34279 2.31677 10.0117 2.31677C12.6847 2.31677 13.0011 2.32852 14.0524 2.37537C15.0293 2.41841 15.5569 2.58247 15.9086 2.71922C16.3423 2.87932 16.737 3.13327 17.0574 3.46537C17.3896 3.78968 17.6436 4.18039 17.8039 4.61413C17.9406 4.96576 18.1047 5.49702 18.1478 6.46996C18.1946 7.52486 18.2064 7.84124 18.2064 10.5098C18.2064 13.1783 18.1946 13.4909 18.1478 14.5458Z" fill="#2C2A72"/>
<path d="M10.004 5.36328C7.16701 5.36328 4.86523 7.66446 4.86523 10.501C4.86523 13.3376 7.16701 15.6388 10.004 15.6388C12.8411 15.6388 15.1427 13.3376 15.1427 10.501C15.1427 7.66446 12.8411 5.36328 10.004 5.36328ZM10.004 13.8337C8.16349 13.8337 6.6706 12.3413 6.6706 10.501C6.6706 8.66075 8.16349 7.1683 10.004 7.1683C11.8446 7.1683 13.3373 8.66075 13.3373 10.501C13.3373 12.3413 11.8446 13.8337 10.004 13.8337Z" fill="#2C2A72"/>
<path d="M16.545 5.16232C16.545 5.82469 16.0078 6.36175 15.3452 6.36175C14.6827 6.36175 14.1455 5.82469 14.1455 5.16232C14.1455 4.4998 14.6827 3.96289 15.3452 3.96289C16.0078 3.96289 16.545 4.4998 16.545 5.16232Z" fill="#2C2A72"/>
</svg>
