<svg width="37" height="37" viewBox="0 0 37 37" fill="none" xmlns="http://www.w3.org/2000/svg">
<g clip-path="url(#clip0_913_15945)">
<path d="M28.0625 0.5H8.9375C4.2776 0.5 0.5 4.2776 0.5 8.9375V28.0625C0.5 32.7224 4.2776 36.5 8.9375 36.5H28.0625C32.7224 36.5 36.5 32.7224 36.5 28.0625V8.9375C36.5 4.2776 32.7224 0.5 28.0625 0.5Z" fill="url(#paint0_radial_913_15945)"/>
<path d="M28.0625 0.5H8.9375C4.2776 0.5 0.5 4.2776 0.5 8.9375V28.0625C0.5 32.7224 4.2776 36.5 8.9375 36.5H28.0625C32.7224 36.5 36.5 32.7224 36.5 28.0625V8.9375C36.5 4.2776 32.7224 0.5 28.0625 0.5Z" fill="url(#paint1_radial_913_15945)"/>
<path d="M18.5013 4.4375C14.6822 4.4375 14.2028 4.45423 12.7029 4.52244C11.2058 4.59106 10.1839 4.82802 9.28977 5.17578C8.36473 5.53494 7.58019 6.01545 6.79859 6.79733C6.0163 7.57906 5.53578 8.36361 5.1755 9.28822C4.82675 10.1826 4.58952 11.2049 4.52216 12.7013C4.45508 14.2014 4.4375 14.6809 4.4375 18.5001C4.4375 22.3194 4.45438 22.7972 4.52244 24.2971C4.59134 25.7942 4.8283 26.8161 5.17578 27.7102C5.53522 28.6353 6.01573 29.4198 6.79761 30.2014C7.57906 30.9837 8.36361 31.4653 9.28794 31.8245C10.1827 32.1723 11.2048 32.4092 12.7016 32.4778C14.2017 32.546 14.6806 32.5628 18.4996 32.5628C22.3191 32.5628 22.7969 32.546 24.2968 32.4778C25.7939 32.4092 26.817 32.1723 27.7118 31.8245C28.6364 31.4653 29.4198 30.9837 30.2011 30.2014C30.9834 29.4198 31.4638 28.6353 31.8242 27.7107C32.1699 26.8161 32.4072 25.7939 32.4776 24.2974C32.5449 22.7975 32.5625 22.3194 32.5625 18.5001C32.5625 14.6809 32.5449 14.2017 32.4776 12.7016C32.4072 11.2045 32.1699 10.1827 31.8242 9.28864C31.4638 8.36361 30.9834 7.57906 30.2011 6.79733C29.419 6.01517 28.6367 5.53466 27.7109 5.17592C26.8145 4.82802 25.792 4.59092 24.2949 4.52244C22.7948 4.45423 22.3173 4.4375 18.4969 4.4375H18.5013ZM17.2397 6.9717C17.6142 6.97114 18.032 6.9717 18.5013 6.9717C22.2561 6.9717 22.701 6.9852 24.1838 7.05256C25.5549 7.11528 26.2991 7.34436 26.7948 7.53688C27.4511 7.79169 27.9189 8.09642 28.4108 8.58875C28.903 9.08094 29.2076 9.54964 29.4631 10.2059C29.6556 10.7009 29.885 11.4451 29.9474 12.8162C30.0148 14.2987 30.0294 14.7439 30.0294 18.4969C30.0294 22.2499 30.0148 22.6953 29.9474 24.1776C29.8847 25.5487 29.6556 26.2929 29.4631 26.788C29.2083 27.4443 28.903 27.9116 28.4108 28.4035C27.9186 28.8957 27.4513 29.2003 26.7948 29.4553C26.2996 29.6486 25.5549 29.8771 24.1838 29.9398C22.7013 30.0072 22.2561 30.0218 18.5013 30.0218C14.7463 30.0218 14.3012 30.0072 12.8189 29.9398C11.4478 29.8766 10.7036 29.6475 10.2075 29.455C9.55133 29.2 9.08248 28.8954 8.5903 28.4032C8.09811 27.911 7.79352 27.4435 7.538 26.7869C7.34548 26.2917 7.11613 25.5476 7.05369 24.1765C6.98633 22.694 6.97283 22.2488 6.97283 18.4934C6.97283 14.738 6.98633 14.2952 7.05369 12.8127C7.11641 11.4416 7.34548 10.6974 7.538 10.2017C7.79295 9.54542 8.09811 9.07672 8.59044 8.58453C9.08277 8.09234 9.55133 7.78761 10.2076 7.53223C10.7033 7.33888 11.4478 7.11036 12.8189 7.04736C14.1162 6.98872 14.6189 6.97114 17.2397 6.96819V6.9717ZM26.0078 9.30664C25.0762 9.30664 24.3203 10.0618 24.3203 10.9936C24.3203 11.9252 25.0762 12.6811 26.0078 12.6811C26.9395 12.6811 27.6953 11.9252 27.6953 10.9936C27.6953 10.0619 26.9395 9.30608 26.0078 9.30608V9.30664ZM18.5013 11.2783C14.5131 11.2783 11.2796 14.5119 11.2796 18.5001C11.2796 22.4884 14.5131 25.7204 18.5013 25.7204C22.4895 25.7204 25.7219 22.4884 25.7219 18.5001C25.7219 14.512 22.4893 11.2783 18.501 11.2783H18.5013ZM18.5013 13.8125C21.09 13.8125 23.1889 15.9111 23.1889 18.5001C23.1889 21.0889 21.09 23.1877 18.5013 23.1877C15.9125 23.1877 13.8138 21.0889 13.8138 18.5001C13.8138 15.9111 15.9124 13.8125 18.5013 13.8125Z" fill="white"/>
</g>
<defs>
<radialGradient id="paint0_radial_913_15945" cx="0" cy="0" r="1" gradientUnits="userSpaceOnUse" gradientTransform="translate(10.0625 39.2727) rotate(-90) scale(35.6787 33.184)">
<stop stop-color="#FFDD55"/>
<stop offset="0.1" stop-color="#FFDD55"/>
<stop offset="0.5" stop-color="#FF543E"/>
<stop offset="1" stop-color="#C837AB"/>
</radialGradient>
<radialGradient id="paint1_radial_913_15945" cx="0" cy="0" r="1" gradientUnits="userSpaceOnUse" gradientTransform="translate(-5.53014 3.09327) rotate(78.681) scale(15.9486 65.7405)">
<stop stop-color="#3771C8"/>
<stop offset="0.128" stop-color="#3771C8"/>
<stop offset="1" stop-color="#6600FF" stop-opacity="0"/>
</radialGradient>
<clipPath id="clip0_913_15945">
<rect width="36" height="36" fill="white" transform="translate(0.5 0.5)"/>
</clipPath>
</defs>
</svg>
