<svg width="28" height="28" viewBox="0 0 28 28" fill="none" xmlns="http://www.w3.org/2000/svg">
<path d="M8.83996 2.947C8.95603 2.59853 9.17879 2.29541 9.47669 2.08058C9.7746 1.86575 10.1325 1.7501 10.4998 1.75H18.3748C18.6576 1.74996 18.9362 1.81845 19.1867 1.94959C19.4372 2.08074 19.6522 2.27063 19.8133 2.50302C19.9744 2.73542 20.0768 3.00338 20.1117 3.28399C20.1466 3.56459 20.113 3.84947 20.0137 4.11425L18.2751 8.75H20.9998C21.332 8.75001 21.6574 8.84457 21.9378 9.02263C22.2182 9.20068 22.4422 9.45488 22.5835 9.75551C22.7248 10.0561 22.7777 10.3908 22.7358 10.7203C22.694 11.0499 22.5593 11.3607 22.3473 11.6165L10.9137 25.4161C9.42096 27.2169 6.52471 25.7355 7.11096 23.4719L9.11296 15.75H6.99984C6.72252 15.75 6.44918 15.684 6.20234 15.5576C5.9555 15.4312 5.74224 15.248 5.58013 15.023C5.41802 14.798 5.31171 14.5377 5.26995 14.2635C5.2282 13.9893 5.25219 13.7092 5.33996 13.4461L8.83996 2.947ZM10.4998 3.5L6.99984 14H10.2443C10.378 14 10.5098 14.0306 10.6298 14.0895C10.7497 14.1483 10.8546 14.2339 10.9364 14.3395C11.0181 14.4452 11.0746 14.5682 11.1015 14.6991C11.1283 14.83 11.1249 14.9653 11.0913 15.0946L8.80496 23.9111C8.68771 24.3635 9.26696 24.6601 9.56621 24.2996L20.9998 10.5H17.0125C16.8711 10.4999 16.7319 10.4657 16.6067 10.4001C16.4815 10.3345 16.374 10.2395 16.2935 10.1233C16.213 10.0071 16.1619 9.87317 16.1445 9.7329C16.127 9.59263 16.1438 9.45023 16.1935 9.31788L18.3748 3.5H10.4998Z" fill="#161C2D"/>
</svg>
