<svg width="20" height="21" viewBox="0 0 20 21" fill="none" xmlns="http://www.w3.org/2000/svg">
<path d="M19.995 20.5007V20.4999H20V13.1649C20 9.57664 19.2275 6.8125 15.0325 6.8125C13.0158 6.8125 11.6625 7.91916 11.11 8.96831H11.0517V7.1475H7.07422V20.4999H11.2159V13.8883C11.2159 12.1475 11.5459 10.4641 13.7017 10.4641C15.8258 10.4641 15.8575 12.4508 15.8575 13.9999V20.5007H19.995Z" fill="#2C2A72"/>
<path d="M0.330078 7.14844H4.47671V20.5008H0.330078V7.14844Z" fill="#2C2A72"/>
<path d="M2.40164 0.5C1.07582 0.5 0 1.57582 0 2.90164C0 4.22747 1.07582 5.32579 2.40164 5.32579C3.72747 5.32579 4.80329 4.22747 4.80329 2.90164C4.80246 1.57582 3.72663 0.5 2.40164 0.5V0.5Z" fill="#2C2A72"/>
</svg>
