<svg width="20" height="21" viewBox="0 0 20 21" fill="none" xmlns="http://www.w3.org/2000/svg">
<path fill-rule="evenodd" clip-rule="evenodd" d="M6.04199 8.83333C6.04199 7.78352 6.45903 6.7767 7.20136 6.03437C7.94369 5.29204 8.95051 4.875 10.0003 4.875C11.0501 4.875 12.057 5.29204 12.7993 6.03437C13.5416 6.7767 13.9587 7.78352 13.9587 8.83333C13.9587 9.88315 13.5416 10.89 12.7993 11.6323C12.057 12.3746 11.0501 12.7917 10.0003 12.7917C8.95051 12.7917 7.94369 12.3746 7.20136 11.6323C6.45903 10.89 6.04199 9.88315 6.04199 8.83333ZM10.0003 6.125C9.28203 6.125 8.59316 6.41034 8.08524 6.91825C7.57733 7.42616 7.29199 8.11504 7.29199 8.83333C7.29199 9.55163 7.57733 10.2405 8.08524 10.7484C8.59316 11.2563 9.28203 11.5417 10.0003 11.5417C10.7186 11.5417 11.4075 11.2563 11.9154 10.7484C12.4233 10.2405 12.7087 9.55163 12.7087 8.83333C12.7087 8.11504 12.4233 7.42616 11.9154 6.91825C11.4075 6.41034 10.7186 6.125 10.0003 6.125Z" fill="#161C2D" fill-opacity="0.7"/>
<path fill-rule="evenodd" clip-rule="evenodd" d="M2.93689 7.88067C3.07971 6.15315 3.86673 4.54244 5.14181 3.36817C6.41688 2.1939 8.08681 1.54188 9.82023 1.5415H10.1802C11.9136 1.54188 13.5836 2.1939 14.8586 3.36817C16.1337 4.54244 16.9207 6.15315 17.0636 7.88067C17.2224 9.80511 16.6279 11.7161 15.4052 13.2107L11.4111 18.0948C11.2401 18.3039 11.0249 18.4723 10.7809 18.588C10.5369 18.7036 10.2702 18.7636 10.0002 18.7636C9.73021 18.7636 9.46356 18.7036 9.21956 18.588C8.97557 18.4723 8.76033 18.3039 8.58939 18.0948L4.59523 13.2107C3.37259 11.7161 2.77803 9.80511 2.93689 7.88067ZM9.82023 2.7915C8.40074 2.7921 7.03333 3.32621 5.98923 4.28788C4.94514 5.24955 4.30063 6.56852 4.18356 7.98317C4.05129 9.58475 4.54606 11.1751 5.56356 12.419L9.55773 17.304C9.61142 17.3697 9.67905 17.4227 9.75572 17.459C9.8324 17.4954 9.9162 17.5143 10.0011 17.5143C10.0859 17.5143 10.1697 17.4954 10.2464 17.459C10.3231 17.4227 10.3907 17.3697 10.4444 17.304L14.4386 12.419C15.4555 11.1749 15.9496 9.58453 15.8169 7.98317C15.6998 6.56838 15.0552 5.24928 14.0109 4.2876C12.9666 3.32591 11.599 2.79189 10.1794 2.7915H9.82023Z" fill="#161C2D" fill-opacity="0.7"/>
</svg>
