<svg width="20" height="21" viewBox="0 0 20 21" fill="none" xmlns="http://www.w3.org/2000/svg">
<path d="M13.3335 7.1665C13.9965 7.1665 14.6324 7.4299 15.1013 7.89874C15.5701 8.36758 15.8335 9.00346 15.8335 9.6665V16.3332C15.8335 16.9962 15.5701 17.6321 15.1013 18.1009C14.6324 18.5698 13.9965 18.8332 13.3335 18.8332H5.8335C5.17045 18.8332 4.53457 18.5698 4.06573 18.1009C3.59689 17.6321 3.3335 16.9962 3.3335 16.3332V9.6665C3.3335 9.00346 3.59689 8.36758 4.06573 7.89874C4.53457 7.4299 5.17045 7.1665 5.8335 7.1665V5.9165C5.8335 3.83317 7.50016 2.1665 9.5835 2.1665C11.6668 2.1665 13.3335 3.83317 13.3335 5.9165V7.1665ZM5.8335 7.99984C5.39147 7.99984 4.96755 8.17543 4.65498 8.48799C4.34242 8.80055 4.16683 9.22448 4.16683 9.6665V16.3332C4.16683 16.7752 4.34242 17.1991 4.65498 17.5117C4.96755 17.8242 5.39147 17.9998 5.8335 17.9998H13.3335C13.7755 17.9998 14.1994 17.8242 14.512 17.5117C14.8246 17.1991 15.0002 16.7752 15.0002 16.3332V9.6665C15.0002 9.22448 14.8246 8.80055 14.512 8.48799C14.1994 8.17543 13.7755 7.99984 13.3335 7.99984H5.8335ZM12.5002 7.1665V5.9165C12.5002 5.14296 12.1929 4.40109 11.6459 3.85411C11.0989 3.30713 10.357 2.99984 9.5835 2.99984C8.80995 2.99984 8.06808 3.30713 7.5211 3.85411C6.97412 4.40109 6.66683 5.14296 6.66683 5.9165V7.1665H12.5002ZM9.5835 12.1665C9.25198 12.1665 8.93403 12.2982 8.69961 12.5326C8.46519 12.767 8.3335 13.085 8.3335 13.4165C8.3335 13.748 8.46519 14.066 8.69961 14.3004C8.93403 14.5348 9.25198 14.6665 9.5835 14.6665C9.91502 14.6665 10.233 14.5348 10.4674 14.3004C10.7018 14.066 10.8335 13.748 10.8335 13.4165C10.8335 13.085 10.7018 12.767 10.4674 12.5326C10.233 12.2982 9.91502 12.1665 9.5835 12.1665ZM9.5835 11.3332C10.136 11.3332 10.6659 11.5527 11.0566 11.9434C11.4473 12.3341 11.6668 12.864 11.6668 13.4165C11.6668 13.969 11.4473 14.4989 11.0566 14.8896C10.6659 15.2803 10.136 15.4998 9.5835 15.4998C9.03096 15.4998 8.50106 15.2803 8.11036 14.8896C7.71966 14.4989 7.50016 13.969 7.50016 13.4165C7.50016 12.864 7.71966 12.3341 8.11036 11.9434C8.50106 11.5527 9.03096 11.3332 9.5835 11.3332Z" fill="#161C2D" fill-opacity="0.7"/>
</svg>
