<svg width="20" height="20" viewBox="0 0 20 20" fill="none" xmlns="http://www.w3.org/2000/svg">
<path fill-rule="evenodd" clip-rule="evenodd" d="M12.5 11.875H13.2763L13.8263 12.425L15.7137 14.3125C15.7453 14.3432 15.7853 14.3636 15.8287 14.371C15.872 14.3785 15.9166 14.3726 15.9565 14.3542C15.9965 14.3358 16.0299 14.3057 16.0524 14.2679C16.0749 14.2301 16.0854 14.1864 16.0825 14.1425L15.9425 12.325L15.865 11.3137L16.6675 10.695C17.5462 10.02 18.125 9.01375 18.125 7.5C18.125 5.9825 17.5438 4.97625 16.6625 4.3C15.72 3.5775 14.285 3.125 12.5 3.125C10.715 3.125 9.28 3.5775 8.3375 4.3C7.4575 4.975 6.875 5.9825 6.875 7.5C6.875 9.0175 7.45625 10.0238 8.3375 10.7C9.28 11.4225 10.715 11.875 12.5 11.875ZM13.15 14.4L14.3875 15.6375C14.6897 15.9397 15.0772 16.142 15.4979 16.2173C15.9186 16.2926 16.3522 16.2372 16.7405 16.0585C17.1287 15.8798 17.4529 15.5865 17.6693 15.218C17.8858 14.8496 17.9842 14.4236 17.9513 13.9975L17.8125 12.1812C19.1625 11.1375 20 9.57875 20 7.5C20 3.33375 16.6425 1.25 12.5 1.25C9.84125 1.25 7.50625 2.10875 6.175 3.825C2.66375 4.23 0 6.2875 0 10C0 12.0787 0.83625 13.6388 2.1875 14.6812L2.04875 16.4975C2.0158 16.9236 2.11418 17.3496 2.33065 17.718C2.54713 18.0865 2.8713 18.3798 3.25953 18.5585C3.64776 18.7372 4.08141 18.7926 4.50209 18.7173C4.92278 18.642 5.3103 18.4397 5.6125 18.1375L7.5 16.25C9.75375 16.25 11.775 15.6338 13.15 14.4ZM5.17875 5.92C5.06042 6.40667 5.00083 6.93333 5 7.5C5 11.1313 7.55 13.18 10.9487 13.6475C10.0525 14.105 8.88125 14.375 7.5 14.375H6.72375L6.17375 14.925L4.28625 16.8125C4.25474 16.8432 4.21467 16.8636 4.17133 16.871C4.12799 16.8785 4.08341 16.8726 4.04348 16.8542C4.00354 16.8358 3.97013 16.8057 3.94764 16.7679C3.92515 16.7301 3.91464 16.6864 3.9175 16.6425L4.0575 14.825L4.135 13.8137L3.3325 13.195C2.45375 12.52 1.875 11.5138 1.875 10C1.875 8.4825 2.45625 7.47625 3.3375 6.8C3.82625 6.425 4.44625 6.12375 5.17875 5.92Z" fill="white"/>
</svg>
