<svg width="24" height="24" viewBox="0 0 24 24" fill="none" xmlns="http://www.w3.org/2000/svg">
<path d="M21.707 20.293L18.319 16.905C19.408 15.5099 19.9996 13.7908 20 12.021H18C17.9993 13.2604 17.6116 14.4686 16.891 15.477L15.439 14.025C15.787 13.434 16 12.755 16 12.021V6.021C16 3.804 14.215 2 12.021 2C11.951 2 11.8813 2.00833 11.812 2.025C10.7851 2.07454 9.81667 2.51704 9.10707 3.26089C8.39747 4.00474 8.00108 4.99297 7.99997 6.021V6.586L3.70697 2.293L2.29297 3.707L20.293 21.707L21.707 20.293ZM9.99997 6.021C9.99997 4.918 10.897 4.021 12 4.021C12.055 4.02052 12.1098 4.0155 12.164 4.006C13.188 4.08 14 4.956 14 6.021V12.021C14 12.193 13.971 12.356 13.929 12.515L9.99997 8.586V6.021ZM5.99997 12.021H3.99997C3.99997 16.093 7.05997 19.457 11 19.952V22.021H13V19.951C13.7649 19.8553 14.5119 19.6495 15.218 19.34L13.66 17.782C13.1206 17.939 12.5618 18.0194 12 18.021C8.69097 18.021 5.99997 15.329 5.99997 12.021Z" fill="#667085"/>
<path d="M8.01099 12.1318C8.04018 13.1508 8.45802 14.1201 9.17887 14.841C9.89972 15.5618 10.869 15.9796 11.888 16.0088L8.01099 12.1318Z" fill="#667085"/>
</svg>
