<svg width="24" height="18" viewBox="0 0 24 18" fill="none" xmlns="http://www.w3.org/2000/svg">
<path d="M8.487 11.8866C8.877 11.8866 9.193 12.2006 9.193 12.5866C9.19261 12.6789 9.17403 12.7703 9.13834 12.8554C9.10265 12.9405 9.05054 13.0178 8.98498 13.0828C8.91942 13.1478 8.8417 13.1993 8.75626 13.2342C8.67081 13.2692 8.57932 13.287 8.487 13.2866H5.632C5.5396 13.2871 5.448 13.2694 5.36244 13.2345C5.27688 13.1996 5.19904 13.1482 5.13338 13.0832C5.06771 13.0182 5.01551 12.9408 4.97975 12.8556C4.944 12.7704 4.92539 12.679 4.925 12.5866C4.925 12.2006 5.242 11.8866 5.632 11.8866H8.487ZM9.177 9.29361C9.567 9.29361 9.883 9.60861 9.883 9.99361C9.88261 10.086 9.864 10.1774 9.82825 10.2626C9.79249 10.3478 9.74029 10.4252 9.67462 10.4902C9.60896 10.5552 9.53112 10.6066 9.44556 10.6415C9.36 10.6764 9.2684 10.6941 9.176 10.6936H5.648C5.55568 10.694 5.46419 10.6762 5.37874 10.6412C5.2933 10.6063 5.21558 10.5548 5.15002 10.4898C5.08447 10.4248 5.03235 10.3476 4.99666 10.2624C4.96097 10.1773 4.94239 10.0859 4.942 9.99361C4.942 9.60761 5.258 9.29361 5.648 9.29361H9.177ZM13.041 5.83361C13.0439 5.27452 13.2686 4.73945 13.6657 4.34589C14.0628 3.95234 14.5999 3.73248 15.159 3.73461C15.7183 3.73248 16.2555 3.95248 16.6526 4.34625C17.0498 4.74002 17.2744 5.27535 17.277 5.83461C17.2738 6.39398 17.0492 6.92931 16.6522 7.32345C16.2553 7.71758 15.7184 7.93841 15.159 7.93761C14.5995 7.93815 14.0626 7.71709 13.6657 7.3228C13.2688 6.92851 13.0442 6.39307 13.041 5.83361ZM19.3 12.3926C19.4 13.0116 18.922 13.5726 18.295 13.5706H12.023C11.8757 13.5709 11.7301 13.5392 11.5963 13.4776C11.4625 13.416 11.3437 13.3261 11.2481 13.214C11.1525 13.102 11.0824 12.9705 11.0427 12.8286C11.0029 12.6868 10.9945 12.538 11.018 12.3926C11.333 10.4506 12.409 8.88361 13.814 8.26261C14.2254 8.49114 14.6883 8.61107 15.159 8.61107C15.6297 8.61107 16.0926 8.49114 16.504 8.26261C17.909 8.88361 18.986 10.4526 19.3 12.3926ZM10.588 8.10261C2.208 8.10261 10.441 8.10061 5.647 8.10061C5.5546 8.10114 5.463 8.08344 5.37744 8.04853C5.29188 8.01363 5.21404 7.9622 5.14838 7.89718C5.08271 7.83217 5.03051 7.75485 4.99475 7.66964C4.959 7.58443 4.94039 7.49301 4.94 7.40061C4.94 7.01461 5.257 6.70061 5.647 6.70061L10.588 6.70161C10.978 6.70161 11.295 7.01561 11.294 7.40261C11.294 7.49504 11.2757 7.58656 11.2401 7.67188C11.2046 7.7572 11.1525 7.83464 11.0869 7.89972C11.0212 7.9648 10.9433 8.01623 10.8577 8.05106C10.7721 8.08588 10.6804 8.1034 10.588 8.10261ZM5.648 5.50861C5.55549 5.50953 5.46371 5.49211 5.37797 5.45735C5.29223 5.42258 5.21424 5.37117 5.14849 5.30608C5.08275 5.24098 5.03056 5.1635 4.99495 5.07811C4.95933 4.99273 4.941 4.90113 4.941 4.80861C4.941 4.42261 5.258 4.10861 5.648 4.10861H10.588C10.977 4.10861 11.293 4.42161 11.293 4.80861C11.2919 4.99488 11.217 5.17312 11.0846 5.30418C10.9523 5.43524 10.7733 5.50841 10.587 5.50761L5.648 5.50861ZM13.457 15.6256C13.631 15.6256 13.798 15.5569 13.9216 15.4344C14.0452 15.3119 14.1154 15.1456 14.117 14.9716H21.177V2.37161H2.824V14.9706H9.883C9.883 15.3316 10.178 15.6246 10.543 15.6246L13.457 15.6256ZM24 14.9716V15.9286C24 16.5336 23.504 17.0246 22.894 17.0246H1.106C0.496 17.0246 0 16.5346 0 15.9286V14.9716H1.413V2.35661C1.413 1.59361 2.036 0.974609 2.807 0.974609H21.194C21.964 0.974609 22.588 1.59361 22.588 2.35661V14.9716H24Z" fill="#667085"/>
</svg>
