<svg width="130" height="130" viewBox="0 0 130 130" fill="none" xmlns="http://www.w3.org/2000/svg">
<path d="M110.024 68.5038L112.824 58.0388C116.096 45.8242 117.737 39.7196 116.507 34.433C115.533 30.2594 113.343 26.4686 110.213 23.5401C106.254 19.8296 100.144 18.1938 87.9291 14.9221C75.7145 11.6451 69.6045 10.0092 64.3233 11.2388C60.1497 12.2133 56.3589 14.4037 53.4304 17.533C50.2508 20.9238 48.5933 25.8909 46.1287 34.9151L44.807 39.8171L42.0066 50.2821C38.7295 62.4967 37.0937 68.6013 38.3233 73.888C39.2978 78.0616 41.4882 81.8524 44.6174 84.7809C48.577 88.4913 54.687 90.1271 66.9016 93.4042C77.9083 96.3509 83.9587 97.9705 88.915 97.3584C89.4566 97.2898 89.9874 97.1959 90.5074 97.0767C94.6797 96.1052 98.4704 93.9186 101.4 90.7934C105.111 86.8284 106.747 80.7184 110.024 68.5038Z" stroke="#128807" stroke-width="1.5"/>
<path opacity="0.5" d="M88.9148 97.3589C87.7825 100.827 85.7927 103.954 83.1298 106.448C79.1702 110.158 73.0602 111.794 60.8456 115.066C48.631 118.338 42.521 119.979 37.2398 118.744C33.0668 117.771 29.2761 115.582 26.3469 112.455C22.6364 108.496 20.9952 102.386 17.7235 90.171L14.9231 79.706C11.646 67.4914 10.0102 61.3814 11.2398 56.1002C12.2143 51.9266 14.4047 48.1358 17.534 45.2072C21.4935 41.4968 27.6035 39.861 39.8181 36.5839C42.122 35.9628 44.2255 35.4049 46.1285 34.9102" stroke="#128807" stroke-width="1.5"/>
<path d="M63.7925 54.166L89.955 61.1752" stroke="#128807" stroke-width="1.5" stroke-linecap="round"/>
<path opacity="0.5" d="M59.5835 69.8633L75.281 74.0666" stroke="#128807" stroke-width="1.5" stroke-linecap="round"/>
</svg>
