<svg width="25" height="24" viewBox="0 0 25 24" fill="none" xmlns="http://www.w3.org/2000/svg">
<path fill-rule="evenodd" clip-rule="evenodd" d="M13.9446 3C13.9446 2.44772 13.4969 2 12.9446 2C12.3923 2 11.9446 2.44772 11.9446 3V3.57088C8.55227 4.0561 5.94455 6.97352 5.94455 10.5V15.5L5.22695 16.7558C4.65553 17.7558 5.37758 19 6.52932 19H9.0706C9.51464 20.7252 11.0807 22 12.9446 22C14.8084 22 16.3745 20.7252 16.8186 19H19.3598C20.5115 19 21.2336 17.7558 20.6621 16.7558L19.9445 15.5V10.5C19.9445 6.97354 17.3369 4.05614 13.9446 3.57089V3ZM7.94455 16.0311L7.39091 17H18.4982L17.9445 16.0311V10.5C17.9445 7.73858 15.706 5.5 12.9445 5.5C10.1831 5.5 7.94455 7.73858 7.94455 10.5V16.0311ZM12.9446 20C12.2043 20 11.558 19.5978 11.2121 19H14.677C14.3312 19.5978 13.6849 20 12.9446 20Z" fill="#667085"/>
</svg>
