<svg width="20" height="22" viewBox="0 0 20 22" fill="none" xmlns="http://www.w3.org/2000/svg">
<path d="M4.583 6.23772C7.59 6.76772 9.382 7.87672 10 8.51372C10.618 7.87672 12.41 6.76772 15.418 6.23772C16.941 5.96872 17.703 5.83472 18.351 6.34972C19 6.86372 19 7.69972 19 9.37172V15.3787C19 16.9077 19 17.6717 18.584 18.1487C18.167 18.6257 17.251 18.7877 15.418 19.1107C13.783 19.3987 12.508 19.8577 11.585 20.3187C10.676 20.7727 10.222 20.9997 10 20.9997M10 20.9997C9.778 20.9997 9.323 20.7727 8.415 20.3197C7.492 19.8577 6.217 19.3987 4.583 19.1097C2.749 18.7877 1.833 18.6257 1.416 18.1487C0.999 17.6717 1 16.9077 1 15.3787V9.37172C1 7.69972 1 6.86372 1.649 6.34972C2.297 5.83472 3.059 5.96972 4.582 6.23772M10 20.9997V7.99972M6.5 2.05872C7.53651 1.36672 8.75524 0.998226 10.0015 1.00001C11.2478 1.00179 12.4655 1.37376 13.5 2.06872M11.622 4.49972C11.1334 4.2029 10.5731 4.04511 10.0014 4.04334C9.42972 4.04158 8.86841 4.19592 8.378 4.48972" stroke="#667085" stroke-width="1.5" stroke-linecap="round" stroke-linejoin="round"/>
</svg>
