<svg width="24" height="24" viewBox="0 0 24 24" fill="none" xmlns="http://www.w3.org/2000/svg">
<path d="M2 4.5H8.757C9.1511 4.49995 9.54135 4.57756 9.90545 4.72838C10.2696 4.8792 10.6004 5.10029 10.879 5.379L14 8.5M5 13.5H2M8.5 7.5L10.5 9.5C10.6313 9.63132 10.7355 9.78722 10.8066 9.9588C10.8776 10.1304 10.9142 10.3143 10.9142 10.5C10.9142 10.6857 10.8776 10.8696 10.8066 11.0412C10.7355 11.2128 10.6313 11.3687 10.5 11.5C10.3687 11.6313 10.2128 11.7355 10.0412 11.8066C9.86962 11.8776 9.68572 11.9142 9.5 11.9142C9.31428 11.9142 9.13038 11.8776 8.9588 11.8066C8.78722 11.7355 8.63132 11.6313 8.5 11.5L7 10C6.14 10.86 4.777 10.957 3.803 10.227L3.5 10" stroke="#7A8389" stroke-width="1.5" stroke-linecap="round" stroke-linejoin="round"/>
<path d="M5 10.5V15C5 16.886 5 17.828 5.586 18.414C6.172 19 7.114 19 9 19H18C19.886 19 20.828 19 21.414 18.414C22 17.828 22 16.886 22 15V12C22 10.114 22 9.172 21.414 8.586C20.828 8 19.886 8 18 8H9.5" stroke="#7A8389" stroke-linecap="round" stroke-linejoin="round"/>
<path d="M15.25 14C15.25 14.4641 15.0656 14.9092 14.7374 15.2374C14.4092 15.5656 13.9641 15.75 13.5 15.75C13.0359 15.75 12.5908 15.5656 12.2626 15.2374C11.9344 14.9092 11.75 14.4641 11.75 14C11.75 13.5359 11.9344 13.0908 12.2626 12.7626C12.5908 12.4344 13.0359 12.25 13.5 12.25C13.9641 12.25 14.4092 12.4344 14.7374 12.7626C15.0656 13.0908 15.25 13.5359 15.25 14Z" stroke="#7A8389" stroke-width="1.5" stroke-linecap="round" stroke-linejoin="round"/>
</svg>
