<svg width="84" height="104" viewBox="0 0 84 104" fill="none" xmlns="http://www.w3.org/2000/svg">
<path d="M47.1665 36.5007H75.5832L47.1665 8.08398V36.5007ZM10.9998 0.333984H52.3332L83.3332 31.334V93.334C83.3332 96.0746 82.2445 98.7029 80.3066 100.641C78.3687 102.579 75.7404 103.667 72.9998 103.667H10.9998C8.25927 103.667 5.63094 102.579 3.69307 100.641C1.75519 98.7029 0.666504 96.0746 0.666504 93.334V10.6673C0.666504 7.92675 1.75519 5.29842 3.69307 3.36055C5.63094 1.42267 8.25927 0.333984 10.9998 0.333984ZM36.4715 54.274C38.5898 58.924 41.2765 62.7473 44.3765 65.3823L46.4948 67.0357C41.9998 67.8623 35.7998 69.309 29.2382 71.8407L28.6698 72.0473L31.2532 66.674C33.5782 62.179 35.2832 58.0973 36.4715 54.274ZM69.9515 73.959C70.8815 73.029 71.3465 71.8407 71.3982 70.549C71.5532 69.5157 71.2948 68.534 70.7782 67.7073C69.2798 65.279 65.4048 64.1423 58.9982 64.1423L52.3332 64.504L47.8382 61.5073C44.5832 58.8207 41.6382 54.119 39.5715 48.2807L39.7782 47.5573C41.4832 40.6857 43.0848 32.3673 39.6748 28.9573C39.2577 28.5523 38.7644 28.2341 38.2233 28.0213C37.6823 27.8084 37.1044 27.7051 36.5232 27.7173H35.2832C33.3715 27.7173 31.6665 29.7323 31.2015 31.6957C29.2898 38.5673 30.4265 42.339 32.3382 48.5907V48.6423C31.0465 53.189 29.3932 58.459 26.7582 63.7807L21.7982 73.0807L17.1998 75.6123C10.9998 79.4873 8.05484 83.8273 7.4865 86.5657C7.27984 87.5473 7.38317 88.4257 7.74484 89.3557L7.89984 89.614L10.3798 91.2157L12.6532 91.784C16.8382 91.784 21.5915 86.8756 27.9982 75.9223L28.9282 75.5607C34.2498 73.8557 40.8632 72.6673 49.7498 71.6857C55.0715 74.3207 61.3232 75.509 65.2498 75.509C67.5232 75.509 69.0732 74.9407 69.9515 73.959ZM67.8332 70.2907L68.2982 70.859C68.2465 71.3757 68.0915 71.4273 67.8332 71.5307H67.6265L66.6448 71.634C64.2682 71.634 60.5998 70.6523 56.8282 68.999C57.2932 68.4823 57.4998 68.4823 58.0165 68.4823C65.2498 68.4823 67.3165 69.774 67.8332 70.2907ZM20.4548 77.834C17.0965 83.9823 14.0482 87.3923 11.7232 88.1673C11.9815 86.204 14.3065 82.794 17.9748 79.4357L20.4548 77.834ZM36.0582 42.1323C34.8698 37.4823 34.8182 33.7107 35.6965 31.5407L36.0582 30.9207L36.8332 31.179C37.7115 32.419 37.8148 34.0723 37.2982 36.8623L37.1432 37.689L36.3165 41.9257L36.0582 42.1323Z" fill="#EF5350"/>
</svg>
