<svg width="40" height="40" viewBox="0 0 40 40" fill="none" xmlns="http://www.w3.org/2000/svg">
<rect width="40" height="40" rx="20" fill="#FCE7F6"/>
<path d="M19.9999 19.9993C19.5055 19.9993 19.0221 20.146 18.611 20.4207C18.1999 20.6954 17.8794 21.0858 17.6902 21.5426C17.501 21.9995 17.4515 22.5021 17.548 22.9871C17.6444 23.472 17.8825 23.9175 18.2322 24.2671C18.5818 24.6167 19.0272 24.8548 19.5122 24.9513C19.9971 25.0478 20.4998 24.9983 20.9566 24.809C21.4134 24.6198 21.8039 24.2994 22.0786 23.8883C22.3533 23.4772 22.4999 22.9938 22.4999 22.4993C22.4999 21.8363 22.2365 21.2004 21.7677 20.7316C21.2988 20.2627 20.663 19.9993 19.9999 19.9993ZM19.9999 23.3327C19.8351 23.3327 19.674 23.2838 19.5369 23.1922C19.3999 23.1007 19.2931 22.9705 19.23 22.8183C19.1669 22.666 19.1504 22.4984 19.1826 22.3368C19.2148 22.1751 19.2941 22.0266 19.4107 21.9101C19.5272 21.7935 19.6757 21.7142 19.8373 21.682C19.999 21.6499 20.1666 21.6664 20.3188 21.7294C20.4711 21.7925 20.6012 21.8993 20.6928 22.0364C20.7844 22.1734 20.8333 22.3345 20.8333 22.4993C20.8333 22.7204 20.7455 22.9323 20.5892 23.0886C20.4329 23.2449 20.2209 23.3327 19.9999 23.3327ZM19.4083 18.091C19.4875 18.1669 19.581 18.2264 19.6833 18.266C19.783 18.3101 19.8909 18.3329 19.9999 18.3329C20.109 18.3329 20.2168 18.3101 20.3166 18.266C20.4189 18.2264 20.5123 18.1669 20.5916 18.091L22.4999 16.216C22.6613 16.0547 22.7519 15.8359 22.7519 15.6077C22.7519 15.3795 22.6613 15.1607 22.4999 14.9993C22.3386 14.838 22.1198 14.7474 21.8916 14.7474C21.6634 14.7474 21.4446 14.838 21.2833 14.9993L20.8333 15.491V12.4993C20.8333 12.2783 20.7455 12.0664 20.5892 11.9101C20.4329 11.7538 20.2209 11.666 19.9999 11.666C19.7789 11.666 19.5669 11.7538 19.4107 11.9101C19.2544 12.0664 19.1666 12.2783 19.1666 12.4993V15.491L18.7166 14.9993C18.5552 14.838 18.3364 14.7474 18.1083 14.7474C17.8801 14.7474 17.6613 14.838 17.4999 14.9993C17.3386 15.1607 17.2479 15.3795 17.2479 15.6077C17.2479 15.8359 17.3386 16.0547 17.4999 16.216L19.4083 18.091ZM25.8333 22.4993C25.8333 22.3345 25.7844 22.1734 25.6928 22.0364C25.6012 21.8993 25.4711 21.7925 25.3188 21.7294C25.1665 21.6664 24.999 21.6499 24.8373 21.682C24.6757 21.7142 24.5272 21.7935 24.4107 21.9101C24.2941 22.0266 24.2148 22.1751 24.1826 22.3368C24.1504 22.4984 24.1669 22.666 24.23 22.8183C24.2931 22.9705 24.3999 23.1007 24.5369 23.1922C24.674 23.2838 24.8351 23.3327 24.9999 23.3327C25.2209 23.3327 25.4329 23.2449 25.5892 23.0886C25.7455 22.9323 25.8333 22.7204 25.8333 22.4993ZM26.6666 16.666H24.1666C23.9456 16.666 23.7336 16.7538 23.5773 16.9101C23.421 17.0664 23.3333 17.2783 23.3333 17.4993C23.3333 17.7204 23.421 17.9323 23.5773 18.0886C23.7336 18.2449 23.9456 18.3327 24.1666 18.3327H26.6666C26.8876 18.3327 27.0996 18.4205 27.2558 18.5768C27.4121 18.733 27.4999 18.945 27.4999 19.166V25.8327C27.4999 26.0537 27.4121 26.2657 27.2558 26.4219C27.0996 26.5782 26.8876 26.666 26.6666 26.666H13.3333C13.1122 26.666 12.9003 26.5782 12.744 26.4219C12.5877 26.2657 12.4999 26.0537 12.4999 25.8327V19.166C12.4999 18.945 12.5877 18.733 12.744 18.5768C12.9003 18.4205 13.1122 18.3327 13.3333 18.3327H15.8333C16.0543 18.3327 16.2662 18.2449 16.4225 18.0886C16.5788 17.9323 16.6666 17.7204 16.6666 17.4993C16.6666 17.2783 16.5788 17.0664 16.4225 16.9101C16.2662 16.7538 16.0543 16.666 15.8333 16.666H13.3333C12.6702 16.666 12.0343 16.9294 11.5655 17.3982C11.0966 17.8671 10.8333 18.503 10.8333 19.166V25.8327C10.8333 26.4957 11.0966 27.1316 11.5655 27.6004C12.0343 28.0693 12.6702 28.3327 13.3333 28.3327H26.6666C27.3296 28.3327 27.9655 28.0693 28.4344 27.6004C28.9032 27.1316 29.1666 26.4957 29.1666 25.8327V19.166C29.1666 18.503 28.9032 17.8671 28.4344 17.3982C27.9655 16.9294 27.3296 16.666 26.6666 16.666ZM14.1666 22.4993C14.1666 22.6642 14.2155 22.8253 14.307 22.9623C14.3986 23.0994 14.5287 23.2062 14.681 23.2692C14.8333 23.3323 15.0008 23.3488 15.1625 23.3167C15.3241 23.2845 15.4726 23.2051 15.5892 23.0886C15.7057 22.9721 15.7851 22.8236 15.8172 22.6619C15.8494 22.5003 15.8329 22.3327 15.7698 22.1804C15.7067 22.0282 15.5999 21.898 15.4629 21.8065C15.3259 21.7149 15.1647 21.666 14.9999 21.666C14.7789 21.666 14.5669 21.7538 14.4107 21.9101C14.2544 22.0664 14.1666 22.2783 14.1666 22.4993Z" fill="#C11574"/>
</svg>
