<svg width="124" height="124" viewBox="0 0 124 124" fill="none" xmlns="http://www.w3.org/2000/svg">
<path opacity="0.2" d="M62.0005 15.5039C52.8037 15.5039 43.8134 18.2311 36.1665 23.3406C28.5196 28.4501 22.5596 35.7124 19.0401 44.2091C15.5206 52.7059 14.5998 62.0555 16.394 71.0756C18.1882 80.0957 22.6169 88.3812 29.12 94.8844C35.6232 101.388 43.9087 105.816 52.9288 107.61C61.9489 109.405 71.2985 108.484 79.7953 104.964C88.2921 101.445 95.5544 95.4848 100.664 87.8379C105.773 80.191 108.501 71.2007 108.501 62.0039C108.501 55.8974 107.298 49.8508 104.961 44.2091C102.624 38.5675 99.1989 33.4413 94.881 29.1234C90.5631 24.8055 85.437 21.3803 79.7953 19.0435C74.1537 16.7066 68.107 15.5039 62.0005 15.5039ZM54.2505 77.5039V46.5039L77.5005 62.0039L54.2505 77.5039Z" fill="#B7BAC7"/>
<path d="M62.0005 108.504C87.6817 108.504 108.5 87.6852 108.5 62.0039C108.5 36.3227 87.6817 15.5039 62.0005 15.5039C36.3192 15.5039 15.5005 36.3227 15.5005 62.0039C15.5005 87.6852 36.3192 108.504 62.0005 108.504Z" stroke="#B7BAC7" stroke-width="6" stroke-miterlimit="10"/>
<path d="M77.5 61.998L54.25 46.498V77.4981L77.5 61.998Z" stroke="#B7BAC7" stroke-width="6" stroke-linecap="round" stroke-linejoin="round"/>
</svg>
