<svg width="24" height="24" viewBox="0 0 24 24" fill="none" xmlns="http://www.w3.org/2000/svg">
<path d="M10.5 4C10.5 4.82843 11.1716 5.5 12 5.5C12.8284 5.5 13.5 4.82843 13.5 4C13.5 3.17157 12.8284 2.5 12 2.5C11.1716 2.5 10.5 3.17157 10.5 4Z" fill="#667085"/>
<path d="M9 12C9 13.6569 10.3431 15 12 15C13.6569 15 15 13.6569 15 12C15 10.3431 13.6569 9 12 9C10.3431 9 9 10.3431 9 12Z" fill="#667085"/>
<path d="M10.5 20C10.5 20.8284 11.1716 21.5 12 21.5C12.8284 21.5 13.5 20.8284 13.5 20C13.5 19.1716 12.8284 18.5 12 18.5C11.1716 18.5 10.5 19.1716 10.5 20Z" fill="#667085"/>
</svg>
