<svg width="32" height="33" viewBox="0 0 32 33" fill="none" xmlns="http://www.w3.org/2000/svg">
<rect y="0.5" width="32" height="32" rx="8" fill="#8280FF" fill-opacity="0.2"/>
<path d="M16.8917 15.1747C17.3979 14.4674 17.6701 13.6195 17.6701 12.7497C17.6701 11.8799 17.3979 11.032 16.8917 10.3247C17.3657 10.0018 17.9266 9.83037 18.5001 9.83304C19.2736 9.83304 20.0155 10.1403 20.5625 10.6873C21.1095 11.2343 21.4167 11.9762 21.4167 12.7497C21.4167 13.5233 21.1095 14.2651 20.5625 14.8121C20.0155 15.3591 19.2736 15.6664 18.5001 15.6664C17.9266 15.669 17.3657 15.4976 16.8917 15.1747ZM10.5834 12.7497C10.5834 12.1728 10.7545 11.6089 11.075 11.1293C11.3954 10.6496 11.851 10.2758 12.3839 10.0551C12.9169 9.8343 13.5033 9.77654 14.0691 9.88908C14.6349 10.0016 15.1546 10.2794 15.5625 10.6873C15.9704 11.0952 16.2482 11.6149 16.3607 12.1807C16.4732 12.7465 16.4155 13.3329 16.1947 13.8659C15.974 14.3988 15.6001 14.8543 15.1205 15.1748C14.6409 15.4953 14.0769 15.6664 13.5001 15.6664C12.7265 15.6664 11.9847 15.3591 11.4377 14.8121C10.8907 14.2651 10.5834 13.5233 10.5834 12.7497ZM12.2501 12.7497C12.2501 12.9969 12.3234 13.2386 12.4607 13.4442C12.5981 13.6497 12.7933 13.8099 13.0217 13.9046C13.2501 13.9992 13.5015 14.0239 13.7439 13.9757C13.9864 13.9275 14.2091 13.8084 14.384 13.6336C14.5588 13.4588 14.6778 13.236 14.7261 12.9936C14.7743 12.7511 14.7495 12.4998 14.6549 12.2714C14.5603 12.0429 14.4001 11.8477 14.1945 11.7104C13.989 11.573 13.7473 11.4997 13.5001 11.4997C13.1686 11.4997 12.8506 11.6314 12.6162 11.8658C12.3818 12.1002 12.2501 12.4182 12.2501 12.7497ZM19.3334 20.6664V22.333H7.66675V20.6664C7.66675 20.6664 7.66675 17.333 13.5001 17.333C19.3334 17.333 19.3334 20.6664 19.3334 20.6664ZM17.6667 20.6664C17.5501 20.0164 16.5584 18.9997 13.5001 18.9997C10.4417 18.9997 9.39175 20.0914 9.33341 20.6664M19.2917 17.333C19.8025 17.7303 20.2201 18.2346 20.5152 18.8104C20.8104 19.3863 20.9758 20.0198 21.0001 20.6664V22.333H24.3334V20.6664C24.3334 20.6664 24.3334 17.6414 19.2834 17.333H19.2917Z" fill="#8280FF"/>
</svg>
