<svg width="24" height="21" viewBox="0 0 24 21" fill="none" xmlns="http://www.w3.org/2000/svg">
<g filter="url(#filter0_d_1225_13112)">
<path d="M11.992 17C12.0407 17.18 12.1077 17.356 12.193 17.528C12.2783 17.7007 12.3743 17.858 12.481 18H5.616C5.15533 18 4.771 17.846 4.463 17.538C4.155 17.23 4.00067 16.8457 4 16.385V1.615C4 1.155 4.15433 0.771 4.463 0.463C4.77167 0.155 5.156 0.000666667 5.616 0H16.385C16.845 0 17.2293 0.154333 17.538 0.463C17.8467 0.771667 18.0007 1.156 18 1.616V8.735C17.8533 8.71433 17.6867 8.704 17.5 8.704C17.3133 8.704 17.1467 8.714 17 8.734V1.617C17 1.463 16.936 1.32167 16.808 1.193C16.68 1.06433 16.5387 1 16.384 1H11.5V7.192L9.5 6L7.5 7.192V1H5.616C5.462 1 5.32067 1.064 5.192 1.192C5.06333 1.32 4.99933 1.461 5 1.615V16.385C5 16.5383 5.064 16.6793 5.192 16.808C5.32 16.9367 5.461 17.0007 5.615 17H11.992ZM17.5 18.692C16.386 18.692 15.441 18.304 14.665 17.528C13.8883 16.752 13.5 15.8067 13.5 14.692C13.5 13.5787 13.8883 12.6337 14.665 11.857C15.441 11.0803 16.386 10.692 17.5 10.692C18.614 10.692 19.5593 11.0803 20.336 11.857C21.1127 12.6337 21.5007 13.5787 21.5 14.692C21.4993 15.8053 21.1113 16.7507 20.336 17.528C19.5607 18.3053 18.6153 18.6933 17.5 18.692ZM16.635 16.577L19.365 14.654L16.635 12.731V16.577ZM11.992 1H5H17H11.5H11.992Z" fill="#667085"/>
</g>
<defs>
<filter id="filter0_d_1225_13112" x="0" y="0" width="25.5" height="26.6924" filterUnits="userSpaceOnUse" color-interpolation-filters="sRGB">
<feFlood flood-opacity="0" result="BackgroundImageFix"/>
<feColorMatrix in="SourceAlpha" type="matrix" values="0 0 0 0 0 0 0 0 0 0 0 0 0 0 0 0 0 0 127 0" result="hardAlpha"/>
<feOffset dy="4"/>
<feGaussianBlur stdDeviation="2"/>
<feComposite in2="hardAlpha" operator="out"/>
<feColorMatrix type="matrix" values="0 0 0 0 0 0 0 0 0 0 0 0 0 0 0 0 0 0 0.25 0"/>
<feBlend mode="normal" in2="BackgroundImageFix" result="effect1_dropShadow_1225_13112"/>
<feBlend mode="normal" in="SourceGraphic" in2="effect1_dropShadow_1225_13112" result="shape"/>
</filter>
</defs>
</svg>
