<svg width="20" height="19" viewBox="0 0 20 19" fill="none" xmlns="http://www.w3.org/2000/svg">
<path d="M10.8408 1.05273L11.7695 1.21094L12.6748 1.47168L13.5449 1.83203L14.3691 2.28711L15.1377 2.83301L15.8398 3.45996L16.4678 4.16309L17.0127 4.93066L17.4678 5.75586L17.8291 6.62598L18.0898 7.53125L18.2471 8.45996L18.2998 9.40039L18.2471 10.3408L18.0898 11.2695L17.8291 12.1748L17.4678 13.0449L17.0127 13.8691L16.4678 14.6377L15.8398 15.3398L15.1377 15.9678L14.3691 16.5127L13.5449 16.9678L12.6748 17.3291L11.7695 17.5898L10.8408 17.7471L9.90039 17.7998L8.95996 17.7471L8.03125 17.5898L7.12598 17.3291L6.25586 16.9678L5.43066 16.5127L4.66309 15.9678L3.95996 15.3398L3.33301 14.6377L2.78711 13.8691L2.33203 13.0449L1.97168 12.1748L1.71094 11.2695L1.55273 10.3408L1.5 9.40039L1.55273 8.45996L1.71094 7.53125L1.97168 6.62598L2.33203 5.75586L2.78711 4.93066L3.33301 4.16309L3.95996 3.45996L4.66309 2.83301L5.43066 2.28711L6.25586 1.83203L7.12598 1.47168L8.03125 1.21094L8.95996 1.05273L9.90039 1L10.8408 1.05273Z" fill="#F90B0B"/>
<path d="M10.8408 1.05273L11.0087 0.0669351C10.9717 0.0606243 10.9343 0.0564069 10.8968 0.0543029L10.8408 1.05273ZM11.7695 1.21094L12.0463 0.250003C12.0105 0.239694 11.9742 0.231393 11.9375 0.225138L11.7695 1.21094ZM12.6748 1.47168L13.0574 0.547777C13.0229 0.533462 12.9875 0.521099 12.9516 0.510745L12.6748 1.47168ZM13.5449 1.83203L14.0283 0.956605C13.9956 0.938581 13.962 0.922396 13.9275 0.908128L13.5449 1.83203ZM14.3691 2.28711L14.9482 1.47184C14.9175 1.45 14.8855 1.42991 14.8525 1.41168L14.3691 2.28711ZM15.1377 2.83301L15.8037 2.08709C15.7761 2.06238 15.747 2.03922 15.7168 2.01774L15.1377 2.83301ZM15.8398 3.45996L16.5857 2.79386C16.5606 2.76577 16.534 2.73912 16.5059 2.71404L15.8398 3.45996ZM16.4678 4.16309L17.2832 3.58421C17.2616 3.55386 17.2384 3.52474 17.2136 3.49699L16.4678 4.16309ZM17.0127 4.93066L17.8884 4.44775C17.8701 4.41465 17.85 4.38261 17.8281 4.35178L17.0127 4.93066ZM17.4678 5.75586L18.3913 5.37235C18.3772 5.33836 18.3612 5.30517 18.3434 5.27295L17.4678 5.75586ZM17.8291 6.62598L18.79 6.3492C18.7796 6.31295 18.7671 6.27731 18.7526 6.24247L17.8291 6.62598ZM18.0898 7.53125L19.0758 7.36433C19.0695 7.32727 19.0612 7.29059 19.0508 7.25448L18.0898 7.53125ZM18.2471 8.45996L19.2455 8.40397C19.2434 8.36679 19.2393 8.32976 19.233 8.29304L18.2471 8.45996ZM18.2998 9.40039L19.2982 9.45638C19.3003 9.41908 19.3003 9.3817 19.2982 9.3444L18.2998 9.40039ZM18.2471 10.3408L19.233 10.5077C19.2393 10.471 19.2434 10.434 19.2455 10.3968L18.2471 10.3408ZM18.0898 11.2695L19.0508 11.5463C19.0612 11.5102 19.0695 11.4735 19.0758 11.4365L18.0898 11.2695ZM17.8291 12.1748L18.7526 12.5583C18.7671 12.5235 18.7796 12.4878 18.79 12.4516L17.8291 12.1748ZM17.4678 13.0449L18.3432 13.5283C18.3611 13.4959 18.3771 13.4626 18.3913 13.4284L17.4678 13.0449ZM17.0127 13.8691L17.8285 14.4475C17.8501 14.417 17.87 14.3853 17.8881 14.3525L17.0127 13.8691ZM16.4678 14.6377L17.2132 15.3043C17.2383 15.2762 17.2618 15.2468 17.2835 15.2161L16.4678 14.6377ZM15.8398 15.3398L16.5065 16.0852C16.5342 16.0605 16.5605 16.0342 16.5852 16.0065L15.8398 15.3398ZM15.1377 15.9678L15.7161 16.7835C15.7468 16.7618 15.7762 16.7383 15.8043 16.7132L15.1377 15.9678ZM14.3691 16.5127L14.8525 17.3881C14.8853 17.37 14.917 17.3501 14.9475 17.3285L14.3691 16.5127ZM13.5449 16.9678L13.9284 17.8913C13.9626 17.8771 13.9959 17.8611 14.0283 17.8432L13.5449 16.9678ZM12.6748 17.3291L12.9516 18.29C12.9878 18.2796 13.0235 18.2671 13.0583 18.2526L12.6748 17.3291ZM11.7695 17.5898L11.9365 18.5758C11.9735 18.5695 12.0102 18.5612 12.0463 18.5508L11.7695 17.5898ZM10.8408 17.7471L10.8968 18.7455C10.934 18.7434 10.971 18.7393 11.0077 18.733L10.8408 17.7471ZM9.90039 17.7998L9.8444 18.7982C9.8817 18.8003 9.91908 18.8003 9.95638 18.7982L9.90039 17.7998ZM8.95996 17.7471L8.79304 18.733C8.82976 18.7393 8.86679 18.7434 8.90397 18.7455L8.95996 17.7471ZM8.03125 17.5898L7.75448 18.5508C7.79059 18.5612 7.82727 18.5695 7.86433 18.5758L8.03125 17.5898ZM7.12598 17.3291L6.74247 18.2526C6.77731 18.2671 6.81295 18.2796 6.8492 18.29L7.12598 17.3291ZM6.25586 16.9678L5.77295 17.8434C5.80517 17.8612 5.83836 17.8772 5.87235 17.8913L6.25586 16.9678ZM5.43066 16.5127L4.85178 17.3281C4.88261 17.35 4.91465 17.3701 4.94775 17.3884L5.43066 16.5127ZM4.66309 15.9678L3.99699 16.7136C4.02474 16.7384 4.05386 16.7616 4.08421 16.7832L4.66309 15.9678ZM3.95996 15.3398L3.21404 16.0059C3.23912 16.034 3.26577 16.0606 3.29386 16.0857L3.95996 15.3398ZM3.33301 14.6377L2.51774 15.2168C2.53922 15.247 2.56238 15.2761 2.58709 15.3037L3.33301 14.6377ZM2.78711 13.8691L1.91168 14.3525C1.92991 14.3855 1.95 14.4175 1.97184 14.4482L2.78711 13.8691ZM2.33203 13.0449L1.40813 13.4275C1.4224 13.462 1.43858 13.4956 1.4566 13.5283L2.33203 13.0449ZM1.97168 12.1748L1.01074 12.4516C1.0211 12.4875 1.03346 12.5229 1.04778 12.5574L1.97168 12.1748ZM1.71094 11.2695L0.725138 11.4375C0.731393 11.4742 0.739694 11.5105 0.750003 11.5463L1.71094 11.2695ZM1.55273 10.3408L0.554303 10.3968C0.556407 10.4343 0.560624 10.4717 0.566935 10.5087L1.55273 10.3408ZM1.5 9.40039L0.501568 9.3444C0.499477 9.3817 0.499477 9.41908 0.501568 9.45638L1.5 9.40039ZM1.55273 8.45996L0.566935 8.29203C0.560624 8.32908 0.556407 8.36645 0.554303 8.40397L1.55273 8.45996ZM1.71094 7.53125L0.750003 7.25448C0.739694 7.29027 0.731393 7.32661 0.725138 7.36332L1.71094 7.53125ZM1.97168 6.62598L1.04778 6.24335C1.03346 6.27791 1.0211 6.31325 1.01074 6.3492L1.97168 6.62598ZM2.33203 5.75586L1.45636 5.27295C1.43844 5.30545 1.42233 5.33893 1.40813 5.37323L2.33203 5.75586ZM2.78711 4.93066L1.97219 4.35109C1.95011 4.38213 1.92983 4.4144 1.91144 4.44775L2.78711 4.93066ZM3.33301 4.16309L2.58663 3.49756C2.56222 3.52494 2.53934 3.55363 2.51809 3.58352L3.33301 4.16309ZM3.95996 3.45996L3.29444 2.71358C3.26597 2.73897 3.23897 2.76597 3.21358 2.79444L3.95996 3.45996ZM4.66309 2.83301L4.08352 2.01809C4.05363 2.03934 4.02494 2.06222 3.99756 2.08663L4.66309 2.83301ZM5.43066 2.28711L4.94775 1.41144C4.9144 1.42983 4.88213 1.45011 4.85109 1.47219L5.43066 2.28711ZM6.25586 1.83203L5.87323 0.908128C5.83893 0.922332 5.80545 0.938436 5.77295 0.956363L6.25586 1.83203ZM7.12598 1.47168L6.8492 0.510745C6.81325 0.521099 6.77791 0.533462 6.74335 0.547777L7.12598 1.47168ZM8.03125 1.21094L7.86332 0.225138C7.82661 0.231393 7.79027 0.239694 7.75448 0.250003L8.03125 1.21094ZM8.95996 1.05273L8.90397 0.0543029C8.86645 0.0564069 8.82908 0.0606243 8.79203 0.0669351L8.95996 1.05273ZM9.90039 1L9.95638 0.0015685C9.91908 -0.000522852 9.8817 -0.000522852 9.8444 0.0015685L9.90039 1ZM10.8408 1.05273L10.6729 2.03853L11.6016 2.19674L11.7695 1.21094L11.9375 0.225138L11.0087 0.0669351L10.8408 1.05273ZM11.7695 1.21094L11.4928 2.17187L12.398 2.43261L12.6748 1.47168L12.9516 0.510745L12.0463 0.250003L11.7695 1.21094ZM12.6748 1.47168L12.2922 2.39558L13.1623 2.75593L13.5449 1.83203L13.9275 0.908128L13.0574 0.547777L12.6748 1.47168ZM13.5449 1.83203L13.0616 2.70746L13.8858 3.16254L14.3691 2.28711L14.8525 1.41168L14.0283 0.956605L13.5449 1.83203ZM14.3691 2.28711L13.7901 3.10238L14.5586 3.64828L15.1377 2.83301L15.7168 2.01774L14.9482 1.47184L14.3691 2.28711ZM15.1377 2.83301L14.4717 3.57893L15.1738 4.20588L15.8398 3.45996L16.5059 2.71404L15.8037 2.08709L15.1377 2.83301ZM15.8398 3.45996L15.094 4.12606L15.7219 4.82918L16.4678 4.16309L17.2136 3.49699L16.5857 2.79386L15.8398 3.45996ZM16.4678 4.16309L15.6524 4.74197L16.1973 5.50954L17.0127 4.93066L17.8281 4.35178L17.2832 3.58421L16.4678 4.16309ZM17.0127 4.93066L16.137 5.41358L16.5921 6.23877L17.4678 5.75586L18.3434 5.27295L17.8884 4.44775L17.0127 4.93066ZM17.4678 5.75586L16.5442 6.13937L16.9056 7.00949L17.8291 6.62598L18.7526 6.24247L18.3913 5.37235L17.4678 5.75586ZM17.8291 6.62598L16.8682 6.90275L17.1289 7.80802L18.0898 7.53125L19.0508 7.25448L18.79 6.3492L17.8291 6.62598ZM18.0898 7.53125L17.1039 7.69817L17.2611 8.62688L18.2471 8.45996L19.233 8.29304L19.0758 7.36433L18.0898 7.53125ZM18.2471 8.45996L17.2486 8.51595L17.3014 9.45638L18.2998 9.40039L19.2982 9.3444L19.2455 8.40397L18.2471 8.45996ZM18.2998 9.40039L17.3014 9.3444L17.2486 10.2848L18.2471 10.3408L19.2455 10.3968L19.2982 9.45638L18.2998 9.40039ZM18.2471 10.3408L17.2611 10.1739L17.1039 11.1026L18.0898 11.2695L19.0758 11.4365L19.233 10.5077L18.2471 10.3408ZM18.0898 11.2695L17.1289 10.9928L16.8682 11.898L17.8291 12.1748L18.79 12.4516L19.0508 11.5463L18.0898 11.2695ZM17.8291 12.1748L16.9056 11.7913L16.5442 12.6614L17.4678 13.0449L18.3913 13.4284L18.7526 12.5583L17.8291 12.1748ZM17.4678 13.0449L16.5923 12.5616L16.1373 13.3858L17.0127 13.8691L17.8881 14.3525L18.3432 13.5283L17.4678 13.0449ZM17.0127 13.8691L16.1969 13.2907L15.652 14.0593L16.4678 14.6377L17.2835 15.2161L17.8285 14.4475L17.0127 13.8691ZM16.4678 14.6377L15.7224 13.9711L15.0944 14.6732L15.8398 15.3398L16.5852 16.0065L17.2132 15.3043L16.4678 14.6377ZM15.8398 15.3398L15.1732 14.5944L14.4711 15.2224L15.1377 15.9678L15.8043 16.7132L16.5065 16.0852L15.8398 15.3398ZM15.1377 15.9678L14.5593 15.152L13.7907 15.6969L14.3691 16.5127L14.9475 17.3285L15.7161 16.7835L15.1377 15.9678ZM14.3691 16.5127L13.8858 15.6373L13.0616 16.0923L13.5449 16.9678L14.0283 17.8432L14.8525 17.3881L14.3691 16.5127ZM13.5449 16.9678L13.1614 16.0442L12.2913 16.4056L12.6748 17.3291L13.0583 18.2526L13.9284 17.8913L13.5449 16.9678ZM12.6748 17.3291L12.398 16.3682L11.4928 16.6289L11.7695 17.5898L12.0463 18.5508L12.9516 18.29L12.6748 17.3291ZM11.7695 17.5898L11.6026 16.6039L10.6739 16.7611L10.8408 17.7471L11.0077 18.733L11.9365 18.5758L11.7695 17.5898ZM10.8408 17.7471L10.7848 16.7486L9.8444 16.8014L9.90039 17.7998L9.95638 18.7982L10.8968 18.7455L10.8408 17.7471ZM9.90039 17.7998L9.95638 16.8014L9.01595 16.7486L8.95996 17.7471L8.90397 18.7455L9.8444 18.7982L9.90039 17.7998ZM8.95996 17.7471L9.12688 16.7611L8.19817 16.6039L8.03125 17.5898L7.86433 18.5758L8.79304 18.733L8.95996 17.7471ZM8.03125 17.5898L8.30802 16.6289L7.40275 16.3682L7.12598 17.3291L6.8492 18.29L7.75448 18.5508L8.03125 17.5898ZM7.12598 17.3291L7.50949 16.4056L6.63937 16.0442L6.25586 16.9678L5.87235 17.8913L6.74247 18.2526L7.12598 17.3291ZM6.25586 16.9678L6.73877 16.0921L5.91358 15.637L5.43066 16.5127L4.94775 17.3884L5.77295 17.8434L6.25586 16.9678ZM5.43066 16.5127L6.00954 15.6973L5.24197 15.1524L4.66309 15.9678L4.08421 16.7832L4.85178 17.3281L5.43066 16.5127ZM4.66309 15.9678L5.32918 15.2219L4.62606 14.594L3.95996 15.3398L3.29386 16.0857L3.99699 16.7136L4.66309 15.9678ZM3.95996 15.3398L4.70588 14.6738L4.07893 13.9717L3.33301 14.6377L2.58709 15.3037L3.21404 16.0059L3.95996 15.3398ZM3.33301 14.6377L4.14828 14.0586L3.60238 13.2901L2.78711 13.8691L1.97184 14.4482L2.51774 15.2168L3.33301 14.6377ZM2.78711 13.8691L3.66254 13.3858L3.20746 12.5616L2.33203 13.0449L1.4566 13.5283L1.91168 14.3525L2.78711 13.8691ZM2.33203 13.0449L3.25593 12.6623L2.89558 11.7922L1.97168 12.1748L1.04778 12.5574L1.40813 13.4275L2.33203 13.0449ZM1.97168 12.1748L2.93261 11.898L2.67187 10.9928L1.71094 11.2695L0.750003 11.5463L1.01074 12.4516L1.97168 12.1748ZM1.71094 11.2695L2.69674 11.1016L2.53853 10.1729L1.55273 10.3408L0.566935 10.5087L0.725138 11.4375L1.71094 11.2695ZM1.55273 10.3408L2.55117 10.2848L2.49843 9.3444L1.5 9.40039L0.501568 9.45638L0.554303 10.3968L1.55273 10.3408ZM1.5 9.40039L2.49843 9.45638L2.55117 8.51595L1.55273 8.45996L0.554303 8.40397L0.501568 9.3444L1.5 9.40039ZM1.55273 8.45996L2.53853 8.62789L2.69674 7.69918L1.71094 7.53125L0.725138 7.36332L0.566935 8.29203L1.55273 8.45996ZM1.71094 7.53125L2.67187 7.80802L2.93261 6.90275L1.97168 6.62598L1.01074 6.3492L0.750003 7.25448L1.71094 7.53125ZM1.97168 6.62598L2.89558 7.0086L3.25593 6.13849L2.33203 5.75586L1.40813 5.37323L1.04778 6.24335L1.97168 6.62598ZM2.33203 5.75586L3.2077 6.23877L3.66278 5.41358L2.78711 4.93066L1.91144 4.44775L1.45636 5.27295L2.33203 5.75586ZM2.78711 4.93066L3.60203 5.51023L4.14793 4.74266L3.33301 4.16309L2.51809 3.58352L1.97219 4.35109L2.78711 4.93066ZM3.33301 4.16309L4.07939 4.82861L4.70634 4.12548L3.95996 3.45996L3.21358 2.79444L2.58663 3.49756L3.33301 4.16309ZM3.95996 3.45996L4.62548 4.20634L5.32861 3.57939L4.66309 2.83301L3.99756 2.08663L3.29444 2.71358L3.95996 3.45996ZM4.66309 2.83301L5.24266 3.64793L6.01023 3.10203L5.43066 2.28711L4.85109 1.47219L4.08352 2.01809L4.66309 2.83301ZM5.43066 2.28711L5.91358 3.16278L6.73877 2.7077L6.25586 1.83203L5.77295 0.956363L4.94775 1.41144L5.43066 2.28711ZM6.25586 1.83203L6.63849 2.75593L7.5086 2.39558L7.12598 1.47168L6.74335 0.547777L5.87323 0.908128L6.25586 1.83203ZM7.12598 1.47168L7.40275 2.43261L8.30802 2.17187L8.03125 1.21094L7.75448 0.250003L6.8492 0.510745L7.12598 1.47168ZM8.03125 1.21094L8.19918 2.19674L9.12789 2.03853L8.95996 1.05273L8.79203 0.0669351L7.86332 0.225138L8.03125 1.21094ZM8.95996 1.05273L9.01595 2.05117L9.95638 1.99843L9.90039 1L9.8444 0.0015685L8.90397 0.0543029L8.95996 1.05273ZM9.90039 1L9.8444 1.99843L10.7848 2.05117L10.8408 1.05273L10.8968 0.0543029L9.95638 0.0015685L9.90039 1Z" fill="#F90B0B"/>
<path d="M6.6001 12.6996L9.9001 9.39961L13.2001 12.6996M13.2001 6.09961L9.89947 9.39961L6.6001 6.09961" stroke="white" stroke-width="1.4" stroke-linecap="round" stroke-linejoin="round"/>
</svg>
