<svg width="25" height="24" viewBox="0 0 25 24" fill="none" xmlns="http://www.w3.org/2000/svg">
<path d="M12.5794 2.25001C7.78535 2.25001 3.84535 5.91301 3.46135 10.583H2.50035C2.35167 10.5829 2.20631 10.6271 2.08276 10.7098C1.9592 10.7925 1.86302 10.9101 1.80644 11.0476C1.74985 11.1851 1.73541 11.3363 1.76495 11.482C1.7945 11.6277 1.86669 11.7614 1.97235 11.866L3.65235 13.532C3.79281 13.6712 3.98258 13.7494 4.18035 13.7494C4.37813 13.7494 4.5679 13.6712 4.70835 13.532L6.38835 11.866C6.49402 11.7614 6.56621 11.6277 6.59575 11.482C6.6253 11.3363 6.61086 11.1851 6.55427 11.0476C6.49769 10.9101 6.40151 10.7925 6.27795 10.7098C6.1544 10.6271 6.00904 10.5829 5.86035 10.583H4.96735C5.34735 6.75201 8.60535 3.75001 12.5794 3.75001C13.8896 3.74748 15.1785 4.08107 16.323 4.71888C17.4675 5.35669 18.4293 6.27741 19.1164 7.39301C19.1666 7.47958 19.2337 7.55521 19.3137 7.61544C19.3936 7.67566 19.4849 7.71928 19.5819 7.7437C19.679 7.76812 19.78 7.77286 19.879 7.75764C19.9779 7.74242 20.0728 7.70755 20.158 7.65507C20.2433 7.6026 20.3172 7.53359 20.3753 7.45211C20.4335 7.37063 20.4748 7.27834 20.4967 7.18066C20.5186 7.08298 20.5208 6.9819 20.503 6.88338C20.4853 6.78486 20.448 6.69089 20.3934 6.60701C19.5722 5.27342 18.4227 4.17267 17.0549 3.40988C15.6871 2.64709 14.1455 2.24775 12.5794 2.25001Z" fill="#161C2D"/>
<path opacity="0.5" d="M21.3417 10.4664C21.2013 10.3277 21.012 10.25 20.8147 10.25C20.6174 10.25 20.428 10.3277 20.2877 10.4664L18.6007 12.1324C18.4947 12.2369 18.4222 12.3705 18.3925 12.5163C18.3627 12.6621 18.377 12.8135 18.4335 12.9511C18.49 13.0888 18.5862 13.2065 18.7098 13.2894C18.8334 13.3722 18.9789 13.4164 19.1277 13.4164H20.0267C19.6457 17.2464 16.3757 20.2494 12.3827 20.2494C11.0684 20.2527 9.77506 19.9197 8.6259 19.2818C7.47674 18.6439 6.50998 17.7226 5.81767 16.6054C5.76695 16.5195 5.69961 16.4446 5.61959 16.385C5.53957 16.3255 5.44848 16.2825 5.35165 16.2586C5.25482 16.2347 5.15419 16.2303 5.05566 16.2458C4.95712 16.2613 4.86266 16.2962 4.7778 16.3486C4.69294 16.401 4.61938 16.4698 4.56143 16.551C4.50349 16.6322 4.46232 16.7241 4.44033 16.8214C4.41834 16.9187 4.41598 17.0194 4.43338 17.1176C4.45078 17.2158 4.48759 17.3096 4.54167 17.3934C5.36825 18.728 6.52261 19.829 7.8949 20.5914C9.2672 21.3539 10.8118 21.7525 12.3817 21.7494C17.1907 21.7494 21.1477 18.0894 21.5327 13.4164H22.5007C22.6495 13.4164 22.7949 13.3722 22.9186 13.2894C23.0422 13.2065 23.1384 13.0888 23.1949 12.9511C23.2514 12.8135 23.2656 12.6621 23.2359 12.5163C23.2061 12.3705 23.1336 12.2369 23.0277 12.1324L21.3417 10.4664Z" fill="#161C2D"/>
</svg>
