<svg width="32" height="31" viewBox="0 0 32 31" fill="none" xmlns="http://www.w3.org/2000/svg">
<circle cx="15.5" cy="15.5" r="15.5" transform="matrix(-1 0 0 1 31.5 0)" fill="#2C2A72"/>
<path fill-rule="evenodd" clip-rule="evenodd" d="M13.2901 11.7031L13.45 11.3147C13.7586 10.5653 14.4889 10.0762 15.2994 10.0762H17.9106C18.7211 10.0762 19.4514 10.5653 19.76 11.3147L19.9199 11.7031H20.5C22.1569 11.7031 23.5 13.0462 23.5 14.7031V17.9997C23.5 19.6565 22.1569 20.9997 20.5 20.9997H12.5C10.8431 20.9997 9.5 19.6565 9.5 17.9997L9.5 14.7031C9.5 13.0462 10.8431 11.7031 12.5 11.7031H13.2901Z" fill="#BBBBBB" fill-opacity="0.25"/>
<path d="M13.2901 11.7031V12.2031H13.6249L13.7524 11.8935L13.2901 11.7031ZM13.45 11.3147L13.9123 11.5051L13.45 11.3147ZM19.76 11.3147L20.2223 11.1244V11.1244L19.76 11.3147ZM19.9199 11.7031L19.4575 11.8935L19.585 12.2031H19.9199V11.7031ZM13.2901 11.7031L13.7524 11.8935L13.9123 11.5051L13.45 11.3147L12.9876 11.1244L12.8277 11.5127L13.2901 11.7031ZM13.45 11.3147L13.9123 11.5051C14.1438 10.943 14.6915 10.5762 15.2994 10.5762V10.0762V9.57617C14.2863 9.57617 13.3734 10.1876 12.9876 11.1244L13.45 11.3147ZM15.2994 10.0762V10.5762L17.9106 10.5762V10.0762V9.57617H15.2994V10.0762ZM17.9106 10.0762V10.5762C18.5184 10.5762 19.0662 10.943 19.2976 11.5051L19.76 11.3147L20.2223 11.1244C19.8366 10.1876 18.9237 9.57617 17.9106 9.57617V10.0762ZM19.76 11.3147L19.2976 11.5051L19.4575 11.8935L19.9199 11.7031L20.3822 11.5127L20.2223 11.1244L19.76 11.3147ZM19.9199 11.7031V12.2031H20.5V11.7031V11.2031H19.9199V11.7031ZM20.5 11.7031V12.2031C21.8807 12.2031 23 13.3224 23 14.7031L23.5 14.7031H24C24 12.7701 22.433 11.2031 20.5 11.2031V11.7031ZM23.5 14.7031L23 14.7031V17.9997L23.5 17.9997H24V14.7031H23.5ZM23.5 17.9997L23 17.9997C23 19.3804 21.8807 20.4997 20.5 20.4997V20.9997V21.4997C22.433 21.4997 24 19.9327 24 17.9997H23.5ZM20.5 20.9997V20.4997H12.5V20.9997V21.4997H20.5V20.9997ZM12.5 20.9997V20.4997C11.1193 20.4997 10 19.3804 10 17.9997H9.5H9C9 19.9327 10.567 21.4997 12.5 21.4997V20.9997ZM9.5 17.9997H10L10 14.7031H9.5H9L9 17.9997H9.5ZM9.5 14.7031H10C10 13.3224 11.1193 12.2031 12.5 12.2031V11.7031V11.2031C10.567 11.2031 9 12.7701 9 14.7031H9.5ZM12.5 11.7031V12.2031H13.2901V11.7031V11.2031H12.5V11.7031Z" fill="white"/>
<path d="M15.0665 13.6346C15.9618 13.1541 17.0382 13.1541 17.9335 13.6346L18.0976 13.7227C18.9803 14.1965 19.5311 15.1172 19.5311 16.119V16.119C19.5311 17.1209 18.9803 18.0416 18.0976 18.5153L17.9335 18.6034C17.0382 19.084 15.9618 19.084 15.0665 18.6034L14.9024 18.5153C14.0197 18.0416 13.4689 17.1209 13.4689 16.119V16.119C13.4689 15.1172 14.0197 14.1965 14.9024 13.7227L15.0665 13.6346Z" stroke="white" stroke-linecap="round" stroke-linejoin="round"/>
</svg>
