<svg width="24" height="24" viewBox="0 0 24 24" fill="none" xmlns="http://www.w3.org/2000/svg">
<path d="M20.0308 6.34102L12.1847 2.85179C12.1269 2.82463 12.0639 2.81055 12.0001 2.81055C11.9363 2.81055 11.8732 2.82463 11.8155 2.85179L3.96931 6.34102C3.88818 6.37641 3.81893 6.43439 3.76983 6.50804C3.72074 6.58169 3.69385 6.6679 3.69238 6.7564V9.23025C3.69238 13.7718 6.40623 19.2733 11.8339 21.1749C11.9417 21.2114 12.0585 21.2114 12.1662 21.1749C17.5939 19.2733 20.3078 13.7718 20.3078 9.23025V6.7564C20.3063 6.6679 20.2794 6.58169 20.2303 6.50804C20.1812 6.43439 20.112 6.37641 20.0308 6.34102ZM16.3275 9.3964L11.4536 15.6013C11.3828 15.6908 11.2939 15.7643 11.1927 15.8171C11.0916 15.8699 10.9804 15.9008 10.8665 15.9078L10.8185 15.9096C10.6039 15.9093 10.3982 15.824 10.2462 15.6724L7.73546 13.1616C7.58404 13.0098 7.49912 12.8041 7.49938 12.5897C7.49964 12.3753 7.58506 12.1698 7.73684 12.0184C7.88863 11.867 8.09435 11.7821 8.30875 11.7823C8.52314 11.7826 8.72866 11.868 8.88007 12.0198L10.7465 13.8862L15.0573 8.39856C15.1921 8.23705 15.3845 8.13442 15.5937 8.11244C15.8028 8.09046 16.0124 8.15085 16.1778 8.28081C16.3432 8.41077 16.4514 8.60007 16.4795 8.80852C16.5076 9.01698 16.4534 9.22818 16.3284 9.39733L16.3275 9.3964Z" fill="#7A8389"/>
</svg>
