<svg width="24" height="25" viewBox="0 0 24 25" fill="none" xmlns="http://www.w3.org/2000/svg">
<path d="M20.5816 11.8465L4.74585 2.97843C4.61262 2.90383 4.4598 2.87166 4.30781 2.88624C4.15582 2.90081 4.0119 2.96143 3.89528 3.05999C3.77866 3.15855 3.6949 3.29035 3.65519 3.43779C3.61549 3.58523 3.62173 3.74127 3.67309 3.88506L6.66006 12.2486C6.71832 12.4117 6.71832 12.59 6.66006 12.7531L3.67309 21.1166C3.62173 21.2604 3.61549 21.4165 3.65519 21.5639C3.6949 21.7113 3.77866 21.8431 3.89528 21.9417C4.0119 22.0403 4.15582 22.1009 4.30781 22.1155C4.45981 22.13 4.61263 22.0979 4.74585 22.0233L20.5816 13.1552C20.6979 13.0901 20.7948 12.9951 20.8622 12.8801C20.9296 12.7651 20.9652 12.6342 20.9652 12.5008C20.9652 12.3675 20.9296 12.2366 20.8622 12.1216C20.7948 12.0066 20.6979 11.9116 20.5816 11.8465Z" fill="white"/>
<path d="M6.75 12.5H12.75" stroke="#2C2A72" stroke-width="1.5" stroke-linecap="round" stroke-linejoin="round"/>
</svg>
