<svg width="16" height="17" viewBox="0 0 16 17" fill="none" xmlns="http://www.w3.org/2000/svg">
<path d="M12 11.2197C11.4933 11.2197 11.04 11.4197 10.6933 11.733L5.94 8.96634C5.97333 8.81301 6 8.65967 6 8.49967C6 8.33967 5.97333 8.18634 5.94 8.03301L10.64 5.29301C11 5.62634 11.4733 5.83301 12 5.83301C13.1067 5.83301 14 4.93967 14 3.83301C14 2.72634 13.1067 1.83301 12 1.83301C10.8933 1.83301 10 2.72634 10 3.83301C10 3.99301 10.0267 4.14634 10.06 4.29967L5.36 7.03967C5 6.70634 4.52667 6.49967 4 6.49967C2.89333 6.49967 2 7.39301 2 8.49967C2 9.60634 2.89333 10.4997 4 10.4997C4.52667 10.4997 5 10.293 5.36 9.95967L10.1067 12.733C10.0733 12.873 10.0533 13.0197 10.0533 13.1663C10.0533 14.2397 10.9267 15.113 12 15.113C13.0733 15.113 13.9467 14.2397 13.9467 13.1663C13.9467 12.093 13.0733 11.2197 12 11.2197Z" fill="#2C2A72"/>
</svg>
