<svg width="19" height="23" viewBox="0 0 19 23" fill="none" xmlns="http://www.w3.org/2000/svg">
<path fill-rule="evenodd" clip-rule="evenodd" d="M16.0002 5.05018V4.50018C16.0003 4.12604 15.9164 3.75663 15.7548 3.41921C15.5931 3.08179 15.3578 2.78496 15.0661 2.5506C14.7745 2.31624 14.4339 2.15033 14.0696 2.06511C13.7053 1.97988 13.3265 1.97752 12.9612 2.05818C12.8579 1.48058 12.5548 0.957697 12.1049 0.581063C11.655 0.204429 11.0869 -0.00195312 10.5002 -0.00195312C9.9134 -0.00195312 9.34534 0.204429 8.89542 0.581063C8.4455 0.957697 8.14239 1.48058 8.03915 2.05818C7.67381 1.97752 7.29501 1.97988 6.9307 2.06511C6.56639 2.15033 6.22585 2.31624 5.9342 2.5506C5.64254 2.78496 5.40721 3.08179 5.24555 3.41921C5.0839 3.75663 5.00003 4.12604 5.00015 4.50018V9.46218C4.73283 9.2357 4.44102 9.03981 4.13015 8.87818C3.11015 8.36018 2.12015 8.44018 1.07715 8.86618C0.237154 9.21118 -0.029846 10.1742 0.330154 10.8942L3.17215 16.5782C3.83651 17.9068 4.85764 19.0241 6.12117 19.8051C7.38471 20.5862 8.84073 20.9999 10.3262 21.0002H11.0002C13.1219 21.0002 15.1567 20.1573 16.657 18.657C18.1573 17.1567 19.0002 15.1219 19.0002 13.0002V7.50018C19.0002 7.12943 18.9178 6.76329 18.759 6.4283C18.6001 6.09332 18.3687 5.79786 18.0815 5.56334C17.7943 5.32883 17.4586 5.16112 17.0986 5.07236C16.7386 4.98361 16.3634 4.97603 16.0002 5.05018ZM8.00015 4.50018C8.00015 4.36758 7.94748 4.2404 7.85371 4.14663C7.75994 4.05286 7.63276 4.00018 7.50015 4.00018C7.36755 4.00018 7.24037 4.05286 7.1466 4.14663C7.05283 4.2404 7.00015 4.36758 7.00015 4.50018V12.0002C6.99999 12.2072 6.93558 12.4091 6.8158 12.578C6.69602 12.7468 6.52679 12.8743 6.33145 12.9429C6.13611 13.0115 5.9243 13.0178 5.72524 12.9609C5.52619 12.904 5.34971 12.7867 5.22015 12.6252C4.29515 11.4692 3.70315 10.9052 3.22515 10.6612C2.97014 10.5225 2.67348 10.4809 2.39015 10.5442L4.96015 15.6842C5.45853 16.6806 6.22449 17.5186 7.17223 18.1042C8.11997 18.6899 9.21205 19.0001 10.3262 19.0002H11.0002C12.5915 19.0002 14.1176 18.368 15.2428 17.2428C16.368 16.1176 17.0002 14.5915 17.0002 13.0002V7.50018C17.0002 7.36758 16.9475 7.2404 16.8537 7.14663C16.7599 7.05286 16.6328 7.00018 16.5002 7.00018C16.3675 7.00018 16.2404 7.05286 16.1466 7.14663C16.0528 7.2404 16.0002 7.36758 16.0002 7.50018V10.0002C16.0002 10.2654 15.8948 10.5198 15.7073 10.7073C15.5197 10.8948 15.2654 11.0002 15.0002 11.0002C14.7349 11.0002 14.4806 10.8948 14.293 10.7073C14.1055 10.5198 14.0002 10.2654 14.0002 10.0002V4.50018C14.0002 4.36758 13.9475 4.2404 13.8537 4.14663C13.7599 4.05286 13.6328 4.00018 13.5002 4.00018C13.3675 4.00018 13.2404 4.05286 13.1466 4.14663C13.0528 4.2404 13.0002 4.36758 13.0002 4.50018V9.00018C13.0002 9.2654 12.8948 9.51975 12.7073 9.70729C12.5197 9.89483 12.2654 10.0002 12.0002 10.0002C11.7349 10.0002 11.4806 9.89483 11.293 9.70729C11.1055 9.51975 11.0002 9.2654 11.0002 9.00018V2.50018C11.0002 2.36758 10.9475 2.2404 10.8537 2.14663C10.7599 2.05286 10.6328 2.00018 10.5002 2.00018C10.3675 2.00018 10.2404 2.05286 10.1466 2.14663C10.0528 2.2404 10.0002 2.36758 10.0002 2.50018V10.0002C10.0002 10.2654 9.8948 10.5198 9.70726 10.7073C9.51972 10.8948 9.26537 11.0002 9.00015 11.0002C8.73494 11.0002 8.48058 10.8948 8.29305 10.7073C8.10551 10.5198 8.00015 10.2654 8.00015 10.0002V4.50018Z" fill="white"/>
</svg>
