<svg width="21" height="16" viewBox="0 0 21 16" fill="none" xmlns="http://www.w3.org/2000/svg">
<path d="M14.5212 9.05347L15.124 9.63508C14.9663 9.79853 14.749 9.89093 14.5219 9.8911C14.2947 9.89128 14.0773 9.7992 13.9193 9.63599L14.5212 9.05347ZM10.8845 5.29563L10.2992 4.6964C10.4586 4.54071 10.6735 4.45494 10.8963 4.45808C11.1191 4.46122 11.3314 4.55299 11.4864 4.71311L10.8845 5.29563ZM19.1607 3.03863C19.4819 2.70571 20.0122 2.69622 20.3451 3.01744C20.678 3.33865 20.6875 3.86893 20.3663 4.20185L19.1607 3.03863ZM14.5212 9.05347L13.9193 9.63599L10.2826 5.87816L10.8845 5.29563L11.4864 4.71311L15.1232 8.47094L14.5212 9.05347ZM10.8845 5.29563L11.4698 5.89487L4.26609 12.9308L3.68081 12.3316L3.09553 11.7323L10.2992 4.6964L10.8845 5.29563ZM14.5212 9.05347L13.9184 8.47186L19.1607 3.03863L19.7635 3.62024L20.3663 4.20185L15.124 9.63508L14.5212 9.05347Z" fill="#F04438"/>
<path d="M2.93721 12.8901C2.72244 12.9042 2.55022 12.7151 2.58436 12.5026L3.23168 8.47374C3.2762 8.19664 3.62126 8.09379 3.81022 8.3013L7.23462 12.0618C7.42357 12.2693 7.28896 12.6033 7.00892 12.6218L2.93721 12.8901Z" fill="#F04438"/>
</svg>
