<svg width="24" height="18" viewBox="0 0 24 18" fill="none" xmlns="http://www.w3.org/2000/svg">
<path d="M2.76923 0.692383C1.24062 0.692383 0 1.933 0 3.46161V14.5385C0 16.0672 1.24062 17.3078 2.76923 17.3078H21.2308C22.7594 17.3078 24 16.0672 24 14.5385V3.46161C24 1.933 22.7594 0.692383 21.2308 0.692383H2.76923ZM2.76923 2.53854H21.2308C21.7394 2.53854 22.1538 2.953 22.1538 3.46161V3.92315L12 9.40438L1.84615 3.92315V3.46161C1.84615 2.953 2.26062 2.53854 2.76923 2.53854ZM1.84615 4.18254L7.87477 8.88469L1.96154 14.9428L9.17354 9.80777L12 11.6253L14.8274 9.80777L22.0385 14.9428L16.1252 8.88469L22.1538 4.18254V14.5385C22.1487 14.6807 22.1091 14.8194 22.0385 14.9428C21.8862 15.2428 21.5898 15.4616 21.2308 15.4616H2.76923C2.41015 15.4616 2.11385 15.2438 1.96154 14.9428C1.891 14.8197 1.85141 14.6804 1.84615 14.5385V4.18254Z" fill="#667085"/>
</svg>
