<svg width="36" height="37" viewBox="0 0 36 37" fill="none" xmlns="http://www.w3.org/2000/svg">
<rect x="0.5" y="1" width="35" height="35" rx="17.5" fill="#F8F6FE" stroke="url(#paint0_linear_948_16399)"/>
<path d="M18.0007 11.3008L7.05469 15.4056L18.0007 20.8786L23.2141 18.2719L18.3233 16.7766C18.2226 16.8249 18.1124 16.8501 18.0007 16.8503C17.8017 16.8503 17.611 16.7713 17.4703 16.6306C17.3297 16.49 17.2507 16.2992 17.2507 16.1003C17.2507 15.9014 17.3297 15.7106 17.4703 15.57C17.611 15.4293 17.8017 15.3503 18.0007 15.3503L17.8766 15.7535L18.7455 16.0209L18.7459 16.0235L20.0281 16.4156L27.3288 18.6618V19.2311C27.2278 19.2998 27.1451 19.3922 27.088 19.5001C27.0308 19.608 27.0008 19.7282 27.0007 19.8504C27.0008 19.9753 27.0321 20.0982 27.0918 20.2079C27.1515 20.3177 27.2377 20.4108 27.3425 20.4788C27.0011 21.769 27.0007 24.6964 27.0007 25.8503C27.7507 26.3376 27.7507 26.3554 28.5007 25.8503C28.5007 24.6965 28.5003 21.7697 28.1589 20.4792C28.2638 20.4111 28.35 20.318 28.4097 20.2081C28.4693 20.0983 28.5006 19.9753 28.5007 19.8503C28.5006 19.728 28.4707 19.6076 28.4136 19.4996C28.3564 19.3915 28.2736 19.2991 28.1725 19.2303V18.0387L25.3917 17.1831L28.9466 15.4056L18.0007 11.3008ZM11.608 18.7722L10.9928 22.4631C12.2198 22.6236 13.6875 23.3367 15.0368 24.18C15.8041 24.6596 16.5228 25.1861 17.1066 25.6969C17.4634 26.0091 17.7617 26.3086 18.0007 26.6033C18.2396 26.3086 18.5379 26.0091 18.8948 25.6969C19.4785 25.1861 20.1972 24.6596 20.9646 24.18C22.3138 23.3367 23.7815 22.6236 25.0085 22.4631L24.3932 18.7722H24.1003L18.0007 21.822L11.901 18.7722H11.608Z" fill="#6F47EB"/>
<defs>
<linearGradient id="paint0_linear_948_16399" x1="1.09971e-07" y1="36.5" x2="32.7341" y2="9.48513" gradientUnits="userSpaceOnUse">
<stop stop-color="#F68BFF"/>
<stop offset="1" stop-color="#6F47EB"/>
</linearGradient>
</defs>
</svg>
