<svg width="36" height="37" viewBox="0 0 36 37" fill="none" xmlns="http://www.w3.org/2000/svg">
<rect y="0.5" width="36" height="36" rx="6" fill="#EEE9FD"/>
<path d="M23.0013 10.166C22.2513 10.166 21.3346 10.9993 21.3346 11.8327H14.668C14.668 10.9993 13.7513 10.166 13.0013 10.166H9.66797V17.666C9.66797 18.4993 10.5013 19.3327 11.3346 19.3327H13.168C13.5013 20.9993 14.5846 22.416 17.168 22.666V24.3993C14.668 24.7827 14.668 26.8327 14.668 26.8327H21.3346C21.3346 26.8327 21.3346 24.7827 18.8346 24.3993V22.666C21.418 22.416 22.5013 20.9993 22.8346 19.3327H24.668C25.5013 19.3327 26.3346 18.4993 26.3346 17.666V10.166H23.0013ZM13.0013 17.666H11.3346V11.8327H13.0013V17.666ZM24.668 17.666H23.0013V11.8327H24.668V17.666Z" fill="#6F47EB"/>
</svg>
