<svg width="24" height="18" viewBox="0 0 24 18" fill="none" xmlns="http://www.w3.org/2000/svg">
<path d="M21 6V3.4C21 2.075 20.12 1 19.036 1H2.964C1.879 1 1 2.075 1 3.4V14.6C1 15.925 1.88 17 2.964 17H19.036C20.121 17 21 15.925 21 14.6V12M20 9H20.01M16.6 6H21.4C21.8243 6 22.2313 6.16857 22.5314 6.46863C22.8314 6.76869 23 7.17565 23 7.6V10.4C23 10.8243 22.8314 11.2313 22.5314 11.5314C22.2313 11.8314 21.8243 12 21.4 12H16.6C16.1757 12 15.7687 11.8314 15.4686 11.5314C15.1686 11.2313 15 10.8243 15 10.4V7.6C15 7.17565 15.1686 6.76869 15.4686 6.46863C15.7687 6.16857 16.1757 6 16.6 6Z" stroke="#667085" stroke-width="1.5" stroke-linecap="round" stroke-linejoin="round"/>
</svg>
