<svg width="20" height="21" viewBox="0 0 20 21" fill="none" xmlns="http://www.w3.org/2000/svg">
<path d="M20 4.64641C19.2563 4.97266 18.4637 5.18891 17.6375 5.29391C18.4875 4.78641 19.1363 3.98891 19.4412 3.02766C18.6488 3.50016 17.7738 3.83391 16.8412 4.02016C16.0887 3.21891 15.0162 2.72266 13.8462 2.72266C11.5763 2.72266 9.74875 4.56516 9.74875 6.82391C9.74875 7.14891 9.77625 7.46141 9.84375 7.75891C6.435 7.59266 3.41875 5.95891 1.3925 3.47016C1.03875 4.08391 0.83125 4.78641 0.83125 5.54266C0.83125 6.96266 1.5625 8.22141 2.6525 8.95016C1.99375 8.93766 1.3475 8.74641 0.8 8.44516C0.8 8.45766 0.8 8.47391 0.8 8.49016C0.8 10.4827 2.22125 12.1377 4.085 12.5189C3.75125 12.6102 3.3875 12.6539 3.01 12.6539C2.7475 12.6539 2.4825 12.6389 2.23375 12.5839C2.765 14.2077 4.2725 15.4014 6.065 15.4402C4.67 16.5314 2.89875 17.1889 0.98125 17.1889C0.645 17.1889 0.3225 17.1739 0 17.1327C1.81625 18.3039 3.96875 18.9727 6.29 18.9727C13.835 18.9727 17.96 12.7227 17.96 7.30516C17.96 7.12391 17.9538 6.94891 17.945 6.77516C18.7588 6.19766 19.4425 5.47641 20 4.64641Z" fill="#2C2A72"/>
</svg>
