<svg width="27" height="27" viewBox="0 0 27 27" fill="none" xmlns="http://www.w3.org/2000/svg">
<path d="M8.25 19.7825L13.5 14.5325L18.75 19.7825L19.7825 18.75L14.5325 13.5L19.7825 8.25L18.75 7.2175L13.5 12.4675L8.25 7.2175L7.2175 8.25L12.4675 13.5L7.2175 18.75L8.25 19.7825ZM13.5044 26.625C11.6902 26.625 9.98396 26.2808 8.38562 25.5925C6.78826 24.9032 5.39847 23.9679 4.21625 22.7867C3.03403 21.6054 2.09826 20.2171 1.40896 18.6217C0.719653 17.0262 0.375 15.3205 0.375 13.5044C0.375 11.6883 0.719653 9.98201 1.40896 8.38562C2.09729 6.78826 3.03111 5.39847 4.21042 4.21625C5.38972 3.03403 6.77854 2.09826 8.37688 1.40896C9.97521 0.719653 11.6815 0.375 13.4956 0.375C15.3098 0.375 17.016 0.719653 18.6144 1.40896C20.2117 2.09729 21.6015 3.0316 22.7837 4.21187C23.966 5.39215 24.9017 6.78097 25.591 8.37833C26.2803 9.97569 26.625 11.6815 26.625 13.4956C26.625 15.3098 26.2808 17.016 25.5925 18.6144C24.9042 20.2127 23.9689 21.6025 22.7867 22.7837C21.6044 23.965 20.2161 24.9008 18.6217 25.591C17.0272 26.2813 15.3215 26.626 13.5044 26.625Z" fill="#2C2A72"/>
</svg>
