<svg width="28" height="28" viewBox="0 0 28 28" fill="none" xmlns="http://www.w3.org/2000/svg">
<path d="M14.0001 21.0005C13.4865 21.0005 12.9872 20.8311 12.5797 20.5185C12.1721 20.2059 11.8791 19.7676 11.7461 19.2715" stroke="#161C2D" stroke-width="2" stroke-linecap="round"/>
<path d="M12.1616 5.45905C12.8978 4.20721 13.2664 3.58071 13.7926 3.48738C13.9299 3.46254 14.0706 3.46254 14.2079 3.48738C14.7341 3.58071 15.1028 4.20721 15.8389 5.45905L17.7849 8.76771C19.1448 11.0802 20.206 13.5558 20.9431 16.1352C22.1413 20.327 18.9948 24.5002 14.6338 24.5002H13.3668C9.00693 24.5002 5.85926 20.327 7.05743 16.1352C7.7945 13.5558 8.85568 11.0802 10.2156 8.76771L12.1616 5.45905Z" stroke="#161C2D" stroke-width="2"/>
</svg>
