<svg width="37" height="37" viewBox="0 0 37 37" fill="none" xmlns="http://www.w3.org/2000/svg">
<g clip-path="url(#clip0_913_15960)">
<path d="M1.26984 18.2844C1.269 21.3091 2.0655 24.2625 3.58003 26.8657L1.125 35.7599L10.2983 33.3733C12.8355 34.7438 15.6782 35.462 18.567 35.4622H18.5746C28.1111 35.4622 35.874 27.7622 35.8781 18.298C35.8799 13.7119 34.0816 9.39942 30.8143 6.15495C27.5476 2.91077 23.203 1.12319 18.5739 1.12109C9.03628 1.12109 1.27392 8.82063 1.26998 18.2844" fill="url(#paint0_linear_913_15960)"/>
<path d="M0.650469 18.279C0.649484 21.4125 1.47453 24.4715 3.04306 27.1679L0.5 36.381L10.0022 33.9088C12.6203 35.3253 15.5681 36.072 18.5676 36.0732H18.5754C28.454 36.0732 36.4958 28.0962 36.5 18.2932C36.5017 13.5423 34.6387 9.07484 31.2547 5.71414C27.8703 2.35386 23.3703 0.501953 18.5754 0.5C8.69506 0.5 0.654406 8.47581 0.650469 18.279ZM6.30936 26.7035L5.95456 26.1447C4.46309 23.7916 3.67587 21.0723 3.677 18.2801C3.68009 10.132 10.3632 3.50279 18.581 3.50279C22.5607 3.50447 26.3007 5.04381 29.1138 7.83674C31.9267 10.63 33.4746 14.343 33.4736 18.2921C33.47 26.4402 26.7867 33.0702 18.5754 33.0702H18.5695C15.8958 33.0688 13.2735 32.3564 10.9867 31.01L10.4425 30.6898L4.80369 32.1567L6.30936 26.7035Z" fill="url(#paint1_linear_913_15960)"/>
<path d="M14.0967 10.8466C13.7612 10.1066 13.4081 10.0917 13.089 10.0787C12.8277 10.0675 12.529 10.0684 12.2306 10.0684C11.9319 10.0684 11.4466 10.1799 11.0364 10.6243C10.6258 11.0691 9.46875 12.1441 9.46875 14.3305C9.46875 16.5168 11.0737 18.63 11.2974 18.9267C11.5215 19.223 14.3958 23.8533 18.9481 25.6346C22.7315 27.1149 23.5014 26.8205 24.3225 26.7463C25.1438 26.6723 26.9725 25.6716 27.3456 24.6339C27.7189 23.5963 27.7189 22.7069 27.607 22.521C27.495 22.3359 27.1964 22.2247 26.7485 22.0025C26.3006 21.7804 24.0985 20.7051 23.688 20.5568C23.2774 20.4086 22.9789 20.3347 22.6802 20.7796C22.3815 21.2239 21.5238 22.2247 21.2624 22.521C21.0013 22.8181 20.7398 22.8551 20.2921 22.6328C19.8439 22.4098 18.4015 21.9411 16.6903 20.4273C15.3588 19.2494 14.46 17.7947 14.1987 17.3497C13.9374 16.9054 14.1707 16.6646 14.3953 16.4432C14.5965 16.244 14.8433 15.9242 15.0675 15.6648C15.2908 15.4053 15.3653 15.2201 15.5146 14.9238C15.6641 14.6271 15.5893 14.3676 15.4775 14.1453C15.3653 13.923 14.495 11.7252 14.0967 10.8466Z" fill="white"/>
</g>
<defs>
<linearGradient id="paint0_linear_913_15960" x1="1738.78" y1="3465.01" x2="1738.78" y2="1.12109" gradientUnits="userSpaceOnUse">
<stop stop-color="#1FAF38"/>
<stop offset="1" stop-color="#60D669"/>
</linearGradient>
<linearGradient id="paint1_linear_913_15960" x1="1800.5" y1="3588.6" x2="1800.5" y2="0.5" gradientUnits="userSpaceOnUse">
<stop stop-color="#F9F9F9"/>
<stop offset="1" stop-color="white"/>
</linearGradient>
<clipPath id="clip0_913_15960">
<rect width="36" height="36" fill="white" transform="translate(0.5 0.5)"/>
</clipPath>
</defs>
</svg>
