<svg width="19" height="18" viewBox="0 0 19 18" fill="none" xmlns="http://www.w3.org/2000/svg">
<path d="M9.72266 18C8.484 18 7.31733 17.7633 6.22266 17.29C5.128 16.816 4.17466 16.1727 3.36266 15.36C2.55066 14.5473 1.90733 13.594 1.43266 12.5C0.957995 11.406 0.721329 10.2393 0.722662 9C0.722662 7.75733 0.959329 6.58967 1.43266 5.497C1.90666 4.40367 2.54999 3.45133 3.36266 2.64C4.17533 1.82867 5.12866 1.18533 6.22266 0.71C7.31733 0.236667 8.484 0 9.72266 0C10.9653 0 12.133 0.236667 13.2257 0.71C14.319 1.184 15.2717 1.82733 16.0837 2.64C16.8957 3.45267 17.5387 4.405 18.0127 5.497C18.486 6.59033 18.7227 7.758 18.7227 9C18.7227 10.2387 18.486 11.4053 18.0127 12.5C17.5387 13.5947 16.8953 14.548 16.0827 15.36C15.27 16.172 14.3177 16.8153 13.2257 17.29C12.1337 17.7647 10.966 18.0013 9.72266 18ZM9.72266 17.008C10.3093 16.254 10.7933 15.5137 11.1747 14.787C11.5553 14.0603 11.865 13.247 12.1037 12.347H7.34166C7.60633 13.2977 7.92233 14.1363 8.28966 14.863C8.65766 15.5897 9.13533 16.3047 9.72266 17.008ZM8.44966 16.858C7.983 16.308 7.557 15.628 7.17166 14.818C6.78633 14.0087 6.49966 13.1847 6.31166 12.346H2.47666C3.05 13.5893 3.86233 14.6093 4.91366 15.406C5.96566 16.202 7.14433 16.686 8.44966 16.858ZM10.9957 16.858C12.301 16.686 13.4797 16.202 14.5317 15.406C15.583 14.6093 16.3953 13.5893 16.9687 12.346H13.1347C12.8813 13.1973 12.5623 14.0277 12.1777 14.837C11.7923 15.647 11.3983 16.3213 10.9957 16.858ZM2.06866 11.347H6.10366C6.02766 10.9363 5.97433 10.5363 5.94366 10.147C5.91166 9.75833 5.89566 9.376 5.89566 9C5.89566 8.624 5.91133 8.24167 5.94266 7.853C5.974 7.46433 6.02733 7.06433 6.10266 6.653H2.06966C1.961 6.99967 1.876 7.37733 1.81466 7.786C1.75333 8.194 1.72266 8.59867 1.72266 9C1.72266 9.40133 1.753 9.80633 1.81366 10.215C1.87433 10.6237 1.95933 11.0007 2.06866 11.346M7.10366 11.346H12.3417C12.4177 10.936 12.471 10.5427 12.5017 10.166C12.5337 9.79 12.5497 9.40133 12.5497 9C12.5497 8.59867 12.534 8.21 12.5027 7.834C12.4713 7.458 12.418 7.06467 12.3427 6.654H7.10266C7.02733 7.064 6.974 7.45733 6.94266 7.834C6.91133 8.21 6.89566 8.59867 6.89566 9C6.89566 9.40133 6.91133 9.79 6.94266 10.166C6.974 10.542 7.02833 10.9353 7.10366 11.346ZM13.3427 11.346H17.3767C17.4853 11 17.5703 10.623 17.6317 10.215C17.6923 9.80633 17.7227 9.40133 17.7227 9C17.7227 8.59867 17.6923 8.19367 17.6317 7.785C17.571 7.37633 17.486 6.99933 17.3767 6.654H13.3417C13.4177 7.064 13.471 7.46367 13.5017 7.853C13.5337 8.24233 13.5497 8.62467 13.5497 9C13.5497 9.37533 13.534 9.75767 13.5027 10.147C13.4713 10.5363 13.418 10.9363 13.3427 11.347M13.1347 5.654H16.9687C16.3827 4.38467 15.58 3.36467 14.5607 2.594C13.5413 1.82333 12.353 1.333 10.9957 1.123C11.4623 1.737 11.882 2.43933 12.2547 3.23C12.6273 4.02 12.9207 4.828 13.1347 5.654ZM7.34166 5.654H12.1037C11.8397 4.71533 11.514 3.86667 11.1267 3.108C10.7393 2.34933 10.2713 1.644 9.72266 0.992C9.174 1.64333 8.706 2.34867 8.31866 3.108C7.93133 3.86733 7.605 4.716 7.34166 5.654ZM2.47766 5.654H6.31166C6.52566 4.82867 6.81899 4.02067 7.19166 3.23C7.56433 2.43933 7.98399 1.737 8.45066 1.123C7.08133 1.33367 5.89 1.827 4.87666 2.603C3.86333 3.38033 3.06333 4.397 2.47666 5.653" fill="white"/>
</svg>
